<?xml version="1.0" encoding="utf-8"?>
<!-- Generator: Adobe Illustrator 15.1.0, SVG Export Plug-In . SVG Version: 6.00 Build 0)  -->
<!DOCTYPE svg PUBLIC "-//W3C//DTD SVG 1.1//EN" "http://www.w3.org/Graphics/SVG/1.1/DTD/svg11.dtd">
<svg version="1.1" id="Layer_1" xmlns="http://www.w3.org/2000/svg" xmlns:xlink="http://www.w3.org/1999/xlink" x="0px" y="0px"
	 width="82.126px" height="50.3px" viewBox="0 0 82.126 50.3" enable-background="new 0 0 82.126 50.3" xml:space="preserve">
<g>
	<path fill="#BF772A" d="M80.187,14.095l-2.238-2.494c0,0-3.655-3.006-7.383-3.52c-0.299-0.009-0.593-0.012-0.881-0.01
		c-2.664,0.022-4.862,0.524-4.862,0.524l-2.687-0.146l-4.399-4.986c0,0-3.431-2.494-7.384-3.007c-5.445-1.026-8.801,0-8.801,0
		l-2.759,0.661c0,0-1.891-0.733-3.281-0.294c-1.391,0.44-6.489,2.054-6.489,2.054s-6.713,0.586-11.785,1.32
		c-5.07,0.732-8.576,2.126-8.576,2.126S4.185,6.909,1.798,9.695c-2.388,2.787-1.045,8.14-1.045,8.14s-0.595,1.686-0.746,3.299
		c-0.148,1.613,2.015,4.4,2.015,4.4L1.798,27.66l0.596-0.439L2.32,28.174l2.388-4.055c0,0,0.373-2.58-0.15-3.846
		c-0.521-1.266-1.642-3.977-1.642-3.977s-0.594-3.154,0.598-4.62c1.194-1.468,2.536-0.807,2.536-0.807s-1.046,2.272-1.119,4.986
		c-0.074,2.713,1.865,8.725,1.566,10.852c-0.074,0.454-0.597,0.734-1.493,1.908c-0.892,1.172-2.534,1.54-2.61,2.711
		c-0.446,1.834,1.417,5.428,1.492,5.647C3.961,37.194,4,44.225,3.961,45.32c-0.037,1.095,0.747,1.993,0.747,1.993h1.491
		l-0.224,1.025c0,0,0.597,0.717,2.909,0.66c2.312-0.055,3.356,0,3.356,0s0.429-0.329-0.224-1.539s-2.946-3.685-3.356-6.381
		c-0.261-1.868-0.429-3.39,0.298-4.473c2.237,2.934,4.176,7.554,4.176,7.554l0.226,2.786l2.162,2.053l0.969-1.686l0.673,0.659
		c0,0-0.523,1.174,0,1.467c0.521,0.293,5.741,0,5.741,0s0.564-0.492,0.373-1.247c-0.744-0.735-2.908-2.872-2.908-2.872l-1.044-1.307
		c0,0,1.118,1.686-1.044-0.953s-2.61-7.113-2.61-7.113s0.298-4.313,3.953-5.896l2.387,3.477l3.207,2.347l2.013-1.833l1.418,0.586
		l0.373-0.439l2.313,0.953l0.148-1.246l2.759,1.54l0.672-1.394l1.939,0.733l0.521,1.1l1.046,1.173l-0.522,2.42l-0.225,2.054
		l0.821-0.515l-0.374,1.981l0.748-0.44c0,0-0.635,1.338-0.225,2.273c0.466-0.221,1.418-0.367,1.418-0.367s0.504-0.402,1.007-0.074
		c0.504,0.331-0.702,3.246-0.351,3.741c0.351,0.493,0.686,0.44,0.686,0.44l0.896,0.22l0.225,0.659c0,0,0.97,0.939,3.28,0.855
		c2.313-0.086,3.768-0.855,3.73-1.368c0.093-0.643-1.791-2.567-1.791-2.567s-0.241,0.074-0.074-0.733
		c0.168-0.806,2.088-1.704,2.389-2.933c0.297-1.229,0.146-1.1,0.146-1.1s0.84-1.265,1.643-1.467
		c0.802-0.203,1.193,1.027,1.193,1.027l0.969-1.688l0.896,0.733l0.371-1.026l1.045,0.146l0.672-1.174l1.117,0.807l1.269-2.199
		l0.672,0.807l1.043-0.88l1.567-0.22l0.373,0.88l1.268-0.146l1.566,1.687l0.521-0.514c0,0,0.225,1.541,0.971,1.723
		c2.535-1.504,3.131-3.093,3.131-3.093s1.193,1.077,2.127,0.776c0.223-0.391,0.445-0.776,0.445-0.776s2.352-0.199,3.022-1.138
		c0.672-0.938,0.464-1.668,0.464-1.668s1.923-3.377,2.334-5.65c0.408-2.273,0-2.983,0-2.983l1.31-1.438v-1.408v-1.063l1.935-2.86
		L80.187,14.095z"/>
	<g>
		<path fill="#A26C29" d="M67.959,34.822l-1.985-3.026l3.99-4.738l-11.706-3.041l3.421,12.582l0.98-0.138l0.373,0.88l1.268-0.146
			l1.566,1.687l0.521-0.514c0,0,0.225,1.541,0.971,1.723c2.535-1.504,3.131-3.093,3.131-3.093s1.193,1.077,2.127,0.776
			c0.223-0.391,0.445-0.776,0.445-0.776s2.352-0.199,3.022-1.138c0.672-0.938,0.464-1.668,0.464-1.668s1.521-2.675,2.146-4.865
			l-2.86-0.743L67.959,34.822z"/>
	</g>
	<polygon fill="none" points="29.492,14.62 14.135,12.698 28.989,28.494 	"/>
	<polygon fill="#D0952A" points="29.492,13.746 42.96,9.185 37.526,24.094 28.989,28.494 	"/>
	<path fill="#E89823" d="M56.385,21.801l1.873,2.216l11.888,2.827l-0.182,0.214l5.87,1.525l0,0l2.86,0.743
		c0.076-0.271,0.142-0.535,0.188-0.785c0.408-2.273,0-2.983,0-2.983l1.31-1.438v-1.408v-1.063l-0.229-0.147l-1.044-0.952
		l0.149-2.127l-0.597,1.467L77.8,19.302l0.223-1.907l-0.637-1.974l-0.355-0.072l-0.051,2.12l-1.119-1.613l-0.211-0.789l-1.894-0.385
		l-0.507,0.074l-0.061-0.19l-8.181-1.667L56.385,21.801z"/>
	<polygon fill="#1D1D1D" points="74.312,23.63 73.156,24.017 72.237,23.227 72.474,22.049 73.629,21.663 74.609,22.608 	"/>
	<path opacity="0.5" fill="#442A23" d="M73.062,36.997l-1.914-1.653v-2.159l1.089-1.751l1.732,0.584l0.579,1.51l1.108,0.664h0.892
		c0,0,0.039,0.468-0.008,0.66c-0.183,0.84-0.68,1.247-0.68,1.247s-0.572,0.444-1.313,0.622
		C73.75,36.934,73.062,36.997,73.062,36.997z"/>
	<polygon opacity="0.7" fill="#291A19" points="73.673,35.798 75.09,35.867 75.657,35.17 74.309,33.777 73.246,34.613 	"/>
	<polyline opacity="0.4" fill="#442A23" points="67.359,40.09 68.326,36.282 66.374,33.527 63.623,33.185 65.792,35.867 
		65.418,36.637 66.388,38.367 66.989,39.859 	"/>
	<polygon fill="#CE8029" points="38.304,10.39 30.102,2.753 29.492,13.746 	"/>
	<polyline fill="#D08829" points="47.904,0.109 42.96,9.185 49.268,16.462 49.368,29.061 51.5,26.844 50.004,15.731 48.007,0.55 	
		"/>
	<polygon fill="#D08829" points="49.294,19.761 49.268,16.462 42.96,9.185 37.526,24.094 	"/>
	<polygon fill="none" points="36.854,34.774 34.914,34.041 34.567,34.762 36.557,36.997 38.42,37.047 37.375,35.874 	"/>
	<polygon fill="none" points="47.904,0.109 47.904,0.109 47.904,0.109 	"/>
	<path fill="none" d="M8.584,40.523l1.677,1.942l2.52,5.132L8.958,36.606l-0.514,2.399C8.46,39.478,8.515,39.984,8.584,40.523z"/>
	<path fill="none" d="M4.931,15.855c0.009-0.351,0.035-0.694,0.072-1.026L2.8,15.343c0.045,0.566,0.117,0.953,0.117,0.953
		s1.12,2.711,1.642,3.977c0.16,0.39,0.237,0.904,0.265,1.429l0.103,0.099l0.561,2.906l0.855-0.375
		C5.908,21.626,4.875,17.85,4.931,15.855z"/>
	<path fill="#D17428" d="M67.573,10.249l2.112-2.177c-1.104,0.448-3.893,1.845-3.893,1.845L67.573,10.249z"/>
	<polygon fill="#E07E26" points="73.756,14.681 73.189,14.565 73.25,14.755 	"/>
	<polygon fill="#E9AC32" points="77.305,25.558 77.305,25.558 75.834,28.583 78.695,29.326 78.987,27.855 79.062,26.844 
		78.882,25.558 	"/>
	<polygon fill="#E07E26" points="76.98,17.468 77.031,15.349 75.65,15.066 75.861,15.855 	"/>
	<g>
		<rect x="78.695" y="29.326" fill="#804937" width="0" height="0"/>
	</g>
	<g>
		<path fill="#925742" d="M19.625,30.051c-0.556,0.241-1.035,0.546-1.446,0.889L19.625,30.051z"/>
	</g>
	<g>
		<path fill="#925742" d="M19.625,30.051"/>
	</g>
	<g>
		<path fill="#804937" d="M8.444,39.006l0.514-2.399C8.523,37.256,8.409,38.063,8.444,39.006z"/>
	</g>
	<g opacity="0.5">
		<polygon fill="#533D37" points="37.673,41.521 37.71,41.186 37.388,41.521 37.388,41.521 		"/>
	</g>
	<polygon fill="none" points="39.469,25.15 46.737,31.796 46.736,31.797 51.5,26.844 50.004,15.731 50.004,15.731 47.904,0.109 
		47.904,0.109 42.96,9.185 38.304,10.39 29.927,2.59 28.989,28.494 34.567,34.762 34.914,34.041 36.854,34.774 37.375,35.874 
		38.42,37.047 36.945,26.844 	"/>
	<polygon fill="none" points="77.053,14.388 77.031,15.349 77.386,15.42 	"/>
	<path fill="none" d="M8.21,40.09l0.374,0.434c-0.07-0.539-0.124-1.046-0.14-1.518L8.21,40.09z"/>
	<polygon fill="none" points="29.927,2.59 29.927,2.59 29.927,2.59 	"/>
	<path fill="none" d="M10.615,25.721l9.544-2.537l2.352-1.578l-8.377-8.908l-9.131,2.13c-0.037,0.333-0.063,0.675-0.072,1.026
		c-0.056,1.995,0.977,5.771,1.41,8.477l2.617-1.147L10.615,25.721z"/>
	<polygon opacity="0.3" fill="#533D37" points="56.385,21.801 65.008,12.899 73.189,14.565 72.056,11.089 67.573,10.249 
		56.385,21.801 	"/>
	<path fill="none" d="M4.558,20.273c-0.521-1.266-1.642-3.977-1.642-3.977S2.845,15.909,2.8,15.343l-2.354,0.551
		c0.107,1.142,0.308,1.942,0.308,1.942l4.069,3.867C4.795,21.177,4.718,20.663,4.558,20.273z"/>
	<polygon fill="none" points="75.189,13.362 74.743,14.535 73.756,14.681 75.65,15.066 	"/>
	<polygon fill="none" points="28.989,28.494 26.175,25.501 26.175,29.599 	"/>
	<polygon fill="none" points="67.959,34.822 75.834,28.583 69.964,27.058 65.974,31.796 	"/>
	<path fill="#C47C2A" d="M62.136,8.449l-4.399-4.986c0,0-3.431-2.494-7.384-3.007c-0.871-0.165-1.688-0.275-2.449-0.347
		l2.101,15.622l6.381,6.069l11.188-11.552l-1.78-0.333c0,0,2.788-1.396,3.893-1.845c-2.664,0.022-4.862,0.524-4.862,0.524
		L62.136,8.449z"/>
	<path fill="#C7802A" d="M29.927,2.59L29.927,2.59l8.376,7.8l4.657-1.205l4.943-9.076c-3.982-0.377-6.352,0.347-6.352,0.347
		l-2.759,0.661c0,0-1.891-0.733-3.281-0.294C34.486,1.147,31.456,2.106,29.927,2.59L29.927,2.59L29.927,2.59z"/>
	<path opacity="0.7" fill="#D08829" d="M19.368,3.907l-5.233,8.791l0,0l8.377,8.908l3.664-2.458v6.354l2.813,2.993L29.927,2.59l0,0
		l0,0c-0.549,0.173-0.905,0.287-0.905,0.287S24.005,3.315,19.368,3.907z"/>
	<polygon fill="#D87627" points="29.927,2.59 29.927,2.59 29.927,2.59 	"/>
	<path fill="#D29129" d="M3.514,11.676c1.194-1.468,2.536-0.807,2.536-0.807s-0.792,1.725-1.047,3.959l9.131-2.13L8.21,6.399
		c-1.192,0.23-4.482,1.044-6.412,3.296c-1.464,1.709-1.524,4.386-1.353,6.198L2.8,15.343C2.72,14.294,2.737,12.629,3.514,11.676z"/>
	<path fill="#C47E2A" d="M19.368,3.907c-0.725,0.092-1.442,0.19-2.131,0.289c-5.07,0.732-8.576,2.126-8.576,2.126
		S8.495,6.344,8.21,6.399l5.924,6.299l0,0L19.368,3.907z"/>
	<g>
		
			<rect x="75.787" y="28.955" transform="matrix(-0.9679 -0.2515 0.2515 -0.9679 144.7654 76.4082)" fill="#804937" width="2.955" height="0"/>
	</g>
	<g>
		<path fill="#7A5523" d="M44.753,50.26c0.314,0.034,0.662,0.049,1.049,0.035c2.313-0.086,3.768-0.855,3.73-1.368
			c0.093-0.643-1.791-2.567-1.791-2.567s-0.241,0.074-0.074-0.733c0.168-0.806,2.088-1.704,2.389-2.933
			c0.297-1.229,0.146-1.1,0.146-1.1s0.84-1.265,1.643-1.467c0.802-0.203,1.193,1.027,1.193,1.027l0.969-1.688l0.896,0.733
			l0.371-1.026l1.045,0.146l0.672-1.174l1.117,0.807l1.269-2.199l0.672,0.807l1.043-0.88l0.587-0.082l-3.421-12.582L44.753,50.26z"
			/>
	</g>
	<g>
		<path fill="#795126" d="M8.958,36.606c2.237,2.934,4.176,7.554,4.176,7.554l0.226,2.786l2.162,2.053l0.969-1.686l0.673,0.659
			c0,0-0.523,1.174,0,1.467c0.521,0.293,5.741,0,5.741,0s0.564-0.492,0.373-1.247c-0.744-0.735-2.908-2.872-2.908-2.872
			l-1.044-1.307c0,0,1.118,1.686-1.044-0.953c-1.102-1.345-1.758-3.166-2.136-4.629l-2.196,0.541L8.958,36.606z"/>
	</g>
	<g>
		<path fill="#79562D" d="M3.886,36.974C3.961,37.194,4,44.225,3.961,45.32c-0.037,1.095,0.747,1.993,0.747,1.993h1.491
			l-0.224,1.025c0,0,0.597,0.717,2.909,0.66c2.312-0.055,3.356,0,3.356,0s0.429-0.329-0.224-1.539s-2.946-3.685-3.356-6.381
			c-0.026-0.188-0.052-0.374-0.076-0.556L8.21,40.09l-5.816-8.764C1.948,33.16,3.811,36.754,3.886,36.974z"/>
	</g>
	<g>
		<polygon fill="#925742" points="51.5,26.844 50.004,15.731 50.004,15.731 		"/>
	</g>
	<g>
		<polygon fill="#C47E2A" points="56.385,21.801 50.004,15.731 51.5,26.844 		"/>
	</g>
	<g>
		<path fill="#AD6E29" d="M26.175,25.501l-3.664-3.895l-2.352,1.578l-9.544,2.537l4.597,7.043l-6.254,3.843l9.22-5.667
			c0.412-0.343,0.89-0.647,1.446-0.889l1.147,1.67l5.404-2.122V25.501z"/>
	</g>
	<g>
		<polygon fill="#B17129" points="26.175,19.148 22.512,21.606 26.175,25.501 		"/>
	</g>
	<g opacity="0.7">
		<path fill="#925742" d="M18.178,30.939l-9.22,5.667l4.991,2.366l2.196-0.541c-0.365-1.408-0.474-2.484-0.474-2.484
			S15.886,32.848,18.178,30.939z"/>
	</g>
	<g>
		<path fill="#996127" d="M8.444,39.006c-0.036-0.943,0.079-1.75,0.514-2.399l-3.619-8.412c-0.104,0.127-0.215,0.265-0.335,0.421
			c-0.892,1.172-2.534,1.54-2.61,2.711L8.21,40.09L8.444,39.006z"/>
	</g>
	<g opacity="0.5">
		<path fill="#533D37" d="M8.958,23.184l-2.617,1.147c0.157,0.975,0.235,1.812,0.156,2.375c-0.007,0.039-0.019,0.077-0.032,0.115
			l4.149-1.102L8.958,23.184z"/>
	</g>
	<g>
		<path fill="#A76027" d="M10.615,25.721l-4.149,1.102c-0.118,0.338-0.504,0.626-1.126,1.372l3.619,8.412l6.254-3.843L10.615,25.721
			z"/>
	</g>
	<g>
		<polygon fill="#704E2C" points="46.737,31.796 39.469,25.15 36.945,26.844 38.42,37.047 37.898,39.467 37.71,41.186 
			46.736,31.797 		"/>
	</g>
	<g opacity="0.5">
		<polygon fill="#533D37" points="26.175,29.599 26.175,30.051 27.367,34.097 28.649,34.627 29.022,34.188 31.334,35.141 
			31.483,33.895 34.242,35.435 34.567,34.762 28.989,28.494 		"/>
	</g>
	<g opacity="0.5">
		<polygon fill="#533D37" points="37.71,41.186 37.673,41.521 46.736,31.797 		"/>
	</g>
	<g opacity="0.7">
		<polygon fill="#533D37" points="26.175,29.599 20.771,31.721 22.011,33.527 25.218,35.874 27.231,34.041 27.367,34.097 
			26.175,30.051 		"/>
	</g>
	<path opacity="0.5" fill="#925742" d="M2.022,25.535L1.947,26.26l2.024-0.887l0.737-1.253c0,0,0.178-1.235,0.115-2.417
		l-4.069-3.867c0,0-0.595,1.686-0.746,3.299C-0.141,22.748,2.022,25.535,2.022,25.535z"/>
	<polygon opacity="0.5" fill="#925742" points="1.798,27.66 2.394,27.221 2.32,28.174 3.971,25.373 1.947,26.26 	"/>
	<g opacity="0.5">
		<polygon fill="#925742" points="27.21,34.061 27.596,34.191 27.231,34.041 		"/>
	</g>
	<polygon fill="none" points="22.011,33.527 25.218,35.874 27.21,34.061 20.898,31.905 	"/>
	<polygon fill="none" points="27.596,34.191 27.596,34.191 27.596,34.191 	"/>
	<g opacity="0.5">
		<polygon fill="#81562C" points="39.469,25.15 37.526,24.094 28.989,28.494 20.771,31.721 20.898,31.905 27.21,34.061 
			27.231,34.041 27.596,34.191 27.596,34.191 27.596,34.191 28.649,34.627 29.022,34.188 31.334,35.141 31.483,33.895 
			34.242,35.435 34.914,34.041 36.854,34.774 37.375,35.874 38.42,37.047 36.993,27.171 		"/>
	</g>
	<g>
		<polygon fill="#7E5736" points="13.36,46.946 13.134,44.16 8.958,36.606 15.212,32.764 18.178,30.939 16.64,32.736 15.838,34.957 
			13.949,38.973 		"/>
	</g>
	<g>
		<polyline fill="#9E7A2C" points="15.771,36.658 15.854,36.997 17.566,43.939 20.577,46.946 21.814,46.745 19.625,44.387 
			18.791,43.675 17.422,41.982 		"/>
	</g>
	<g opacity="0.5">
		<polygon fill="#D17428" points="8.958,36.606 7.353,40.09 7.626,44.752 9.248,46.439 11.351,46.439 10.615,45.384 8.958,42.271 
			8.438,40.164 8.584,39.006 		"/>
	</g>
	<g opacity="0.7">
		<path fill="#533D37" d="M37.673,41.521l0.821-0.515l-0.374,1.981l0.748-0.44c0,0-0.635,1.338-0.225,2.273
			c0.466-0.221,1.418-0.367,1.418-0.367s0.504-0.402,1.007-0.074c0.504,0.331-0.702,3.246-0.351,3.741
			c0.351,0.493,0.686,0.44,0.686,0.44l0.896,0.22l0.225,0.659c0,0,0.672,0.65,2.231,0.82l0.088-0.171l-3.464-12.542L37.673,41.521z"
			/>
	</g>
	<g>
		<polygon fill="#AF6F29" points="50.725,38.654 58.258,24.017 56.385,21.801 51.5,26.844 46.799,31.73 46.872,31.797 		"/>
	</g>
	<g>
		<polygon fill="#80562C" points="46.799,31.73 39.604,25.15 37.66,24.094 41.377,37.547 46.736,31.797 		"/>
	</g>
	<g>
		<path fill="#785534" d="M44.841,50.089l0.048,0.171c0,0,2.507,0.123,3.659-0.489c1.152-0.61,0.984-0.844,0.984-0.844l-0.596-1.206
			l-1.195-1.361c0,0-0.568-0.594,0.281-1.344c0.848-0.75,1.525-1.395,1.83-1.832c0.306-0.436,0.199-1.174,0.35-1.59
			c0.153-0.416,1.307-1.375,1.307-1.375l-0.784-1.564L44.841,50.089z"/>
	</g>
	<g opacity="0.7">
		<polygon fill="#946226" points="46.872,31.797 46.799,31.73 46.736,31.797 41.377,37.547 44.841,50.089 50.725,38.654 		"/>
	</g>
	<path fill="#805522" d="M80.187,14.095l-2.238-2.494c0,0-3.655-3.006-7.383-3.52c-0.299-0.009-0.593-0.012-0.881-0.01
		c-1.104,0.448-3.893,1.845-3.893,1.845l6.264,1.173l1.193,3.667l1.493-0.22l0.446-1.173l0.672,2.493l1.119,1.613l0.073-3.08
		l0.97,3.006L77.8,19.302l0.671,0.586l0.597-1.467l-0.149,2.127l1.044,0.952l0.229,0.147l1.935-2.86L80.187,14.095z"/>
	<g>
		<polygon fill="#DAC5A4" points="66.607,16.655 67.245,18.536 68.379,19.024 69.867,18.048 70.08,16.585 69.583,14.147 
			71.283,12.335 71.78,10.106 70.363,11.918 68.095,13.451 67.316,15.61 		"/>
		<polygon opacity="0.7" fill="#808184" points="71.283,12.335 68.522,14.159 67.97,16.996 69.626,18.205 68.379,19.024 
			67.245,18.536 66.607,16.655 68.095,13.451 70.363,11.918 71.78,10.106 		"/>
	</g>
	<polygon opacity="0.5" fill="#BBBDBF" points="72.474,22.049 73.046,23.02 73.629,21.663 	"/>
	<polygon opacity="0.5" fill="#F1F1F2" points="73.046,23.02 72.647,22.341 73.487,21.994 74.116,22.506 	"/>
	<polygon opacity="0.4" fill="#E4B86D" points="62.136,8.449 58.794,13.362 57.958,6.039 58.794,4.662 	"/>
	<polygon opacity="0.2" fill="#925742" points="58.794,13.362 56.385,21.801 60.931,17.108 	"/>
	<polygon opacity="0.3" fill="#442A23" points="74.947,20.262 75.834,24.119 74.609,25.151 73.381,25.721 71.148,23.184 
		71.148,21.112 72.647,19.357 74.451,19.148 	"/>
	<path opacity="0.7" fill="#804937" d="M70.06,34.822"/>
	<polygon opacity="0.4" fill="#442A23" points="73.25,14.755 73.381,10.249 72.056,11.089 	"/>
	<polygon opacity="0.4" fill="#442A23" points="75.861,15.855 76.98,13.746 77.253,14.333 79.062,18.223 78.471,19.888 77.8,19.302 
		78.001,17.582 76.98,17.468 	"/>
	<path fill="#976327" d="M8.958,23.184l-2.18-6.313L6.05,10.869c0,0-0.973,2.934-1.047,3.959c-0.289,1.938,0.336,4.381,0.336,4.381
		l1.002,5.122L8.958,23.184z"/>
	<polygon fill="#8B5B24" points="1.197,24.332 3.658,20.596 3.06,16.639 4.671,20.616 4.823,21.702 4.708,24.119 2.005,27.509 
		2.022,25.535 	"/>
	<g>
		<polygon fill="#D8A128" points="39.667,18.223 36.494,11.375 42.96,9.185 		"/>
	</g>
	<path fill="#C97929" d="M73.25,14.755c0,0,1.258,4.387,1.201,4.393c-0.055,0.008-3.473,0.402-3.473,0.402l-1.111-1.502l0.213-1.463
		L73.25,14.755z"/>
	<polygon opacity="0.7" fill="#231F20" points="73.673,35.798 74.603,34.557 75.09,35.867 	"/>
	<g>
		<polygon fill="#B0782B" points="67.984,22.282 69.964,27.058 70.593,32.736 69.748,35.867 70.49,36.997 68.326,36.282 
			65.974,31.796 65.332,30.051 58.258,24.017 60.931,17.108 67.367,10.463 68.453,10.463 66.785,17.355 		"/>
	</g>
	<polygon opacity="0.3" fill="#442A23" points="68.326,10.39 65.792,13.328 64.049,15.851 64.391,18.289 65.16,17.532 64.734,20.49 
		65.16,23.184 65.974,22.282 66.188,25.558 65.974,28.053 64.049,30.051 63.623,33.185 65.332,30.051 67.3,28.053 67.984,22.282 
		66.873,17.364 67.861,13.505 	"/>
	<polygon opacity="0.1" fill="#533D37" points="74.451,19.148 70.593,19.559 68.326,23.107 69.964,27.058 70.593,32.736 
		75.834,28.583 75.834,24.119 74.947,20.262 	"/>
	<polyline opacity="0.6" fill="#804937" points="77.462,24.411 74.947,20.262 74.38,23.392 75.834,24.119 72.281,31.443 
		75.834,28.583 77.305,25.558 78.882,25.558 79.424,24.962 	"/>
	<polygon fill="#B2762A" points="50.004,16.268 49.929,16.639 49.294,19.761 37.66,24.094 39.604,25.15 46.491,32.053 
		49.294,29.107 	"/>
	<path opacity="0.2" fill="#533D37" d="M6.05,10.869l1.207-2.301l-6.743,4.404l-0.068,2.921L2.8,15.343
		C2.8,15.343,2.261,10.358,6.05,10.869z"/>
	<g>
		<polygon fill="#925742" points="20.767,31.715 20.961,31.639 19.625,30.051 		"/>
	</g>
</g>
</svg>
