<?xml version="1.0" encoding="utf-8"?>
<!-- Generator: Adobe Illustrator 15.1.0, SVG Export Plug-In . SVG Version: 6.00 Build 0)  -->
<!DOCTYPE svg PUBLIC "-//W3C//DTD SVG 1.1//EN" "http://www.w3.org/Graphics/SVG/1.1/DTD/svg11.dtd">
<svg version="1.1" id="Layer_1" xmlns="http://www.w3.org/2000/svg" xmlns:xlink="http://www.w3.org/1999/xlink" x="0px" y="0px"
	 width="85.964px" height="46.301px" viewBox="0 0 85.964 46.301" enable-background="new 0 0 85.964 46.301" xml:space="preserve">
<g>
	<g>
		<g>
			<polyline fill="#595B4F" points="3.004,18.414 8.416,17.714 8.738,15.246 12.246,14.357 14.698,13.147 7.317,14.348 
				3.004,18.414 			"/>
			<polygon fill="#767661" points="8.416,17.714 8.738,15.246 12.246,14.357 16.217,16.772 12.011,18.195 			"/>
			<polygon fill="#E2D8BA" points="16.217,16.772 13.807,21.236 15.08,24.529 11.758,26.276 8.855,24.746 4.306,21.142 
				3.004,18.414 8.416,17.714 12.011,18.195 			"/>
			<polygon fill="#4B4E44" points="9.548,18.226 9.951,16.637 11.561,15.914 12.979,16.811 13.334,17.036 13.513,18.284 
				12.942,19.558 11.332,20.14 9.915,19.384 			"/>
			<polyline fill="#525E61" points="14.698,13.147 18.408,11.417 25.431,9.769 19.565,14.266 16.217,16.772 12.246,14.357 
				14.698,13.152 			"/>
			<polygon fill="#D2CDA5" points="16.217,16.772 13.807,21.236 20.767,20.446 24.032,16.957 28.924,14.15 24.487,13.643 
				19.565,14.266 			"/>
			<polyline fill="#767864" points="38.509,8.987 37.594,15.17 32.637,12.769 28.924,14.15 24.487,13.643 19.565,14.266 
				25.431,9.769 38.509,8.987 			"/>
			<polygon fill="#555A50" points="43.875,16.43 37.594,15.17 38.509,8.987 44.782,9.668 47.307,10.203 52.688,11.556 
				49.206,15.026 			"/>
			<polyline fill="#BE986B" points="38.509,8.987 43.3,3.719 46.396,3.681 47.391,10.144 45.486,9.745 38.509,8.987 			"/>
			<polygon fill="#D0AF96" points="48.04,0 43.3,3.719 46.396,3.681 			"/>
			<polygon fill="#A499A7" points="47.915,0.107 50.56,8.943 47.407,10.249 46.272,3.787 			"/>
			<polyline fill="#B1B097" points="47.407,10.249 50.56,8.943 52.688,11.556 47.407,10.249 			"/>
			<polyline fill="#899684" points="52.688,11.556 49.206,15.026 54.377,14.962 58.206,12.888 52.688,11.556 			"/>
			<polygon fill="#A499A7" points="54.377,14.962 58.893,15.699 58.206,12.966 			"/>
			<polyline fill="#6E7367" points="58.146,12.966 58.893,15.699 63.888,12.733 58.146,12.966 			"/>
			<polygon fill="#899684" points="58.893,15.699 63.888,12.733 63.589,16.186 			"/>
			<polygon fill="#6E7367" points="63.589,16.186 63.888,12.733 66.637,12.981 70.807,13.972 69.505,16.113 66.685,13.576 			"/>
			<polyline fill="#B1B097" points="67.435,20.772 69.505,16.113 71.365,23.351 67.435,20.772 			"/>
			<polygon fill="#E1DEB9" points="20.767,20.446 13.807,21.236 15.08,24.529 18.509,25.556 			"/>
			<polygon fill="#E1DEB9" points="28.924,14.15 24.032,16.957 20.767,20.446 26.793,21.365 28.924,14.15 34.021,17.255 
				37.594,15.17 32.637,12.769 			"/>
			<polygon fill="#C7CBB7" points="26.793,21.365 34.021,17.255 28.924,14.15 			"/>
			<polygon fill="#899684" points="63.589,16.186 66.685,13.576 69.505,16.113 66.581,18.889 			"/>
			<polygon fill="#C0C5AE" points="69.505,16.113 64.058,20.614 67.436,20.862 			"/>
			<polyline fill="#B1B097" points="64.058,20.614 66.374,18.7 63.589,16.186 50.017,29.304 58.245,23.08 64.058,20.614 			"/>
			<polygon fill="#D9D8BE" points="52.882,26.535 49.206,15.026 54.377,14.962 58.893,15.699 63.589,16.186 			"/>
			<polygon fill="#B1B097" points="24.399,29.621 24.56,31.169 28.294,31.404 33.724,32.408 35.174,31.953 43.429,31.568 
				40.417,24.214 35.407,27.896 30.113,26.359 			"/>
			<polygon fill="#C07D4C" points="35.407,27.896 33.724,32.462 35.226,36.082 			"/>
			<polygon fill="#F0CAA9" points="61.522,24.929 58.271,30.042 55.612,36.382 54.57,30.642 53.371,26.982 58.245,23.08 			"/>
			<polygon fill="#DFB179" points="54.57,30.642 58.271,30.042 58.245,23.08 53.212,26.949 			"/>
			<polyline fill="#DDB97D" points="35.549,31.949 39.69,38.312 37.689,40.695 35.226,36.082 35.316,31.99 			"/>
			<polygon fill="#EAD0A4" points="40.811,33.654 38.066,31.818 35.549,31.949 39.69,38.312 			"/>
			<polygon opacity="0.4" fill="#655671" points="35.226,36.082 38.066,31.818 35.316,31.99 			"/>
			<polygon fill="#C07D4C" points="55.612,36.382 50.017,29.304 53.194,26.9 54.57,30.642 			"/>
			<polyline opacity="0.5" fill="#655671" points="50.017,29.304 50.153,29.345 54.57,30.642 52.33,32.232 			"/>
			<polygon fill="#E1DEB9" points="35.407,27.896 35.453,28.724 35.316,31.99 38.016,31.83 			"/>
			<path fill="#C07D4C" d="M22.816,25.038"/>
			<path fill="#C07D4C" d="M30.113,26.359"/>
			<polygon fill="#E2E0BB" points="34.021,17.255 35.407,27.896 30.113,26.359 26.793,21.365 			"/>
			<polygon fill="#C07D4C" points="20.767,20.446 23.164,25.034 30.113,26.359 24.399,29.621 20.575,27.768 18.509,25.556 			"/>
			<polygon opacity="0.4" fill="#655671" points="23.164,25.034 18.509,25.556 20.575,27.768 			"/>
			<polygon fill="#D4B787" points="23.164,25.034 26.793,21.365 30.113,26.359 			"/>
			<polygon fill="#D2C5A4" points="20.767,20.446 26.793,21.365 23.164,25.034 			"/>
			<polygon fill="#E8E8C3" points="34.021,17.255 37.594,15.17 43.875,16.43 40.417,24.214 35.407,27.896 			"/>
			<polygon fill="#C0C5AE" points="43.875,16.43 40.417,24.214 43.429,31.568 			"/>
			<polygon fill="#D2C5A4" points="15.08,24.529 11.758,26.276 16.293,28.667 22.412,30.517 24.56,31.169 24.399,29.621 
				20.715,27.767 18.509,25.556 			"/>
			<polyline opacity="0.2" fill="#655671" points="16.293,28.667 20.644,27.696 22.518,30.55 16.293,28.667 			"/>
			<polygon fill="#C7CBB7" points="13.807,21.236 8.832,21.016 8.855,24.746 11.758,26.276 15.08,24.529 			"/>
			<polygon fill="#C7CBB7" points="12.543,16.536 11.655,17.958 13.334,17.036 			"/>
			<polygon fill="#E4E1BA" points="43.586,26.193 50.685,19.653 49.206,15.026 43.875,16.43 			"/>
			<polygon fill="#BFB99B" points="52.882,26.535 50.017,29.304 43.429,31.568 43.586,26.193 50.685,19.653 			"/>
			<polygon fill="#CACEB4" points="49.206,15.026 55.415,20.439 58.893,15.699 54.377,14.962 			"/>
			<polyline fill="#938A6B" points="70.807,13.972 69.505,16.113 71.187,23.353 73.563,21.152 73.149,17.568 70.807,13.972 			"/>
			<polygon fill="#B1B097" points="73.149,17.568 69.505,16.113 73.563,21.152 			"/>
			<polygon fill="#927460" points="70.807,13.972 78.771,8.595 84.768,4.543 83.561,11.774 79.827,11.82 73.149,17.568 
				70.807,13.972 73.149,17.568 			"/>
			<polygon fill="#927460" points="79.347,25.339 76.28,24.035 73.563,21.152 71.18,23.295 75.218,26.164 80.44,30.147 			"/>
			<polyline fill="#CEB39A" points="83.296,24.965 79.347,25.339 80.44,30.147 85.964,32.824 83.298,24.965 			"/>
			<polygon fill="#AC7C5A" points="77.065,20.164 80.922,17.964 79.827,11.82 73.149,17.568 73.563,21.152 			"/>
			<polygon fill="#938A6B" points="73.563,21.152 77.065,20.164 80.922,17.964 79.347,25.339 76.28,24.035 			"/>
			<polygon fill="#7BCBE4" points="0,35.595 7.67,27.894 20.775,32.623 			"/>
			<polygon fill="#5EBFDF" points="20.775,32.623 0,35.595 13.64,41.732 			"/>
			<polygon fill="#72CBD7" points="13.64,41.732 20.775,32.623 40.666,44.357 27.47,46.301 			"/>
			<polygon fill="#5EBFDF" points="37.524,42.503 41.501,39.713 48.229,34.998 52.933,42.312 40.666,44.357 			"/>
			<polygon fill="#4FACD5" points="52.933,42.312 48.229,34.998 56.934,39.523 62.78,44.083 			"/>
			<polygon fill="#7BCBE4" points="47.26,32.98 56.934,39.523 48.229,34.998 42.325,39.137 			"/>
			<polygon fill="#5EBFDF" points="58.228,40.519 68.794,32.051 77.923,39.099 			"/>
			<polygon fill="#45B2D0" points="62.78,44.083 85.275,45.586 77.923,39.099 58.228,40.532 			"/>
			<polygon fill="#45B2D0" points="0,35.595 3.31,43.156 27.47,46.301 13.64,41.732 			"/>
			<polygon fill="#C09F84" points="79.827,11.82 80.922,17.964 79.347,25.339 83.298,24.965 80.922,17.964 83.561,11.774 			"/>
			<polygon fill="#C09F84" points="73.149,17.568 77.065,20.164 73.563,21.152 			"/>
			<polygon fill="#7BCBE4" points="66.29,34.056 75.484,37.216 68.794,32.051 			"/>
			<polygon fill="#3F9FC0" points="81.43,42.192 85.275,45.586 72.013,44.701 			"/>
			<polygon fill="#C0C5AE" points="8.832,21.016 7.913,20.605 4.306,21.142 8.855,24.746 			"/>
		</g>
		<polygon fill="#6E7367" points="70.807,13.953 72.047,15.91 78.931,8.486 		"/>
	</g>
	<polygon fill="#3F9FC0" points="3.31,43.156 13.64,41.732 27.47,46.301 	"/>
	<polygon fill="#3F9FC0" points="58.228,40.532 62.78,44.083 64.954,44.229 	"/>
</g>
</svg>
