<?xml version="1.0" encoding="utf-8"?>
<!-- Generator: Adobe Illustrator 15.1.0, SVG Export Plug-In . SVG Version: 6.00 Build 0)  -->
<!DOCTYPE svg PUBLIC "-//W3C//DTD SVG 1.1//EN" "http://www.w3.org/Graphics/SVG/1.1/DTD/svg11.dtd">
<svg version="1.1" id="Layer_1" xmlns="http://www.w3.org/2000/svg" xmlns:xlink="http://www.w3.org/1999/xlink" x="0px" y="0px"
	 width="73.082px" height="71.184px" viewBox="-1.063 1.873 73.082 71.184" enable-background="new -1.063 1.873 73.082 71.184"
	 xml:space="preserve">
<g>
	<polygon fill="none" stroke="#FFFFFF" stroke-miterlimit="10" points="22.975,57.636 3.817,45.115 -0.525,25.927 11.979,9.056 
		35.478,2.393 58.977,9.056 71.48,25.927 67.139,45.115 47.98,57.636 	"/>
	<line fill="none" stroke="#FFFFFF" stroke-miterlimit="10" x1="11.979" y1="9.056" x2="3.817" y2="45.115"/>
	<line fill="none" stroke="#FFFFFF" stroke-miterlimit="10" x1="71.48" y1="25.927" x2="47.98" y2="57.636"/>
	<line fill="none" stroke="#FFFFFF" stroke-miterlimit="10" x1="67.139" y1="45.115" x2="58.977" y2="9.056"/>
	<line fill="none" stroke="#FFFFFF" stroke-miterlimit="10" x1="-0.525" y1="25.927" x2="35.478" y2="2.393"/>
	<line fill="none" stroke="#FFFFFF" stroke-miterlimit="10" x1="35.478" y1="2.393" x2="71.48" y2="25.927"/>
	<line fill="none" stroke="#FFFFFF" stroke-miterlimit="10" x1="-0.525" y1="25.927" x2="22.975" y2="57.636"/>
	<polyline fill="none" stroke="#FFFFFF" stroke-miterlimit="10" points="67.139,45.115 22.975,57.636 22.975,72.188 47.98,57.636 	
		"/>
	<path fill="none" stroke="#FFFFFF" stroke-miterlimit="10" d="M47.98,57.636"/>
	<line fill="none" stroke="#FFFFFF" stroke-miterlimit="10" x1="22.975" y1="72.188" x2="44.531" y2="51.524"/>
	<line fill="none" stroke="#FFFFFF" stroke-miterlimit="10" x1="3.817" y1="45.115" x2="44.531" y2="51.524"/>
	<g>
		<g>
			<path fill="none" stroke="#FFFFFF" stroke-miterlimit="10" d="M29.552,22.598l-3.128-3.52l5.011-5.525h11.148l4.61,5.125v8.419
				l-8.019,7.887v3.075h-4.613v-5.213l8.021-7.889v-4.451l-2.046-2.274H33.52L29.552,22.598z"/>
		</g>
		<line fill="none" stroke="#FFFFFF" stroke-miterlimit="10" x1="31.435" y1="13.553" x2="29.552" y2="22.598"/>
		<line fill="none" stroke="#FFFFFF" stroke-miterlimit="10" x1="26.423" y1="19.078" x2="33.521" y2="18.232"/>
		<line fill="none" stroke="#FFFFFF" stroke-miterlimit="10" x1="31.435" y1="13.553" x2="40.537" y2="18.232"/>
		<line fill="none" stroke="#FFFFFF" stroke-miterlimit="10" x1="40.537" y1="18.232" x2="42.583" y2="13.553"/>
		<line fill="none" stroke="#FFFFFF" stroke-miterlimit="10" x1="42.583" y1="20.506" x2="47.193" y2="18.678"/>
		<line fill="none" stroke="#FFFFFF" stroke-miterlimit="10" x1="42.583" y1="20.506" x2="47.193" y2="27.097"/>
		<line fill="none" stroke="#FFFFFF" stroke-miterlimit="10" x1="47.193" y1="27.097" x2="34.563" y2="32.846"/>
		<line fill="none" stroke="#FFFFFF" stroke-miterlimit="10" x1="42.583" y1="24.957" x2="39.176" y2="34.984"/>
		<line fill="none" stroke="#FFFFFF" stroke-miterlimit="10" x1="34.563" y1="32.846" x2="39.176" y2="34.984"/>
		<polygon fill="none" stroke="#FFFFFF" stroke-miterlimit="10" points="35.915,45.556 34.563,44.202 34.563,42.29 35.915,40.938 
			37.828,40.938 39.18,42.29 39.18,44.202 37.828,45.556 		"/>
		<line fill="none" stroke="#FFFFFF" stroke-miterlimit="10" x1="39.18" y1="44.514" x2="34.563" y2="42.29"/>
		<line fill="none" stroke="#FFFFFF" stroke-miterlimit="10" x1="37.828" y1="40.938" x2="37.227" y2="43.573"/>
	</g>
</g>
</svg>
