<?xml version="1.0" encoding="utf-8"?>
<!-- Generator: Adobe Illustrator 15.1.0, SVG Export Plug-In . SVG Version: 6.00 Build 0)  -->
<!DOCTYPE svg PUBLIC "-//W3C//DTD SVG 1.1//EN" "http://www.w3.org/Graphics/SVG/1.1/DTD/svg11.dtd">
<svg version="1.1" id="Layer_1" xmlns="http://www.w3.org/2000/svg" xmlns:xlink="http://www.w3.org/1999/xlink" x="0px" y="0px"
	 width="44.113px" height="43.035px" viewBox="0.468 0.828 44.113 43.035" enable-background="new 0.468 0.828 44.113 43.035"
	 xml:space="preserve">
<polygon fill="none" stroke="#FFFFFF" stroke-width="0.8" stroke-miterlimit="10" points="15.013,34.427 3.507,26.906 0.898,15.381 
	8.408,5.247 22.524,1.244 36.638,5.247 44.15,15.381 41.541,26.906 30.034,34.427 "/>
<line fill="none" stroke="#FFFFFF" stroke-width="0.8" stroke-miterlimit="10" x1="8.408" y1="5.247" x2="3.507" y2="26.906"/>
<line fill="none" stroke="#FFFFFF" stroke-width="0.8" stroke-miterlimit="10" x1="44.15" y1="15.381" x2="30.034" y2="34.427"/>
<line fill="none" stroke="#FFFFFF" stroke-width="0.8" stroke-miterlimit="10" x1="41.541" y1="26.906" x2="36.638" y2="5.247"/>
<line fill="none" stroke="#FFFFFF" stroke-width="0.8" stroke-miterlimit="10" x1="0.898" y1="15.381" x2="22.524" y2="1.244"/>
<line fill="none" stroke="#FFFFFF" stroke-width="0.8" stroke-miterlimit="10" x1="22.524" y1="1.244" x2="44.15" y2="15.381"/>
<line fill="none" stroke="#FFFFFF" stroke-width="0.8" stroke-miterlimit="10" x1="0.898" y1="15.381" x2="15.013" y2="34.427"/>
<polyline fill="none" stroke="#FFFFFF" stroke-width="0.8" stroke-miterlimit="10" points="41.541,26.906 15.013,34.427 
	15.013,43.168 30.034,34.427 "/>
<path fill="none" stroke="#FFFFFF" stroke-width="0.8" stroke-miterlimit="10" d="M30.034,34.427"/>
<line fill="none" stroke="#FFFFFF" stroke-width="0.8" stroke-miterlimit="10" x1="15.013" y1="43.168" x2="27.962" y2="30.756"/>
<line fill="none" stroke="#FFFFFF" stroke-width="0.8" stroke-miterlimit="10" x1="3.507" y1="26.906" x2="27.962" y2="30.756"/>
<g>
	<path fill="none" stroke="#FFFFFF" stroke-width="0.8" stroke-miterlimit="10" d="M18.964,13.381l-1.879-2.114l3.01-3.317h6.697
		l2.77,3.077v5.058l-4.815,4.737v1.848h-2.772v-3.132l4.818-4.738v-2.674l-1.229-1.365h-4.216L18.964,13.381z"/>
</g>
<line fill="none" stroke="#FFFFFF" stroke-width="0.8" stroke-miterlimit="10" x1="20.094" y1="7.948" x2="18.964" y2="13.381"/>
<line fill="none" stroke="#FFFFFF" stroke-width="0.8" stroke-miterlimit="10" x1="20.094" y1="7.948" x2="25.563" y2="10.759"/>
<line fill="none" stroke="#FFFFFF" stroke-width="0.8" stroke-miterlimit="10" x1="25.563" y1="10.759" x2="26.792" y2="7.948"/>
<line fill="none" stroke="#FFFFFF" stroke-width="0.8" stroke-miterlimit="10" x1="26.792" y1="12.124" x2="29.561" y2="16.083"/>
<line fill="none" stroke="#FFFFFF" stroke-width="0.8" stroke-miterlimit="10" x1="29.561" y1="16.083" x2="21.973" y2="19.536"/>
<line fill="none" stroke="#FFFFFF" stroke-width="0.8" stroke-miterlimit="10" x1="21.973" y1="19.536" x2="24.745" y2="20.82"/>
<polygon fill="none" stroke="#FFFFFF" stroke-width="0.8" stroke-miterlimit="10" points="22.786,27.171 21.973,26.357 
	21.973,25.21 22.786,24.396 23.936,24.396 24.747,25.21 24.747,26.357 23.936,27.171 "/>
</svg>
