<?xml version="1.0" encoding="utf-8"?>
<!-- Generator: Adobe Illustrator 15.1.0, SVG Export Plug-In . SVG Version: 6.00 Build 0)  -->
<!DOCTYPE svg PUBLIC "-//W3C//DTD SVG 1.1//EN" "http://www.w3.org/Graphics/SVG/1.1/DTD/svg11.dtd">
<svg version="1.1" id="Layer_1" xmlns="http://www.w3.org/2000/svg" xmlns:xlink="http://www.w3.org/1999/xlink" x="0px" y="0px"
	 width="43.603px" height="43.861px" viewBox="14.096 13.743 43.603 43.861" enable-background="new 14.096 13.743 43.603 43.861"
	 xml:space="preserve">
<g>
	<polygon fill="none" stroke="#137184" stroke-width="0.8" stroke-miterlimit="10" points="35.896,14.15 19.302,17.255 
		19.302,19.156 35.896,19.757 52.493,19.156 52.493,17.255 	"/>
	<g>
		<g>
			<polygon fill="none" stroke="#137184" stroke-width="0.8" stroke-miterlimit="10" points="19.002,44.871 15.104,41.205 
				30.693,41.205 26.796,44.871 			"/>
			<polyline fill="none" stroke="#137184" stroke-width="0.8" stroke-miterlimit="10" points="31.171,41.07 22.898,20.008 
				14.627,41.07 			"/>
			
				<line fill="none" stroke="#137184" stroke-width="0.8" stroke-miterlimit="10" x1="22.898" y1="20.259" x2="22.898" y2="41.321"/>
		</g>
		<g>
			<polygon fill="none" stroke="#137184" stroke-width="0.8" stroke-miterlimit="10" points="44.998,44.871 41.101,41.205 
				56.689,41.205 52.793,44.871 			"/>
			<polyline fill="none" stroke="#137184" stroke-width="0.8" stroke-miterlimit="10" points="57.168,41.07 48.896,20.008 
				40.623,41.07 			"/>
			
				<line fill="none" stroke="#137184" stroke-width="0.8" stroke-miterlimit="10" x1="48.896" y1="41.321" x2="48.896" y2="20.259"/>
		</g>
	</g>
	<polyline fill="none" stroke="#137184" stroke-width="0.8" stroke-miterlimit="10" points="37.51,52.894 39.983,46.821 
		37.348,32.436 39.375,24.731 36.068,19.795 35.896,19.54 35.727,19.795 32.418,24.731 34.445,32.436 31.811,46.821 34.283,52.893 	
		"/>
	<polyline fill="none" stroke="#137184" stroke-width="0.8" stroke-miterlimit="10" points="34.216,52.894 32.245,52.894 
		27.18,55.419 27.18,57.204 44.477,57.204 44.477,55.419 39.41,52.894 37.44,52.894 	"/>
	<polyline fill="none" stroke="#137184" stroke-width="0.8" stroke-miterlimit="10" points="39.432,52.894 35.777,55.597 
		32.224,52.894 	"/>
	<line fill="none" stroke="#137184" stroke-width="0.8" stroke-miterlimit="10" x1="35.777" y1="55.597" x2="35.777" y2="57.204"/>
	<line fill="none" stroke="#137184" stroke-width="0.8" stroke-miterlimit="10" x1="27.18" y1="55.419" x2="31.415" y2="56.999"/>
	<line fill="none" stroke="#137184" stroke-width="0.8" stroke-miterlimit="10" x1="31.102" y1="56.999" x2="35.777" y2="55.597"/>
	<line fill="none" stroke="#137184" stroke-width="0.8" stroke-miterlimit="10" x1="35.777" y1="55.597" x2="40.554" y2="56.999"/>
	<line fill="none" stroke="#137184" stroke-width="0.8" stroke-miterlimit="10" x1="40.175" y1="56.999" x2="44.477" y2="55.419"/>
	<line fill="none" stroke="#137184" stroke-width="0.8" stroke-miterlimit="10" x1="35.896" y1="14.15" x2="35.896" y2="19.757"/>
	<line fill="none" stroke="#137184" stroke-width="0.8" stroke-miterlimit="10" x1="35.896" y1="19.757" x2="26.557" y2="15.897"/>
	<line fill="none" stroke="#137184" stroke-width="0.8" stroke-miterlimit="10" x1="35.896" y1="19.757" x2="45.238" y2="15.897"/>
	<line fill="none" stroke="#137184" stroke-width="0.8" stroke-miterlimit="10" x1="19.002" y1="44.871" x2="22.898" y2="41.321"/>
	<line fill="none" stroke="#137184" stroke-width="0.8" stroke-miterlimit="10" x1="26.796" y1="44.871" x2="22.898" y2="41.321"/>
	<line fill="none" stroke="#137184" stroke-width="0.8" stroke-miterlimit="10" x1="39.983" y1="46.821" x2="35.777" y2="41.07"/>
	<line fill="none" stroke="#137184" stroke-width="0.8" stroke-miterlimit="10" x1="31.811" y1="47.256" x2="35.777" y2="41.07"/>
	<line fill="none" stroke="#137184" stroke-width="0.8" stroke-miterlimit="10" x1="32.418" y1="24.731" x2="35.828" y2="25.714"/>
	<line fill="none" stroke="#137184" stroke-width="0.8" stroke-miterlimit="10" x1="39.375" y1="24.731" x2="35.828" y2="25.714"/>
	<line fill="none" stroke="#137184" stroke-width="0.8" stroke-miterlimit="10" x1="34.445" y1="32.436" x2="35.828" y2="25.714"/>
	<line fill="none" stroke="#137184" stroke-width="0.8" stroke-miterlimit="10" x1="35.828" y1="25.714" x2="37.348" y2="32.436"/>
	<line fill="none" stroke="#137184" stroke-width="0.8" stroke-miterlimit="10" x1="34.445" y1="32.436" x2="35.828" y2="40.655"/>
	<line fill="none" stroke="#137184" stroke-width="0.8" stroke-miterlimit="10" x1="37.348" y1="32.436" x2="35.777" y2="41.07"/>
	<line fill="none" stroke="#137184" stroke-width="0.8" stroke-miterlimit="10" x1="31.94" y1="46.821" x2="39.983" y2="46.821"/>
	<path fill="none" stroke="#137184" stroke-width="0.8" stroke-miterlimit="10" d="M44.998,44.871"/>
	<line fill="none" stroke="#137184" stroke-width="0.8" stroke-miterlimit="10" x1="44.998" y1="44.871" x2="48.896" y2="41.321"/>
	<line fill="none" stroke="#137184" stroke-width="0.8" stroke-miterlimit="10" x1="52.793" y1="44.871" x2="48.896" y2="41.321"/>
	<line fill="none" stroke="#137184" stroke-width="0.8" stroke-miterlimit="10" x1="22.898" y1="19.286" x2="26.557" y2="15.897"/>
	<line fill="none" stroke="#137184" stroke-width="0.8" stroke-miterlimit="10" x1="48.896" y1="19.54" x2="45.238" y2="15.897"/>
	<line fill="none" stroke="#137184" stroke-width="0.8" stroke-miterlimit="10" x1="31.942" y1="46.821" x2="37.689" y2="53.008"/>
	<line fill="none" stroke="#137184" stroke-width="0.8" stroke-miterlimit="10" x1="34.006" y1="52.951" x2="39.983" y2="46.821"/>
</g>
</svg>
