<?xml version="1.0" encoding="utf-8"?>
<!-- Generator: Adobe Illustrator 15.1.0, SVG Export Plug-In . SVG Version: 6.00 Build 0)  -->
<!DOCTYPE svg PUBLIC "-//W3C//DTD SVG 1.1//EN" "http://www.w3.org/Graphics/SVG/1.1/DTD/svg11.dtd">
<svg version="1.1" id="Layer_1" xmlns="http://www.w3.org/2000/svg" xmlns:xlink="http://www.w3.org/1999/xlink" x="0px" y="0px"
	 width="71.754px" height="72.685px" viewBox="7.286 -6.852 71.754 72.685" enable-background="new 7.286 -6.852 71.754 72.685"
	 xml:space="preserve">
<g>
	<polygon fill="none" stroke="#147185" stroke-miterlimit="10" points="43.162,-6.343 15.534,-1.176 15.534,1.99 43.162,2.99 
		70.791,1.99 70.791,-1.176 	"/>
	<g>
		<g>
			<polygon fill="none" stroke="#147185" stroke-miterlimit="10" points="15.034,44.8 8.547,38.697 34.498,38.697 28.011,44.8 			
				"/>
			<polyline fill="none" stroke="#147185" stroke-miterlimit="10" points="35.294,38.473 21.522,3.408 7.751,38.473 			"/>
			<line fill="none" stroke="#147185" stroke-miterlimit="10" x1="21.522" y1="3.825" x2="21.522" y2="38.89"/>
		</g>
		<g>
			<polygon fill="none" stroke="#147185" stroke-miterlimit="10" points="58.313,44.8 51.826,38.697 77.776,38.697 71.291,44.8 			
				"/>
			<polyline fill="none" stroke="#147185" stroke-miterlimit="10" points="78.574,38.473 64.802,3.408 51.03,38.473 			"/>
			<line fill="none" stroke="#147185" stroke-miterlimit="10" x1="64.802" y1="38.89" x2="64.802" y2="3.825"/>
		</g>
	</g>
	<polyline fill="none" stroke="#147185" stroke-miterlimit="10" points="45.849,58.158 49.964,48.048 45.578,24.099 48.953,11.272 
		43.446,3.052 43.162,2.629 42.878,3.052 37.371,11.272 40.746,24.099 36.359,48.048 40.476,58.156 	"/>
	<polyline fill="none" stroke="#147185" stroke-miterlimit="10" points="40.362,58.158 37.083,58.158 28.648,62.36 28.648,65.333 
		57.444,65.333 57.444,62.36 49.011,58.158 45.731,58.158 	"/>
	<polyline fill="none" stroke="#147185" stroke-miterlimit="10" points="49.046,58.158 42.964,62.658 37.046,58.158 	"/>
	<line fill="none" stroke="#147185" stroke-miterlimit="10" x1="42.964" y1="62.658" x2="42.964" y2="65.333"/>
	<line fill="none" stroke="#147185" stroke-miterlimit="10" x1="28.648" y1="62.36" x2="35.7" y2="64.991"/>
	<line fill="none" stroke="#147185" stroke-miterlimit="10" x1="35.179" y1="64.991" x2="42.964" y2="62.658"/>
	<line fill="none" stroke="#147185" stroke-miterlimit="10" x1="42.964" y1="62.658" x2="50.916" y2="64.991"/>
	<line fill="none" stroke="#147185" stroke-miterlimit="10" x1="50.285" y1="64.991" x2="57.444" y2="62.36"/>
	<line fill="none" stroke="#147185" stroke-miterlimit="10" x1="43.162" y1="-6.343" x2="43.162" y2="2.99"/>
	<line fill="none" stroke="#147185" stroke-miterlimit="10" x1="43.162" y1="2.99" x2="27.613" y2="-3.435"/>
	<line fill="none" stroke="#147185" stroke-miterlimit="10" x1="43.162" y1="2.99" x2="58.712" y2="-3.435"/>
	<line fill="none" stroke="#147185" stroke-miterlimit="10" x1="15.034" y1="44.8" x2="21.522" y2="38.89"/>
	<line fill="none" stroke="#147185" stroke-miterlimit="10" x1="28.011" y1="44.8" x2="21.522" y2="38.89"/>
	<line fill="none" stroke="#147185" stroke-miterlimit="10" x1="49.964" y1="48.048" x2="42.964" y2="38.473"/>
	<line fill="none" stroke="#147185" stroke-miterlimit="10" x1="36.359" y1="48.77" x2="42.964" y2="38.473"/>
	<line fill="none" stroke="#147185" stroke-miterlimit="10" x1="37.371" y1="11.272" x2="43.046" y2="12.907"/>
	<line fill="none" stroke="#147185" stroke-miterlimit="10" x1="48.953" y1="11.272" x2="43.046" y2="12.907"/>
	<line fill="none" stroke="#147185" stroke-miterlimit="10" x1="40.746" y1="24.099" x2="43.046" y2="12.907"/>
	<line fill="none" stroke="#147185" stroke-miterlimit="10" x1="43.046" y1="12.907" x2="45.578" y2="24.099"/>
	<line fill="none" stroke="#147185" stroke-miterlimit="10" x1="40.746" y1="24.099" x2="43.046" y2="37.782"/>
	<line fill="none" stroke="#147185" stroke-miterlimit="10" x1="45.578" y1="24.099" x2="42.964" y2="38.473"/>
	<line fill="none" stroke="#147185" stroke-miterlimit="10" x1="36.576" y1="48.048" x2="49.964" y2="48.048"/>
	<path fill="none" stroke="#147185" stroke-miterlimit="10" d="M58.313,44.8"/>
	<line fill="none" stroke="#147185" stroke-miterlimit="10" x1="58.313" y1="44.8" x2="64.802" y2="38.89"/>
	<line fill="none" stroke="#147185" stroke-miterlimit="10" x1="71.291" y1="44.8" x2="64.802" y2="38.89"/>
	<line fill="none" stroke="#147185" stroke-miterlimit="10" x1="21.522" y1="2.207" x2="27.613" y2="-3.435"/>
	<line fill="none" stroke="#147185" stroke-miterlimit="10" x1="64.802" y1="2.629" x2="58.712" y2="-3.435"/>
	<line fill="none" stroke="#147185" stroke-miterlimit="10" x1="36.578" y1="48.048" x2="46.147" y2="58.346"/>
	<line fill="none" stroke="#147185" stroke-miterlimit="10" x1="40.013" y1="58.252" x2="49.964" y2="48.048"/>
</g>
</svg>
