<?xml version="1.0" encoding="utf-8"?>
<!-- Generator: Adobe Illustrator 15.1.0, SVG Export Plug-In . SVG Version: 6.00 Build 0)  -->
<!DOCTYPE svg PUBLIC "-//W3C//DTD SVG 1.1//EN" "http://www.w3.org/Graphics/SVG/1.1/DTD/svg11.dtd">
<svg version="1.1" id="Layer_1" xmlns="http://www.w3.org/2000/svg" xmlns:xlink="http://www.w3.org/1999/xlink" x="0px" y="0px"
	 width="34.025px" height="44.68px" viewBox="9.346 14.309 34.025 44.68" enable-background="new 9.346 14.309 34.025 44.68"
	 xml:space="preserve">
<g>
	<path fill="none" stroke="#137184" stroke-width="0.8" stroke-linecap="round" stroke-linejoin="round" stroke-miterlimit="10" d="
		M18.715,19.717l-1.004-2.18c-0.396-1.554-1.653-2.727-3.21-2.822c-1.973-0.121-3.681,1.533-3.813,3.696
		c-0.133,2.162,1.358,4.014,3.331,4.135c1.618,0.101,3.055-0.995,3.595-2.584l0,0L18.715,19.717z"/>
	
		<polygon fill="none" stroke="#137184" stroke-width="0.8" stroke-linecap="round" stroke-linejoin="round" stroke-miterlimit="10" points="
		14.058,56.118 15.116,48.821 14.438,42.035 10.157,42.035 10.837,48.821 9.779,58.157 13.626,58.157 14.058,58.157 16.909,58.157 
		16.909,57.364 14.058,56.212 	"/>
	
		<polygon fill="none" stroke="#137184" stroke-width="0.8" stroke-linecap="round" stroke-linejoin="round" stroke-miterlimit="10" points="
		16.823,56.212 16.823,56.118 17.352,48.727 17.014,42.035 14.438,42.035 15.116,48.821 14.058,56.118 14.058,56.212 16.909,57.364 
		16.909,58.157 19.674,58.157 19.674,57.364 	"/>
	<path fill="none" stroke="#137184" stroke-width="0.8" stroke-linecap="round" stroke-linejoin="round" stroke-miterlimit="10" d="
		M24.352,34.684c-0.011-0.011-0.018-0.022-0.028-0.032l-9.24-8.753c-0.779-0.736-1.938-0.778-2.588-0.091
		c-0.65,0.687-0.548,1.842,0.231,2.579l9.24,8.753c0.011,0.01,0.022,0.016,0.033,0.026L24.352,34.684z"/>
	<path fill="none" stroke="#137184" stroke-width="0.8" stroke-linecap="round" stroke-linejoin="round" stroke-miterlimit="10" d="
		M12.727,28.387c-0.779-0.737-0.882-1.893-0.231-2.579c0.65-0.688,1.809-0.646,2.588,0.091l2.366,2.241v-0.492
		c0-2.127-1.725-3.852-3.852-3.852s-3.852,1.725-3.852,3.852v6.84v2.956v4.592h7.703v-4.592v-2.956v-1.626L12.727,28.387z"/>
	<path fill="none" stroke="#137184" stroke-width="0.8" stroke-linecap="round" stroke-linejoin="round" stroke-miterlimit="10" d="
		M38.46,40.29c0-0.015,0.004-0.028,0.004-0.042l0.303-12.725c0.023-1.071-0.722-1.96-1.668-1.982
		c-0.945-0.021-1.733,0.829-1.759,1.901l-0.302,12.725c0,0.014,0.003,0.026,0.003,0.042L38.46,40.29z"/>
	<path fill="none" stroke="#137184" stroke-width="0.8" stroke-linecap="round" stroke-linejoin="round" stroke-miterlimit="10" d="
		M31.785,19.717l1.004-2.18c0.396-1.554,1.653-2.727,3.21-2.822c1.973-0.121,3.681,1.533,3.813,3.696
		c0.133,2.162-1.358,4.014-3.331,4.135c-1.618,0.101-3.055-0.995-3.595-2.584l0,0L31.785,19.717z"/>
	<path fill="none" stroke="#137184" stroke-width="0.8" stroke-linecap="round" stroke-linejoin="round" stroke-miterlimit="10" d="
		M36.903,23.796c2.127,0,3.852,1.725,3.852,3.852v6.84v2.956v4.592h-7.703v-4.592v-2.956v-6.84
		C33.051,25.521,34.776,23.796,36.903,23.796z"/>
	<path fill="none" stroke="#137184" stroke-width="0.8" stroke-linecap="round" stroke-linejoin="round" stroke-miterlimit="10" d="
		M33.051,28.306l-6.699,6.346c-0.011,0.01-0.018,0.021-0.028,0.032l2.353,2.482c0.011-0.011,0.022-0.017,0.032-0.026l4.343-4.113
		V28.306z"/>
	<path fill="none" stroke="#137184" stroke-width="0.8" stroke-linecap="round" stroke-linejoin="round" stroke-miterlimit="10" d="
		M42.272,50.266c0,0.787-0.638,1.426-1.425,1.426h-7.888c-0.787,0-1.426-0.639-1.426-1.426v-4.691c0-0.787,0.639-1.426,1.426-1.426
		h7.888c0.787,0,1.425,0.639,1.425,1.426V50.266z"/>
	<g>
		
			<polygon fill="none" stroke="#137184" stroke-width="0.8" stroke-linecap="round" stroke-linejoin="round" stroke-miterlimit="10" points="
			35.941,44.149 35.83,42.278 37.353,42.035 33.845,42.035 33.633,44.149 		"/>
		
			<polygon fill="none" stroke="#137184" stroke-width="0.8" stroke-linecap="round" stroke-linejoin="round" stroke-miterlimit="10" points="
			38.187,55.367 37.041,51.692 33.581,51.692 34.224,56.118 34.224,56.212 31.371,57.364 31.371,58.157 34.224,58.157 
			34.656,58.157 35.86,58.157 35.803,57.804 38.293,56.305 		"/>
	</g>
	<g>
		
			<polygon fill="none" stroke="#137184" stroke-width="0.8" stroke-linecap="round" stroke-linejoin="round" stroke-miterlimit="10" points="
			40.205,44.149 40.082,42.035 37.353,42.035 35.83,42.278 35.941,44.149 		"/>
		
			<path fill="none" stroke="#137184" stroke-width="0.8" stroke-linecap="round" stroke-linejoin="round" stroke-miterlimit="10" d="
			M41.34,51.598c-0.154,0.058-0.319,0.094-0.493,0.094h-3.806l1.382,4.434l0.015,0.093l-2.635,1.586l0.126,0.784l2.815-0.449
			l0.427-0.068l3.8-0.605L41.34,51.598z"/>
	</g>
	<g>
		<g>
			
				<path fill="#FFFFFF" stroke="#137184" stroke-width="0.8" stroke-linecap="round" stroke-linejoin="round" stroke-miterlimit="10" d="
				M24.267,37.356c-0.293,0.292-0.295,0.768-0.003,1.061l0.735,0.74c0.292,0.293,0.768,0.295,1.061,0.003l1.294-1.287
				c0.294-0.292,0.295-0.768,0.003-1.061l-0.735-0.739c-0.292-0.294-0.767-0.295-1.061-0.003L24.267,37.356z"/>
			
				<polygon fill="#FFFFFF" stroke="#137184" stroke-width="0.8" stroke-linecap="round" stroke-linejoin="round" stroke-miterlimit="10" points="
				24.057,36.646 24.057,36.646 24.057,36.646 24.057,36.646 25.078,35.63 25.078,35.63 25.078,35.63 25.078,35.63 			"/>
		</g>
		<g>
			
				<path fill="#FFFFFF" stroke="#137184" stroke-width="0.8" stroke-linecap="round" stroke-linejoin="round" stroke-miterlimit="10" d="
				M26.111,37.246c0.293,0.291,0.295,0.766,0.003,1.06l-0.735,0.739c-0.291,0.294-0.767,0.295-1.061,0.003l-1.294-1.286
				c-0.293-0.292-0.295-0.768-0.003-1.061l0.735-0.739c0.292-0.294,0.768-0.295,1.061-0.003L26.111,37.246z"/>
			
				<polygon fill="#FFFFFF" stroke="#137184" stroke-width="0.8" stroke-linecap="round" stroke-linejoin="round" stroke-miterlimit="10" points="
				26.322,36.535 26.322,36.535 26.322,36.535 26.322,36.535 25.299,35.52 25.299,35.52 25.299,35.52 25.299,35.52 			"/>
		</g>
	</g>
	
		<line fill="none" stroke="#137184" stroke-width="0.8" stroke-linecap="round" stroke-linejoin="round" stroke-miterlimit="10" x1="14.058" y1="56.212" x2="9.844" y2="57.58"/>
	
		<line fill="none" stroke="#137184" stroke-width="0.8" stroke-linecap="round" stroke-linejoin="round" stroke-miterlimit="10" x1="38.423" y1="56.125" x2="42.627" y2="56.896"/>
	
		<line fill="none" stroke="#137184" stroke-width="0.8" stroke-linecap="round" stroke-linejoin="round" stroke-miterlimit="10" x1="34.589" y1="56.51" x2="36.8" y2="56.896"/>
	
		<line fill="none" stroke="#137184" stroke-width="0.8" stroke-linecap="round" stroke-linejoin="round" stroke-miterlimit="10" x1="16.823" y1="56.212" x2="15.275" y2="56.703"/>
	<path fill="none" stroke="#137184" stroke-width="0.8" stroke-linecap="round" stroke-linejoin="round" stroke-miterlimit="10" d="
		M38.741,44.149c0.012-0.081,0.025-0.162,0.025-0.245c0-1.032-0.836-1.868-1.867-1.868H36.7c-1.031,0-1.868,0.836-1.868,1.868
		c0,0.083,0.014,0.164,0.024,0.245H38.741z"/>
	
		<path fill="#FFFFFF" stroke="#137184" stroke-width="0.8" stroke-linecap="round" stroke-linejoin="round" stroke-miterlimit="10" d="
		M38.148,42.002c0,0.687-0.558,1.245-1.245,1.245l0,0c-0.688,0-1.245-0.559-1.245-1.245v-0.468c0-0.687,0.558-1.244,1.245-1.244l0,0
		c0.688,0,1.245,0.558,1.245,1.244V42.002z"/>
	
		<path fill="#FFFFFF" stroke="#137184" stroke-width="0.8" stroke-linecap="round" stroke-linejoin="round" stroke-miterlimit="10" d="
		M38.148,42.002c0,0.687-0.558,1.245-1.245,1.245l0,0c-0.688,0-1.245-0.559-1.245-1.245v-0.468c0-0.687,0.558-1.244,1.245-1.244l0,0
		c0.688,0,1.245,0.558,1.245,1.244V42.002z"/>
	
		<line fill="none" stroke="#137184" stroke-width="0.8" stroke-linecap="round" stroke-linejoin="round" stroke-miterlimit="10" x1="34.032" y1="17.869" x2="35.038" y2="17.869"/>
	
		<line fill="none" stroke="#137184" stroke-width="0.8" stroke-linecap="round" stroke-linejoin="round" stroke-miterlimit="10" x1="33.558" y1="21.193" x2="35.038" y2="20.467"/>
	
		<line fill="none" stroke="#137184" stroke-width="0.8" stroke-linecap="round" stroke-linejoin="round" stroke-miterlimit="10" x1="16.607" y1="17.995" x2="15.738" y2="18.048"/>
	
		<line fill="none" stroke="#137184" stroke-width="0.8" stroke-linecap="round" stroke-linejoin="round" stroke-miterlimit="10" x1="16.865" y1="21.287" x2="15.368" y2="20.467"/>
</g>
</svg>
