<?xml version="1.0" encoding="utf-8"?>
<!-- Generator: Adobe Illustrator 15.1.0, SVG Export Plug-In . SVG Version: 6.00 Build 0)  -->
<!DOCTYPE svg PUBLIC "-//W3C//DTD SVG 1.1//EN" "http://www.w3.org/Graphics/SVG/1.1/DTD/svg11.dtd">
<svg version="1.1" id="Layer_1" xmlns="http://www.w3.org/2000/svg" xmlns:xlink="http://www.w3.org/1999/xlink" x="0px" y="0px"
	 width="99.137px" height="77.766px" viewBox="0 0 99.137 77.766" enable-background="new 0 0 99.137 77.766" xml:space="preserve">
<g>
	<polygon fill="#A3A49E" points="40.876,57.479 38.912,66.046 33.618,70.451 32.703,72.006 34.69,76.691 41.4,77.766 44.901,76.699 
		46.455,75.319 48.896,75.785 50.577,69.912 	"/>
	<g>
		<g>
			<polygon fill="#E86E62" points="51.619,67.192 52.891,68.442 52.524,70.651 49.728,72.752 48.458,71.258 48.163,70.812 
				48.367,69.588 50.719,68.597 			"/>
			<polygon fill="#C66661" points="51.321,69.267 51.829,70.215 48.765,71.481 48.969,70.256 			"/>
		</g>
		<g>
			<polygon fill="#AF9A92" points="71.868,14.451 68.375,8.302 61.686,0 61.301,2.306 62.407,5.453 59.26,1.668 58.827,4.264 
				59.619,6.618 56.352,4.888 56.543,7.735 57.588,9.465 54.26,8.538 54.489,10.727 55.509,12.6 52.723,11.985 53.155,14.281 
				53.911,15.518 51.929,16.743 52.53,18.917 51.483,19.408 51.626,22.102 50.966,22.508 51.651,25.067 51.002,25.403 
				51.518,27.194 51.325,27.9 51.952,30.355 52.094,29.957 			"/>
			<polygon fill="#A38368" points="51.952,30.355 50.975,33.104 51.997,30.532 			"/>
			
				<rect x="70.944" y="16.039" transform="matrix(0.4941 0.8694 -0.8694 0.4941 50.7617 -55.1534)" fill="#A38368" width="3.653" height="0"/>
			<polygon fill="#82766A" points="64.209,20.835 73.814,17.878 71.868,14.451 52.094,29.957 51.952,30.355 51.997,30.532 
				50.975,33.104 53.663,36.701 			"/>
			<polygon fill="#A38368" points="73.814,17.878 73.672,17.627 73.672,17.627 			"/>
			<polygon fill="#82766A" points="70.731,15.487 62.526,5.622 68.897,16.938 59.739,6.787 66.704,18.32 57.708,9.633 65.358,19.28 
				53.155,14.281 54.032,15.687 60.956,20.135 51.929,16.743 52.53,18.917 57.995,20.718 50.966,22.508 55.338,23.386 
				51.002,25.403 51.518,27.194 63.372,21.114 			"/>
			<line fill="#655671" x1="62.908" y1="21.085" x2="56.844" y2="26.229"/>
			<path fill="#DFD4C3" d="M60.229,39.347l-3.889-1.104l-2.678-1.541l-2.688-3.598c0,0-6.028-5.599-8.298-7.089
				c-2.27-1.492-4.973-1.274-4.973-1.274l-8.372-3.306l-0.6,0.479l-8.709,1.356l14.34,8.395l-1.201,3.424
				c0,0,2.178,3.493,5.605,6.141l1.21-4.154l8.7,8.461l11.725-5.896L60.229,39.347z"/>
			<polygon fill="#D9CBBA" points="28.732,21.913 29.332,21.435 28.6,21.145 0,18.074 7.435,20.132 2.497,21.307 10.689,22.378 
				6.749,23.795 11.374,24.492 20.023,23.27 			"/>
			<path fill="#1A5650" d="M82.537,38.704l-5.085,0.627l-0.809,0.649l-1.215,0.209l1.377,3.042l2.045,3.34l1.221-0.167
				c0.417-0.631,0.819-1.182,1.316-1.558c1.441-1.093,3.111-0.889,3.111-0.889l0.55-0.03l-2.583-3.32L82.537,38.704z"/>
			<path fill="#27664F" d="M90.264,43.42l-0.336-0.704l0.517-1.099l0.913-2.81l1.978,0.533l-0.114-0.149l-0.877-1.85
				c0,0-1.031-2.246-3.893-2.428c-0.072-0.02-0.147-0.034-0.223-0.05l-2.947,1.521l-2.745,2.318l-0.071,1.903l2.583,3.32l2.44-0.137
				L90.264,43.42z"/>
			<polygon fill="#655671" points="53.663,36.701 57.379,38.616 57.272,28.229 63.739,20.833 55.645,24.82 52.094,29.957 
				50.735,33.212 			"/>
			<polyline fill="#333035" points="86.159,37.568 86.758,37.076 87.852,36.739 88.223,37.616 88.152,38.05 87.78,38.507 
				86.878,38.577 86.434,38.134 86.259,37.695 			"/>
			<g>
				<g>
					<path fill="#F2BE6B" d="M94.961,43.853l2.474,0.488l0.974-0.426l-3.363-2.345l-1.71-2.229l-1.978-0.533l-0.913,2.81
						l-0.517,1.099l0.336,0.704l0.181-0.024l4.708,1.526c0,0,0.395,0.056,0.929,0.119l-1.276-0.251L94.961,43.853z"/>
					<path fill="#D7973A" d="M98.96,44.299l-0.552-0.384l-0.974,0.426l-2.474-0.488l-0.156,0.938l1.276,0.251
						c0.948,0.112,2.336,0.244,2.735,0.121C99.441,44.972,98.96,44.299,98.96,44.299z"/>
				</g>
				<polygon fill="#DBB43A" points="90.445,43.396 89.928,42.716 90.349,41.75 94.961,43.853 94.805,44.79 				"/>
			</g>
			<polygon fill="#5A4A42" points="92.788,41.229 93.764,41.703 93.187,42.001 			"/>
			<path fill="none" d="M56.34,38.242l4.243,1.206l4.277-0.769l4.071,0.013c-0.611-1.212-0.695-6.93-0.695-6.93l2.092-7.207
				l2.02-2.774l0.385-1.418l1.081-2.485l-5.438-9.576L61.686,0l-0.385,2.306l1.105,3.147L59.26,1.668l-0.434,2.596l0.792,2.354
				l-3.267-1.73l0.191,2.848l1.045,1.729L54.26,8.538l0.229,2.188l1.021,1.873l-2.786-0.614l0.432,2.296l0.756,1.236l-1.981,1.226
				l0.601,2.174l-1.047,0.491l0.144,2.693l-0.66,0.406l0.685,2.56l-0.648,0.336l0.516,1.791L51.325,27.9l0.672,2.632l-1.021,2.571
				l2.688,3.598L56.34,38.242z"/>
			<path fill="#E6E7E8" d="M76.805,43.231l-1.377-3.042l-0.969,0.165l1.282,3.698l2.282,3.639l1.238-0.061
				c0.293-0.426,0.553-0.841,0.809-1.227l-1.221,0.167L76.805,43.231z"/>
			<path fill="#184A81" d="M87.921,34.809c-3.122-0.462-7.001,1.738-7.001,1.738l-3.469,2.784l5.085-0.627l2.745-2.318l2.947-1.521
				C88.127,34.843,88.025,34.825,87.921,34.809z"/>
			<polygon fill="#603F38" points="79.262,47.631 78.024,47.691 75.742,44.053 67.921,45.191 68.556,54.26 72.387,52.604 
				74.342,51.597 76.786,50.227 78.365,48.807 			"/>
			<polygon fill="#805C51" points="68.556,54.26 67.973,54.597 60.069,46.993 67.921,45.191 			"/>
			<polygon fill="#6E5040" points="75.742,44.053 74.459,40.354 69.737,42.31 63.83,40.859 59.754,42.199 60.069,46.993 
				67.909,45.485 			"/>
			<polygon fill="#9D8D83" points="60.069,46.993 59.754,42.199 60.403,39.64 52.338,43.405 48.678,45.535 52.161,48.191 			"/>
			<polygon fill="#877A73" points="48.678,45.535 44.762,52.289 40.987,57.438 45.781,53.569 52.161,48.191 			"/>
			<polygon fill="#FFF2DF" points="67.973,54.597 67.881,54.507 60.069,46.993 58.778,53.814 59.209,60.109 62.956,62.955 
				66.476,59.174 67.859,54.886 			"/>
			<polygon fill="#F5E2C6" points="72.387,52.604 70.374,55.341 68.84,56.604 66.476,59.174 67.973,54.597 68.556,54.26 			"/>
			<polygon fill="#D6CCC0" points="53.194,53.326 50.643,61.271 59.245,60.336 58.814,54.041 60.069,46.993 			"/>
			<polygon fill="#E3D6CA" points="57.89,66.182 50.643,61.271 59.209,60.109 62.956,62.955 			"/>
			<polygon fill="#BFB5AB" points="60.069,46.993 53.194,53.326 50.643,61.271 40.987,57.438 52.161,48.191 			"/>
			<polygon fill="#E8DED0" points="58.75,53.986 64.624,51.375 60.069,46.993 			"/>
			<polygon fill="#BFA999" points="40.987,57.438 38.967,65.989 43.729,63.192 50.643,61.271 			"/>
			<polygon fill="#655671" points="60.583,39.448 64.861,38.68 68.932,38.692 71.176,39.331 73.136,40.58 74.459,40.354 
				69.737,42.31 63.83,40.859 			"/>
			<polygon fill="#FDF6E3" points="55.973,41.567 50.528,37.659 39.938,25.557 48.678,45.535 			"/>
			<polygon fill="#9D8D83" points="48.678,45.535 39.978,37.074 39.938,25.557 40.73,27.023 			"/>
			<polygon fill="#A8A198" points="39.978,37.074 34.363,31.664 39.938,25.557 			"/>
			<polygon fill="#ACA59E" points="20.023,23.27 10.44,25.718 14.172,27.256 17.859,27.797 16.838,28.591 19.444,29.84 
				21.402,30.093 20.778,30.729 31.071,35.188 33.162,35.088 34.363,31.664 			"/>
			<polygon fill="#9D8D83" points="10.44,25.718 20.023,23.27 11.374,24.492 9.943,25.514 			"/>
			<polygon fill="#766356" points="68.395,23.937 72.354,21.412 72.184,22.007 72.348,21.781 72.733,20.363 73.814,17.878 
				64.209,20.835 53.663,36.701 56.34,38.242 60.583,39.448 64.861,38.68 64.937,38.68 65.301,32.042 			"/>
			<path fill="#9D8D83" d="M68.237,31.763l2.092-7.207l2.02-2.774l0.125-0.463l-4.078,2.618l-3.094,8.105l-0.364,6.638l3.995,0.013
				C68.321,37.48,68.237,31.763,68.237,31.763z"/>
			<polygon fill="#F2E2CE" points="50.643,61.271 48.901,66.388 50.606,69.931 54.422,68.812 56.411,67.552 57.89,66.182 			"/>
			<polygon fill="#DCC3B1" points="43.729,63.192 50.643,61.271 48.901,66.388 45.112,68.004 43.104,65.623 			"/>
			<polygon fill="#585864" points="47.85,71.521 44.443,72.237 40.805,66.295 38.598,69.977 38.484,75.982 43.538,73.666 			"/>
			<g>
				<polygon fill="#E86E62" points="43.508,67.192 44.78,68.442 44.412,70.651 41.615,72.752 40.346,71.258 40.051,70.812 
					40.256,69.588 42.607,68.597 				"/>
				<polygon fill="#C66661" points="42.607,68.597 43.114,69.546 40.051,70.812 40.256,69.588 				"/>
			</g>
			<polygon fill="#D8CEBF" points="50.606,69.931 48.901,66.388 45.112,68.004 43.104,65.623 43.508,67.192 44.78,68.442 
				44.412,70.651 43.768,71.137 44.443,72.237 47.85,71.521 			"/>
			<path fill="#DCC3B1" d="M50.606,69.931"/>
			<polygon fill="#949198" points="40.804,64.91 40.805,66.295 42.294,68.729 42.607,68.597 43.508,67.192 43.104,65.623 
				43.729,63.192 			"/>
			<polygon fill="#D2C9BB" points="60.559,39.593 53.663,36.701 50.975,33.104 43.61,26.688 40.184,24.974 37.65,24.952 
				39.938,25.557 39.938,25.557 50.528,37.659 55.973,41.567 			"/>
			<polygon fill="#8C7C76" points="63.83,40.859 60.583,39.448 60.345,39.667 59.754,42.199 			"/>
			<path fill="#E2DCD7" d="M39.914,25.701"/>
			<polygon fill="#479578" points="84.08,38.037 86.621,38.461 87.86,39.802 87.333,41.311 			"/>
		</g>
		<polygon fill="#9D998F" points="39.978,37.074 38.768,41.229 39.663,43.27 40.397,49.895 41.932,52.029 45.365,51.25 
			48.678,45.535 		"/>
		<polygon opacity="0.3" fill="#554961" points="64.209,20.835 63.739,20.833 57.272,28.229 57.272,31.273 		"/>
		<polygon fill="#D9CBBA" points="44.885,36.701 52.73,43.33 48.678,45.535 		"/>
		<polygon opacity="0.5" fill="#554961" points="53.663,36.701 61.686,35.188 60.583,39.448 		"/>
		<polygon opacity="0.3" fill="#554961" points="72.387,52.604 71.372,53.986 67.973,54.597 68.556,54.132 		"/>
		<polygon opacity="0.5" fill="#655671" points="34.363,31.664 33.162,35.088 35.414,38.037 38.768,41.229 47.956,46.78 
			48.678,45.535 		"/>
	</g>
	<polygon fill="#BFB5AB" points="39.978,37.074 34.363,31.664 33.162,35.088 35.422,38.047 38.768,41.229 	"/>
</g>
</svg>
