<?xml version="1.0" encoding="utf-8"?>
<!-- Generator: Adobe Illustrator 15.1.0, SVG Export Plug-In . SVG Version: 6.00 Build 0)  -->
<!DOCTYPE svg PUBLIC "-//W3C//DTD SVG 1.1//EN" "http://www.w3.org/Graphics/SVG/1.1/DTD/svg11.dtd">
<svg version="1.1" id="Layer_1" xmlns="http://www.w3.org/2000/svg" xmlns:xlink="http://www.w3.org/1999/xlink" x="0px" y="0px"
	 width="46.367px" height="44.097px" viewBox="15.064 13.653 46.367 44.097" enable-background="new 15.064 13.653 46.367 44.097"
	 xml:space="preserve">
<g>
	<polygon fill="none" stroke="#FFFFFF" stroke-width="0.8" stroke-miterlimit="10" points="31.213,57.351 19.831,49.083 
		15.485,35.702 19.831,22.323 31.213,14.053 45.281,14.053 56.663,22.323 61.01,35.702 56.663,49.083 45.281,57.351 	"/>
	<polygon fill="none" stroke="#FFFFFF" stroke-width="0.8" stroke-miterlimit="10" points="38.842,52.718 28.726,49.818 
		22.247,41.526 21.88,31.009 27.765,22.285 37.653,18.685 47.769,21.586 54.247,29.878 54.615,40.395 48.73,49.119 	"/>
	<line fill="none" stroke="#FFFFFF" stroke-width="0.8" stroke-miterlimit="10" x1="27.765" y1="22.285" x2="31.213" y2="14.053"/>
	<line fill="none" stroke="#FFFFFF" stroke-width="0.8" stroke-miterlimit="10" x1="37.653" y1="18.685" x2="45.281" y2="14.053"/>
	<line fill="none" stroke="#FFFFFF" stroke-width="0.8" stroke-miterlimit="10" x1="47.769" y1="21.586" x2="56.663" y2="22.323"/>
	<line fill="none" stroke="#FFFFFF" stroke-width="0.8" stroke-miterlimit="10" x1="54.247" y1="29.878" x2="61.01" y2="36.206"/>
	<line fill="none" stroke="#FFFFFF" stroke-width="0.8" stroke-miterlimit="10" x1="54.615" y1="40.395" x2="56.663" y2="49.083"/>
	<line fill="none" stroke="#FFFFFF" stroke-width="0.8" stroke-miterlimit="10" x1="48.73" y1="49.119" x2="45.281" y2="57.351"/>
	<line fill="none" stroke="#FFFFFF" stroke-width="0.8" stroke-miterlimit="10" x1="38.842" y1="52.718" x2="31.213" y2="57.351"/>
	<line fill="none" stroke="#FFFFFF" stroke-width="0.8" stroke-miterlimit="10" x1="28.726" y1="49.818" x2="19.831" y2="49.083"/>
	<line fill="none" stroke="#FFFFFF" stroke-width="0.8" stroke-miterlimit="10" x1="22.247" y1="41.526" x2="15.485" y2="35.702"/>
	<line fill="none" stroke="#FFFFFF" stroke-width="0.8" stroke-miterlimit="10" x1="21.88" y1="31.009" x2="19.831" y2="22.323"/>
</g>
<g>
	<polygon fill="none" stroke="#FFFFFF" stroke-width="0.8" stroke-miterlimit="10" points="33.906,49.062 26.883,43.958 
		24.2,35.702 26.883,27.445 33.906,22.343 42.588,22.343 49.612,27.445 52.294,35.702 49.612,43.958 42.588,49.062 	"/>
	<polygon fill="none" stroke="#FFFFFF" stroke-width="0.8" stroke-miterlimit="10" points="38.614,46.203 32.371,44.414 
		28.373,39.295 28.148,32.806 31.779,27.422 37.881,25.201 44.123,26.991 48.121,32.109 48.347,38.598 44.716,43.982 	"/>
	<line fill="none" stroke="#FFFFFF" stroke-width="0.8" stroke-miterlimit="10" x1="31.779" y1="27.422" x2="33.906" y2="22.343"/>
	<line fill="none" stroke="#FFFFFF" stroke-width="0.8" stroke-miterlimit="10" x1="37.881" y1="25.201" x2="42.588" y2="22.343"/>
	<line fill="none" stroke="#FFFFFF" stroke-width="0.8" stroke-miterlimit="10" x1="44.123" y1="26.991" x2="49.612" y2="27.445"/>
	<line fill="none" stroke="#FFFFFF" stroke-width="0.8" stroke-miterlimit="10" x1="48.121" y1="32.109" x2="52.294" y2="36.013"/>
	<line fill="none" stroke="#FFFFFF" stroke-width="0.8" stroke-miterlimit="10" x1="48.347" y1="38.598" x2="49.612" y2="43.958"/>
	<line fill="none" stroke="#FFFFFF" stroke-width="0.8" stroke-miterlimit="10" x1="44.716" y1="43.982" x2="42.588" y2="49.062"/>
	<line fill="none" stroke="#FFFFFF" stroke-width="0.8" stroke-miterlimit="10" x1="38.614" y1="46.203" x2="33.906" y2="49.062"/>
	<line fill="none" stroke="#FFFFFF" stroke-width="0.8" stroke-miterlimit="10" x1="32.371" y1="44.414" x2="26.883" y2="43.958"/>
	<line fill="none" stroke="#FFFFFF" stroke-width="0.8" stroke-miterlimit="10" x1="28.373" y1="39.295" x2="24.2" y2="35.702"/>
	<line fill="none" stroke="#FFFFFF" stroke-width="0.8" stroke-miterlimit="10" x1="28.148" y1="32.806" x2="26.883" y2="27.445"/>
</g>
</svg>
