<?xml version="1.0" encoding="utf-8"?>
<!-- Generator: Adobe Illustrator 15.1.0, SVG Export Plug-In . SVG Version: 6.00 Build 0)  -->
<!DOCTYPE svg PUBLIC "-//W3C//DTD SVG 1.1//EN" "http://www.w3.org/Graphics/SVG/1.1/DTD/svg11.dtd">
<svg version="1.1" id="Layer_1" xmlns="http://www.w3.org/2000/svg" xmlns:xlink="http://www.w3.org/1999/xlink" x="0px" y="0px"
	 width="76.844px" height="73.083px" viewBox="0 0 76.844 73.083" enable-background="new 0 0 76.844 73.083" xml:space="preserve">
<g>
	<g>
		<polygon fill="none" stroke="#147185" stroke-miterlimit="10" points="26.712,72.583 7.764,58.816 0.526,36.541 7.764,14.267 
			26.712,0.5 50.133,0.5 69.081,14.267 76.319,36.541 69.081,58.816 50.133,72.583 		"/>
		<polygon fill="none" stroke="#147185" stroke-miterlimit="10" points="39.412,64.87 22.571,60.042 11.785,46.236 11.174,28.729 
			20.971,14.204 37.433,8.212 54.274,13.041 65.059,26.846 65.67,44.354 55.874,58.878 		"/>
		<line fill="none" stroke="#147185" stroke-miterlimit="10" x1="20.971" y1="14.204" x2="26.712" y2="0.5"/>
		<line fill="none" stroke="#147185" stroke-miterlimit="10" x1="37.433" y1="8.212" x2="50.133" y2="0.5"/>
		<line fill="none" stroke="#147185" stroke-miterlimit="10" x1="54.274" y1="13.041" x2="69.081" y2="14.267"/>
		<line fill="none" stroke="#147185" stroke-miterlimit="10" x1="65.059" y1="26.846" x2="76.319" y2="37.379"/>
		<line fill="none" stroke="#147185" stroke-miterlimit="10" x1="65.67" y1="44.354" x2="69.081" y2="58.816"/>
		<line fill="none" stroke="#147185" stroke-miterlimit="10" x1="55.874" y1="58.878" x2="50.133" y2="72.583"/>
		<line fill="none" stroke="#147185" stroke-miterlimit="10" x1="39.412" y1="64.87" x2="26.712" y2="72.583"/>
		<line fill="none" stroke="#147185" stroke-miterlimit="10" x1="22.571" y1="60.042" x2="7.764" y2="58.816"/>
		<line fill="none" stroke="#147185" stroke-miterlimit="10" x1="11.785" y1="46.236" x2="0.526" y2="36.541"/>
		<line fill="none" stroke="#147185" stroke-miterlimit="10" x1="11.174" y1="28.729" x2="7.764" y2="14.267"/>
	</g>
	<g>
		<polygon fill="none" stroke="#147185" stroke-miterlimit="10" points="31.196,58.783 19.502,50.287 15.037,36.541 19.502,22.795 
			31.196,14.301 45.649,14.301 57.342,22.795 61.808,36.541 57.342,50.287 45.649,58.783 		"/>
		<polygon fill="none" stroke="#147185" stroke-miterlimit="10" points="39.033,54.022 28.641,51.044 21.985,42.523 21.608,31.72 
			27.653,22.757 37.812,19.059 48.204,22.039 54.86,30.559 55.237,41.363 49.192,50.325 		"/>
		<line fill="none" stroke="#147185" stroke-miterlimit="10" x1="27.653" y1="22.757" x2="31.196" y2="14.301"/>
		<line fill="none" stroke="#147185" stroke-miterlimit="10" x1="37.812" y1="19.059" x2="45.649" y2="14.301"/>
		<line fill="none" stroke="#147185" stroke-miterlimit="10" x1="48.204" y1="22.039" x2="57.342" y2="22.795"/>
		<line fill="none" stroke="#147185" stroke-miterlimit="10" x1="54.86" y1="30.559" x2="61.808" y2="37.059"/>
		<line fill="none" stroke="#147185" stroke-miterlimit="10" x1="55.237" y1="41.363" x2="57.342" y2="50.287"/>
		<line fill="none" stroke="#147185" stroke-miterlimit="10" x1="49.192" y1="50.325" x2="45.649" y2="58.783"/>
		<line fill="none" stroke="#147185" stroke-miterlimit="10" x1="39.033" y1="54.022" x2="31.196" y2="58.783"/>
		<line fill="none" stroke="#147185" stroke-miterlimit="10" x1="28.641" y1="51.044" x2="19.502" y2="50.287"/>
		<line fill="none" stroke="#147185" stroke-miterlimit="10" x1="21.985" y1="42.523" x2="15.037" y2="36.541"/>
		<line fill="none" stroke="#147185" stroke-miterlimit="10" x1="21.608" y1="31.72" x2="19.502" y2="22.795"/>
	</g>
</g>
</svg>
