<?xml version="1.0" encoding="utf-8"?>
<!-- Generator: Adobe Illustrator 15.1.0, SVG Export Plug-In . SVG Version: 6.00 Build 0)  -->
<!DOCTYPE svg PUBLIC "-//W3C//DTD SVG 1.1//EN" "http://www.w3.org/Graphics/SVG/1.1/DTD/svg11.dtd">
<svg version="1.1" id="Layer_1" xmlns="http://www.w3.org/2000/svg" xmlns:xlink="http://www.w3.org/1999/xlink" x="0px" y="0px"
	 width="75.588px" height="63.959px" viewBox="0 0 75.588 63.959" enable-background="new 0 0 75.588 63.959" xml:space="preserve">
<g>
	<polygon fill="#98CC74" points="10.342,54.829 22.145,60.799 53.727,57.555 59.176,62.063 75.518,51.302 75.588,50.958 
		5.338,47.554 0,52.723 3.461,51.797 	"/>
	<polygon fill="#57A653" points="22.145,63.453 41.971,63.453 50.866,62.063 59.712,63.959 68.025,59.407 74.602,55.757 
		75.518,51.302 59.176,62.063 53.727,57.555 22.145,60.799 10.342,54.829 3.461,51.797 0,52.723 1.897,58.144 	"/>
	<polyline fill="#86C77C" points="70.539,51.874 75.588,50.958 69.892,47.243 66.91,45.367 60.186,42.957 35.995,42.636 
		24.879,43.298 13.472,42.858 5.338,47.554 3.461,51.797 1.083,55.737 10.342,54.829 24.733,57.555 51.762,57.555 61.396,57.555 
		70.539,51.874 	"/>
	<polygon opacity="0.5" fill="#8BC53F" points="70.908,51.646 35.995,56.325 22.383,53.078 3.461,51.797 1.897,58.144 
		10.342,54.829 24.733,57.555 53.727,57.555 	"/>
	<polygon fill="#77BA70" points="11.735,43.861 14.616,46.696 10.734,52.291 19.979,47.258 37.414,50.504 54.653,48.075 
		40.229,43.861 47.255,43.115 58.635,42.904 35.995,42.636 28.671,46.36 	"/>
	<polygon fill="#98CC74" points="24.482,53.58 46.504,51.952 35.995,56.325 	"/>
	<polygon fill="#93CA74" points="23.581,45.609 28.671,46.36 35.995,42.636 35.995,42.636 24.879,43.298 	"/>
	<path fill="#A3D292" d="M15.258,49.827l4.722-2.569l12.713,5.465c0,0-11.51-2.799-11.789-2.733
		C20.625,50.056,15.258,49.827,15.258,49.827z"/>
	<polygon fill="#77BA70" points="60.439,47.114 54,45.102 64.998,45.981 66.91,45.367 75.588,50.958 64.998,46.36 	"/>
	<path fill="#98CC74" d="M54.326,45.128l6.113,1.986l-10.906-0.535c0,0-8.453-2.47-8.648-2.527
		C40.688,43.994,54.326,45.128,54.326,45.128z"/>
	<polygon opacity="0.4" fill="#2C307B" points="57.742,51.763 60.439,48.029 60.959,45.583 66.105,45.583 60.186,42.957 
		48.92,42.957 36.927,41.789 18.224,42.703 14.338,44.05 15.773,44.972 18.224,47.239 22.888,48.029 27.173,48.654 33.501,48.856 
		36.345,48.856 34.69,53.918 40.217,53.918 44.313,47.114 51.992,48.856 52.872,52.237 55.257,53.328 	"/>
	<g>
		<polygon fill="#37B783" points="19.601,14.149 15.974,17.715 23.174,16.493 30.188,17.919 25.679,13.741 		"/>
		<polygon fill="#85CA9B" points="19.601,14.149 23.174,16.493 23.13,8.444 		"/>
		<polygon fill="#8CCC9A" points="16.661,30.552 22.443,31.775 17.737,38.805 		"/>
		<polygon fill="#13A36D" points="23.13,8.444 23.174,16.493 25.679,13.741 		"/>
		<polygon fill="#13A36D" points="15.974,17.715 23.174,16.493 19.111,20.263 		"/>
		<polygon fill="#13A36D" points="26.658,20.16 22.443,31.775 29.305,30.96 		"/>
		<polygon fill="#13A36D" points="22.443,31.775 17.737,38.805 23.815,39.313 		"/>
		<path fill="#13A36D" d="M16.661,30.552l1.077,8.253c0,0-4.166-2.366-3.797-2.608C14.308,35.951,16.661,30.552,16.661,30.552z"/>
		<polygon fill="#07815D" points="15.974,24.337 16.661,30.552 19.111,20.263 		"/>
		<path fill="#13A36D" d="M23.723,38.805c0,0,0.046,0.148,0.124,0.398c0.486,1.563,2.419,6.631,2.419,6.631
			c0.196-0.61,2.549-7.029,2.549-7.029l0.49-7.845L23.723,38.805z"/>
		<polygon fill="#13A36D" points="19.994,45.834 17.737,38.702 14.014,43.999 		"/>
		<polygon fill="#07815D" points="30.188,17.919 23.174,16.493 26.658,20.16 		"/>
		<polygon fill="#07815D" points="26.658,20.16 29.305,30.96 29.796,24.949 		"/>
		<polygon fill="#07815D" points="22.443,31.775 29.305,30.96 23.815,39.313 		"/>
		<polygon fill="#07815D" points="17.737,38.805 19.994,45.834 23.815,39.313 		"/>
		<polygon fill="#07815D" points="26.267,45.834 28.815,38.805 29.305,30.96 32.051,36.36 29.305,39.313 32.148,44.408 		"/>
		<polygon fill="#13A36D" points="34.012,27.615 29.796,24.867 29.305,30.979 		"/>
		<polygon fill="#37B783" points="15.974,24.337 16.661,30.552 12.053,27.393 		"/>
		<polygon fill="#37B783" points="19.111,20.263 22.443,31.775 26.658,20.16 		"/>
		<polygon fill="#37B783" points="17.737,38.782 8.72,39.903 14.108,36.066 		"/>
		<polygon fill="#85CA9B" points="19.111,20.263 23.174,16.493 26.658,20.16 		"/>
		<polygon fill="#85CA9B" points="16.661,30.552 17.737,38.805 8.72,39.926 14.014,43.999 18.712,37.351 22.443,31.775 		"/>
		<polygon fill="#13A36D" points="22.443,31.775 19.111,20.263 16.661,30.552 		"/>
		<polygon fill="#37B783" points="23.815,39.313 29.305,30.96 28.815,38.805 23.815,39.313 26.267,45.834 19.994,45.834 		"/>
		<polygon fill="#13A36D" points="32.051,36.36 37.639,40.13 29.305,39.313 		"/>
		<polygon fill="#0F5640" points="37.639,40.13 32.148,44.408 29.305,39.313 		"/>
	</g>
	<g>
		<polygon fill="#37B783" points="42.633,7.048 38.154,11.45 47.045,9.94 55.709,11.701 50.14,6.544 		"/>
		<polygon fill="#85CA9B" points="42.633,7.048 47.045,9.94 46.991,0 		"/>
		<polygon fill="#8CCC9A" points="39.001,27.306 46.145,28.814 40.332,37.497 		"/>
		<polygon fill="#13A36D" points="46.991,0 47.045,9.94 50.14,6.544 		"/>
		<polygon fill="#13A36D" points="38.154,11.45 47.045,9.94 42.029,14.597 		"/>
		<polygon fill="#13A36D" points="51.35,14.473 46.145,28.814 54.619,27.807 		"/>
		<polygon fill="#13A36D" points="46.145,28.814 40.332,37.497 47.84,38.125 		"/>
		<path fill="#13A36D" d="M39.001,27.306l1.331,10.191c0,0-5.146-2.923-4.691-3.224C36.096,33.974,39.001,27.306,39.001,27.306z"/>
		<polygon fill="#07815D" points="38.154,19.629 39.001,27.306 42.029,14.597 		"/>
		<path fill="#13A36D" d="M47.725,37.497c0,0,0.057,0.184,0.152,0.49c0.601,1.931,2.989,8.192,2.989,8.192
			c0.242-0.755,3.147-8.683,3.147-8.683l0.605-9.69L47.725,37.497z"/>
		<polygon fill="#13A36D" points="43.117,46.18 40.332,37.371 35.732,43.915 		"/>
		<polygon fill="#07815D" points="55.709,11.701 47.045,9.94 51.35,14.473 		"/>
		<polygon fill="#07815D" points="51.35,14.473 54.619,27.807 55.226,20.386 		"/>
		<polygon fill="#07815D" points="46.145,28.814 54.619,27.807 47.84,38.125 		"/>
		<polygon fill="#07815D" points="40.332,37.497 43.117,46.18 47.84,38.125 		"/>
		<polygon fill="#07815D" points="50.866,46.18 54.014,37.497 54.619,27.807 58.01,34.477 54.619,38.125 58.131,44.419 		"/>
		<polygon fill="#13A36D" points="60.432,23.679 55.226,20.283 54.619,27.832 		"/>
		<polygon fill="#37B783" points="38.154,19.629 39.001,27.306 33.311,23.405 		"/>
		<polygon fill="#37B783" points="42.029,14.597 46.145,28.814 51.35,14.473 		"/>
		<polygon fill="#37B783" points="40.332,37.47 29.194,38.854 35.85,34.115 		"/>
		<polygon fill="#85CA9B" points="42.029,14.597 47.045,9.94 51.35,14.473 		"/>
		<polygon fill="#85CA9B" points="39.001,27.306 40.332,37.497 29.194,38.881 35.732,43.915 41.534,35.7 46.145,28.814 		"/>
		<polygon fill="#13A36D" points="46.145,28.814 42.029,14.597 39.001,27.306 		"/>
		<polygon fill="#37B783" points="47.84,38.125 54.619,27.807 54.014,37.497 47.84,38.125 50.866,46.18 43.117,46.18 		"/>
		<polygon fill="#13A36D" points="58.01,34.477 64.91,39.132 54.619,38.125 		"/>
		<polygon fill="#0F5640" points="64.91,39.132 58.131,44.419 54.619,38.125 		"/>
	</g>
	<g>
		<polygon fill="#C0D52F" points="49.004,19.523 51.57,16.532 56.646,14.966 59.939,19.082 65.238,21.696 67.08,26.91 67.08,30.272 
			63.286,33.788 63.007,36.708 60.552,39.781 56.145,40.071 51.85,39.725 48,38.97 45.656,36.535 45.656,32.251 42.477,27.518 
			42.477,25.866 41.807,24.296 43.928,20.996 		"/>
		<polyline fill="#748838" points="63.32,33.605 63.131,36.571 60.662,39.793 56.103,40.071 56.813,33.605 		"/>
		<polygon fill="#8EAB3D" points="67.189,30.285 60.401,26.061 63.396,33.801 		"/>
		<polygon fill="#8EAB3D" points="63.117,36.722 56.813,33.801 60.662,39.793 		"/>
		<polygon fill="#8EAB3D" points="51.959,39.736 51.959,33.801 48.111,38.982 		"/>
		<polygon fill="#8EAB3D" points="56.757,14.979 54.553,22.806 60.049,19.096 		"/>
		<polygon fill="#A4BF39" points="65.349,21.71 60.496,25.879 67.189,26.923 		"/>
		<polygon fill="#A4BF39" points="52.125,33.613 45.767,36.546 48.111,38.982 		"/>
		<polygon fill="#D8E26A" points="54.553,22.806 56.757,14.979 51.68,16.545 54.553,22.806 50.621,24.893 44.039,21.009 
			41.918,24.309 50.559,25.039 60.401,26.061 		"/>
		<path fill="#D8E26A" d="M45.767,32.263"/>
		<polygon fill="#D8E26A" points="51.959,33.605 50.559,25.039 45.767,32.263 		"/>
		<path fill="#D8E26A" d="M56.681,33.605"/>
		<polyline fill="#A4BF39" points="56.681,33.801 56.103,40.071 56.813,33.801 60.401,26.061 54.553,22.806 49.346,19.266 
			50.559,25.039 56.681,33.605 		"/>
		<polygon fill="#8EAB3D" points="60.393,19.266 60.401,26.061 65.349,21.71 		"/>
		<polygon fill="#81983B" points="51.959,33.605 51.959,39.736 56.813,33.801 		"/>
		<polygon fill="#D8E26A" points="50.678,25.204 54.386,30.567 60.401,26.061 		"/>
		<polyline fill="none" points="56.813,33.801 56.787,33.832 51.959,39.736 56.103,40.071 55.54,45.044 55.728,52.945 
			52.256,53.265 52.564,45.521 51.949,39.786 		"/>
		<polygon fill="#A87C4F" points="55.54,45.044 51.949,39.786 56.103,40.071 		"/>
		<polygon fill="#8A5D3B" points="55.54,45.044 52.256,53.265 55.728,52.945 		"/>
		<polygon fill="#CB9260" points="55.54,45.044 51.949,39.786 52.564,45.521 		"/>
		<polygon fill="#E4C081" points="52.564,45.521 55.54,45.044 52.256,53.265 52.256,53.265 		"/>
		<polygon fill="#A4BF39" points="65.349,21.71 60.401,26.061 67.189,26.923 		"/>
	</g>
	<polygon opacity="0.4" fill="#2C307B" points="19.994,45.834 23.815,39.313 22.145,32.4 26.68,30.96 23.974,27.832 26.267,21.505 
		37.973,16.759 44.086,25.67 47.725,28.149 45.767,32.263 51.959,33.605 52.125,39.313 56.787,33.832 63.117,36.722 60.662,39.793 
		58.131,44.419 60.959,45.583 55.257,53.328 52.256,53.265 53.112,45.834 44.086,46.361 35.995,45.044 34.012,42.753 33.472,45.102 
		25.874,47.114 	"/>
	<g>
		<polygon fill="#9EBA3B" points="24.601,33.524 26.735,30.52 31.456,28.481 35.109,31.773 40.528,33.467 42.908,37.922 
			43.295,40.946 40.039,44.575 40.105,47.237 38.09,50.303 33.869,51.11 29.68,51.329 25.876,51.128 23.331,49.229 22.836,45.38 
			19.22,41.52 19.029,40.035 18.202,38.705 19.869,35.477 		"/>
		<polyline fill="#748838" points="40.053,44.408 40.211,47.098 38.197,50.299 33.827,51.114 33.767,45.217 		"/>
		<polygon fill="#8EAB3D" points="43.404,40.944 36.362,37.987 40.146,44.574 		"/>
		<polygon fill="#8EAB3D" points="40.215,47.234 33.789,45.39 38.197,50.299 		"/>
		<polygon fill="#8EAB3D" points="29.788,51.327 29.104,45.991 25.983,51.126 		"/>
		<polygon fill="#8EAB3D" points="31.564,28.479 30.338,35.787 35.217,31.77 		"/>
		<polygon fill="#A4BF39" points="40.637,33.464 36.431,37.813 43.017,37.921 		"/>
		<polygon fill="#A4BF39" points="29.24,45.802 23.439,49.228 25.983,51.126 		"/>
		<polygon fill="#D8E26A" points="30.338,35.787 31.564,28.479 26.841,30.515 30.338,35.787 26.782,38.149 19.977,35.475 
			18.312,38.704 26.739,38.29 36.362,37.987 		"/>
		<path fill="#D8E26A" d="M22.945,45.376"/>
		<polygon fill="#D8E26A" points="29.08,45.816 26.739,38.29 22.945,45.376 		"/>
		<path fill="#D8E26A" d="M33.638,45.232"/>
		<polyline fill="#A4BF39" points="33.662,45.407 33.827,51.114 33.789,45.39 36.362,37.987 30.338,35.787 24.902,33.25 
			26.739,38.29 33.638,45.232 		"/>
		<polygon fill="#8EAB3D" points="35.568,31.881 36.362,37.987 40.637,33.464 		"/>
		<polygon fill="#81983B" points="29.08,45.816 29.788,51.327 33.789,45.39 		"/>
		<polygon fill="#D8E26A" points="26.872,38.425 31.071,42.784 36.362,37.987 		"/>
		<polygon fill="#A4BF39" points="40.637,33.464 36.362,37.987 43.017,37.921 		"/>
	</g>
	<g>
		<g>
			<rect x="34.69" y="28.149" fill="#A8BFC8" width="5.526" height="25.769"/>
			<g>
				<rect x="36.345" y="28.149" fill="#E6E7E8" width="2.058" height="25.769"/>
			</g>
		</g>
		<g>
			<g>
				<polygon fill="#F9F080" points="37.346,3.08 36.888,16.659 22.684,17.744 				"/>
				<polygon fill="#FBDC3A" points="32.08,27.138 36.888,16.659 42.615,27.138 37.346,32.406 				"/>
				<path fill="#FFD126" d="M47.053,12.785c-0.473,0.367-10.165,3.874-10.165,3.874l5.727,10.479l9.396-9.394L47.053,12.785z"/>
				<polygon fill="#FBDC3A" points="37.346,3.179 36.888,16.759 47.053,12.885 				"/>
				<polygon fill="#F9EA37" points="36.888,16.659 32.08,27.138 22.684,17.744 				"/>
				<polygon opacity="0.4" fill="#FAF180" points="30.997,9.969 46.693,12.966 37.346,31.868 22.684,18.281 				"/>
				<path fill="#404041" d="M37.346,32.946L22.145,17.744L37.346,2.542l15.203,15.202L37.346,32.946z M23.223,17.744l14.124,14.124
					l14.126-14.124L37.346,3.618L23.223,17.744z"/>
			</g>
			<polygon fill="#104739" points="37.298,8.705 35.893,11.086 34.291,12.315 35.698,13.372 34.449,14.897 32.514,15.766 
				34.722,17.223 33.63,18.938 30.515,20.608 33.667,22.255 36.361,22.792 35.698,24.523 38.697,24.611 38.314,22.792 
				40.889,22.407 44.18,20.608 40.953,19.091 39.824,17.497 42.201,16.06 39.953,15.096 38.703,13.336 40.109,12.497 38.314,10.932 
							"/>
		</g>
	</g>
</g>
</svg>
