<?xml version="1.0" encoding="utf-8"?>
<!-- Generator: Adobe Illustrator 17.1.0, SVG Export Plug-In . SVG Version: 6.00 Build 0)  -->
<!DOCTYPE svg PUBLIC "-//W3C//DTD SVG 1.1//EN" "http://www.w3.org/Graphics/SVG/1.1/DTD/svg11.dtd">
<svg version="1.1" id="Шар_1" xmlns="http://www.w3.org/2000/svg" xmlns:xlink="http://www.w3.org/1999/xlink" x="0px" y="0px"
	 viewBox="0 0 31 31" enable-background="new 0 0 31 31" xml:space="preserve">
<path fill="#1EA6A8" d="M25.6,2.9L15.5,0L5.4,2.9L0,10.4l1.9,8.5l8.1,5.4V31l10.9-6.5h0l8.2-5.5l1.9-8.5L25.6,2.9z M16.8,19.6
	l-0.7,0.8h-1l-0.7-0.8v-1.1l0.7-0.8h1l0.7,0.8V19.6z M20.2,12.2l-3.4,3.4v1.5h-2.5v-2.7l3.4-3.4V9.3L17,8.5h-2.7l-1.8,2l-1.7-2
	l2.4-2.7h5l2.1,2.4V12.2z"/>
</svg>
