<?xml version="1.0" encoding="utf-8"?>
<!-- Generator: Adobe Illustrator 15.1.0, SVG Export Plug-In . SVG Version: 6.00 Build 0)  -->
<!DOCTYPE svg PUBLIC "-//W3C//DTD SVG 1.1//EN" "http://www.w3.org/Graphics/SVG/1.1/DTD/svg11.dtd">
<svg version="1.1" id="Layer_1" xmlns="http://www.w3.org/2000/svg" xmlns:xlink="http://www.w3.org/1999/xlink" x="0px" y="0px"
	 width="89.202px" height="58.97px" viewBox="0 0 89.202 58.97" enable-background="new 0 0 89.202 58.97" xml:space="preserve">
<g>
	<g>
		<polyline opacity="0.5" fill="#362010" points="76.533,24.333 77.34,22.593 76.928,24.306 76.533,24.333 		"/>
		<g>
			<polygon fill="#D08F41" points="37.72,6.844 45.047,6.844 46.782,6.267 51.602,4.724 59.893,3.47 65.485,1.348 67.607,0 
				72.524,0 74.065,0.867 79.174,2.121 83.321,2.603 84.864,2.603 84.864,3.953 87.467,5.688 87.467,7.808 89.202,10.412 
				88.624,11.377 86.599,13.104 84.092,12.244 81.875,13.104 80.139,11.665 77.343,11.471 75.125,13.496 72.331,14.557 
				77.343,16.003 79.463,17.739 80.526,21.195 80.814,23.041 79.85,25.934 78.501,25.934 76.573,25.164 76.669,22.078 77.44,21.195 
				76.573,19.763 73.102,18.895 73.102,20.533 70.981,22.462 66.45,23.041 63.943,22.56 62.497,21.788 62.593,20.149 65.968,19.859 
				66.161,19.839 67.702,19.668 68.737,18.542 66.256,18.221 65.652,16.825 65.485,17.739 59.508,18.317 53.627,17.643 
				51.024,17.064 48.903,18.125 46.59,17.544 44.179,17.932 37.72,23.522 35.214,25.258 34.099,25.934 30.103,29.115 27.693,30.079 
				23.74,35.671 24.512,37.118 24.415,38.274 20.849,38.757 19.981,37.213 18.823,35.478 18.823,33.164 20.463,31.427 24.03,25.355 
				29.235,21.595 30.683,19.378 30.586,17.353 26.921,19.378 19.884,19.378 13.715,16.486 9.665,12.244 10.147,9.737 12.268,9.64 
				14.774,11.952 17.764,14.172 21.137,15.908 27.019,14.848 31.067,12.244 34.056,8.481 			"/>
			<polyline fill="#EAA847" points="86.428,12.035 88.927,10.869 89.202,10.412 87.467,7.808 87.467,5.688 84.864,3.953 
				80.467,3.953 78.501,6.921 79.877,9.124 81.875,13.104 84.438,12.362 86.599,13.104 			"/>
			<polygon fill="#D7AE6A" points="84.864,3.953 84.45,5.665 83.469,5.665 82.977,6.102 82.596,7.574 82.106,5.993 82.596,3.592 
				83.321,2.603 84.864,2.603 			"/>
			<path fill="#362010" d="M83.169,2.808c-0.056,0.079-2.374,1.004-2.374,1.004l-0.328,1.854l1.351,1.473l0.778,0.437l-0.49-1.581
				l0.49-2.401l0.725-0.989L83.169,2.808z"/>
			<polygon fill="#673714" points="82.596,3.592 80.795,3.812 83.321,2.603 			"/>
			<polygon fill="#825424" points="82.977,6.102 82.616,5.174 83.741,4.246 83.469,5.665 			"/>
			<polyline fill="#FAC66B" points="82.596,3.592 84.397,2.938 84.864,3.953 84.864,2.603 83.321,2.603 82.826,3.276 			"/>
			<path fill="none" stroke="#29B473" stroke-width="0.25" stroke-miterlimit="10" d="M66.064,20.615"/>
			<polygon opacity="0.7" fill="#673714" points="65.436,20.615 66.336,21.487 67.36,22.184 70.1,22.184 71.942,20.615 
				73.102,20.533 70.981,22.462 66.45,23.041 63.943,22.56 62.497,21.788 63.432,20.793 			"/>
			<polygon fill="#362010" points="63.597,22.377 63.597,21.195 64.7,20.615 64.7,21.195 65.19,21.871 65.19,20.615 66.98,19.745 
				62.593,20.149 62.497,21.788 			"/>
			<polygon fill="#362010" points="77.44,21.195 77.44,19.745 78.122,21.195 79.05,21.433 79.05,22.377 78.613,23.125 79.05,23.396 
				79.05,24.814 78.613,24.814 78.501,25.934 76.573,25.164 76.669,22.078 			"/>
			<polygon opacity="0.8" fill="#78612F" points="75.366,13.278 77.811,10.249 79.813,9.32 81.122,11.013 82.106,12.158 
				83.484,11.299 84.864,11.299 86.599,13.104 84.092,12.244 81.875,13.104 80.139,11.665 77.343,11.471 			"/>
			<polygon opacity="0.8" fill="#78612F" points="75.125,13.496 72.612,11.723 70.974,12.61 72.01,14.668 72.228,14.505 			"/>
			<path fill="#362010" d="M67.277,6.921c-0.001,0-0.056,0.041-0.151,0.112c-0.623,0.476-2.957,2.287-2.957,2.287l-0.736,2.402
				l1.635,2.399l1.913,1.964l1.894,2.169l-1.172,1.413l2.154-0.29l0.653-1.288l-0.858-2.453l-3.587-1.8l-0.177-1.762l-1.149-2.21
				L67.277,6.921z"/>
			<polygon opacity="0.7" fill="#673714" points="77.44,21.195 76.573,19.763 75.125,17.189 77.506,17.641 78.817,19.074 
				80.467,21.195 79.799,23.409 79.05,23.821 77.098,22.377 			"/>
			<polygon opacity="0.7" fill="#673714" points="46.59,17.544 47.022,16.904 48.782,17.189 50.35,16.331 53.936,16.938 
				59.508,18.317 53.627,17.643 51.024,17.064 48.903,18.125 			"/>
			<polygon opacity="0.7" fill="#673714" points="80.735,10.514 81.895,9.702 82.376,10.44 83.484,9.702 85.243,10.44 85.773,10.44 
				86.428,12.035 87.698,11.299 88.927,10.869 86.599,13.104 85.042,11.484 83.484,11.299 82.106,12.158 			"/>
			<polygon fill="#362010" points="86.168,11.402 86.428,12.035 87.698,11.299 87.698,9.32 86.933,7.86 86.599,7.247 86.168,7.781 
				85.447,7.983 86.386,8.064 87.247,9.64 87.288,10.93 			"/>
			<polygon opacity="0.7" fill="#673714" points="81.254,8.679 81.835,9.702 82.319,10.44 84.499,10.151 84.804,9.32 85.387,8.679 
				85.387,7.983 84.2,8.722 82.557,9.212 81.835,8.434 			"/>
			<polygon opacity="0.7" fill="#673714" points="80.795,3.812 79.717,6.102 80.256,7.574 82.596,7.574 80.467,5.665 			"/>
			<polygon opacity="0.5" fill="#BF8231" points="35.565,11.066 39.439,8.558 45.113,8.83 47.131,13.104 46.59,14.907 
				44.179,17.932 37.72,23.522 34.746,25.543 34.099,25.934 30.103,29.115 28.062,29.933 27.693,30.079 23.74,35.671 24.512,37.118 
				23.07,37.118 22.088,35.073 26.67,27.98 28.963,27.488 31.2,24.814 33.6,21.595 32.837,18.542 32.837,15.813 			"/>
			<path fill="#EECE5F" d="M29.235,21.595"/>
			<path opacity="0.6" fill="#362010" d="M20.262,37.714c-0.106-0.19,0-1.986,0-1.986l2.863-4.036l0.491-1.42l1.255-1.745
				l0.709-1.038l0.217-1.254l0.602-0.927l1.2-0.602l2.783-1.866l1.745-3.698l0.711-0.6v-2.729l2.728-4.746l-4.202,4.909L29.235,18.1
				l1.351-0.747l0.097,2.025l-1.447,2.217l-5.206,3.761l-3.567,6.071l-1.509,1.6l-0.131,2.451L20.262,37.714z"/>
			<path fill="none" stroke="#362010" stroke-miterlimit="10" d="M22.088,30.381"/>
			<path opacity="0.6" fill="#612D10" d="M9.665,12.244c0,0,3.202-0.079,3.038,0c-0.163,0.077,2.729,3.351,2.729,3.351l5.236,2.723
				h6.494l3.424-0.965l-3.665,2.025h-7.037l-6.169-2.892L9.665,12.244z"/>
			<polygon opacity="0.7" fill="#673714" points="67.607,0 66.064,2.603 59.844,5.174 51.602,4.724 59.893,3.47 65.485,1.348 			"/>
			<path opacity="0.5" fill="#EECE5F" d="M35.291,22.377c0,0,8.021-10.279,7.857-10.17c-0.164,0.114-5.837-0.805-5.837-0.805
				l-1.746,2.882L35.291,22.377z"/>
			<polygon opacity="0.3" fill="#362010" points="47.131,13.104 53.047,9.976 59.893,3.47 51.602,4.724 45.047,6.844 39.439,8.558 
				45.113,8.83 			"/>
			<polygon opacity="0.5" fill="#362010" points="70.974,12.61 69.227,10.44 65.887,12.075 64.504,13.293 63.432,11.723 
				64.738,10.084 69.5,9.702 72.612,11.723 			"/>
			<polygon opacity="0.8" fill="#EECE5F" points="75.125,13.496 75.125,8.994 72.612,6.484 69.338,6.102 72.612,6.102 76.573,8.287 
				77.152,11.066 77.343,11.471 			"/>
			<polygon opacity="0.8" fill="#EECE5F" points="73.102,18.704 72.01,14.668 70.974,12.61 69.227,10.44 66.064,11.989 
				70.509,15.377 71.847,17.189 71.942,20.615 73.102,20.533 			"/>
			<polygon opacity="0.8" fill="#EECE5F" points="75.125,17.189 72.393,14.668 77.343,16.003 79.463,17.739 80.467,21.008 
				80.502,21.208 80.814,23.041 79.85,25.934 79.05,23.821 79.799,23.409 77.506,17.641 			"/>
			<polygon fill="#78612F" points="78.501,25.934 79.85,25.934 79.05,23.821 78.501,24.598 			"/>
			<polygon opacity="0.8" fill="#78612F" points="65.19,20.615 66.98,19.745 67.799,21.062 69.993,21.195 71.901,19.086 
				71.942,20.615 70.1,22.184 67.36,22.184 			"/>
			<polygon opacity="0.7" fill="#673714" points="67.607,0 71.942,1.301 77.343,6.702 77.152,11.066 77.343,11.471 80.139,11.665 
				79.717,7.574 78.501,6.921 80.467,3.953 83.321,2.603 80.091,2.228 74.065,0.867 72.524,0 			"/>
			<polygon opacity="0.5" fill="#78612F" points="84.45,5.665 85.592,7.941 84.463,8.558 84.45,6.921 83.469,5.665 			"/>
			<polygon opacity="0.5" fill="#78612F" points="84.499,10.151 85.592,9.32 87.247,9.64 86.655,8.558 85.387,8.679 84.804,9.32 			
				"/>
			<polygon opacity="0.8" fill="#EECE5F" points="87.288,10.93 87.247,9.64 85.592,9.32 84.499,10.151 85.243,10.44 85.592,10.44 
				86.168,11.402 			"/>
			<polygon fill="#FDE58A" points="86.311,9.459 86.168,11.402 87.288,10.93 87.288,9.459 			"/>
			<polygon opacity="0.5" fill="#362010" points="82.596,7.574 82.557,9.212 82.319,10.44 84.438,12.362 81.875,13.104 
				81.157,8.885 			"/>
			<polygon opacity="0.5" fill="#EAA847" points="59.844,5.174 64.168,9.32 63.432,11.723 59.298,15.526 47.131,13.104 
				53.047,9.976 59.077,4.246 			"/>
			<polygon opacity="0.8" fill="#EECE5F" points="9.665,12.244 12.703,12.244 13.403,10.688 12.268,9.64 10.147,9.737 			"/>
			<polygon opacity="0.5" fill="#BF8231" points="21.137,15.908 27.193,16.632 30.883,12.362 27.019,14.848 			"/>
			<polygon fill="#FDE58A" points="89.202,10.412 88.542,10.44 87.698,9.32 86.999,7.983 87.467,7.808 			"/>
			<polygon opacity="0.7" fill="#673714" points="31.067,12.244 37.72,6.844 34.056,8.481 			"/>
			<polygon opacity="0.5" fill="#362010" points="13.403,10.688 12.703,12.244 12.703,13.104 10.862,13.496 12.133,14.83 
				13.918,13.846 14.45,12.76 14.28,11.497 			"/>
			<polygon fill="#362010" points="15.522,12.51 15.522,14.012 14.45,14.83 12.799,15.526 13.715,16.486 14.995,16.331 
				16.632,14.497 16.446,13.193 			"/>
			<polygon fill="#362010" points="17.459,13.945 17.177,16.031 15.504,17.324 16.481,17.781 17.232,16.89 17.723,15.863 
				17.723,14.497 			"/>
			<polygon fill="#362010" points="18.396,14.497 18.823,16.331 17.723,17.781 18.823,18.317 19.36,16.632 18.823,14.83 			"/>
			<polygon fill="#362010" points="20.125,15.387 20.125,17.189 19.141,18.317 20.668,17.324 			"/>
			<polygon fill="#EAA847" points="45.061,8.973 45.061,12.467 44.179,17.932 46.59,14.907 47.131,13.104 			"/>
			<polygon fill="#362010" points="21.488,16.331 22.088,17.189 22.088,17.887 21.137,18.868 21.137,17.601 			"/>
			<polygon fill="#362010" points="23.393,16.178 23.125,17.324 23.393,18.868 23.834,17.522 23.834,16.632 			"/>
			<polygon fill="#362010" points="23.834,19.378 25.034,19.378 26.01,18.317 25.635,17.189 24.922,18.542 			"/>
			<polygon fill="#362010" points="26.921,19.378 27.763,17.189 28.148,18.7 			"/>
			<polygon fill="#362010" points="25.412,15.136 27.019,14.848 27.193,16.632 			"/>
			<polygon fill="#362010" points="28.691,15.863 28.148,16.632 29.454,16.632 			"/>
			<polygon fill="#362010" points="29.235,14.268 28.737,14.848 29.78,15.526 			"/>
			<polygon fill="#362010" points="24.512,37.118 24.415,38.274 23.125,38.447 20.849,38.757 20.388,37.936 21.137,36.327 
				21.137,35.4 22.088,35.073 23.125,36.915 			"/>
			<g>
				<polygon fill="#362010" points="40.153,9.146 39.521,9.402 39.141,9.029 39.538,8.542 40.163,8.61 				"/>
				<polygon fill="#362010" points="41.886,9.314 41.244,9.613 40.774,9.149 41.126,8.563 41.813,8.663 				"/>
				<polygon fill="#362010" points="43.619,9.483 42.968,9.824 42.408,9.27 42.714,8.584 43.463,8.714 				"/>
				<polygon fill="#362010" points="45.352,9.651 44.692,10.035 44.042,9.39 44.302,8.605 45.114,8.767 				"/>
				<polygon fill="#362010" points="44.29,11.993 43.628,12.378 42.996,11.76 43.266,10.994 44.066,11.138 				"/>
				<polygon fill="#362010" points="43.227,14.335 42.565,14.721 41.949,14.131 42.229,13.382 43.02,13.509 				"/>
				<polygon fill="#362010" points="42.165,16.677 41.501,17.064 40.902,16.502 41.193,15.771 41.972,15.88 				"/>
				<polygon fill="#362010" points="40.567,18.472 39.832,18.901 39.227,18.383 39.588,17.635 40.416,17.691 				"/>
				<polygon fill="#362010" points="38.971,20.267 38.161,20.737 37.551,20.264 37.983,19.5 38.859,19.501 				"/>
				<polygon fill="#362010" points="37.374,22.062 36.491,22.573 35.875,22.145 36.378,21.365 37.303,21.313 				"/>
			</g>
			<g>
				<polygon fill="#362010" points="43.616,7.914 42.928,8.141 42.563,7.703 43.021,7.206 43.674,7.336 				"/>
				<polygon fill="#362010" points="45.423,8.246 44.721,8.518 44.269,7.974 44.689,7.365 45.404,7.534 				"/>
				<polygon fill="#362010" points="47.23,8.578 46.514,8.895 45.975,8.245 46.358,7.524 47.133,7.732 				"/>
				<polygon fill="#362010" points="49.038,8.91 48.307,9.272 47.682,8.516 48.026,7.684 48.864,7.93 				"/>
				<polygon fill="#362010" points="47.712,11.365 46.982,11.727 46.371,11.001 46.724,10.19 47.553,10.417 				"/>
				<polygon fill="#362010" points="46.386,13.819 45.657,14.181 45.06,13.487 45.422,12.697 46.243,12.903 				"/>
				<polygon fill="#362010" points="45.061,16.273 44.331,16.636 43.749,15.973 44.121,15.203 44.932,15.39 				"/>
				<polygon fill="#362010" points="43.223,18.086 42.412,18.489 41.821,17.873 42.268,17.092 43.134,17.225 				"/>
				<polygon fill="#362010" points="41.385,19.9 40.492,20.342 39.893,19.773 40.415,18.98 41.337,19.06 				"/>
				<polygon fill="#362010" points="39.547,21.713 38.573,22.195 37.965,21.674 38.562,20.869 39.539,20.895 				"/>
			</g>
			<g>
				<polygon fill="#362010" points="46.756,16.414 46.186,16.683 45.752,16.225 46.055,15.669 46.676,15.786 				"/>
				<polygon fill="#362010" points="48.122,14.317 47.55,14.586 47.118,14.128 47.419,13.573 48.041,13.69 				"/>
				<polygon fill="#362010" points="49.486,12.221 48.916,12.49 48.482,12.031 48.785,11.478 49.406,11.593 				"/>
				<polygon fill="#362010" points="50.851,10.124 50.28,10.394 49.847,9.935 50.149,9.382 50.77,9.497 				"/>
				<polygon fill="#362010" points="52.404,8.546 51.777,8.843 51.35,8.442 51.712,7.898 52.365,7.961 				"/>
				<polygon fill="#362010" points="53.958,6.968 53.273,7.292 52.853,6.95 53.277,6.415 53.959,6.425 				"/>
				<polygon fill="#362010" points="55.51,5.391 54.77,5.742 54.356,5.457 54.84,4.932 55.554,4.889 				"/>
			</g>
			<g>
				<polygon fill="#362010" points="57.919,5.305 57.395,5.261 57.274,4.747 57.724,4.476 58.124,4.818 				"/>
				<polygon fill="#362010" points="56.531,6.817 55.938,6.849 55.736,6.346 56.206,6.003 56.697,6.293 				"/>
				<polygon fill="#362010" points="55.143,8.329 54.48,8.438 54.199,7.944 54.687,7.532 55.271,7.768 				"/>
				<polygon fill="#362010" points="53.754,9.841 53.023,10.026 52.661,9.543 53.168,9.06 53.844,9.243 				"/>
				<polygon fill="#362010" points="52.392,11.347 51.729,11.457 51.447,10.963 51.936,10.55 52.52,10.787 				"/>
				<polygon fill="#362010" points="51.029,12.854 50.435,12.887 50.234,12.383 50.704,12.041 51.195,12.331 				"/>
				<polygon fill="#362010" points="49.667,14.36 49.141,14.317 49.02,13.804 49.471,13.531 49.871,13.875 				"/>
			</g>
			<g>
				<polygon fill="#362010" points="55.002,16.579 54.586,16.826 54.167,16.417 54.326,15.916 54.84,16.018 				"/>
				<polygon fill="#362010" points="56.488,14.803 56.073,15.051 55.654,14.641 55.812,14.141 56.327,14.242 				"/>
				<polygon fill="#362010" points="57.974,13.028 57.558,13.276 57.141,12.866 57.298,12.365 57.813,12.467 				"/>
				<polygon fill="#362010" points="59.459,11.252 59.044,11.501 58.627,11.09 58.785,10.59 59.299,10.691 				"/>
				<polygon fill="#362010" points="61.28,9.621 60.865,9.87 60.464,9.487 60.631,9.004 61.136,9.088 				"/>
				<polygon fill="#362010" points="63.1,7.99 62.685,8.238 62.3,7.883 62.478,7.418 62.972,7.485 				"/>
				<polygon fill="#362010" points="64.92,6.359 64.505,6.606 64.137,6.28 64.325,5.832 64.809,5.882 				"/>
				<polygon fill="#362010" points="60.246,9.306 59.856,9.073 59.953,8.631 60.401,8.594 60.583,9.009 				"/>
				<polygon fill="#362010" points="55.987,12.005 55.575,11.866 55.58,11.431 55.993,11.306 56.246,11.66 				"/>
				<polygon fill="#362010" points="51.727,14.705 51.293,14.658 51.208,14.23 51.584,14.018 51.908,14.31 				"/>
				<polygon fill="#362010" points="53.155,13.369 52.674,13.316 52.579,12.842 52.998,12.605 53.355,12.929 				"/>
				<polygon fill="#362010" points="54.583,12.033 54.055,11.973 53.949,11.454 54.41,11.193 54.801,11.549 				"/>
				<polygon fill="#362010" points="56.01,10.697 55.436,10.631 55.32,10.065 55.823,9.78 56.249,10.169 				"/>
				<polygon fill="#362010" points="57.251,9.318 56.677,9.252 56.561,8.686 57.064,8.401 57.49,8.791 				"/>
				<polygon fill="#362010" points="58.492,7.938 57.918,7.874 57.803,7.307 58.305,7.022 58.732,7.413 				"/>
				<polygon fill="#362010" points="59.733,6.559 59.16,6.495 59.044,5.928 59.546,5.643 59.973,6.034 				"/>
				<polygon fill="#362010" points="61.892,5.669 61.339,5.588 61.248,5.037 61.742,4.778 62.14,5.17 				"/>
				<polygon fill="#362010" points="64.05,4.779 63.52,4.681 63.45,4.146 63.936,3.914 64.306,4.306 				"/>
				<polygon fill="#362010" points="66.209,3.89 65.7,3.773 65.653,3.256 66.131,3.05 66.473,3.441 				"/>
				<polygon fill="#362010" points="64.625,5.088 64.117,4.973 64.069,4.456 64.547,4.25 64.89,4.641 				"/>
				<polygon fill="#362010" points="63.041,6.288 62.533,6.172 62.485,5.655 62.963,5.45 63.306,5.84 				"/>
				<polygon fill="#362010" points="61.456,7.486 60.95,7.371 60.901,6.854 61.379,6.649 61.723,7.04 				"/>
				<polygon fill="#362010" points="60.111,8.79 59.631,8.68 59.585,8.191 60.039,7.997 60.364,8.368 				"/>
				<polygon fill="#362010" points="58.765,10.094 58.313,9.99 58.271,9.528 58.697,9.345 59.003,9.695 				"/>
				<polygon fill="#362010" points="57.42,11.397 56.995,11.299 56.956,10.865 57.356,10.692 57.644,11.022 				"/>
				<polygon fill="#362010" points="55.817,12.891 55.434,12.717 55.48,12.302 55.889,12.216 56.098,12.581 				"/>
				<polygon fill="#362010" points="54.212,14.385 53.874,14.136 54.004,13.739 54.422,13.74 54.552,14.139 				"/>
				<polygon fill="#362010" points="53.006,15.697 52.609,15.879 52.313,15.555 52.529,15.176 52.956,15.264 				"/>
				<polygon fill="#362010" points="58.663,11.057 58.258,11.261 57.939,10.935 58.146,10.534 58.591,10.608 				"/>
				<polygon fill="#362010" points="64.318,6.417 63.909,6.643 63.566,6.316 63.762,5.891 64.226,5.953 				"/>
				<polygon fill="#362010" points="69.974,1.777 69.558,2.024 69.192,1.696 69.379,1.249 69.862,1.298 				"/>
				<polygon fill="#362010" points="70.76,1.477 70.345,1.724 69.978,1.396 70.166,0.949 70.649,0.998 				"/>
				<polygon fill="#362010" points="71.547,1.176 71.131,1.424 70.764,1.097 70.953,0.649 71.436,0.697 				"/>
				<polygon fill="#362010" points="72.333,0.876 71.918,1.124 71.55,0.797 71.739,0.35 72.223,0.396 				"/>
			</g>
			<g>
				<polygon fill="#362010" points="74.47,1.672 74.118,1.825 73.862,1.539 74.055,1.206 74.432,1.289 				"/>
				<polygon fill="#362010" points="76.14,2.184 75.788,2.337 75.532,2.051 75.725,1.718 76.102,1.8 				"/>
				<polygon fill="#362010" points="77.809,2.696 77.458,2.849 77.202,2.563 77.395,2.23 77.772,2.311 				"/>
				<polygon fill="#362010" points="79.479,3.208 79.127,3.361 78.872,3.074 79.065,2.742 79.442,2.822 				"/>
			</g>
			<g>
				<polygon fill="#362010" points="60.828,16.021 60.28,16.25 59.893,15.798 60.204,15.291 60.782,15.429 				"/>
				<polygon fill="#362010" points="61.61,14.812 61.126,15.013 60.787,14.615 61.06,14.168 61.57,14.291 				"/>
				<polygon fill="#362010" points="62.392,13.602 61.974,13.777 61.681,13.432 61.917,13.045 62.357,13.152 				"/>
				<polygon fill="#362010" points="63.174,12.393 62.821,12.54 62.575,12.249 62.774,11.923 63.145,12.014 				"/>
			</g>
			<polygon fill="#362010" points="37.069,23.451 36.826,23.952 36.275,23.872 36.179,23.327 36.67,23.063 			"/>
			<polygon fill="#362010" points="33.202,26.079 32.958,26.579 32.408,26.502 32.313,25.953 32.803,25.693 			"/>
			<polygon fill="#362010" points="30.226,26.966 29.981,27.466 29.432,27.388 29.335,26.84 29.827,26.579 			"/>
			<polygon fill="#362010" points="27.98,28.232 27.737,28.734 27.186,28.656 27.089,28.108 27.58,27.848 			"/>
			<polygon fill="#362010" points="25.607,31.057 25.363,31.556 24.813,31.48 24.716,30.932 25.208,30.672 			"/>
			<polygon fill="#362010" points="23.569,32.365 23.325,32.866 22.775,32.789 22.679,32.24 23.17,31.981 			"/>
			<polygon fill="#362010" points="32.756,24.576 32.48,25.142 31.773,25.013 31.612,24.369 32.22,24.1 			"/>
			<polygon fill="#362010" points="35.206,21.644 34.835,22.403 33.997,22.286 33.851,21.454 34.599,21.055 			"/>
			<g>
				<polygon fill="#362010" points="29.486,25.693 29.235,24.706 29.893,24.1 30.549,24.706 30.298,25.693 				"/>
				<polygon fill="#362010" points="31.122,23.374 30.988,22.521 31.623,22.116 32.149,22.714 31.84,23.494 				"/>
				<polygon fill="#362010" points="32.757,21.053 32.74,20.335 33.354,20.133 33.75,20.723 33.381,21.293 				"/>
				<polygon fill="#362010" points="35.351,18.731 34.923,19.094 34.393,18.733 34.492,18.149 35.084,18.149 				"/>
				<polygon fill="#362010" points="34.732,17.645 34.332,17.984 33.834,17.646 33.928,17.1 34.482,17.099 				"/>
				<polygon fill="#362010" points="34.113,16.558 33.74,16.874 33.276,16.559 33.364,16.05 33.88,16.049 				"/>
				<polygon fill="#362010" points="33.494,15.471 33.148,15.764 32.718,15.472 32.799,15 33.278,14.999 				"/>
			</g>
			<g>
				<polygon fill="#362010" points="35.25,15.118 34.796,15.289 34.494,14.911 34.761,14.507 35.227,14.636 				"/>
				<polygon fill="#362010" points="36.199,13.498 35.745,13.668 35.444,13.291 35.71,12.887 36.176,13.015 				"/>
				<polygon fill="#362010" points="37.148,11.877 36.694,12.047 36.393,11.67 36.659,11.267 37.125,11.394 				"/>
				<polygon fill="#362010" points="38.098,10.257 37.644,10.427 37.343,10.05 37.608,9.646 38.074,9.773 				"/>
			</g>
			<polygon fill="#362010" points="36.556,17.109 36.103,17.28 35.802,16.902 36.067,16.499 36.534,16.625 			"/>
			<polygon fill="#362010" points="38.474,15.748 38.021,15.918 37.72,15.539 37.986,15.136 38.452,15.265 			"/>
			<polygon fill="#362010" points="36.673,14.582 36.221,14.753 35.919,14.373 36.185,13.969 36.65,14.098 			"/>
			<polygon fill="#362010" points="38.612,13.04 38.089,12.802 38.152,12.232 38.714,12.115 38.999,12.614 			"/>
			<polygon fill="#362010" points="40.969,13.222 40.446,12.984 40.509,12.414 41.072,12.297 41.356,12.798 			"/>
			<polygon fill="#362010" points="37.138,18.781 36.615,18.542 36.679,17.972 37.24,17.855 37.524,18.353 			"/>
			<polygon fill="#362010" points="38.824,17.525 38.301,17.288 38.364,16.717 38.928,16.602 39.21,17.1 			"/>
			<polygon fill="#362010" points="40.179,14.909 39.547,15.147 39.125,14.62 39.497,14.057 40.147,14.236 			"/>
			<polygon fill="#362010" points="40.902,11.357 40.303,11.581 39.904,11.084 40.256,10.552 40.871,10.72 			"/>
			<path fill="#362010" d="M30.326,13.531c0,0,1.638-0.019,1.513,0c-0.121,0.017-0.772-0.491-0.772-0.491l-0.413-0.53L30.326,13.531
				z"/>
			<polyline fill="#362010" points="32.718,13.293 33.106,12.895 32.718,12.244 32.381,11.397 31.847,11.923 32.381,12.54 
				32.477,13.293 			"/>
			<polygon fill="#362010" points="33.494,10.688 34.393,10.94 34.393,11.581 33.494,11.397 			"/>
			<polyline fill="#362010" points="34.056,8.481 34.099,9.32 34.609,9.78 33.851,9.887 33.494,9.32 33.943,8.624 			"/>
			<polyline opacity="0.2" fill="#262261" points="21.613,31.981 18.823,35.478 18.823,33.164 20.388,31.556 24.03,25.355 			"/>
			<g>
				<polygon fill="#362010" points="56.956,16.178 56.407,16.418 56.008,15.969 56.311,15.453 56.897,15.581 				"/>
				<polygon fill="#362010" points="58.977,14.314 58.461,14.54 58.086,14.117 58.372,13.633 58.922,13.753 				"/>
				<polygon fill="#362010" points="60.999,12.45 60.516,12.662 60.165,12.266 60.431,11.813 60.947,11.925 				"/>
				<polygon fill="#362010" points="63.02,10.586 62.571,10.783 62.243,10.414 62.492,9.992 62.972,10.097 				"/>
				<polygon fill="#362010" points="64.816,8.441 64.367,8.638 64.04,8.27 64.289,7.847 64.768,7.952 				"/>
				<polygon fill="#362010" points="66.613,6.296 66.164,6.493 65.836,6.125 66.084,5.702 66.564,5.808 				"/>
				<polygon fill="#362010" points="68.409,4.151 67.959,4.348 67.633,3.98 67.881,3.557 68.36,3.663 				"/>
				<polygon fill="#362010" points="70.312,3.926 69.862,4.123 69.536,3.755 69.784,3.332 70.263,3.438 				"/>
				<polygon fill="#362010" points="72.214,3.701 71.764,3.897 71.438,3.531 71.687,3.107 72.166,3.212 				"/>
				<polygon fill="#362010" points="74.118,3.476 73.667,3.672 73.34,3.306 73.589,2.882 74.069,2.986 				"/>
				<polygon fill="#362010" points="72.536,4.542 72.087,4.688 71.809,4.31 72.083,3.927 72.533,4.07 				"/>
				<polygon fill="#362010" points="70.955,5.608 70.509,5.705 70.278,5.315 70.579,4.973 70.998,5.154 				"/>
				<polygon fill="#362010" points="69.373,6.674 68.93,6.722 68.747,6.319 69.073,6.019 69.461,6.237 				"/>
				<polygon fill="#362010" points="68.414,8.058 67.882,8.116 67.662,7.632 68.053,7.27 68.52,7.533 				"/>
				<polygon fill="#362010" points="67.455,9.441 66.833,9.511 66.576,8.944 67.035,8.522 67.579,8.829 				"/>
				<polygon fill="#362010" points="66.496,10.825 65.786,10.905 65.491,10.257 66.015,9.773 66.637,10.125 				"/>
			</g>
			<g>
				<polygon fill="#362010" points="67.983,10.786 67.527,10.839 67.336,10.421 67.674,10.11 68.075,10.335 				"/>
				<polygon fill="#362010" points="69.135,9.814 68.643,9.872 68.437,9.421 68.801,9.085 69.233,9.328 				"/>
				<polygon fill="#362010" points="70.287,8.843 69.758,8.904 69.539,8.421 69.929,8.061 70.392,8.321 				"/>
				<polygon fill="#362010" points="71.439,7.871 70.875,7.937 70.639,7.421 71.056,7.036 71.55,7.314 				"/>
				<polygon fill="#362010" points="72.658,6.839 72.134,6.9 71.917,6.421 72.303,6.065 72.761,6.323 				"/>
				<polygon fill="#362010" points="73.877,5.808 73.395,5.863 73.193,5.422 73.55,5.093 73.973,5.331 				"/>
				<polygon fill="#362010" points="75.096,4.776 74.655,4.826 74.47,4.423 74.797,4.122 75.184,4.339 				"/>
				<polygon fill="#362010" points="76.209,4.734 75.768,4.784 75.583,4.38 75.911,4.081 76.298,4.297 				"/>
				<polygon fill="#362010" points="77.324,4.691 76.882,4.742 76.698,4.337 77.024,4.039 77.412,4.255 				"/>
				<polygon fill="#362010" points="78.437,4.648 77.996,4.699 77.811,4.295 78.137,3.997 78.526,4.214 				"/>
			</g>
			<g>
				<polygon fill="#362010" points="73.186,11.322 72.54,11.643 72.036,11.129 72.37,10.489 73.081,10.611 				"/>
				<polygon fill="#362010" points="74.089,10.103 73.476,10.407 72.998,9.918 73.314,9.312 73.989,9.427 				"/>
				<polygon fill="#362010" points="74.993,8.883 74.412,9.17 73.958,8.708 74.259,8.134 74.898,8.243 				"/>
				<polygon fill="#362010" points="75.896,7.664 75.348,7.935 74.92,7.498 75.204,6.957 75.806,7.059 				"/>
				<polygon fill="#362010" points="77.346,6.549 76.843,6.797 76.451,6.396 76.71,5.9 77.263,5.993 				"/>
				<polygon fill="#362010" points="78.796,5.434 78.337,5.66 77.98,5.295 78.216,4.842 78.721,4.926 				"/>
				<polygon fill="#362010" points="80.247,4.318 79.833,4.522 79.51,4.193 79.723,3.785 80.178,3.86 				"/>
			</g>
			<polygon fill="#362010" points="71.917,9.948 71.439,10.111 71.133,9.706 71.426,9.292 71.909,9.441 			"/>
			<polygon fill="#362010" points="73.329,8.534 72.848,8.697 72.543,8.291 72.835,7.877 73.321,8.026 			"/>
			<polygon fill="#362010" points="74.862,6.618 74.382,6.783 74.077,6.375 74.37,5.961 74.854,6.11 			"/>
			<polygon fill="#362010" points="67.363,2.072 66.882,2.237 66.579,1.831 66.87,1.416 67.354,1.565 			"/>
			<g>
				<polygon fill="#362010" points="74.497,13.204 73.893,13.413 73.512,12.902 73.877,12.381 74.486,12.568 				"/>
				<polygon fill="#362010" points="75.937,11.589 75.385,11.781 75.036,11.313 75.371,10.835 75.928,11.007 				"/>
				<polygon fill="#362010" points="77.378,9.974 76.876,10.148 76.558,9.723 76.863,9.29 77.37,9.445 				"/>
				<polygon fill="#362010" points="78.819,8.359 78.369,8.516 78.082,8.134 78.356,7.744 78.812,7.884 				"/>
			</g>
			<polygon fill="#362010" points="64.16,16.292 63.663,16.646 63.174,16.284 63.369,15.707 63.977,15.712 			"/>
			<polygon opacity="0.2" fill="#262261" points="26.398,25.308 26.67,27.98 22.088,35.073 20.388,37.936 20.262,35.728 
				23.17,31.981 23.615,30.271 25.58,27.488 25.797,26.234 			"/>
			<polygon opacity="0.5" fill="#FDE58A" points="85.209,7.18 86.796,6.185 86.571,6.783 			"/>
			<polygon opacity="0.5" fill="#362010" points="84.842,3.997 84.055,5.734 84.45,5.665 			"/>
			<polygon fill="#362010" points="68.536,0.42 68.565,0.796 67.977,0.958 67.583,0.683 67.928,0.35 			"/>
			<polygon fill="#362010" points="62.008,16.459 62.037,16.836 61.537,16.994 61.199,16.712 61.491,16.382 			"/>
			<polygon fill="#362010" points="59.17,16.764 59.2,17.142 58.7,17.299 58.362,17.017 58.653,16.688 			"/>
			<polygon fill="#362010" points="68.131,12.897 67.711,13.471 67.036,13.252 67.039,12.54 67.713,12.322 			"/>
			<polygon fill="#362010" points="70.327,12.54 69.997,12.994 69.461,12.82 69.461,12.257 69.997,12.084 			"/>
			<polygon fill="#362010" points="69.536,13.945 69.206,14.401 68.67,14.228 68.672,13.664 69.207,13.49 			"/>
			<polygon fill="#362010" points="70.944,14.999 70.613,15.453 70.078,15.278 70.078,14.716 70.614,14.542 			"/>
			<polygon fill="#362010" points="71.959,16.646 71.628,17.101 71.092,16.928 71.094,16.365 71.629,16.191 			"/>
			<polygon fill="#362010" points="71.292,18.226 71.007,18.616 70.549,18.467 70.549,17.982 71.008,17.834 			"/>
			<polygon fill="#362010" points="69.694,20.32 69.421,20.696 68.981,20.552 68.981,20.089 69.422,19.945 			"/>
			<polyline opacity="0.2" fill="#262261" points="73.102,19.086 73.102,18.895 73.102,18.704 72.728,17.324 72.309,15.771 
				72.936,15.771 73.186,17.606 76.573,19.763 			"/>
			<polygon fill="#362010" points="74.813,15.643 74.354,15.814 74.099,15.565 74.399,15.238 74.839,15.286 			"/>
			<polygon fill="#362010" points="75.993,18.678 75.438,18.765 75.184,18.266 75.583,17.869 76.082,18.125 			"/>
			<polygon fill="#362010" points="76.475,16.806 75.815,16.908 75.547,16.516 76.038,16.171 76.612,16.348 			"/>
			<polyline opacity="0.2" fill="#262261" points="69.649,15.626 68.871,18.244 68.642,18.518 66.252,18.21 65.652,16.825 
				65.485,17.739 62.784,17.978 59.505,18.307 66.061,15.164 66.061,13.823 69.649,15.626 69.649,15.626 			"/>
			<polygon opacity="0.2" fill="#262261" points="63.432,11.723 66.252,18.21 68.642,18.518 68.871,18.244 			"/>
			<g>
				<polygon fill="#362010" points="35.565,10.238 35.183,10.357 34.951,10.033 35.189,9.71 35.568,9.839 				"/>
				<polygon fill="#362010" points="36.732,9.177 36.326,9.209 36.171,8.834 36.48,8.568 36.827,8.783 				"/>
				<polygon fill="#362010" points="38.084,7.727 37.899,8.115 37.469,8.061 37.391,7.635 37.771,7.427 				"/>
				<polygon fill="#362010" points="39.622,7.379 39.409,7.677 39.089,7.604 39.105,7.257 39.434,7.12 				"/>
				<polygon fill="#362010" points="41.159,7.032 40.918,7.238 40.709,7.146 40.82,6.88 41.098,6.813 				"/>
			</g>
			<polygon opacity="0.2" fill="#262261" points="12.268,9.64 12.703,12.244 13.403,10.688 			"/>
			<polygon opacity="0.5" fill="#362010" points="30.586,17.353 35.565,11.066 32.837,15.813 32.837,18.542 30.683,19.378 			"/>
			<polygon opacity="0.3" fill="#362010" points="26.398,25.308 25.648,26.085 18.823,33.164 18.823,35.478 20.262,37.691 
				20.262,35.728 23.17,31.981 23.615,30.271 25.412,27.848 			"/>
			<polygon opacity="0.3" fill="#362010" points="26.398,25.308 31.612,19.016 32.837,18.542 30.381,22.84 			"/>
			<polygon opacity="0.5" fill="#262261" points="31.273,16.486 31.612,18.868 32.837,18.542 32.837,15.813 33.851,13.222 			"/>
			<polyline opacity="0.2" fill="#262261" points="39.538,8.542 39.441,8.665 37.311,11.402 35.565,11.066 			"/>
			<polygon opacity="0.2" fill="#262261" points="44.179,17.932 46.59,14.907 47.131,13.104 47.022,16.904 46.59,17.544 			"/>
			<polygon opacity="0.2" fill="#262261" points="48.782,17.189 50.35,16.331 59.298,15.526 59.2,18.317 51.024,17.064 			"/>
			<polygon opacity="0.5" fill="#362010" points="59.298,15.526 59.2,18.317 65.485,17.739 			"/>
		</g>
	</g>
	<g>
		<polygon fill="#A3234A" points="57.36,58.562 59.125,58.069 60.424,56.815 76.712,41.749 76.691,40.967 40.268,34.088 
			55.176,57.918 		"/>
		<polygon opacity="0.2" fill="#262261" points="58.089,37.334 73.215,44.473 59.125,58.069 57.36,58.562 50.756,46.498 		"/>
		<path fill="#A6A8AB" d="M58.495,57.859c-0.02,0.059,8.514-9.797,8.514-9.797l6.504-4.74H61.387L58.495,57.859z"/>
		<path opacity="0.2" fill="#262261" d="M58.495,57.859c-0.02,0.059,8.514-9.797,8.514-9.797l6.504-4.74H61.387L58.495,57.859z"/>
		<polygon fill="#BBBDBF" points="58.475,57.918 65.09,48.288 68.057,44.938 73.097,42.731 47.342,36.232 56.939,56.31 		"/>
		<polygon fill="#DBDBDA" points="58.415,57.605 63.795,48.464 68.639,43.76 72.888,41.52 47.012,36.634 56.086,56.334 		"/>
		<polygon opacity="0.2" fill="#262261" points="58.317,57.201 62.339,48.473 66.495,44.442 70.222,41.86 45.836,42.132 
			56.37,55.448 		"/>
		<polygon fill="#F1F1F2" points="58.495,57.859 63.667,46.047 68.576,40.965 72.888,37.881 61.299,36.337 46.11,34.313 
			56.51,55.042 		"/>
		<g>
			<polygon opacity="0.8" fill="#655671" points="55.554,50.592 59.018,43.322 63.862,39.512 58.03,42.875 			"/>
			<polygon opacity="0.8" fill="#655671" points="52.272,49.724 55.735,42.457 60.579,38.643 54.747,42.009 			"/>
			<polygon opacity="0.8" fill="#655671" points="48.719,49.192 52.182,41.924 57.028,38.112 51.196,41.478 			"/>
		</g>
		<polygon fill="#DBDBDA" points="5.951,21.687 12.37,44.137 58.475,57.615 49.389,27.109 		"/>
		<polygon opacity="0.4" fill="#262261" points="56.838,57.56 57.36,58.562 59.125,58.069 66.842,48.252 58.475,57.829 
			56.838,56.896 		"/>
		<polygon opacity="0.6" fill="#F1F1F2" points="5.951,21.687 7.034,25.472 48.422,33.321 51.534,34.313 49.389,27.109 		"/>
		<polygon fill="#BBBDBF" points="2.849,23.209 11.229,46.498 58.475,57.921 46.758,29.249 		"/>
		<polygon opacity="0.2" fill="#262261" points="3.611,25.472 11.229,46.55 58.475,58.069 44.383,30.15 		"/>
		<polygon opacity="0.2" fill="#262261" points="4.527,27.861 4.266,27.134 43.226,33.425 58.475,57.843 57.36,58.562 
			38.539,42.188 		"/>
		<polygon opacity="0.2" fill="#262261" points="44.875,31.25 55.827,52.846 58.475,58.069 51.028,56.221 		"/>
		<g>
			<polygon fill="#BE1E2D" points="0,26.508 11.023,46.337 57.028,58.97 41.497,33.321 			"/>
			<polygon opacity="0.2" fill="#262261" points="41.497,33.321 11.023,46.337 57.028,58.97 			"/>
			<path opacity="0.2" fill="#262261" d="M0.168,26.743c0.302,0.862,10.889,19.594,10.889,19.594L57.028,58.97l-2.513-4.973
				L0.042,26.508"/>
			<polygon fill="#EC1C24" points="0,26.508 39.97,33.875 56.694,58.414 57.36,58.562 41.497,33.321 			"/>
			<polygon opacity="0.2" fill="#262261" points="21.29,30.362 51.171,50.279 39.97,33.875 			"/>
		</g>
		<polygon fill="#EC1C24" points="59.604,57.605 76.691,40.967 76.712,41.749 		"/>
		<polygon opacity="0.1" fill="#262261" points="55.202,46.337 62.49,48.737 61.986,49.724 63.168,49.53 62.543,50.592 
			63.508,50.592 62.438,52.151 63.862,51.694 58.475,57.829 		"/>
		<polygon opacity="0.2" fill="#2B388F" points="56.838,52.085 58.475,57.829 59.708,54.18 		"/>
		<polygon fill="#EC1C24" points="56.694,58.414 57.028,58.97 58.958,58.414 60.219,57.034 58.726,58.179 57.36,58.411 
			57.103,58.069 		"/>
	</g>
	<path opacity="0.3" fill="#2B388F" d="M54.956,37.691l-2.684-0.065l1.301,4.143l6.031-0.802l2.649-1.455l4.782-0.126
		c0,0,4.742-1.652,4.326-1.708c-0.413-0.054-12.734-1.696-12.734-1.696"/>
	<path fill="#2B388F" d="M60.901,36.232"/>
	<path fill="#2B388F" d="M60.219,36.193"/>
	<polygon fill="#362010" points="89.202,10.412 88.542,10.44 88.872,10.631 88.692,10.756 88.809,11.066 	"/>
	<polygon opacity="0.5" fill="#EC1C24" points="53.844,54.232 9.98,44.282 10.331,45.051 56.249,57.684 	"/>
</g>
</svg>
