<?xml version="1.0" encoding="utf-8"?>
<!-- Generator: Adobe Illustrator 15.1.0, SVG Export Plug-In . SVG Version: 6.00 Build 0)  -->
<!DOCTYPE svg PUBLIC "-//W3C//DTD SVG 1.1//EN" "http://www.w3.org/Graphics/SVG/1.1/DTD/svg11.dtd">
<svg version="1.1" id="Layer_1" xmlns="http://www.w3.org/2000/svg" xmlns:xlink="http://www.w3.org/1999/xlink" x="0px" y="0px"
	 width="34.686px" height="42.861px" viewBox="10.132 14.413 34.686 42.861" enable-background="new 10.132 14.413 34.686 42.861"
	 xml:space="preserve">
<path fill="none" stroke="#FFFFFF" stroke-width="0.8" stroke-miterlimit="10" d="M15.823,52.341l-1.308,2.267l1.308,2.266
	l28.595-0.007v-4.522L15.823,52.341z"/>
<line fill="none" stroke="#FFFFFF" stroke-width="0.8" stroke-miterlimit="10" x1="18.191" y1="51.522" x2="18.191" y2="56.873"/>
<path fill="#FFFFFF" d="M15.789,53.63L15.789,53.63l-0.711-0.712l0,0l-0.183-0.182h-3.257l-1.095,1.096v1.55l1.095,1.096h3.257
	l0.183-0.182l0,0l0.711-0.712l0,0l0.202-0.202v-1.55L15.789,53.63z M15.101,55.013l-0.574,0.575h-2.52l-0.574-0.575v-0.812
	l0.574-0.575h2.52l0.574,0.575v0.237v0.337V55.013z"/>
<path fill="none" stroke="#FFFFFF" stroke-width="0.8" stroke-miterlimit="10" d="M12.708,25.177"/>
<path fill="none" stroke="#FFFFFF" stroke-width="0.8" stroke-miterlimit="10" d="M38.306,26.196"/>
<line fill="none" stroke="#FFFFFF" stroke-width="0.8" stroke-miterlimit="10" x1="38.306" y1="26.196" x2="38.306" y2="25.177"/>
<path fill="none" stroke="#FFFFFF" stroke-width="0.8" stroke-miterlimit="10" d="M39.326,37.703"/>
<polyline fill="none" stroke="#FFFFFF" stroke-width="0.8" stroke-miterlimit="10" points="18.117,38.722 41.279,38.722 
	41.279,25.786 38.306,25.804 "/>
<line fill="none" stroke="#FFFFFF" stroke-width="0.8" stroke-miterlimit="10" x1="38.306" y1="26.196" x2="38.306" y2="36.684"/>
<polyline fill="none" stroke="#FFFFFF" stroke-width="0.8" stroke-miterlimit="10" points="17.914,36.684 38.306,36.684 
	38.306,26.196 "/>
<line fill="none" stroke="#FFFFFF" stroke-width="0.8" stroke-miterlimit="10" x1="23.816" y1="38.722" x2="29.466" y2="43.94"/>
<line fill="none" stroke="#FFFFFF" stroke-width="0.8" stroke-miterlimit="10" x1="29.466" y1="43.744" x2="29.466" y2="46.291"/>
<line fill="none" stroke="#FFFFFF" stroke-width="0.8" stroke-miterlimit="10" x1="29.466" y1="43.744" x2="31.704" y2="41.507"/>
<polyline fill="none" stroke="#FFFFFF" stroke-width="0.8" stroke-miterlimit="10" points="12.765,32.926 14.181,31.44 
	14.181,28.059 "/>
<g>
	<path fill="#FFFFFF" d="M21.054,27.11l-0.435,0.638v0.813l0,0l2.304,2.062l0.316,0.86v1.729l-0.98,1.432h-1.547l-1.072-0.521
		l0.289-1.26l0.938,0.476h0.957l0.436-0.637v-1.021v0.067l-2.348-2.109l-0.271-0.597v-1.806l0.979-1.433h1.579l1.041,0.512
		l-0.266,1.231l-0.937-0.438H21.054z"/>
	<path fill="#FFFFFF" d="M31.262,25.804l1.075,1.433v5.976l-1.075,1.432h-1.886l-1.075-1.432v-5.976l1.075-1.433H31.262z
		 M30.871,27.11h-1.104l-0.484,0.662v4.918l0.484,0.648h1.104l0.485-0.662v-4.904L30.871,27.11z"/>
	<path fill="#FFFFFF" d="M34.054,34.644h-0.981v-8.84h2.79l0.988,1.433v2.9l-0.988,1.433h-1.809V34.644z M34.054,27.11v3.151h1.383
		l0.435-0.647v-1.855l-0.435-0.648H34.054z"/>
	<polygon fill="#FFFFFF" points="27.789,25.804 23.85,25.804 23.85,27.11 25.33,27.11 25.33,34.644 26.31,34.644 26.31,27.11 
		27.789,27.11 	"/>
</g>
<line fill="none" stroke="#FFFFFF" stroke-width="0.8" stroke-miterlimit="10" x1="16.626" y1="28.059" x2="16.626" y2="23.682"/>
<g>
	<polygon fill="none" stroke="#FFFFFF" stroke-width="0.8" stroke-miterlimit="10" points="37.781,23.682 37.781,16.206 
		36.495,14.813 33.921,14.813 32.634,16.206 32.634,23.682 	"/>
	<polyline fill="none" stroke="#FFFFFF" stroke-width="0.8" stroke-miterlimit="10" points="18.533,38.722 17.914,38.722 
		17.914,29.452 16.626,28.059 14.052,28.059 12.765,29.452 12.765,47.806 15.644,50.218 16.75,50.218 17.914,50.218 18.191,50.218 
		18.191,50.428 18.191,51.527 18.219,52.368 42.967,52.324 42.939,51.251 44.404,49.65 44.404,45.124 44.404,42.712 44.404,40.296 
		44.404,16.206 43.117,14.813 40.543,14.813 39.257,16.206 39.175,25.687 	"/>
	<polygon fill="none" stroke="#FFFFFF" stroke-width="0.8" stroke-miterlimit="10" points="31.158,23.682 31.158,16.206 
		29.872,14.813 27.298,14.813 26.011,16.206 26.011,23.682 	"/>
	<polygon fill="none" stroke="#FFFFFF" stroke-width="0.8" stroke-miterlimit="10" points="24.536,23.682 24.536,16.206 
		23.25,14.813 20.675,14.813 19.388,16.206 19.388,23.682 	"/>
</g>
<polyline fill="none" stroke="#FFFFFF" stroke-width="0.8" stroke-miterlimit="10" points="12.765,36.684 10.533,36.684 
	10.533,23.682 38.306,23.682 38.306,36.684 17.914,36.684 "/>
</svg>
