<?xml version="1.0" encoding="utf-8"?>
<!-- Generator: Adobe Illustrator 15.1.0, SVG Export Plug-In . SVG Version: 6.00 Build 0)  -->
<!DOCTYPE svg PUBLIC "-//W3C//DTD SVG 1.1//EN" "http://www.w3.org/Graphics/SVG/1.1/DTD/svg11.dtd">
<svg version="1.1" id="Layer_1" xmlns="http://www.w3.org/2000/svg" xmlns:xlink="http://www.w3.org/1999/xlink" x="0px" y="0px"
	 width="55.839px" height="71.774px" viewBox="-0.776 0.666 55.839 71.774" enable-background="new -0.776 0.666 55.839 71.774"
	 xml:space="preserve">
<g>
	<g>
		<polyline fill="none" stroke="#147185" stroke-miterlimit="10" points="11.492,40.97 10.46,40.97 10.46,25.537 8.318,23.218 
			4.033,23.218 1.891,25.537 1.891,56.094 6.684,60.11 8.523,60.11 10.46,60.11 10.924,60.11 10.924,62.287 51.707,62.287 
			54.563,59.162 54.563,51.628 54.563,47.614 54.563,43.59 54.563,3.486 52.422,1.166 48.137,1.166 45.994,3.486 45.994,18.421 
			44.412,18.421 44.412,16.724 43.537,16.724 43.537,3.486 41.396,1.166 37.11,1.166 34.968,3.486 34.968,16.724 32.512,16.724 
			32.512,3.486 30.369,1.166 26.085,1.166 23.942,3.486 23.942,16.724 21.486,16.724 21.486,3.486 19.344,1.166 15.059,1.166 
			12.917,3.486 12.917,16.724 11.492,16.724 		"/>
		
			<rect x="10.924" y="69.824" transform="matrix(-1 3.317912e-004 -3.317912e-004 -1 63.0728 141.7478)" fill="none" stroke="#147185" stroke-miterlimit="10" width="41.201" height="2.109"/>
	</g>
	<path fill="none" stroke="#147185" stroke-miterlimit="10" d="M6.959,62.28l-2.177,3.772l2.177,3.772l47.604-0.011v-7.53
		L6.959,62.28z M6.734,66.052l1.202-2.082h2.948v4.164H7.936L6.734,66.052z"/>
	<line fill="none" stroke="#147185" stroke-miterlimit="10" x1="10.924" y1="62.28" x2="10.924" y2="69.818"/>
	<polygon fill="#147185" points="6.469,62.934 1.048,62.934 -0.776,64.759 -0.776,67.339 1.048,69.163 6.469,69.163 6.772,68.861 
		6.03,67.508 5.855,67.683 1.662,67.683 0.705,66.726 0.705,65.373 1.662,64.416 5.855,64.416 6.812,65.373 6.812,66.329 
		7.958,67.675 8.293,67.339 8.293,64.759 	"/>
	<g>
		<path fill="none" stroke="#147185" stroke-miterlimit="10" d="M1.795,18.421"/>
		<polyline fill="none" stroke="#147185" stroke-miterlimit="10" points="44.412,18.421 44.412,16.724 0.099,16.724 0.099,37.577 
			1.795,37.577 		"/>
		<polyline fill="none" stroke="#147185" stroke-miterlimit="10" points="46.108,20.116 46.108,18.421 44.412,18.421 44.412,20.116 
					"/>
		<line fill="none" stroke="#147185" stroke-miterlimit="10" x1="44.412" y1="20.116" x2="44.412" y2="18.421"/>
		<polyline fill="none" stroke="#147185" stroke-miterlimit="10" points="10.46,40.97 47.805,40.97 47.805,20.116 46.108,20.116 
			46.108,39.274 		"/>
		<polyline fill="none" stroke="#147185" stroke-miterlimit="10" points="10.46,39.274 46.108,39.274 46.108,20.116 		"/>
		<line fill="none" stroke="#147185" stroke-miterlimit="10" x1="44.412" y1="20.116" x2="44.412" y2="37.577"/>
		<polyline fill="none" stroke="#147185" stroke-miterlimit="10" points="10.46,37.577 44.412,37.577 44.412,20.116 		"/>
	</g>
	<line fill="none" stroke="#147185" stroke-miterlimit="10" x1="20.287" y1="40.97" x2="29.695" y2="49.656"/>
	<line fill="none" stroke="#147185" stroke-miterlimit="10" x1="29.695" y1="49.331" x2="29.695" y2="53.572"/>
	<line fill="none" stroke="#147185" stroke-miterlimit="10" x1="29.695" y1="49.331" x2="33.42" y2="45.607"/>
	<polyline fill="none" stroke="#147185" stroke-miterlimit="10" points="1.891,31.322 4.247,28.847 4.247,23.218 	"/>
	<g>
		<path fill="#147185" d="M15.198,22.249l-0.701,1.027v1.312l0,0l3.714,3.323l0.509,1.387v2.789l-1.58,2.309h-2.492l-1.731-0.841
			l0.467-2.03l1.511,0.765h1.543l0.702-1.025v-1.645v0.108l-3.784-3.401l-0.44-0.962v-2.911l1.581-2.31h2.546l1.677,0.824
			l-0.426,1.986l-1.511-0.705H15.198z"/>
		<path fill="#147185" d="M31.655,20.144l1.731,2.31v9.634l-1.731,2.309h-3.041l-1.732-2.309v-9.634l1.732-2.31H31.655z
			 M31.022,22.249h-1.776l-0.783,1.066v7.929l0.783,1.045h1.776l0.784-1.065v-7.908L31.022,22.249z"/>
		<path fill="#147185" d="M36.154,34.396h-1.58V20.144h4.498l1.594,2.31v4.677l-1.594,2.308h-2.918V34.396z M36.154,22.249v5.081
			h2.231l0.7-1.044v-2.991l-0.7-1.046H36.154z"/>
		<polygon fill="#147185" points="26.055,20.144 19.706,20.144 19.706,22.249 22.09,22.249 22.09,34.396 23.67,34.396 23.67,22.249 
			26.055,22.249 		"/>
	</g>
	<line fill="none" stroke="#147185" stroke-miterlimit="10" x1="8.318" y1="23.218" x2="8.318" y2="16.724"/>
</g>
</svg>
