<?xml version="1.0" encoding="utf-8"?>
<!-- Generator: Adobe Illustrator 15.1.0, SVG Export Plug-In . SVG Version: 6.00 Build 0)  -->
<!DOCTYPE svg PUBLIC "-//W3C//DTD SVG 1.1//EN" "http://www.w3.org/Graphics/SVG/1.1/DTD/svg11.dtd">
<svg version="1.1" id="Layer_1" xmlns="http://www.w3.org/2000/svg" xmlns:xlink="http://www.w3.org/1999/xlink" x="0px" y="0px"
	 width="46.772px" height="36.689px" viewBox="26.182 20.538 46.772 36.689" enable-background="new 26.182 20.538 46.772 36.689"
	 xml:space="preserve">
<g>
	<polygon fill="#A3A49E" points="45.467,47.656 44.541,51.698 42.043,53.777 41.611,54.51 42.548,56.72 45.714,57.228 
		47.366,56.725 48.1,56.073 49.251,56.293 50.044,53.523 	"/>
	<g>
		<g>
			<polygon fill="#E86E62" points="50.536,52.239 51.136,52.828 50.962,53.87 49.643,54.863 49.044,54.157 48.905,53.947 
				49.001,53.369 50.111,52.902 			"/>
			<polygon fill="#C66661" points="50.395,53.218 50.635,53.665 49.189,54.262 49.285,53.685 			"/>
		</g>
		<g>
			<polygon fill="#AF9A92" points="60.089,27.356 58.441,24.455 55.285,20.538 55.104,21.626 55.625,23.111 54.141,21.325 
				53.937,22.55 54.311,23.661 52.769,22.844 52.858,24.187 53.352,25.004 51.781,24.567 51.89,25.599 52.371,26.483 51.057,26.193 
				51.26,27.276 51.617,27.86 50.682,28.438 50.965,29.463 50.472,29.695 50.539,30.966 50.228,31.157 50.551,32.365 50.244,32.523 
				50.488,33.368 50.397,33.701 50.692,34.86 50.76,34.672 			"/>
			<polygon fill="#A38368" points="50.692,34.86 50.231,36.156 50.714,34.943 			"/>
			<polygon fill="#A38368" points="60.09,27.356 60.942,28.854 60.942,28.854 			"/>
			<polygon fill="#82766A" points="56.476,30.368 61.007,28.973 60.089,27.356 50.76,34.672 50.692,34.86 50.714,34.943 
				50.231,36.156 51.5,37.854 			"/>
			<polygon fill="#A38368" points="61.007,28.973 60.94,28.855 60.94,28.855 			"/>
			<polygon fill="#82766A" points="59.553,27.845 55.682,23.191 58.688,28.53 54.366,23.74 57.652,29.181 53.408,25.083 
				57.018,29.634 51.26,27.276 51.674,27.939 54.94,30.038 50.682,28.438 50.965,29.463 53.544,30.313 50.228,31.157 52.29,31.572 
				50.244,32.523 50.488,33.368 56.081,30.5 			"/>
			<line fill="none" x1="55.862" y1="30.486" x2="53.001" y2="32.913"/>
			<path fill="#DFD4C3" d="M54.598,39.102l-1.835-0.521L51.5,37.854l-1.269-1.698c0,0-2.844-2.642-3.915-3.345
				c-1.071-0.704-2.346-0.601-2.346-0.601l-3.95-1.56l-0.284,0.226l-4.108,0.64l6.765,3.961l-0.566,1.615
				c0,0,1.027,1.648,2.644,2.897l0.571-1.96l4.104,3.992l5.532-2.782L54.598,39.102z"/>
			<polygon fill="#D9CBBA" points="39.737,30.877 40.021,30.651 39.675,30.514 26.182,29.066 29.69,30.036 27.36,30.591 
				31.225,31.096 29.366,31.765 31.548,32.094 35.629,31.517 			"/>
			<path fill="#1A5650" d="M65.123,38.799l-2.399,0.296l-0.382,0.306l-0.573,0.099l0.649,1.435l0.965,1.576l0.576-0.079
				c0.196-0.298,0.387-0.558,0.621-0.734c0.68-0.516,1.468-0.42,1.468-0.42l0.26-0.014l-1.219-1.566L65.123,38.799z"/>
			<path fill="#27664F" d="M68.768,41.024l-0.158-0.332l0.244-0.519l0.431-1.326l0.934,0.252l-0.055-0.071l-0.413-0.873
				c0,0-0.486-1.06-1.837-1.146c-0.034-0.009-0.069-0.016-0.105-0.024l-1.39,0.718l-1.295,1.094l-0.034,0.898l1.219,1.566
				l1.151-0.064L68.768,41.024z"/>
			<polygon fill="#655671" points="51.5,37.854 53.253,38.757 53.202,33.856 56.254,30.367 52.435,32.248 50.76,34.672 
				50.118,36.208 			"/>
			<polyline fill="#333035" points="66.831,38.262 67.114,38.031 67.63,37.871 67.805,38.285 67.771,38.49 67.596,38.706 
				67.171,38.739 66.961,38.53 66.879,38.323 			"/>
			<g>
				<g>
					<path fill="#F2BE6B" d="M70.984,41.228l1.167,0.23l0.46-0.201l-1.587-1.106l-0.807-1.051l-0.934-0.252l-0.431,1.326
						l-0.244,0.519l0.158,0.332l0.086-0.011l2.221,0.72c0,0,0.187,0.026,0.438,0.057l-0.602-0.119L70.984,41.228z"/>
					<path fill="#D7973A" d="M72.871,41.439l-0.261-0.182l-0.46,0.201l-1.167-0.23L70.91,41.67l0.602,0.119
						c0.447,0.052,1.103,0.115,1.29,0.057C73.098,41.756,72.871,41.439,72.871,41.439z"/>
				</g>
				<polygon fill="#DBB43A" points="68.854,41.012 68.609,40.692 68.808,40.236 70.984,41.228 70.91,41.67 				"/>
			</g>
			<polygon fill="#5A4A42" points="69.959,39.99 70.419,40.214 70.146,40.354 			"/>
			<path fill="none" d="M52.763,38.581l2.002,0.568l2.018-0.362l1.921,0.006c-0.288-0.572-0.328-3.27-0.328-3.27l0.987-3.4
				l0.953-1.309l0.182-0.669l0.51-1.172l-2.565-4.518l-3.156-3.917l-0.182,1.088l0.521,1.485l-1.484-1.786l-0.205,1.225l0.374,1.111
				l-1.542-0.816l0.091,1.343l0.493,0.816l-1.57-0.437l0.108,1.032l0.481,0.883l-1.314-0.29l0.204,1.083l0.356,0.583l-0.935,0.579
				l0.284,1.025l-0.494,0.232l0.067,1.271l-0.312,0.191l0.323,1.208l-0.306,0.159l0.243,0.845l-0.092,0.333l0.316,1.242
				l-0.481,1.213l1.269,1.698L52.763,38.581z"/>
			<path fill="#E6E7E8" d="M62.418,40.934l-0.649-1.435l-0.457,0.078l0.604,1.744l1.076,1.717l0.585-0.028
				c0.138-0.201,0.261-0.396,0.381-0.579l-0.575,0.078L62.418,40.934z"/>
			<path fill="#184A81" d="M67.663,36.961c-1.474-0.218-3.304,0.82-3.304,0.82l-1.637,1.313l2.399-0.296l1.295-1.094l1.391-0.718
				C67.76,36.977,67.712,36.969,67.663,36.961z"/>
			<polygon fill="#603F38" points="63.577,43.01 62.993,43.038 61.917,41.323 58.227,41.859 58.526,46.138 60.334,45.357 
				61.256,44.881 62.409,44.235 63.154,43.565 			"/>
			<polygon fill="#805C51" points="58.526,46.138 58.251,46.297 54.522,42.709 58.227,41.859 			"/>
			<polygon fill="#6E5040" points="61.917,41.323 61.312,39.577 59.083,40.5 56.297,39.815 54.374,40.448 54.522,42.709 
				58.222,41.997 			"/>
			<polygon fill="#9D8D83" points="54.522,42.709 54.374,40.448 54.68,39.24 50.875,41.016 49.148,42.022 50.791,43.275 			"/>
			<polygon fill="#877A73" points="49.148,42.022 47.3,45.208 45.519,47.637 47.781,45.812 50.791,43.275 			"/>
			<polygon fill="#FFF2DF" points="58.251,46.297 58.208,46.254 54.522,42.709 53.913,45.927 54.116,48.897 55.885,50.24 
				57.545,48.456 58.197,46.433 			"/>
			<polygon fill="#F5E2C6" points="60.334,45.357 59.384,46.648 58.66,47.243 57.545,48.456 58.251,46.297 58.526,46.138 			"/>
			<polygon fill="#D6CCC0" points="51.278,45.698 50.075,49.446 54.134,49.004 53.93,46.034 54.522,42.709 			"/>
			<polygon fill="#E3D6CA" points="53.494,51.762 50.075,49.446 54.116,48.897 55.885,50.24 			"/>
			<polygon fill="#BFB5AB" points="54.522,42.709 51.278,45.698 50.075,49.446 45.519,47.637 50.791,43.275 			"/>
			<polygon fill="#E8DED0" points="53.9,46.008 56.671,44.777 54.522,42.709 			"/>
			<polygon fill="#BFA999" points="45.519,47.637 44.566,51.671 46.813,50.352 50.075,49.446 			"/>
			<polygon fill="#655671" points="54.765,39.149 56.783,38.787 58.704,38.793 59.763,39.094 60.688,39.684 61.312,39.577 
				59.083,40.5 56.297,39.815 			"/>
			<polygon fill="#FDF6E3" points="52.59,40.149 50.021,38.306 45.024,32.596 49.148,42.022 			"/>
			<polygon fill="#9D8D83" points="49.148,42.022 45.043,38.03 45.024,32.596 45.398,33.287 			"/>
			<polygon fill="#A8A198" points="45.043,38.03 42.394,35.477 45.024,32.596 			"/>
			<polygon fill="#ACA59E" points="35.629,31.517 31.107,32.672 32.869,33.398 34.608,33.653 34.126,34.028 35.355,34.616 
				36.279,34.736 35.985,35.036 40.841,37.139 41.828,37.093 42.394,35.477 			"/>
			<polygon fill="#9D8D83" points="31.107,32.672 35.629,31.517 31.548,32.094 30.873,32.575 			"/>
			<polygon fill="#766356" points="58.45,31.831 60.318,30.64 60.238,30.921 60.315,30.814 60.497,30.145 61.007,28.973 
				56.476,30.368 51.5,37.854 52.763,38.581 54.765,39.149 56.783,38.787 56.818,38.787 56.99,35.656 			"/>
			<path fill="#9D8D83" d="M58.376,35.524l0.987-3.4l0.952-1.309l0.06-0.219l-1.924,1.235l-1.46,3.824l-0.172,3.132l1.885,0.006
				C58.415,38.221,58.376,35.524,58.376,35.524z"/>
			<polygon fill="#F2E2CE" points="50.075,49.446 49.253,51.86 50.058,53.531 51.858,53.003 52.797,52.408 53.494,51.762 			"/>
			<polygon fill="#DCC3B1" points="46.813,50.352 50.075,49.446 49.253,51.86 47.465,52.622 46.518,51.499 			"/>
			<polygon fill="#585864" points="48.757,54.281 47.15,54.619 45.434,51.816 44.392,53.553 44.338,56.386 46.723,55.293 			"/>
			<g>
				<polygon fill="#E86E62" points="46.709,52.239 47.309,52.828 47.136,53.87 45.816,54.863 45.217,54.157 45.078,53.947 
					45.175,53.369 46.284,52.902 				"/>
				<polygon fill="#C66661" points="46.284,52.902 46.523,53.35 45.078,53.947 45.175,53.369 				"/>
			</g>
			<polygon fill="#D8CEBF" points="50.058,53.531 49.253,51.86 47.465,52.622 46.518,51.499 46.709,52.239 47.309,52.828 
				47.136,53.87 46.832,54.1 47.15,54.619 48.757,54.281 			"/>
			<path fill="#DCC3B1" d="M50.058,53.531"/>
			<polygon fill="#949198" points="45.433,51.162 45.434,51.816 46.136,52.964 46.284,52.902 46.709,52.239 46.518,51.499 
				46.813,50.352 			"/>
			<polygon fill="#D2C9BB" points="54.753,39.218 51.5,37.854 50.231,36.156 46.757,33.13 45.141,32.321 43.945,32.311 
				45.024,32.596 45.024,32.596 50.021,38.306 52.59,40.149 			"/>
			<polygon fill="#8C7C76" points="56.297,39.815 54.765,39.149 54.652,39.253 54.374,40.448 			"/>
			<path fill="#E2DCD7" d="M45.013,32.664"/>
			<polygon fill="#479578" points="65.851,38.484 67.05,38.684 67.634,39.317 67.386,40.029 			"/>
		</g>
		<polygon fill="#9D998F" points="45.043,38.03 44.473,39.99 44.895,40.952 45.241,44.078 45.965,45.085 47.585,44.718 
			49.148,42.022 		"/>
		<polygon opacity="0.3" fill="#554961" enable-background="new    " points="56.476,30.368 56.254,30.367 53.202,33.856 
			53.202,35.293 		"/>
		<polygon fill="#D9CBBA" points="47.358,37.854 51.06,40.982 49.148,42.022 		"/>
		<polygon opacity="0.5" fill="#554961" enable-background="new    " points="51.5,37.854 55.285,37.139 54.765,39.149 		"/>
		<polygon opacity="0.3" fill="#554961" enable-background="new    " points="60.334,45.357 59.855,46.008 58.251,46.297 
			58.526,46.077 		"/>
		<polygon opacity="0.5" fill="#655671" enable-background="new    " points="42.394,35.477 41.828,37.093 42.89,38.484 
			44.473,39.99 48.808,42.609 49.148,42.022 		"/>
	</g>
	<polygon fill="#BFB5AB" points="45.043,38.03 42.394,35.477 41.828,37.093 42.894,38.489 44.473,39.99 	"/>
</g>
</svg>
