<?xml version="1.0" encoding="utf-8"?>
<!-- Generator: Adobe Illustrator 15.1.0, SVG Export Plug-In . SVG Version: 6.00 Build 0)  -->
<!DOCTYPE svg PUBLIC "-//W3C//DTD SVG 1.1//EN" "http://www.w3.org/Graphics/SVG/1.1/DTD/svg11.dtd">
<svg version="1.1" id="Layer_1" xmlns="http://www.w3.org/2000/svg" xmlns:xlink="http://www.w3.org/1999/xlink" x="0px" y="0px"
	 width="46.772px" height="28.645px" viewBox="17.679 10.828 46.772 28.645" enable-background="new 17.679 10.828 46.772 28.645"
	 xml:space="preserve">
<g>
	<path fill="#BF772A" d="M63.344,18.854l-1.274-1.42c0,0-2.082-1.712-4.205-2.004c-0.17-0.005-0.337-0.007-0.501-0.006
		c-1.518,0.012-2.77,0.298-2.77,0.298l-1.529-0.083L50.559,12.8c0,0-1.954-1.42-4.205-1.712c-3.101-0.584-5.012,0-5.012,0
		l-1.571,0.376c0,0-1.077-0.418-1.869-0.168c-0.792,0.251-3.695,1.17-3.695,1.17s-3.823,0.334-6.711,0.751
		c-2.887,0.417-4.884,1.211-4.884,1.211s-2.55,0.334-3.909,1.92c-1.36,1.587-0.595,4.636-0.595,4.636s-0.339,0.96-0.425,1.878
		c-0.084,0.919,1.148,2.506,1.148,2.506l-0.128,1.211l0.34-0.25L19,26.872l1.36-2.309c0,0,0.212-1.469-0.085-2.19
		c-0.297-0.721-0.936-2.265-0.936-2.265s-0.338-1.796,0.341-2.631c0.68-0.836,1.444-0.459,1.444-0.459s-0.596,1.294-0.637,2.839
		c-0.042,1.545,1.062,4.969,0.892,6.18c-0.042,0.259-0.34,0.418-0.851,1.087c-0.508,0.667-1.443,0.877-1.486,1.544
		c-0.254,1.044,0.807,3.091,0.85,3.216c0.042,0.126,0.065,4.13,0.042,4.753c-0.021,0.624,0.425,1.136,0.425,1.136h0.85l-0.128,0.583
		c0,0,0.34,0.408,1.657,0.376c1.316-0.031,1.911,0,1.911,0s0.244-0.187-0.127-0.877c-0.372-0.688-1.678-2.098-1.911-3.634
		c-0.149-1.063-0.245-1.93,0.169-2.547c1.274,1.671,2.378,4.303,2.378,4.303l0.129,1.586l1.231,1.169l0.552-0.96l0.383,0.375
		c0,0-0.298,0.669,0,0.836c0.297,0.167,3.269,0,3.269,0s0.322-0.28,0.212-0.71c-0.423-0.419-1.656-1.636-1.656-1.636l-0.594-0.744
		c0,0,0.636,0.96-0.595-0.543c-1.231-1.503-1.486-4.051-1.486-4.051s0.17-2.457,2.251-3.357l1.359,1.979l1.827,1.337l1.146-1.044
		l0.808,0.333l0.212-0.249l1.317,0.542l0.084-0.709l1.571,0.877l0.383-0.794l1.104,0.417l0.297,0.627l0.596,0.668l-0.297,1.378
		l-0.128,1.17l0.467-0.294l-0.213,1.129l0.426-0.251c0,0-0.362,0.763-0.128,1.295c0.265-0.126,0.808-0.209,0.808-0.209
		s0.287-0.229,0.573-0.043c0.287,0.189-0.399,1.849-0.2,2.132c0.2,0.28,0.391,0.25,0.391,0.25l0.51,0.125l0.128,0.375
		c0,0,0.553,0.535,1.868,0.487c1.317-0.049,2.146-0.487,2.125-0.779c0.052-0.366-1.021-1.462-1.021-1.462s-0.138,0.042-0.042-0.417
		s1.188-0.971,1.36-1.671c0.169-0.699,0.083-0.626,0.083-0.626s0.479-0.721,0.936-0.835c0.457-0.116,0.68,0.584,0.68,0.584
		l0.552-0.961l0.51,0.417l0.212-0.584l0.595,0.083l0.383-0.668l0.636,0.459l0.723-1.252l0.383,0.46l0.594-0.502l0.894-0.125
		l0.212,0.501l0.722-0.083l0.893,0.961l0.296-0.293c0,0,0.129,0.878,0.553,0.981c1.444-0.856,1.784-1.762,1.784-1.762
		s0.679,0.613,1.211,0.442c0.127-0.224,0.253-0.442,0.253-0.442s1.34-0.113,1.722-0.648c0.382-0.534,0.264-0.949,0.264-0.949
		s1.095-1.923,1.329-3.218c0.232-1.294,0-1.699,0-1.699l0.746-0.819v-0.802v-0.605l1.103-1.629L63.344,18.854z"/>
	<g>
		<path fill="#A26C29" d="M56.38,30.658l-1.13-1.723l2.271-2.698l-6.666-1.732l1.948,7.166l0.558-0.079l0.213,0.502l0.722-0.084
			l0.892,0.961l0.298-0.292c0,0,0.128,0.877,0.553,0.98c1.443-0.856,1.782-1.762,1.782-1.762s0.68,0.614,1.212,0.442
			c0.127-0.224,0.253-0.442,0.253-0.442s1.34-0.113,1.721-0.647c0.383-0.535,0.265-0.95,0.265-0.95s0.866-1.523,1.223-2.771
			l-1.629-0.424L56.38,30.658z"/>
	</g>
	<polygon fill="none" points="34.474,19.153 25.729,18.059 34.188,27.054 	"/>
	<polygon fill="#D0952A" points="34.474,18.656 42.144,16.058 39.049,24.549 34.188,27.054 	"/>
	<path fill="#E89823" d="M49.79,23.243l1.066,1.262l6.77,1.61l-0.104,0.122l3.344,0.868l0,0l1.628,0.423
		c0.044-0.154,0.081-0.305,0.107-0.447c0.232-1.294,0-1.698,0-1.698l0.746-0.819v-0.802v-0.605l-0.13-0.083l-0.596-0.542
		l0.085-1.211l-0.34,0.836l-0.382-0.335l0.127-1.086l-0.362-1.125l-0.203-0.041l-0.028,1.208l-0.638-0.918l-0.12-0.45l-1.078-0.219
		l-0.289,0.042l-0.035-0.108l-4.659-0.949L49.79,23.243z"/>
	<polygon fill="#1D1D1D" points="59.999,24.284 59.34,24.505 58.817,24.055 58.952,23.384 59.61,23.164 60.167,23.702 	"/>
	<path opacity="0.5" fill="#442A23" enable-background="new    " d="M59.287,31.897l-1.09-0.941v-1.229l0.62-0.997l0.986,0.332
		l0.329,0.86l0.632,0.378h0.507c0,0,0.022,0.267-0.004,0.376c-0.104,0.479-0.387,0.71-0.387,0.71s-0.326,0.253-0.748,0.354
		C59.678,31.861,59.287,31.897,59.287,31.897z"/>
	<polygon opacity="0.7" fill="#291A19" enable-background="new    " points="59.634,31.214 60.442,31.253 60.764,30.856 
		59.997,30.063 59.392,30.539 	"/>
	<polyline opacity="0.4" fill="#442A23" enable-background="new    " points="56.039,33.658 56.59,31.49 55.478,29.92 
		53.912,29.726 55.146,31.253 54.934,31.692 55.486,32.676 55.828,33.527 	"/>
	<polygon fill="#CE8029" points="39.493,16.745 34.822,12.395 34.474,18.656 	"/>
	<polyline fill="#D08829" points="44.959,10.89 42.144,16.058 45.736,20.202 45.793,27.377 47.007,26.115 46.156,19.786 
		45.018,11.141 	"/>
	<polygon fill="#D08829" points="45.75,22.081 45.736,20.202 42.144,16.058 39.049,24.549 	"/>
	<polygon fill="none" points="38.667,30.63 37.562,30.213 37.364,30.625 38.498,31.897 39.559,31.925 38.963,31.257 	"/>
	<path fill="none" d="M44.959,10.89L44.959,10.89L44.959,10.89z"/>
	<path fill="none" d="M22.567,33.905l0.955,1.105l1.435,2.923l-2.177-6.259l-0.293,1.366C22.497,33.31,22.528,33.598,22.567,33.905z
		"/>
	<path fill="none" d="M20.487,19.856c0.005-0.2,0.02-0.395,0.041-0.584l-1.254,0.292c0.026,0.323,0.066,0.543,0.066,0.543
		s0.638,1.543,0.936,2.265c0.091,0.222,0.135,0.515,0.151,0.814l0.058,0.056l0.32,1.655l0.487-0.214
		C21.043,23.143,20.455,20.993,20.487,19.856z"/>
	<path fill="#D17428" d="M56.161,16.664l1.203-1.24c-0.629,0.255-2.218,1.051-2.218,1.051L56.161,16.664z"/>
	<polygon fill="#E07E26" points="59.682,19.188 59.359,19.122 59.394,19.23 	"/>
	<polygon fill="#E9AC32" points="61.703,25.382 61.703,25.382 60.866,27.105 62.495,27.528 62.661,26.691 62.704,26.115 
		62.601,25.382 	"/>
	<polygon fill="#E07E26" points="61.518,20.775 61.546,19.568 60.76,19.407 60.88,19.856 	"/>
	<g>
		<polygon fill="#804937" points="62.495,27.528 62.495,27.528 62.495,27.528 		"/>
	</g>
	<g>
		<path fill="#925742" d="M28.855,27.941c-0.317,0.138-0.589,0.312-0.823,0.507L28.855,27.941z"/>
	</g>
	<g>
		<path fill="#925742" d="M28.855,27.941"/>
	</g>
	<g>
		<path fill="#804937" d="M22.487,33.041l0.293-1.366C22.533,32.043,22.468,32.503,22.487,33.041z"/>
	</g>
	<g opacity="0.5">
		<polygon fill="#533D37" points="39.133,34.473 39.154,34.283 38.971,34.473 38.971,34.473 		"/>
	</g>
	<polygon fill="none" points="40.156,25.15 44.294,28.935 44.294,28.935 47.007,26.115 46.156,19.786 46.156,19.786 44.959,10.89 
		44.959,10.89 42.144,16.058 39.493,16.745 34.722,12.302 34.188,27.054 37.364,30.625 37.562,30.213 38.667,30.63 38.963,31.257 
		39.559,31.925 38.718,26.115 	"/>
	<polygon fill="none" points="61.559,19.021 61.546,19.568 61.75,19.609 	"/>
	<path fill="none" d="M22.354,33.658l0.213,0.247c-0.04-0.307-0.071-0.595-0.08-0.864L22.354,33.658z"/>
	<path fill="none" d="M34.722,12.302L34.722,12.302L34.722,12.302z"/>
	<path fill="none" d="M23.724,25.475l5.435-1.445l1.339-0.898l-4.771-5.073l-5.2,1.213c-0.021,0.189-0.036,0.384-0.041,0.584
		c-0.032,1.136,0.556,3.287,0.803,4.828l1.49-0.653L23.724,25.475z"/>
	<polygon opacity="0.3" fill="#533D37" enable-background="new    " points="49.79,23.243 54.7,18.173 59.359,19.122 58.713,17.143 
		56.161,16.664 	"/>
	<path fill="none" d="M20.275,22.373c-0.297-0.721-0.936-2.265-0.936-2.265s-0.04-0.22-0.066-0.543l-1.341,0.314
		c0.062,0.65,0.176,1.106,0.176,1.106l2.317,2.202C20.41,22.888,20.366,22.595,20.275,22.373z"/>
	<polygon fill="none" points="60.498,18.437 60.244,19.105 59.682,19.188 60.76,19.407 	"/>
	<polygon fill="none" points="34.188,27.054 32.585,25.35 32.585,27.684 	"/>
	<polygon fill="none" points="56.38,30.658 60.866,27.105 57.522,26.237 55.25,28.935 	"/>
	<path fill="#C47C2A" d="M53.065,15.639L50.559,12.8c0,0-1.954-1.42-4.205-1.712c-0.496-0.094-0.961-0.157-1.395-0.198l1.196,8.896
		l3.634,3.456l6.372-6.579l-1.015-0.189c0,0,1.589-0.795,2.218-1.051c-1.518,0.012-2.77,0.298-2.77,0.298L53.065,15.639z"/>
	<path fill="#C7802A" d="M34.722,12.302L34.722,12.302l4.771,4.442l2.652-0.687l2.814-5.168c-2.268-0.215-3.617,0.198-3.617,0.198
		l-1.571,0.376c0,0-1.077-0.418-1.869-0.168C37.318,11.48,35.593,12.027,34.722,12.302L34.722,12.302L34.722,12.302z"/>
	<path opacity="0.7" fill="#D08829" enable-background="new    " d="M28.709,13.053l-2.98,5.006l0,0l4.771,5.073l2.086-1.4v3.619
		l1.602,1.705l0.534-14.753l0,0l0,0c-0.313,0.099-0.515,0.164-0.515,0.164S31.349,12.715,28.709,13.053z"/>
	<path fill="#D87627" d="M34.722,12.302L34.722,12.302L34.722,12.302z"/>
	<path fill="#D29129" d="M19.68,17.477c0.68-0.836,1.444-0.459,1.444-0.459S20.673,18,20.528,19.272l5.2-1.213l-3.374-3.587
		c-0.679,0.131-2.553,0.594-3.652,1.877c-0.833,0.973-0.868,2.498-0.771,3.53l1.341-0.313C19.228,18.968,19.237,18.02,19.68,17.477z
		"/>
	<path fill="#C47E2A" d="M28.709,13.053c-0.413,0.052-0.822,0.108-1.214,0.164c-2.887,0.417-4.884,1.211-4.884,1.211
		s-0.095,0.013-0.257,0.044l3.374,3.587l0,0L28.709,13.053z"/>
	<g>
		<polygon fill="#804937" points="62.494,27.526 60.865,27.103 60.865,27.103 		"/>
	</g>
	<g>
		<path fill="#7A5523" d="M43.165,39.45c0.18,0.02,0.377,0.028,0.598,0.02c1.317-0.049,2.146-0.486,2.124-0.778
			c0.054-0.366-1.02-1.462-1.02-1.462s-0.137,0.042-0.042-0.418c0.095-0.459,1.188-0.97,1.36-1.67
			c0.169-0.7,0.083-0.626,0.083-0.626s0.479-0.721,0.936-0.836c0.457-0.116,0.68,0.585,0.68,0.585l0.552-0.961l0.51,0.417
			l0.212-0.584l0.595,0.083l0.383-0.669l0.636,0.46l0.724-1.252l0.383,0.459l0.594-0.501l0.334-0.047l-1.948-7.165L43.165,39.45z"/>
	</g>
	<g>
		<path fill="#795126" d="M22.78,31.674c1.274,1.671,2.378,4.302,2.378,4.302l0.129,1.586l1.231,1.17l0.552-0.96l0.383,0.375
			c0,0-0.298,0.668,0,0.835c0.297,0.167,3.269,0,3.269,0s0.322-0.28,0.212-0.71c-0.423-0.419-1.656-1.636-1.656-1.636l-0.594-0.744
			c0,0,0.636,0.96-0.595-0.543c-0.627-0.766-1.001-1.803-1.216-2.636l-1.25,0.309L22.78,31.674z"/>
	</g>
	<g>
		<path fill="#79562D" d="M19.892,31.883c0.042,0.126,0.065,4.13,0.042,4.753c-0.021,0.624,0.425,1.136,0.425,1.136h0.85
			l-0.128,0.583c0,0,0.34,0.408,1.657,0.376c1.316-0.031,1.911,0,1.911,0s0.244-0.187-0.127-0.877
			c-0.372-0.688-1.678-2.098-1.911-3.634c-0.015-0.106-0.03-0.212-0.043-0.316l-0.213-0.246l-3.312-4.99
			C18.789,29.711,19.849,31.758,19.892,31.883z"/>
	</g>
	<g>
		<polygon fill="#925742" points="47.007,26.115 46.156,19.786 46.156,19.786 		"/>
	</g>
	<g>
		<polygon fill="#C47E2A" points="49.79,23.243 46.156,19.786 47.007,26.115 		"/>
	</g>
	<g>
		<path fill="#AD6E29" d="M32.585,25.35l-2.086-2.218l-1.339,0.898l-5.435,1.445l2.618,4.011l-3.562,2.188l5.251-3.227
			c0.234-0.195,0.506-0.369,0.823-0.507l0.653,0.951l3.077-1.208V25.35z"/>
	</g>
	<g>
		<polygon fill="#B17129" points="32.585,21.732 30.499,23.132 32.585,25.35 		"/>
	</g>
	<g opacity="0.7">
		<path fill="#925742" d="M28.031,28.447l-5.251,3.228l2.842,1.348l1.25-0.309c-0.208-0.802-0.27-1.415-0.27-1.415
			S26.726,29.534,28.031,28.447z"/>
	</g>
	<g>
		<path fill="#996127" d="M22.487,33.041c-0.02-0.537,0.045-0.997,0.293-1.366l-2.061-4.79c-0.059,0.072-0.122,0.151-0.191,0.24
			c-0.508,0.667-1.443,0.876-1.486,1.544l3.312,4.989L22.487,33.041z"/>
	</g>
	<g opacity="0.5">
		<path fill="#533D37" d="M22.78,24.03l-1.49,0.653c0.089,0.555,0.134,1.032,0.089,1.353c-0.004,0.022-0.011,0.043-0.019,0.064
			l2.363-0.627L22.78,24.03z"/>
	</g>
	<g>
		<path fill="#A76027" d="M23.724,25.475l-2.363,0.628c-0.067,0.192-0.287,0.356-0.641,0.781l2.061,4.79l3.562-2.188L23.724,25.475z
			"/>
	</g>
	<g>
		<polygon fill="#704E2C" points="44.294,28.935 40.156,25.15 38.718,26.115 39.559,31.925 39.261,33.303 39.154,34.283 
			44.294,28.935 		"/>
	</g>
	<g opacity="0.5">
		<polygon fill="#533D37" points="32.585,27.684 32.585,27.941 33.264,30.246 33.994,30.546 34.207,30.297 35.523,30.839 
			35.608,30.13 37.179,31.007 37.364,30.625 34.188,27.054 		"/>
	</g>
	<g opacity="0.5">
		<polygon fill="#533D37" points="39.154,34.283 39.133,34.473 44.294,28.935 		"/>
	</g>
	<g opacity="0.7">
		<polygon fill="#533D37" points="32.585,27.684 29.508,28.892 30.214,29.92 32.04,31.257 33.187,30.213 33.264,30.246 
			32.585,27.941 		"/>
	</g>
	<path opacity="0.5" fill="#925742" enable-background="new    " d="M18.831,25.369l-0.043,0.414l1.153-0.506l0.419-0.713
		c0,0,0.102-0.703,0.066-1.376l-2.317-2.202c0,0-0.339,0.96-0.425,1.879C17.599,23.782,18.831,25.369,18.831,25.369z"/>
	<polygon opacity="0.5" fill="#925742" enable-background="new    " points="18.703,26.58 19.042,26.33 19,26.872 19.94,25.277 
		18.788,25.783 	"/>
	<g opacity="0.5">
		<polygon fill="#925742" points="33.174,30.225 33.395,30.298 33.187,30.213 		"/>
	</g>
	<polygon fill="none" points="30.214,29.92 32.04,31.257 33.174,30.225 29.58,28.997 	"/>
	<path fill="none" d="M33.395,30.298L33.395,30.298L33.395,30.298z"/>
	<g opacity="0.5">
		<polygon fill="#81562C" points="40.156,25.15 39.049,24.549 34.188,27.054 29.508,28.892 29.58,28.997 33.174,30.225 
			33.187,30.213 33.395,30.298 33.395,30.298 33.395,30.298 33.994,30.546 34.207,30.297 35.523,30.839 35.608,30.13 37.179,31.007 
			37.562,30.213 38.667,30.63 38.963,31.257 39.559,31.925 38.746,26.301 		"/>
	</g>
	<g>
		<polygon fill="#7E5736" points="25.287,37.562 25.158,35.976 22.78,31.674 26.342,29.486 28.031,28.447 27.155,29.47 
			26.698,30.735 25.623,33.022 		"/>
	</g>
	<g>
		<polyline fill="#9E7A2C" points="26.66,31.704 26.708,31.897 27.683,35.85 29.397,37.562 30.102,37.449 28.855,36.105 28.38,35.7 
			27.601,34.736 		"/>
	</g>
	<g opacity="0.5">
		<polygon fill="#D17428" points="22.78,31.674 21.866,33.658 22.022,36.313 22.945,37.274 24.143,37.274 23.724,36.673 22.78,34.9 
			22.484,33.7 22.567,33.041 		"/>
	</g>
	<g opacity="0.7">
		<path fill="#533D37" d="M39.133,34.473l0.468-0.294l-0.213,1.129l0.426-0.251c0,0-0.361,0.763-0.128,1.295
			c0.265-0.126,0.808-0.209,0.808-0.209s0.287-0.229,0.573-0.043c0.287,0.189-0.399,1.849-0.2,2.132c0.2,0.28,0.391,0.25,0.391,0.25
			l0.511,0.125l0.128,0.375c0,0,0.382,0.371,1.27,0.468l0.051-0.099l-1.973-7.142L39.133,34.473z"/>
	</g>
	<g>
		<polygon fill="#AF6F29" points="46.566,32.84 50.856,24.505 49.79,23.243 47.007,26.115 44.331,28.897 44.372,28.935 		"/>
	</g>
	<g>
		<polygon fill="#80562C" points="44.331,28.897 40.233,25.15 39.126,24.549 41.243,32.209 44.294,28.935 		"/>
	</g>
	<g>
		<path fill="#785534" d="M43.214,39.353l0.028,0.097c0,0,1.428,0.069,2.083-0.278c0.656-0.347,0.561-0.48,0.561-0.48l-0.339-0.687
			l-0.681-0.775c0,0-0.324-0.339,0.16-0.766c0.482-0.427,0.868-0.795,1.042-1.043c0.175-0.249,0.113-0.669,0.199-0.905
			c0.087-0.237,0.744-0.783,0.744-0.783l-0.446-0.892L43.214,39.353z"/>
	</g>
	<g opacity="0.7">
		<polygon fill="#946226" points="44.372,28.935 44.331,28.897 44.294,28.935 41.243,32.209 43.214,39.353 46.566,32.84 		"/>
	</g>
	<path fill="#805522" d="M63.344,18.854l-1.274-1.42c0,0-2.082-1.712-4.205-2.004c-0.17-0.005-0.337-0.007-0.501-0.006
		c-0.629,0.255-2.218,1.051-2.218,1.051l3.567,0.668l0.68,2.088l0.851-0.125l0.254-0.668l0.383,1.42l0.637,0.918l0.041-1.754
		l0.553,1.712l-0.126,1.086l0.382,0.333l0.34-0.835l-0.085,1.211l0.596,0.542l0.13,0.084l1.102-1.629L63.344,18.854z"/>
	<g>
		<polygon fill="#DAC5A4" points="55.611,20.312 55.974,21.384 56.62,21.661 57.467,21.105 57.588,20.272 57.305,18.884 
			58.274,17.852 58.556,16.583 57.75,17.615 56.458,18.488 56.014,19.717 		"/>
		<polygon opacity="0.7" fill="#808184" enable-background="new    " points="58.274,17.852 56.701,18.891 56.387,20.506 
			57.33,21.195 56.62,21.661 55.974,21.384 55.611,20.312 56.458,18.488 57.75,17.615 58.556,16.583 		"/>
	</g>
	<polygon opacity="0.5" fill="#BBBDBF" enable-background="new    " points="58.952,23.384 59.277,23.937 59.61,23.164 	"/>
	<polygon opacity="0.5" fill="#F1F1F2" enable-background="new    " points="59.277,23.937 59.05,23.55 59.529,23.353 
		59.886,23.644 	"/>
	<polygon opacity="0.4" fill="#E4B86D" enable-background="new    " points="53.065,15.639 51.161,18.437 50.685,14.267 
		51.161,13.482 	"/>
	<polygon opacity="0.2" fill="#925742" enable-background="new    " points="51.161,18.437 49.79,23.243 52.378,20.57 	"/>
	<polygon opacity="0.3" fill="#442A23" enable-background="new    " points="60.36,22.367 60.866,24.563 60.167,25.15 
		59.468,25.475 58.197,24.03 58.197,22.851 59.05,21.851 60.078,21.732 	"/>
	<path opacity="0.7" fill="#804937" enable-background="new    " d="M57.577,30.658"/>
	<polygon opacity="0.4" fill="#442A23" enable-background="new    " points="59.394,19.23 59.468,16.664 58.713,17.143 	"/>
	<polygon opacity="0.4" fill="#442A23" enable-background="new    " points="60.88,19.856 61.518,18.656 61.673,18.99 
		62.704,21.205 62.367,22.153 61.985,21.82 62.099,20.84 61.518,20.775 	"/>
	<path fill="#976327" d="M22.78,24.03l-1.242-3.595l-0.415-3.418c0,0-0.554,1.671-0.596,2.255c-0.165,1.104,0.191,2.495,0.191,2.495
		l0.571,2.917L22.78,24.03z"/>
	<polygon fill="#8B5B24" points="18.36,24.684 19.762,22.557 19.421,20.303 20.339,22.568 20.426,23.187 20.36,24.563 
		18.821,26.494 18.831,25.369 	"/>
	<g>
		<polygon fill="#D8A128" points="40.269,21.205 38.462,17.305 42.144,16.058 		"/>
	</g>
	<path fill="#C97929" d="M59.394,19.23c0,0,0.716,2.499,0.684,2.502c-0.031,0.004-1.978,0.229-1.978,0.229l-0.633-0.855l0.121-0.833
		L59.394,19.23z"/>
	<polygon opacity="0.7" fill="#231F20" enable-background="new    " points="59.634,31.214 60.165,30.507 60.442,31.253 	"/>
	<g>
		<polygon fill="#B0782B" points="56.395,23.517 57.522,26.237 57.88,29.47 57.4,31.253 57.823,31.897 56.59,31.49 55.25,28.935 
			54.884,27.941 50.856,24.505 52.378,20.57 56.043,16.786 56.663,16.786 55.712,20.711 		"/>
	</g>
	<polygon opacity="0.3" fill="#442A23" enable-background="new    " points="56.59,16.745 55.146,18.417 54.154,19.854 
		54.349,21.243 54.787,20.812 54.543,22.496 54.787,24.03 55.25,23.517 55.372,25.382 55.25,26.803 54.154,27.941 53.912,29.726 
		54.884,27.941 56.004,26.803 56.395,23.517 55.762,20.716 56.325,18.519 	"/>
	<polygon opacity="0.1" fill="#533D37" enable-background="new    " points="60.078,21.732 57.88,21.966 56.59,23.986 
		57.522,26.237 57.88,29.47 60.866,27.105 60.866,24.563 60.36,22.367 	"/>
	<polyline opacity="0.6" fill="#804937" enable-background="new    " points="61.792,24.729 60.36,22.367 60.037,24.149 
		60.866,24.563 58.841,28.734 60.866,27.105 61.703,25.382 62.601,25.382 62.91,25.043 	"/>
	<polygon fill="#B2762A" points="46.156,20.092 46.113,20.303 45.75,22.081 39.126,24.549 40.233,25.15 44.155,29.082 45.75,27.404 
			"/>
	<path opacity="0.2" fill="#533D37" enable-background="new    " d="M21.124,17.017l0.688-1.311l-3.84,2.508l-0.039,1.664
		l1.341-0.313C19.273,19.565,18.967,16.726,21.124,17.017z"/>
	<g>
		<polygon fill="#925742" points="29.505,28.888 29.616,28.845 28.855,27.941 		"/>
	</g>
</g>
</svg>
