<?xml version="1.0" encoding="utf-8"?>
<!-- Generator: Adobe Illustrator 15.1.0, SVG Export Plug-In . SVG Version: 6.00 Build 0)  -->
<!DOCTYPE svg PUBLIC "-//W3C//DTD SVG 1.1//EN" "http://www.w3.org/Graphics/SVG/1.1/DTD/svg11.dtd">
<svg version="1.1" id="Layer_1" xmlns="http://www.w3.org/2000/svg" xmlns:xlink="http://www.w3.org/1999/xlink" x="0px" y="0px"
	 width="46.771px" height="39.576px" viewBox="14.408 12.191 46.771 39.576" enable-background="new 14.408 12.191 46.771 39.576"
	 xml:space="preserve">
<g>
	<polygon fill="#98CC74" points="20.807,46.118 28.111,49.813 47.653,47.806 51.024,50.595 61.137,43.936 61.18,43.723 
		17.711,41.616 14.408,44.815 16.55,44.242 	"/>
	<polygon fill="#57A653" points="28.111,51.454 40.379,51.454 45.883,50.595 51.356,51.768 56.5,48.951 60.57,46.692 61.137,43.936 
		51.024,50.595 47.653,47.806 28.111,49.813 20.807,46.118 16.55,44.242 14.408,44.815 15.582,48.169 	"/>
	<polyline fill="#86C77C" points="58.056,44.29 61.18,43.723 57.655,41.424 55.811,40.264 51.649,38.772 36.681,38.573 
		29.802,38.983 22.744,38.711 17.711,41.616 16.55,44.242 15.078,46.68 20.807,46.118 29.712,47.806 46.438,47.806 52.397,47.806 
		58.056,44.29 	"/>
	<polygon opacity="0.5" fill="#8BC53F" enable-background="new    " points="58.284,44.148 36.681,47.044 28.258,45.035 
		16.55,44.242 15.582,48.169 20.807,46.118 29.712,47.806 47.653,47.806 	"/>
	<polygon fill="#77BA70" points="21.669,39.331 23.452,41.086 21.05,44.548 26.771,41.434 37.559,43.441 48.226,41.939 
		39.301,39.331 43.648,38.869 50.689,38.739 36.681,38.573 32.149,40.878 	"/>
	<polygon fill="#98CC74" points="29.557,45.346 43.184,44.338 36.681,47.044 	"/>
	<polygon fill="#93CA74" points="29,40.413 32.149,40.878 36.681,38.573 36.681,38.573 29.802,38.983 	"/>
	<path fill="#A3D292" d="M23.849,43.023l2.922-1.59l7.867,3.382c0,0-7.122-1.732-7.295-1.692
		C27.17,43.164,23.849,43.023,23.849,43.023z"/>
	<polygon fill="#77BA70" points="51.806,41.345 47.822,40.1 54.627,40.644 55.811,40.264 61.18,43.723 54.627,40.878 	"/>
	<path fill="#98CC74" d="M48.023,40.115l3.782,1.229l-6.748-0.331c0,0-5.23-1.529-5.352-1.564S48.023,40.115,48.023,40.115z"/>
	<polygon opacity="0.4" fill="#2C307B" enable-background="new    " points="50.138,44.221 51.806,41.91 52.128,40.396 
		55.312,40.396 51.649,38.772 44.679,38.772 37.257,38.05 25.685,38.615 23.28,39.448 24.168,40.019 25.685,41.422 28.571,41.91 
		31.222,42.297 35.138,42.423 36.897,42.423 35.873,45.555 39.293,45.555 41.828,41.345 46.579,42.423 47.124,44.515 48.6,45.189 	
		"/>
	<g>
		<polygon fill="#37B783" points="26.537,20.946 24.292,23.153 28.748,22.397 33.087,23.279 30.298,20.694 		"/>
		<polygon fill="#85CA9B" points="26.537,20.946 28.748,22.397 28.72,17.417 		"/>
		<polygon fill="#8CCC9A" points="24.718,31.096 28.295,31.853 25.383,36.203 		"/>
		<polygon fill="#13A36D" points="28.72,17.417 28.748,22.397 30.298,20.694 		"/>
		<polygon fill="#13A36D" points="24.292,23.153 28.748,22.397 26.233,24.73 		"/>
		<polygon fill="#13A36D" points="30.903,24.666 28.295,31.853 32.542,31.349 		"/>
		<polygon fill="#13A36D" points="28.295,31.853 25.383,36.203 29.144,36.518 		"/>
		<path fill="#13A36D" d="M24.718,31.096l0.666,5.107c0,0-2.578-1.465-2.35-1.614C23.262,34.438,24.718,31.096,24.718,31.096z"/>
		<polygon fill="#07815D" points="24.292,27.25 24.718,31.096 26.233,24.73 		"/>
		<path fill="#13A36D" d="M29.087,36.203c0,0,0.028,0.092,0.077,0.246c0.301,0.968,1.497,4.104,1.497,4.104
			c0.122-0.378,1.577-4.35,1.577-4.35l0.304-4.854L29.087,36.203z"/>
		<polygon fill="#13A36D" points="26.78,40.553 25.383,36.14 23.08,39.417 		"/>
		<polygon fill="#07815D" points="33.087,23.279 28.748,22.397 30.903,24.666 		"/>
		<polygon fill="#07815D" points="30.903,24.666 32.542,31.349 32.845,27.629 		"/>
		<polygon fill="#07815D" points="28.295,31.853 32.542,31.349 29.144,36.518 		"/>
		<polygon fill="#07815D" points="25.383,36.203 26.78,40.553 29.144,36.518 		"/>
		<polygon fill="#07815D" points="30.662,40.553 32.238,36.203 32.542,31.349 34.24,34.69 32.542,36.518 34.3,39.67 		"/>
		<polygon fill="#13A36D" points="35.454,29.279 32.845,27.579 32.542,31.36 		"/>
		<polygon fill="#37B783" points="24.292,27.25 24.718,31.096 21.866,29.142 		"/>
		<polygon fill="#37B783" points="26.233,24.73 28.295,31.853 30.903,24.666 		"/>
		<polygon fill="#37B783" points="25.383,36.188 19.804,36.883 23.138,34.508 		"/>
		<polygon fill="#85CA9B" points="26.233,24.73 28.748,22.397 30.903,24.666 		"/>
		<polygon fill="#85CA9B" points="24.718,31.096 25.383,36.203 19.804,36.896 23.08,39.417 25.986,35.303 28.295,31.853 		"/>
		<polygon fill="#13A36D" points="28.295,31.853 26.233,24.73 24.718,31.096 		"/>
		<polygon fill="#37B783" points="29.144,36.518 32.542,31.349 32.238,36.203 29.144,36.518 30.662,40.553 26.78,40.553 		"/>
		<polygon fill="#13A36D" points="34.24,34.69 37.698,37.022 32.542,36.518 		"/>
		<polygon fill="#0F5640" points="37.698,37.022 34.3,39.67 32.542,36.518 		"/>
	</g>
	<g>
		<polygon fill="#37B783" points="40.788,16.553 38.017,19.276 43.519,18.342 48.879,19.432 45.434,16.241 		"/>
		<polygon fill="#85CA9B" points="40.788,16.553 43.519,18.342 43.485,12.191 		"/>
		<polygon fill="#8CCC9A" points="38.541,29.088 42.962,30.021 39.364,35.394 		"/>
		<polygon fill="#13A36D" points="43.485,12.191 43.519,18.342 45.434,16.241 		"/>
		<polygon fill="#13A36D" points="38.017,19.276 43.519,18.342 40.414,21.224 		"/>
		<polygon fill="#13A36D" points="46.183,21.147 42.962,30.021 48.205,29.398 		"/>
		<polygon fill="#13A36D" points="42.962,30.021 39.364,35.394 44.01,35.782 		"/>
		<path fill="#13A36D" d="M38.541,29.088l0.823,6.306c0,0-3.184-1.809-2.902-1.995C36.744,33.214,38.541,29.088,38.541,29.088z"/>
		<polygon fill="#07815D" points="38.017,24.337 38.541,29.088 40.414,21.224 		"/>
		<path fill="#13A36D" d="M43.939,35.394c0,0,0.035,0.113,0.094,0.304c0.371,1.194,1.85,5.068,1.85,5.068
			c0.149-0.467,1.947-5.373,1.947-5.373l0.374-5.996L43.939,35.394z"/>
		<polygon fill="#13A36D" points="41.088,40.767 39.364,35.315 36.518,39.365 		"/>
		<polygon fill="#07815D" points="48.879,19.432 43.519,18.342 46.183,21.147 		"/>
		<polygon fill="#07815D" points="46.183,21.147 48.205,29.398 48.58,24.806 		"/>
		<polygon fill="#07815D" points="42.962,30.021 48.205,29.398 44.01,35.782 		"/>
		<polygon fill="#07815D" points="39.364,35.394 41.088,40.767 44.01,35.782 		"/>
		<polygon fill="#07815D" points="45.883,40.767 47.831,35.394 48.205,29.398 50.303,33.525 48.205,35.782 50.378,39.677 		"/>
		<polygon fill="#13A36D" points="51.802,26.844 48.58,24.742 48.205,29.413 		"/>
		<polygon fill="#37B783" points="38.017,24.337 38.541,29.088 35.02,26.674 		"/>
		<polygon fill="#37B783" points="40.414,21.224 42.962,30.021 46.183,21.147 		"/>
		<polygon fill="#37B783" points="39.364,35.377 32.473,36.233 36.591,33.301 		"/>
		<polygon fill="#85CA9B" points="40.414,21.224 43.519,18.342 46.183,21.147 		"/>
		<polygon fill="#85CA9B" points="38.541,29.088 39.364,35.394 32.473,36.25 36.518,39.365 40.108,34.282 42.962,30.021 		"/>
		<polygon fill="#13A36D" points="42.962,30.021 40.414,21.224 38.541,29.088 		"/>
		<polygon fill="#37B783" points="44.01,35.782 48.205,29.398 47.831,35.394 44.01,35.782 45.883,40.767 41.088,40.767 		"/>
		<polygon fill="#13A36D" points="50.303,33.525 54.572,36.405 48.205,35.782 		"/>
		<polygon fill="#0F5640" points="54.572,36.405 50.378,39.677 48.205,35.782 		"/>
	</g>
	<g>
		<polygon fill="#C0D52F" points="44.73,24.272 46.317,22.421 49.459,21.452 51.496,23.999 54.775,25.616 55.915,28.843 
			55.915,30.923 53.567,33.099 53.395,34.905 51.876,36.807 49.149,36.986 46.492,36.772 44.109,36.305 42.658,34.799 
			42.658,32.147 40.692,29.219 40.692,28.197 40.277,27.225 41.59,25.183 		"/>
		<polyline fill="#748838" points="53.588,32.985 53.472,34.82 51.944,36.814 49.123,36.986 49.563,32.985 		"/>
		<polygon fill="#8EAB3D" points="55.982,30.931 51.783,28.317 53.636,33.106 		"/>
		<polygon fill="#8EAB3D" points="53.463,34.914 49.563,33.106 51.944,36.814 		"/>
		<polygon fill="#8EAB3D" points="46.559,36.778 46.559,33.106 44.178,36.313 		"/>
		<polygon fill="#8EAB3D" points="49.527,21.46 48.164,26.303 51.564,24.008 		"/>
		<polygon fill="#A4BF39" points="54.844,25.625 51.842,28.205 55.982,28.851 		"/>
		<polygon fill="#A4BF39" points="46.661,32.99 42.728,34.805 44.178,36.313 		"/>
		<polygon fill="#D8E26A" points="48.164,26.303 49.527,21.46 46.387,22.429 48.164,26.303 45.731,27.595 41.658,25.191 
			40.346,27.233 45.693,27.685 51.783,28.317 		"/>
		<path fill="#D8E26A" d="M42.728,32.155"/>
		<polygon fill="#D8E26A" points="46.559,32.985 45.693,27.685 42.728,32.155 		"/>
		<path fill="#D8E26A" d="M49.48,32.985"/>
		<polyline fill="#A4BF39" points="49.48,33.106 49.123,36.986 49.563,33.106 51.783,28.317 48.164,26.303 44.942,24.113 
			45.693,27.685 49.48,32.985 		"/>
		<polygon fill="#8EAB3D" points="51.778,24.113 51.783,28.317 54.844,25.625 		"/>
		<polygon fill="#81983B" points="46.559,32.985 46.559,36.778 49.563,33.106 		"/>
		<polygon fill="#D8E26A" points="45.767,27.787 48.061,31.105 51.783,28.317 		"/>
		<polyline fill="none" points="49.563,33.106 49.546,33.126 46.559,36.778 49.123,36.986 48.774,40.063 48.891,44.952 
			46.742,45.15 46.933,40.358 46.553,36.81 		"/>
		<polygon fill="#A87C4F" points="48.774,40.063 46.553,36.81 49.123,36.986 		"/>
		<polygon fill="#8A5D3B" points="48.774,40.063 46.742,45.15 48.891,44.952 		"/>
		<polygon fill="#CB9260" points="48.774,40.063 46.553,36.81 46.933,40.358 		"/>
		<polygon fill="#E4C081" points="46.933,40.358 48.774,40.063 46.742,45.15 46.742,45.15 		"/>
		<polygon fill="#A4BF39" points="54.844,25.625 51.783,28.317 55.982,28.851 		"/>
	</g>
	<polygon opacity="0.4" fill="#2C307B" enable-background="new    " points="26.78,40.553 29.144,36.518 28.111,32.24 
		30.917,31.349 29.243,29.413 30.662,25.498 37.905,22.562 41.688,28.075 43.939,29.609 42.728,32.155 46.559,32.985 46.661,36.518 
		49.546,33.126 53.463,34.914 51.944,36.814 50.378,39.677 52.128,40.396 48.6,45.189 46.742,45.15 47.272,40.553 41.688,40.878 
		36.681,40.063 35.454,38.646 35.12,40.1 30.418,41.345 	"/>
	<g>
		<polygon fill="#9EBA3B" points="29.63,32.936 30.951,31.076 33.872,29.814 36.132,31.852 39.486,32.899 40.959,35.656 
			41.198,37.528 39.184,39.773 39.224,41.421 37.977,43.318 35.365,43.817 32.773,43.952 30.419,43.828 28.845,42.653 
			28.539,40.271 26.301,37.883 26.183,36.964 25.671,36.141 26.703,34.144 		"/>
		<polyline fill="#748838" points="39.192,39.67 39.289,41.335 38.043,43.315 35.339,43.819 35.302,40.17 		"/>
		<polygon fill="#8EAB3D" points="41.265,37.526 36.908,35.697 39.249,39.772 		"/>
		<polygon fill="#8EAB3D" points="39.292,41.418 35.316,40.277 38.043,43.315 		"/>
		<polygon fill="#8EAB3D" points="32.84,43.951 32.417,40.649 30.486,43.827 		"/>
		<polygon fill="#8EAB3D" points="33.939,29.813 33.18,34.336 36.199,31.85 		"/>
		<polygon fill="#A4BF39" points="39.554,32.898 36.951,35.59 41.025,35.656 		"/>
		<polygon fill="#A4BF39" points="32.501,40.532 28.912,42.652 30.486,43.827 		"/>
		<polygon fill="#D8E26A" points="33.18,34.336 33.939,29.813 31.017,31.073 33.18,34.336 30.98,35.797 26.77,34.143 25.739,36.141 
			30.953,35.885 36.908,35.697 		"/>
		<path fill="#D8E26A" d="M28.606,40.269"/>
		<polygon fill="#D8E26A" points="32.402,40.541 30.953,35.885 28.606,40.269 		"/>
		<path fill="#D8E26A" d="M35.223,40.18"/>
		<polyline fill="#A4BF39" points="35.237,40.288 35.339,43.819 35.316,40.277 36.908,35.697 33.18,34.336 29.817,32.766 
			30.953,35.885 35.223,40.18 		"/>
		<polygon fill="#8EAB3D" points="36.417,31.918 36.908,35.697 39.554,32.898 		"/>
		<polygon fill="#81983B" points="32.402,40.541 32.84,43.951 35.316,40.277 		"/>
		<polygon fill="#D8E26A" points="31.036,35.968 33.634,38.665 36.908,35.697 		"/>
		<polygon fill="#A4BF39" points="39.554,32.898 36.908,35.697 41.025,35.656 		"/>
	</g>
	<g>
		<g>
			<rect x="35.873" y="29.609" fill="#A8BFC8" width="3.42" height="15.945"/>
			<g>
				<rect x="36.897" y="29.609" fill="#E6E7E8" width="1.273" height="15.945"/>
			</g>
		</g>
		<g>
			<g>
				<polygon fill="#F9F080" points="37.517,14.097 37.233,22.5 28.444,23.171 				"/>
				<polygon fill="#FBDC3A" points="34.258,28.984 37.233,22.5 40.777,28.984 37.517,32.243 				"/>
				<path fill="#FFD126" d="M43.523,20.103c-0.293,0.227-6.29,2.397-6.29,2.397l3.544,6.484l5.813-5.813L43.523,20.103z"/>
				<polygon fill="#FBDC3A" points="37.517,14.159 37.233,22.562 43.523,20.165 				"/>
				<polygon fill="#F9EA37" points="37.233,22.5 34.258,28.984 28.444,23.171 				"/>
				<polygon opacity="0.4" fill="#FAF180" enable-background="new    " points="33.588,18.36 43.3,20.214 37.517,31.911 
					28.444,23.503 				"/>
				<path fill="#404041" d="M37.517,32.578l-9.406-9.407l9.406-9.407l9.407,9.407L37.517,32.578z M28.778,23.171l8.74,8.74
					l8.741-8.74l-8.742-8.741L28.778,23.171z"/>
			</g>
			<polygon fill="#104739" points="37.487,17.578 36.618,19.051 35.626,19.812 36.497,20.466 35.724,21.409 34.527,21.947 
				35.893,22.849 35.217,23.91 33.29,24.943 35.24,25.962 36.907,26.294 36.497,27.366 38.353,27.42 38.115,26.294 39.71,26.057 
				41.746,24.943 39.749,24.004 39.05,23.018 40.521,22.129 39.13,21.533 38.356,20.443 39.226,19.924 38.115,18.956 			"/>
		</g>
	</g>
</g>
</svg>
