<?xml version="1.0" encoding="utf-8"?>
<!-- Generator: Adobe Illustrator 15.1.0, SVG Export Plug-In . SVG Version: 6.00 Build 0)  -->
<!DOCTYPE svg PUBLIC "-//W3C//DTD SVG 1.1//EN" "http://www.w3.org/Graphics/SVG/1.1/DTD/svg11.dtd">
<svg version="1.1" id="Layer_1" xmlns="http://www.w3.org/2000/svg" xmlns:xlink="http://www.w3.org/1999/xlink" x="0px" y="0px"
	 width="46.771px" height="25.191px" viewBox="19.596 10.555 46.771 25.191" enable-background="new 19.596 10.555 46.771 25.191"
	 xml:space="preserve">
<g>
	<g>
		<g>
			<polyline fill="#595B4F" points="21.231,20.573 24.175,20.192 24.351,18.85 26.259,18.366 27.593,17.708 23.577,18.361 
				21.231,20.573 			"/>
			<polygon fill="#767661" points="24.175,20.192 24.351,18.85 26.259,18.366 28.419,19.68 26.131,20.454 			"/>
			<polygon fill="#E2D8BA" points="28.419,19.68 27.108,22.109 27.801,23.9 25.994,24.851 24.414,24.019 21.939,22.058 
				21.231,20.573 24.175,20.192 26.131,20.454 			"/>
			<polygon fill="#4B4E44" points="24.791,20.471 25.011,19.606 25.887,19.213 26.658,19.701 26.851,19.824 26.949,20.503 
				26.638,21.196 25.762,21.513 24.991,21.101 			"/>
			<polyline fill="#525E61" points="27.593,17.708 29.612,16.767 33.433,15.87 30.241,18.316 28.419,19.68 26.259,18.366 
				27.593,17.71 			"/>
			<polygon fill="#D2CDA5" points="28.419,19.68 27.108,22.109 30.896,21.679 32.672,19.781 35.333,18.253 32.919,17.978 
				30.241,18.316 			"/>
			<polyline fill="#767864" points="40.548,15.444 40.051,18.809 37.354,17.502 35.333,18.253 32.919,17.978 30.241,18.316 
				33.433,15.87 40.548,15.444 			"/>
			<polygon fill="#555A50" points="43.468,19.494 40.051,18.809 40.548,15.444 43.961,15.815 45.335,16.106 48.263,16.842 
				46.369,18.73 			"/>
			<polyline fill="#BE986B" points="40.548,15.444 43.155,12.578 44.839,12.558 45.381,16.074 44.344,15.857 40.548,15.444 			"/>
			<polygon fill="#D0AF96" points="45.734,10.555 43.155,12.578 44.839,12.558 			"/>
			<polygon fill="#A499A7" points="45.667,10.613 47.105,15.42 45.39,16.131 44.772,12.615 			"/>
			<polyline fill="#B1B097" points="45.39,16.131 47.105,15.42 48.263,16.842 45.39,16.131 			"/>
			<polyline fill="#899684" points="48.263,16.842 46.369,18.73 49.181,18.695 51.265,17.567 48.263,16.842 			"/>
			<polygon fill="#A499A7" points="49.181,18.695 51.639,19.096 51.265,17.609 			"/>
			<polyline fill="#6E7367" points="51.233,17.609 51.639,19.096 54.357,17.482 51.233,17.609 			"/>
			<polygon fill="#899684" points="51.639,19.096 54.357,17.482 54.194,19.361 			"/>
			<polygon fill="#6E7367" points="54.194,19.361 54.357,17.482 55.852,17.617 58.122,18.157 57.413,19.321 55.878,17.941 			"/>
			<polyline fill="#B1B097" points="56.287,21.856 57.413,19.321 58.424,23.26 56.287,21.856 			"/>
			<polygon fill="#E1DEB9" points="30.896,21.679 27.108,22.109 27.801,23.9 29.667,24.46 			"/>
			<polygon fill="#E1DEB9" points="35.333,18.253 32.672,19.781 30.896,21.679 34.174,22.179 35.333,18.253 38.106,19.943 
				40.051,18.809 37.354,17.502 			"/>
			<polygon fill="#C7CBB7" points="34.174,22.179 38.106,19.943 35.333,18.253 			"/>
			<polygon fill="#899684" points="54.194,19.361 55.878,17.941 57.413,19.321 55.822,20.832 			"/>
			<polygon fill="#C0C5AE" points="57.413,19.321 54.449,21.77 56.287,21.905 			"/>
			<polyline fill="#B1B097" points="54.449,21.77 55.709,20.729 54.194,19.361 46.81,26.499 51.287,23.112 54.449,21.77 			"/>
			<polygon fill="#D9D8BE" points="48.369,24.992 46.369,18.73 49.181,18.695 51.639,19.096 54.194,19.361 			"/>
			<polygon fill="#B1B097" points="32.872,26.671 32.959,27.513 34.991,27.642 37.945,28.188 38.734,27.939 43.226,27.73 
				41.586,23.729 38.861,25.732 35.98,24.896 			"/>
			<polygon fill="#C07D4C" points="38.861,25.732 37.945,28.217 38.762,30.187 			"/>
			<polygon fill="#F0CAA9" points="53.07,24.118 51.3,26.9 49.854,30.35 49.287,27.227 48.634,25.235 51.287,23.112 			"/>
			<polygon fill="#DFB179" points="49.287,27.227 51.3,26.9 51.287,23.112 48.548,25.217 			"/>
			<polyline fill="#DDB97D" points="38.938,27.938 41.191,31.399 40.102,32.696 38.762,30.187 38.811,27.96 			"/>
			<polygon fill="#EAD0A4" points="41.801,28.865 40.307,27.866 38.938,27.938 41.191,31.399 			"/>
			<polygon opacity="0.4" fill="#655671" enable-background="new    " points="38.762,30.187 40.307,27.866 38.811,27.96 			"/>
			<polygon fill="#C07D4C" points="49.854,30.35 46.81,26.499 48.539,25.19 49.287,27.227 			"/>
			<polyline opacity="0.5" fill="#655671" enable-background="new    " points="46.81,26.499 46.883,26.521 49.287,27.227 
				48.068,28.092 			"/>
			<polygon fill="#E1DEB9" points="38.861,25.732 38.886,26.184 38.811,27.96 40.28,27.873 			"/>
			<path fill="#C07D4C" d="M32.01,24.178"/>
			<path fill="#C07D4C" d="M35.98,24.896"/>
			<polygon fill="#E2E0BB" points="38.106,19.943 38.861,25.732 35.98,24.896 34.174,22.179 			"/>
			<polygon fill="#C07D4C" points="30.896,21.679 32.2,24.176 35.98,24.896 32.872,26.671 30.791,25.662 29.667,24.46 			"/>
			<polygon opacity="0.4" fill="#655671" enable-background="new    " points="32.2,24.176 29.667,24.46 30.791,25.662 			"/>
			<polygon fill="#D4B787" points="32.2,24.176 34.174,22.179 35.98,24.896 			"/>
			<polygon fill="#D2C5A4" points="30.896,21.679 34.174,22.179 32.2,24.176 			"/>
			<polygon fill="#E8E8C3" points="38.106,19.943 40.051,18.809 43.468,19.494 41.586,23.729 38.861,25.732 			"/>
			<polygon fill="#C0C5AE" points="43.468,19.494 41.586,23.729 43.226,27.73 			"/>
			<polygon fill="#D2C5A4" points="27.801,23.9 25.994,24.851 28.461,26.152 31.791,27.159 32.959,27.513 32.872,26.671 
				30.867,25.662 29.667,24.46 			"/>
			<polyline opacity="0.2" fill="#655671" enable-background="new    " points="28.461,26.152 30.829,25.623 31.848,27.177 
				28.461,26.152 			"/>
			<polygon fill="#C7CBB7" points="27.108,22.109 24.402,21.989 24.414,24.019 25.994,24.851 27.801,23.9 			"/>
			<polygon fill="#C7CBB7" points="26.421,19.552 25.938,20.325 26.851,19.824 			"/>
			<polygon fill="#E4E1BA" points="43.311,24.806 47.173,21.248 46.369,18.73 43.468,19.494 			"/>
			<polygon fill="#BFB99B" points="48.369,24.992 46.81,26.499 43.226,27.73 43.311,24.806 47.173,21.248 			"/>
			<polygon fill="#CACEB4" points="46.369,18.73 49.747,21.675 51.639,19.096 49.181,18.695 			"/>
			<polyline fill="#938A6B" points="58.122,18.157 57.413,19.321 58.328,23.261 59.621,22.063 59.395,20.113 58.122,18.157 			"/>
			<polygon fill="#B1B097" points="59.395,20.113 57.413,19.321 59.621,22.063 			"/>
			<polygon fill="#927460" points="58.122,18.157 62.455,15.231 65.717,13.026 65.06,16.96 63.029,16.986 59.395,20.113 
				58.122,18.157 59.395,20.113 			"/>
			<polygon fill="#927460" points="62.768,24.341 61.099,23.632 59.621,22.063 58.324,23.229 60.521,24.79 63.362,26.957 			"/>
			<polyline fill="#CEB39A" points="64.917,24.138 62.768,24.341 63.362,26.957 66.368,28.414 64.917,24.138 			"/>
			<polygon fill="#AC7C5A" points="61.526,21.525 63.625,20.329 63.029,16.986 59.395,20.113 59.621,22.063 			"/>
			<polygon fill="#938A6B" points="59.621,22.063 61.526,21.525 63.625,20.329 62.768,24.341 61.099,23.632 			"/>
			<polygon fill="#7BCBE4" points="19.596,29.922 23.77,25.731 30.899,28.305 			"/>
			<polygon fill="#5EBFDF" points="30.899,28.305 19.596,29.922 27.018,33.261 			"/>
			<polygon fill="#72CBD7" points="27.018,33.261 30.899,28.305 41.722,34.688 34.542,35.746 			"/>
			<polygon fill="#5EBFDF" points="40.012,33.68 42.176,32.162 45.836,29.597 48.396,33.576 41.722,34.688 			"/>
			<polygon fill="#4FACD5" points="48.396,33.576 45.836,29.597 50.573,32.059 53.753,34.539 			"/>
			<polygon fill="#7BCBE4" points="45.309,28.499 50.573,32.059 45.836,29.597 42.625,31.849 			"/>
			<polygon fill="#5EBFDF" points="51.277,32.601 57.026,27.993 61.993,31.828 			"/>
			<polygon fill="#45B2D0" points="53.753,34.539 65.993,35.357 61.993,31.828 51.277,32.607 			"/>
			<polygon fill="#45B2D0" points="19.596,29.922 21.397,34.035 34.542,35.746 27.018,33.261 			"/>
			<polygon fill="#C09F84" points="63.029,16.986 63.625,20.329 62.768,24.341 64.917,24.138 63.625,20.329 65.06,16.96 			"/>
			<polygon fill="#C09F84" points="59.395,20.113 61.526,21.525 59.621,22.063 			"/>
			<polygon fill="#7BCBE4" points="55.664,29.084 60.666,30.803 57.026,27.993 			"/>
			<polygon fill="#3F9FC0" points="63.901,33.511 65.993,35.357 58.778,34.876 			"/>
			<polygon fill="#C0C5AE" points="24.402,21.989 23.902,21.766 21.939,22.058 24.414,24.019 			"/>
		</g>
		<polygon fill="#6E7367" points="58.122,18.146 58.795,19.211 62.542,15.172 		"/>
	</g>
	<polygon fill="#3F9FC0" points="21.397,34.035 27.018,33.261 34.542,35.746 	"/>
	<polygon fill="#3F9FC0" points="51.277,32.607 53.753,34.539 54.937,34.618 	"/>
</g>
</svg>
