<?xml version="1.0" encoding="utf-8"?>
<!-- Generator: Adobe Illustrator 15.1.0, SVG Export Plug-In . SVG Version: 6.00 Build 0)  -->
<!DOCTYPE svg PUBLIC "-//W3C//DTD SVG 1.1//EN" "http://www.w3.org/Graphics/SVG/1.1/DTD/svg11.dtd">
<svg version="1.1" id="Layer_1" xmlns="http://www.w3.org/2000/svg" xmlns:xlink="http://www.w3.org/1999/xlink" x="0px" y="0px"
	 width="46.771px" height="30.92px" viewBox="21.215 14.025 46.771 30.92" enable-background="new 21.215 14.025 46.771 30.92"
	 xml:space="preserve">
<g>
	<g>
		<polyline opacity="0.5" fill="#362010" enable-background="new    " points="61.344,26.783 61.767,25.871 61.551,26.77 
			61.344,26.783 		"/>
		<g>
			<polygon fill="#D08F41" points="40.993,17.614 44.835,17.614 45.745,17.311 48.272,16.502 52.62,15.845 55.551,14.732 
				56.664,14.025 59.242,14.025 60.05,14.48 62.728,15.137 64.903,15.39 65.712,15.39 65.712,16.098 67.077,17.008 67.077,18.119 
				67.987,19.485 67.684,19.99 66.622,20.896 65.307,20.445 64.145,20.896 63.235,20.141 61.769,20.04 60.606,21.101 59.141,21.658 
				61.769,22.416 62.88,23.326 63.438,25.138 63.588,26.106 63.083,27.623 62.376,27.623 61.366,27.219 61.416,25.601 61.82,25.138 
				61.366,24.388 59.545,23.932 59.545,24.791 58.433,25.802 56.057,26.106 54.743,25.854 53.985,25.449 54.035,24.59 
				55.804,24.438 55.906,24.427 56.714,24.338 57.256,23.747 55.956,23.579 55.639,22.847 55.551,23.326 52.417,23.63 
				49.333,23.276 47.969,22.972 46.857,23.529 45.644,23.224 44.38,23.427 40.993,26.359 39.679,27.268 39.095,27.623 37,29.291 
				35.736,29.797 33.663,32.728 34.068,33.487 34.017,34.094 32.147,34.346 31.692,33.537 31.085,32.628 31.085,31.414 
				31.945,30.504 33.815,27.32 36.544,25.348 37.304,24.185 37.252,23.124 35.331,24.185 31.641,24.185 28.407,22.669 
				26.283,20.445 26.536,19.131 27.648,19.08 28.962,20.292 30.53,21.456 32.298,22.366 35.382,21.811 37.505,20.445 39.072,18.472 
							"/>
			<polyline fill="#EAA847" points="66.533,20.335 67.842,19.724 67.987,19.485 67.077,18.119 67.077,17.008 65.712,16.098 
				63.407,16.098 62.376,17.654 63.097,18.809 64.145,20.896 65.489,20.507 66.622,20.896 			"/>
			<polygon fill="#D7AE6A" points="65.712,16.098 65.496,16.995 64.981,16.995 64.723,17.225 64.523,17.996 64.266,17.167 
				64.523,15.908 64.903,15.39 65.712,15.39 			"/>
			<path fill="#362010" d="M64.824,15.498c-0.029,0.042-1.245,0.526-1.245,0.526l-0.172,0.972l0.708,0.773l0.408,0.229l-0.257-0.829
				l0.257-1.259l0.38-0.519L64.824,15.498z"/>
			<polygon fill="#673714" points="64.523,15.908 63.579,16.024 64.903,15.39 			"/>
			<polygon fill="#825424" points="64.723,17.225 64.534,16.738 65.124,16.251 64.981,16.995 			"/>
			<polyline fill="#FAC66B" points="64.523,15.908 65.467,15.566 65.712,16.098 65.712,15.39 64.903,15.39 64.643,15.743 			"/>
			<path fill="none" stroke="#29B473" stroke-width="0.25" stroke-miterlimit="10" d="M55.855,24.834"/>
			<polygon opacity="0.7" fill="#673714" enable-background="new    " points="55.526,24.834 55.998,25.291 56.535,25.657 
				57.971,25.657 58.937,24.834 59.545,24.791 58.433,25.802 56.057,26.106 54.743,25.854 53.985,25.449 54.475,24.927 			"/>
			<polygon fill="#362010" points="54.561,25.758 54.561,25.138 55.14,24.834 55.14,25.138 55.397,25.493 55.397,24.834 
				56.335,24.378 54.035,24.59 53.985,25.449 			"/>
			<polygon fill="#362010" points="61.82,25.138 61.82,24.378 62.177,25.138 62.664,25.263 62.664,25.758 62.434,26.15 
				62.664,26.293 62.664,27.036 62.434,27.036 62.376,27.623 61.366,27.219 61.416,25.601 			"/>
			<polygon opacity="0.8" fill="#78612F" enable-background="new    " points="60.733,20.987 62.014,19.399 63.064,18.912 
				63.75,19.8 64.266,20.4 64.989,19.949 65.712,19.949 66.622,20.896 65.307,20.445 64.145,20.896 63.235,20.141 61.769,20.04 			
				"/>
			<polygon opacity="0.8" fill="#78612F" enable-background="new    " points="60.606,21.101 59.288,20.172 58.429,20.637 
				58.972,21.716 59.086,21.631 			"/>
			<path fill="#362010" d="M56.491,17.654c0,0-0.029,0.021-0.079,0.059c-0.326,0.25-1.55,1.199-1.55,1.199l-0.387,1.26l0.857,1.257
				l1.003,1.03l0.993,1.137l-0.614,0.741l1.129-0.152l0.343-0.675l-0.45-1.286l-1.881-0.944l-0.093-0.924l-0.603-1.159
				L56.491,17.654z"/>
			<polygon opacity="0.7" fill="#673714" enable-background="new    " points="61.82,25.138 61.366,24.388 60.606,23.038 
				61.854,23.275 62.542,24.026 63.407,25.138 63.056,26.299 62.664,26.515 61.64,25.758 			"/>
			<polygon opacity="0.7" fill="#673714" enable-background="new    " points="45.644,23.224 45.871,22.888 46.793,23.038 
				47.616,22.588 49.496,22.906 52.417,23.63 49.333,23.276 47.969,22.972 46.857,23.529 			"/>
			<polygon opacity="0.7" fill="#673714" enable-background="new    " points="63.547,19.538 64.156,19.112 64.408,19.499 
				64.989,19.112 65.912,19.499 66.189,19.499 66.533,20.335 67.199,19.949 67.842,19.724 66.622,20.896 65.806,20.047 
				64.989,19.949 64.266,20.4 			"/>
			<polygon fill="#362010" points="66.396,20.004 66.533,20.335 67.199,19.949 67.199,18.912 66.797,18.146 66.622,17.825 
				66.396,18.105 66.018,18.211 66.51,18.254 66.962,19.08 66.984,19.756 			"/>
			<polygon opacity="0.7" fill="#673714" enable-background="new    " points="63.819,18.576 64.125,19.112 64.377,19.499 
				65.521,19.348 65.681,18.912 65.987,18.576 65.987,18.211 65.365,18.598 64.502,18.855 64.125,18.448 			"/>
			<polygon opacity="0.7" fill="#673714" enable-background="new    " points="63.579,16.024 63.013,17.225 63.295,17.996 
				64.523,17.996 63.407,16.995 			"/>
			<polygon opacity="0.5" fill="#BF8231" enable-background="new    " points="39.863,19.827 41.895,18.512 44.87,18.655 
				45.927,20.896 45.644,21.842 44.38,23.427 40.993,26.359 39.434,27.418 39.095,27.623 37,29.291 35.929,29.72 35.736,29.797 
				33.663,32.728 34.068,33.487 33.312,33.487 32.797,32.415 35.199,28.696 36.402,28.438 37.575,27.036 38.833,25.348 
				38.433,23.747 38.433,22.317 			"/>
			<path fill="#EECE5F" d="M36.544,25.348"/>
			<path opacity="0.6" fill="#362010" enable-background="new    " d="M31.839,33.8c-0.056-0.1,0-1.041,0-1.041l1.501-2.116
				l0.257-0.745l0.658-0.915l0.372-0.544l0.114-0.658l0.315-0.486l0.629-0.316l1.459-0.979l0.915-1.938l0.373-0.315v-1.431
				l1.43-2.489l-2.203,2.574l-1.116,1.114l0.708-0.392l0.051,1.062l-0.759,1.163l-2.73,1.972l-1.87,3.184l-0.791,0.839l-0.069,1.285
				L31.839,33.8z"/>
			<path fill="none" stroke="#362010" stroke-miterlimit="10" d="M32.797,29.955"/>
			<path opacity="0.6" fill="#612D10" enable-background="new    " d="M26.283,20.445c0,0,1.679-0.042,1.593,0
				c-0.085,0.041,1.431,1.757,1.431,1.757l2.745,1.428h3.405l1.795-0.506l-1.921,1.062h-3.69l-3.234-1.516L26.283,20.445z"/>
			<polygon opacity="0.7" fill="#673714" enable-background="new    " points="56.664,14.025 55.855,15.39 52.593,16.738 
				48.272,16.502 52.62,15.845 55.551,14.732 			"/>
			<path opacity="0.5" fill="#EECE5F" enable-background="new    " d="M39.72,25.758c0,0,4.206-5.389,4.12-5.333
				c-0.086,0.06-3.061-0.422-3.061-0.422l-0.916,1.511L39.72,25.758z"/>
			<polygon opacity="0.3" fill="#362010" enable-background="new    " points="45.927,20.896 49.03,19.256 52.62,15.845 
				48.272,16.502 44.835,17.614 41.895,18.512 44.87,18.655 			"/>
			<polygon opacity="0.5" fill="#362010" enable-background="new    " points="58.429,20.637 57.513,19.499 55.762,20.356 
				55.037,20.995 54.475,20.172 55.16,19.312 57.656,19.112 59.288,20.172 			"/>
			<polygon opacity="0.8" fill="#EECE5F" enable-background="new    " points="60.606,21.101 60.606,18.741 59.288,17.425 
				57.571,17.225 59.288,17.225 61.366,18.37 61.668,19.827 61.769,20.04 			"/>
			<polygon opacity="0.8" fill="#EECE5F" enable-background="new    " points="59.545,23.832 58.972,21.716 58.429,20.637 
				57.513,19.499 55.855,20.311 58.186,22.088 58.887,23.038 58.937,24.834 59.545,24.791 			"/>
			<polygon opacity="0.8" fill="#EECE5F" enable-background="new    " points="60.606,23.038 59.173,21.716 61.769,22.416 
				62.88,23.326 63.407,25.04 63.425,25.145 63.588,26.106 63.083,27.623 62.664,26.515 63.056,26.299 61.854,23.275 			"/>
			<polygon fill="#78612F" points="62.376,27.623 63.083,27.623 62.664,26.515 62.376,26.923 			"/>
			<polygon opacity="0.8" fill="#78612F" enable-background="new    " points="55.397,24.834 56.335,24.378 56.764,25.069 
				57.916,25.138 58.916,24.032 58.937,24.834 57.971,25.657 56.535,25.657 			"/>
			<polygon opacity="0.7" fill="#673714" enable-background="new    " points="56.664,14.025 58.937,14.707 61.769,17.539 
				61.668,19.827 61.769,20.04 63.235,20.141 63.013,17.996 62.376,17.654 63.407,16.098 64.903,15.39 63.209,15.194 60.05,14.48 
				59.242,14.025 			"/>
			<polygon opacity="0.5" fill="#78612F" enable-background="new    " points="65.496,16.995 66.093,18.189 65.501,18.512 
				65.496,17.654 64.981,16.995 			"/>
			<polygon opacity="0.5" fill="#78612F" enable-background="new    " points="65.521,19.348 66.093,18.912 66.962,19.08 
				66.651,18.512 65.987,18.576 65.681,18.912 			"/>
			<polygon opacity="0.8" fill="#EECE5F" enable-background="new    " points="66.984,19.756 66.962,19.08 66.093,18.912 
				65.521,19.348 65.912,19.499 66.093,19.499 66.396,20.004 			"/>
			<polygon fill="#FDE58A" points="66.471,18.985 66.396,20.004 66.984,19.756 66.984,18.985 			"/>
			<polygon opacity="0.5" fill="#362010" enable-background="new    " points="64.523,17.996 64.502,18.855 64.377,19.499 
				65.489,20.507 64.145,20.896 63.769,18.684 			"/>
			<polygon opacity="0.5" fill="#EAA847" enable-background="new    " points="52.593,16.738 54.861,18.912 54.475,20.172 
				52.307,22.166 45.927,20.896 49.03,19.256 52.192,16.251 			"/>
			<polygon opacity="0.8" fill="#EECE5F" enable-background="new    " points="26.283,20.445 27.876,20.445 28.243,19.629 
				27.648,19.08 26.536,19.131 			"/>
			<polygon opacity="0.5" fill="#BF8231" enable-background="new    " points="32.298,22.366 35.474,22.746 37.408,20.507 
				35.382,21.811 			"/>
			<polygon fill="#FDE58A" points="67.987,19.485 67.641,19.499 67.199,18.912 66.832,18.211 67.077,18.119 			"/>
			<polygon opacity="0.7" fill="#673714" enable-background="new    " points="37.505,20.445 40.993,17.614 39.072,18.472 			"/>
			<polygon opacity="0.5" fill="#362010" enable-background="new    " points="28.243,19.629 27.876,20.445 27.876,20.896 
				26.911,21.101 27.577,21.801 28.513,21.285 28.792,20.716 28.703,20.053 			"/>
			<polygon fill="#362010" points="29.354,20.585 29.354,21.372 28.792,21.801 27.926,22.166 28.407,22.669 29.078,22.588 
				29.936,21.626 29.838,20.943 			"/>
			<polygon fill="#362010" points="30.37,21.337 30.222,22.431 29.345,23.109 29.857,23.348 30.25,22.881 30.508,22.343 
				30.508,21.626 			"/>
			<polygon fill="#362010" points="30.861,21.626 31.085,22.588 30.508,23.348 31.085,23.63 31.367,22.746 31.085,21.801 			"/>
			<polygon fill="#362010" points="31.768,22.094 31.768,23.038 31.252,23.63 32.052,23.109 			"/>
			<polygon fill="#EAA847" points="44.842,18.73 44.842,20.562 44.38,23.427 45.644,21.842 45.927,20.896 			"/>
			<polygon fill="#362010" points="32.482,22.588 32.797,23.038 32.797,23.404 32.298,23.918 32.298,23.254 			"/>
			<polygon fill="#362010" points="33.481,22.508 33.341,23.109 33.481,23.918 33.712,23.213 33.712,22.746 			"/>
			<polygon fill="#362010" points="33.712,24.185 34.342,24.185 34.853,23.63 34.657,23.038 34.283,23.747 			"/>
			<polygon fill="#362010" points="35.331,24.185 35.772,23.038 35.974,23.83 			"/>
			<polygon fill="#362010" points="34.54,21.962 35.382,21.811 35.474,22.746 			"/>
			<polygon fill="#362010" points="36.259,22.343 35.974,22.746 36.659,22.746 			"/>
			<polygon fill="#362010" points="36.544,21.507 36.283,21.811 36.83,22.166 			"/>
			<polygon fill="#362010" points="34.068,33.487 34.017,34.094 33.341,34.184 32.147,34.346 31.906,33.917 32.298,33.072 
				32.298,32.587 32.797,32.415 33.341,33.381 			"/>
			<g>
				<polygon fill="#362010" points="42.269,18.821 41.938,18.955 41.738,18.76 41.946,18.504 42.274,18.54 				"/>
				<polygon fill="#362010" points="43.178,18.909 42.841,19.066 42.595,18.823 42.779,18.515 43.139,18.567 				"/>
				<polygon fill="#362010" points="44.086,18.997 43.745,19.176 43.451,18.886 43.612,18.526 44.004,18.594 				"/>
				<polygon fill="#362010" points="44.995,19.086 44.649,19.287 44.308,18.949 44.444,18.537 44.87,18.622 				"/>
				<polygon fill="#362010" points="44.438,20.313 44.091,20.515 43.76,20.192 43.901,19.79 44.321,19.865 				"/>
				<polygon fill="#362010" points="43.881,21.541 43.534,21.744 43.211,21.434 43.357,21.042 43.772,21.108 				"/>
				<polygon fill="#362010" points="43.324,22.77 42.976,22.972 42.662,22.677 42.814,22.295 43.223,22.351 				"/>
				<polygon fill="#362010" points="42.486,23.711 42.101,23.936 41.783,23.664 41.973,23.272 42.407,23.301 				"/>
				<polygon fill="#362010" points="41.649,24.652 41.225,24.898 40.904,24.651 41.131,24.249 41.59,24.25 				"/>
				<polygon fill="#362010" points="40.812,25.593 40.349,25.861 40.026,25.636 40.29,25.227 40.775,25.2 				"/>
			</g>
			<g>
				<polygon fill="#362010" points="44.085,18.175 43.724,18.294 43.533,18.064 43.773,17.803 44.115,17.871 				"/>
				<polygon fill="#362010" points="45.032,18.349 44.664,18.491 44.427,18.206 44.647,17.887 45.022,17.975 				"/>
				<polygon fill="#362010" points="45.98,18.523 45.604,18.689 45.322,18.348 45.522,17.97 45.928,18.079 				"/>
				<polygon fill="#362010" points="46.928,18.697 46.544,18.887 46.216,18.49 46.397,18.054 46.836,18.183 				"/>
				<polygon fill="#362010" points="46.233,19.984 45.849,20.174 45.529,19.793 45.714,19.368 46.149,19.487 				"/>
				<polygon fill="#362010" points="45.538,21.271 45.155,21.461 44.842,21.097 45.031,20.682 45.462,20.791 				"/>
				<polygon fill="#362010" points="44.842,22.558 44.459,22.748 44.154,22.401 44.35,21.996 44.775,22.095 				"/>
				<polygon fill="#362010" points="43.879,23.508 43.454,23.719 43.144,23.396 43.378,22.987 43.832,23.057 				"/>
				<polygon fill="#362010" points="42.915,24.459 42.447,24.691 42.133,24.393 42.406,23.977 42.89,24.019 				"/>
				<polygon fill="#362010" points="41.951,25.41 41.44,25.663 41.122,25.389 41.435,24.968 41.947,24.981 				"/>
			</g>
			<g>
				<polygon fill="#362010" points="45.731,22.632 45.432,22.773 45.205,22.532 45.364,22.241 45.689,22.302 				"/>
				<polygon fill="#362010" points="46.448,21.532 46.148,21.673 45.921,21.433 46.079,21.142 46.405,21.203 				"/>
				<polygon fill="#362010" points="47.163,20.433 46.864,20.574 46.636,20.333 46.794,20.044 47.121,20.103 				"/>
				<polygon fill="#362010" points="47.878,19.333 47.579,19.475 47.352,19.235 47.51,18.944 47.835,19.005 				"/>
				<polygon fill="#362010" points="48.693,18.506 48.364,18.661 48.14,18.451 48.33,18.166 48.672,18.199 				"/>
				<polygon fill="#362010" points="49.507,17.678 49.148,17.848 48.928,17.669 49.15,17.388 49.507,17.394 				"/>
				<polygon fill="#362010" points="50.321,16.852 49.933,17.036 49.716,16.886 49.969,16.612 50.344,16.589 				"/>
			</g>
			<g>
				<polygon fill="#362010" points="51.584,16.807 51.309,16.784 51.246,16.514 51.482,16.372 51.692,16.552 				"/>
				<polygon fill="#362010" points="50.856,17.599 50.545,17.616 50.44,17.353 50.686,17.173 50.943,17.324 				"/>
				<polygon fill="#362010" points="50.128,18.392 49.781,18.449 49.633,18.191 49.889,17.974 50.196,18.098 				"/>
				<polygon fill="#362010" points="49.4,19.185 49.017,19.282 48.828,19.029 49.093,18.776 49.448,18.871 				"/>
				<polygon fill="#362010" points="48.686,19.975 48.338,20.032 48.191,19.773 48.447,19.556 48.753,19.681 				"/>
				<polygon fill="#362010" points="47.971,20.765 47.66,20.782 47.554,20.518 47.801,20.339 48.058,20.49 				"/>
				<polygon fill="#362010" points="47.257,21.554 46.982,21.532 46.918,21.263 47.155,21.12 47.364,21.3 				"/>
			</g>
			<g>
				<polygon fill="#362010" points="50.054,22.718 49.836,22.847 49.617,22.633 49.7,22.37 49.969,22.424 				"/>
				<polygon fill="#362010" points="50.833,21.787 50.617,21.917 50.396,21.702 50.479,21.44 50.75,21.492 				"/>
				<polygon fill="#362010" points="51.613,20.856 51.395,20.986 51.176,20.771 51.258,20.509 51.529,20.562 				"/>
				<polygon fill="#362010" points="52.391,19.925 52.174,20.055 51.956,19.84 52.038,19.577 52.307,19.631 				"/>
				<polygon fill="#362010" points="53.346,19.07 53.128,19.2 52.918,19 53.005,18.746 53.271,18.79 				"/>
				<polygon fill="#362010" points="54.301,18.215 54.083,18.344 53.881,18.158 53.975,17.914 54.234,17.95 				"/>
				<polygon fill="#362010" points="55.254,17.36 55.038,17.489 54.844,17.318 54.944,17.083 55.197,17.109 				"/>
				<polygon fill="#362010" points="52.804,18.905 52.6,18.782 52.651,18.551 52.885,18.531 52.981,18.749 				"/>
				<polygon fill="#362010" points="50.571,20.32 50.356,20.247 50.358,20.019 50.575,19.953 50.707,20.139 				"/>
				<polygon fill="#362010" points="48.337,21.736 48.11,21.711 48.066,21.487 48.262,21.375 48.432,21.529 				"/>
				<polygon fill="#362010" points="49.086,21.035 48.833,21.007 48.785,20.759 49.003,20.635 49.191,20.804 				"/>
				<polygon fill="#362010" points="49.835,20.334 49.558,20.303 49.502,20.031 49.744,19.894 49.949,20.08 				"/>
				<polygon fill="#362010" points="50.583,19.634 50.283,19.599 50.221,19.302 50.486,19.153 50.708,19.357 				"/>
				<polygon fill="#362010" points="51.234,18.911 50.933,18.876 50.873,18.58 51.136,18.43 51.359,18.635 				"/>
				<polygon fill="#362010" points="51.884,18.187 51.583,18.154 51.524,17.857 51.787,17.707 52.01,17.912 				"/>
				<polygon fill="#362010" points="52.536,17.465 52.235,17.43 52.174,17.134 52.437,16.984 52.662,17.189 				"/>
				<polygon fill="#362010" points="53.667,16.997 53.377,16.955 53.33,16.666 53.588,16.531 53.797,16.736 				"/>
				<polygon fill="#362010" points="54.799,16.531 54.521,16.48 54.485,16.199 54.739,16.077 54.933,16.283 				"/>
				<polygon fill="#362010" points="55.93,16.065 55.665,16.004 55.639,15.732 55.89,15.624 56.07,15.829 				"/>
				<polygon fill="#362010" points="55.1,16.693 54.833,16.633 54.809,16.362 55.059,16.254 55.24,16.459 				"/>
				<polygon fill="#362010" points="54.27,17.322 54.003,17.261 53.978,16.99 54.229,16.883 54.409,17.087 				"/>
				<polygon fill="#362010" points="53.439,17.95 53.173,17.89 53.148,17.619 53.398,17.511 53.579,17.717 				"/>
				<polygon fill="#362010" points="52.734,18.634 52.482,18.576 52.458,18.32 52.696,18.218 52.866,18.413 				"/>
				<polygon fill="#362010" points="52.028,19.318 51.791,19.263 51.769,19.021 51.992,18.925 52.153,19.109 				"/>
				<polygon fill="#362010" points="51.322,20.001 51.1,19.949 51.08,19.722 51.289,19.632 51.44,19.804 				"/>
				<polygon fill="#362010" points="50.482,20.784 50.282,20.693 50.305,20.476 50.52,20.43 50.629,20.622 				"/>
				<polygon fill="#362010" points="49.641,21.568 49.463,21.437 49.531,21.229 49.75,21.229 49.819,21.439 				"/>
				<polygon fill="#362010" points="49.008,22.256 48.8,22.351 48.645,22.181 48.758,21.982 48.982,22.029 				"/>
				<polygon fill="#362010" points="51.974,19.823 51.761,19.93 51.594,19.759 51.704,19.549 51.937,19.587 				"/>
				<polygon fill="#362010" points="54.939,17.39 54.725,17.509 54.545,17.337 54.648,17.114 54.891,17.146 				"/>
				<polygon fill="#362010" points="57.905,14.957 57.687,15.087 57.495,14.914 57.592,14.68 57.846,14.705 				"/>
				<polygon fill="#362010" points="58.317,14.8 58.1,14.929 57.907,14.757 58.005,14.523 58.259,14.549 				"/>
				<polygon fill="#362010" points="58.729,14.641 58.511,14.772 58.319,14.6 58.418,14.365 58.671,14.391 				"/>
				<polygon fill="#362010" points="59.142,14.484 58.924,14.615 58.732,14.443 58.831,14.209 59.084,14.233 				"/>
			</g>
			<g>
				<polygon fill="#362010" points="60.262,14.902 60.079,14.982 59.944,14.832 60.044,14.657 60.243,14.701 				"/>
				<polygon fill="#362010" points="61.138,15.171 60.954,15.25 60.82,15.1 60.92,14.926 61.118,14.969 				"/>
				<polygon fill="#362010" points="62.013,15.439 61.83,15.519 61.695,15.369 61.796,15.195 61.994,15.237 				"/>
				<polygon fill="#362010" points="62.889,15.707 62.704,15.787 62.571,15.637 62.671,15.463 62.87,15.505 				"/>
			</g>
			<g>
				<polygon fill="#362010" points="53.109,22.426 52.822,22.546 52.62,22.308 52.783,22.043 53.085,22.115 				"/>
				<polygon fill="#362010" points="53.519,21.792 53.266,21.897 53.087,21.688 53.231,21.454 53.499,21.518 				"/>
				<polygon fill="#362010" points="53.929,21.157 53.71,21.249 53.557,21.068 53.681,20.865 53.911,20.921 				"/>
				<polygon fill="#362010" points="54.339,20.523 54.155,20.6 54.026,20.448 54.129,20.277 54.325,20.324 				"/>
			</g>
			<polygon fill="#362010" points="40.652,26.321 40.524,26.584 40.235,26.542 40.186,26.256 40.443,26.118 			"/>
			<polygon fill="#362010" points="38.625,27.699 38.497,27.961 38.208,27.921 38.158,27.633 38.415,27.497 			"/>
			<polygon fill="#362010" points="37.064,28.164 36.936,28.426 36.647,28.386 36.597,28.098 36.855,27.961 			"/>
			<polygon fill="#362010" points="35.886,28.828 35.759,29.092 35.47,29.051 35.419,28.763 35.677,28.627 			"/>
			<polygon fill="#362010" points="34.642,30.309 34.514,30.571 34.226,30.531 34.175,30.244 34.433,30.107 			"/>
			<polygon fill="#362010" points="33.573,30.995 33.446,31.258 33.157,31.218 33.107,30.929 33.364,30.794 			"/>
			<polygon fill="#362010" points="38.391,26.911 38.246,27.208 37.875,27.14 37.791,26.802 38.109,26.662 			"/>
			<polygon fill="#362010" points="39.675,25.374 39.48,25.772 39.041,25.71 38.965,25.274 39.357,25.065 			"/>
			<g>
				<polygon fill="#362010" points="36.676,27.497 36.544,26.979 36.889,26.662 37.233,26.979 37.102,27.497 				"/>
				<polygon fill="#362010" points="37.534,26.281 37.463,25.834 37.796,25.621 38.072,25.935 37.91,26.344 				"/>
				<polygon fill="#362010" points="38.391,25.064 38.382,24.687 38.704,24.581 38.912,24.891 38.718,25.19 				"/>
				<polygon fill="#362010" points="39.751,23.846 39.526,24.037 39.249,23.847 39.301,23.541 39.611,23.541 				"/>
				<polygon fill="#362010" points="39.426,23.277 39.217,23.455 38.956,23.278 39.005,22.991 39.295,22.991 				"/>
				<polygon fill="#362010" points="39.102,22.707 38.907,22.873 38.663,22.708 38.709,22.441 38.98,22.44 				"/>
				<polygon fill="#362010" points="38.777,22.137 38.596,22.291 38.371,22.138 38.413,21.89 38.664,21.889 				"/>
			</g>
			<g>
				<polygon fill="#362010" points="39.698,21.952 39.46,22.042 39.302,21.844 39.442,21.632 39.686,21.699 				"/>
				<polygon fill="#362010" points="40.196,21.102 39.958,21.192 39.8,20.994 39.939,20.782 40.184,20.849 				"/>
				<polygon fill="#362010" points="40.693,20.253 40.455,20.342 40.297,20.144 40.437,19.933 40.681,20 				"/>
				<polygon fill="#362010" points="41.191,19.403 40.954,19.492 40.795,19.295 40.935,19.083 41.179,19.15 				"/>
			</g>
			<polygon fill="#362010" points="40.383,22.996 40.146,23.086 39.987,22.887 40.126,22.676 40.372,22.742 			"/>
			<polygon fill="#362010" points="41.389,22.282 41.151,22.371 40.993,22.173 41.133,21.962 41.377,22.029 			"/>
			<polygon fill="#362010" points="40.444,21.671 40.208,21.76 40.049,21.561 40.188,21.35 40.432,21.417 			"/>
			<polygon fill="#362010" points="41.461,20.863 41.187,20.738 41.22,20.439 41.514,20.377 41.664,20.639 			"/>
			<polygon fill="#362010" points="42.697,20.958 42.422,20.833 42.456,20.534 42.75,20.473 42.9,20.735 			"/>
			<polygon fill="#362010" points="40.688,23.873 40.414,23.747 40.448,23.448 40.742,23.387 40.891,23.648 			"/>
			<polygon fill="#362010" points="41.572,23.214 41.298,23.09 41.331,22.79 41.627,22.73 41.774,22.991 			"/>
			<polygon fill="#362010" points="42.283,21.843 41.951,21.968 41.73,21.691 41.925,21.396 42.266,21.49 			"/>
			<polygon fill="#362010" points="42.662,19.98 42.348,20.097 42.138,19.837 42.323,19.558 42.646,19.646 			"/>
			<path fill="#362010" d="M37.116,21.12c0,0,0.859-0.01,0.793,0c-0.063,0.009-0.405-0.257-0.405-0.257l-0.217-0.278L37.116,21.12z"
				/>
			<polyline fill="#362010" points="38.371,20.995 38.574,20.786 38.371,20.445 38.194,20.001 37.914,20.277 38.194,20.6 
				38.244,20.995 			"/>
			<polygon fill="#362010" points="38.777,19.629 39.249,19.761 39.249,20.097 38.777,20.001 			"/>
			<polyline fill="#362010" points="39.072,18.472 39.095,18.912 39.362,19.153 38.965,19.209 38.777,18.912 39.013,18.547 			"/>
			<polyline opacity="0.2" fill="#262261" enable-background="new    " points="32.548,30.794 31.085,32.628 31.085,31.414 
				31.906,30.571 33.815,27.32 			"/>
			<g>
				<polygon fill="#362010" points="51.08,22.508 50.792,22.634 50.582,22.399 50.741,22.128 51.048,22.195 				"/>
				<polygon fill="#362010" points="52.139,21.531 51.868,21.649 51.671,21.427 51.822,21.173 52.11,21.236 				"/>
				<polygon fill="#362010" points="53.2,20.553 52.946,20.664 52.762,20.457 52.902,20.219 53.171,20.278 				"/>
				<polygon fill="#362010" points="54.259,19.575 54.023,19.679 53.852,19.486 53.982,19.264 54.234,19.32 				"/>
				<polygon fill="#362010" points="55.201,18.451 54.965,18.554 54.793,18.362 54.924,18.14 55.175,18.195 				"/>
				<polygon fill="#362010" points="56.143,17.326 55.907,17.429 55.735,17.237 55.865,17.015 56.117,17.071 				"/>
				<polygon fill="#362010" points="57.084,16.202 56.848,16.305 56.677,16.112 56.807,15.89 57.059,15.946 				"/>
				<polygon fill="#362010" points="58.083,16.083 57.846,16.187 57.675,15.994 57.806,15.772 58.056,15.828 				"/>
				<polygon fill="#362010" points="59.08,15.966 58.843,16.069 58.672,15.877 58.803,15.655 59.054,15.709 				"/>
				<polygon fill="#362010" points="60.079,15.848 59.841,15.95 59.669,15.759 59.8,15.536 60.052,15.591 				"/>
				<polygon fill="#362010" points="59.249,16.406 59.013,16.483 58.867,16.285 59.011,16.085 59.247,16.159 				"/>
				<polygon fill="#362010" points="58.419,16.966 58.186,17.016 58.064,16.812 58.222,16.633 58.442,16.728 				"/>
				<polygon fill="#362010" points="57.589,17.524 57.358,17.55 57.262,17.339 57.433,17.181 57.635,17.296 				"/>
				<polygon fill="#362010" points="57.086,18.25 56.808,18.281 56.693,18.027 56.898,17.837 57.143,17.975 				"/>
				<polygon fill="#362010" points="56.583,18.975 56.258,19.012 56.124,18.715 56.364,18.493 56.65,18.655 				"/>
				<polygon fill="#362010" points="56.082,19.701 55.709,19.743 55.555,19.403 55.83,19.15 56.156,19.334 				"/>
			</g>
			<g>
				<polygon fill="#362010" points="56.861,19.68 56.622,19.708 56.522,19.489 56.699,19.326 56.91,19.444 				"/>
				<polygon fill="#362010" points="57.464,19.171 57.208,19.201 57.099,18.965 57.29,18.788 57.516,18.916 				"/>
				<polygon fill="#362010" points="58.069,18.661 57.792,18.694 57.676,18.44 57.881,18.252 58.125,18.388 				"/>
				<polygon fill="#362010" points="58.673,18.152 58.377,18.187 58.253,17.916 58.472,17.714 58.732,17.86 				"/>
				<polygon fill="#362010" points="59.312,17.611 59.038,17.643 58.924,17.392 59.126,17.205 59.367,17.341 				"/>
				<polygon fill="#362010" points="59.951,17.071 59.699,17.099 59.592,16.868 59.78,16.696 60.001,16.82 				"/>
				<polygon fill="#362010" points="60.59,16.53 60.359,16.555 60.262,16.344 60.433,16.186 60.637,16.3 				"/>
				<polygon fill="#362010" points="61.174,16.508 60.943,16.533 60.846,16.322 61.018,16.165 61.221,16.278 				"/>
				<polygon fill="#362010" points="61.758,16.485 61.527,16.511 61.431,16.299 61.601,16.143 61.805,16.256 				"/>
				<polygon fill="#362010" points="62.342,16.462 62.111,16.489 62.014,16.277 62.185,16.121 62.389,16.235 				"/>
			</g>
			<g>
				<polygon fill="#362010" points="59.589,19.962 59.25,20.13 58.987,19.86 59.162,19.525 59.535,19.589 				"/>
				<polygon fill="#362010" points="60.063,19.323 59.742,19.482 59.491,19.225 59.656,18.908 60.01,18.969 				"/>
				<polygon fill="#362010" points="60.537,18.682 60.232,18.833 59.995,18.591 60.152,18.29 60.487,18.347 				"/>
				<polygon fill="#362010" points="61.01,18.044 60.723,18.186 60.498,17.956 60.648,17.673 60.963,17.727 				"/>
				<polygon fill="#362010" points="61.77,17.459 61.506,17.589 61.301,17.379 61.437,17.119 61.727,17.167 				"/>
				<polygon fill="#362010" points="62.531,16.875 62.291,16.993 62.103,16.802 62.227,16.564 62.492,16.608 				"/>
				<polygon fill="#362010" points="63.292,16.289 63.075,16.396 62.905,16.224 63.017,16.01 63.255,16.049 				"/>
			</g>
			<polygon fill="#362010" points="58.924,19.241 58.673,19.327 58.512,19.114 58.666,18.897 58.919,18.975 			"/>
			<polygon fill="#362010" points="59.665,18.5 59.412,18.585 59.251,18.372 59.406,18.155 59.66,18.234 			"/>
			<polygon fill="#362010" points="60.468,17.495 60.216,17.582 60.057,17.367 60.21,17.151 60.463,17.229 			"/>
			<polygon fill="#362010" points="56.536,15.112 56.284,15.198 56.125,14.985 56.278,14.767 56.531,14.846 			"/>
			<g>
				<polygon fill="#362010" points="60.277,20.948 59.959,21.058 59.76,20.79 59.951,20.517 60.271,20.615 				"/>
				<polygon fill="#362010" points="61.032,20.101 60.742,20.202 60.559,19.957 60.735,19.706 61.027,19.796 				"/>
				<polygon fill="#362010" points="61.788,19.255 61.524,19.346 61.357,19.123 61.517,18.896 61.784,18.977 				"/>
				<polygon fill="#362010" points="62.542,18.408 62.306,18.49 62.156,18.29 62.3,18.086 62.539,18.159 				"/>
			</g>
			<polygon fill="#362010" points="54.856,22.568 54.596,22.753 54.339,22.563 54.442,22.26 54.76,22.263 			"/>
			<polygon opacity="0.2" fill="#262261" enable-background="new    " points="35.057,27.295 35.199,28.696 32.797,32.415 
				31.906,33.917 31.839,32.759 33.364,30.794 33.598,29.897 34.628,28.438 34.742,27.781 			"/>
			<polygon opacity="0.5" fill="#FDE58A" enable-background="new    " points="65.893,17.79 66.725,17.268 66.607,17.582 			"/>
			<polygon opacity="0.5" fill="#362010" enable-background="new    " points="65.701,16.121 65.289,17.032 65.496,16.995 			"/>
			<polygon fill="#362010" points="57.151,14.245 57.167,14.442 56.858,14.528 56.652,14.384 56.833,14.209 			"/>
			<polygon fill="#362010" points="53.728,22.655 53.744,22.853 53.481,22.936 53.304,22.788 53.458,22.615 			"/>
			<polygon fill="#362010" points="52.24,22.815 52.256,23.013 51.994,23.095 51.816,22.948 51.969,22.775 			"/>
			<polygon fill="#362010" points="56.938,20.787 56.718,21.089 56.365,20.973 56.366,20.6 56.719,20.486 			"/>
			<polygon fill="#362010" points="58.09,20.6 57.917,20.838 57.635,20.747 57.635,20.452 57.917,20.361 			"/>
			<polygon fill="#362010" points="57.675,21.337 57.502,21.576 57.221,21.486 57.222,21.19 57.502,21.098 			"/>
			<polygon fill="#362010" points="58.414,21.889 58.24,22.128 57.959,22.036 57.959,21.741 58.241,21.65 			"/>
			<polygon fill="#362010" points="58.946,22.753 58.772,22.992 58.491,22.901 58.493,22.606 58.772,22.515 			"/>
			<polygon fill="#362010" points="58.596,23.582 58.447,23.786 58.207,23.708 58.207,23.454 58.447,23.376 			"/>
			<polygon fill="#362010" points="57.758,24.679 57.615,24.877 57.384,24.802 57.384,24.558 57.615,24.483 			"/>
			<polyline opacity="0.2" fill="#262261" enable-background="new    " points="59.545,24.032 59.545,23.932 59.545,23.832 
				59.349,23.109 59.129,22.295 59.458,22.295 59.589,23.257 61.366,24.388 			"/>
			<polygon fill="#362010" points="60.442,22.227 60.202,22.317 60.068,22.186 60.225,22.015 60.456,22.04 			"/>
			<polygon fill="#362010" points="61.061,23.819 60.77,23.865 60.637,23.603 60.846,23.394 61.107,23.529 			"/>
			<polygon fill="#362010" points="61.314,22.837 60.967,22.89 60.827,22.685 61.084,22.504 61.385,22.597 			"/>
			<polyline opacity="0.2" fill="#262261" enable-background="new    " points="57.735,22.218 57.327,23.591 57.207,23.735 
				55.954,23.573 55.639,22.847 55.551,23.326 54.135,23.452 52.416,23.624 55.853,21.976 55.853,21.273 57.735,22.218 
				57.735,22.218 			"/>
			<polygon opacity="0.2" fill="#262261" enable-background="new    " points="54.475,20.172 55.954,23.573 57.207,23.735 
				57.327,23.591 			"/>
			<g>
				<polygon fill="#362010" points="39.863,19.393 39.663,19.456 39.542,19.286 39.666,19.116 39.865,19.184 				"/>
				<polygon fill="#362010" points="40.475,18.837 40.262,18.854 40.181,18.657 40.343,18.518 40.525,18.63 				"/>
				<polygon fill="#362010" points="41.184,18.077 41.087,18.28 40.862,18.252 40.821,18.029 41.02,17.92 				"/>
				<polygon fill="#362010" points="41.991,17.894 41.879,18.051 41.711,18.012 41.719,17.83 41.892,17.759 				"/>
				<polygon fill="#362010" points="42.796,17.712 42.67,17.82 42.561,17.772 42.619,17.633 42.765,17.597 				"/>
			</g>
			<polygon opacity="0.2" fill="#262261" enable-background="new    " points="27.648,19.08 27.876,20.445 28.243,19.629 			"/>
			<polygon opacity="0.5" fill="#362010" enable-background="new    " points="37.252,23.124 39.863,19.827 38.433,22.317 
				38.433,23.747 37.304,24.185 			"/>
			<polygon opacity="0.3" fill="#362010" enable-background="new    " points="35.057,27.295 34.664,27.702 31.085,31.414 
				31.085,32.628 31.839,33.788 31.839,32.759 33.364,30.794 33.598,29.897 34.54,28.627 			"/>
			<polygon opacity="0.3" fill="#362010" enable-background="new    " points="35.057,27.295 37.791,23.996 38.433,23.747 
				37.145,26.001 			"/>
			<polygon opacity="0.5" fill="#262261" enable-background="new    " points="37.613,22.669 37.791,23.918 38.433,23.747 
				38.433,22.317 38.965,20.958 			"/>
			<polyline opacity="0.2" fill="#262261" enable-background="new    " points="41.946,18.504 41.896,18.569 40.779,20.004 
				39.863,19.827 			"/>
			<polygon opacity="0.2" fill="#262261" enable-background="new    " points="44.38,23.427 45.644,21.842 45.927,20.896 
				45.871,22.888 45.644,23.224 			"/>
			<polygon opacity="0.2" fill="#262261" enable-background="new    " points="46.793,23.038 47.616,22.588 52.307,22.166 
				52.256,23.63 47.969,22.972 			"/>
			<polygon opacity="0.5" fill="#362010" enable-background="new    " points="52.307,22.166 52.256,23.63 55.551,23.326 			"/>
		</g>
	</g>
	<g>
		<polygon fill="#A3234A" points="51.291,44.731 52.216,44.472 52.897,43.815 61.438,35.916 61.427,35.506 42.329,31.898 
			50.146,44.393 		"/>
		<polygon opacity="0.2" fill="#262261" enable-background="new    " points="51.673,33.6 59.604,37.344 52.216,44.472 
			51.291,44.731 47.828,38.405 		"/>
		<path fill="#A6A8AB" d="M51.886,44.362c-0.011,0.031,4.464-5.137,4.464-5.137l3.41-2.485h-6.357L51.886,44.362z"/>
		<path opacity="0.2" fill="#262261" enable-background="new    " d="M51.886,44.362c-0.011,0.031,4.464-5.137,4.464-5.137
			l3.41-2.485h-6.357L51.886,44.362z"/>
		<polygon fill="#BBBDBF" points="51.875,44.393 55.344,39.344 56.9,37.588 59.542,36.43 46.038,33.023 51.071,43.551 		"/>
		<polygon fill="#DBDBDA" points="51.844,44.229 54.665,39.436 57.206,36.97 59.433,35.796 45.866,33.233 50.623,43.562 		"/>
		<polygon opacity="0.2" fill="#262261" enable-background="new    " points="51.792,44.017 53.902,39.441 56.082,37.328 
			58.035,35.973 45.249,36.116 50.772,43.098 		"/>
		<polygon fill="#F1F1F2" points="51.886,44.362 54.598,38.169 57.171,35.505 59.433,33.887 53.356,33.078 45.392,32.016 
			50.845,42.885 		"/>
		<g>
			<polygon opacity="0.8" fill="#655671" enable-background="new    " points="50.344,40.552 52.161,36.74 54.7,34.743 
				51.642,36.506 			"/>
			<polygon opacity="0.8" fill="#655671" enable-background="new    " points="48.624,40.097 50.439,36.287 52.979,34.287 
				49.921,36.052 			"/>
			<polygon opacity="0.8" fill="#655671" enable-background="new    " points="46.76,39.818 48.576,36.007 51.117,34.009 
				48.059,35.773 			"/>
		</g>
		<polygon fill="#DBDBDA" points="24.336,25.396 27.702,37.168 51.875,44.234 47.112,28.24 		"/>
		<polygon opacity="0.4" fill="#262261" enable-background="new    " points="51.017,44.206 51.291,44.731 52.216,44.472 
			56.262,39.325 51.875,44.346 51.017,43.857 		"/>
		<polygon opacity="0.6" fill="#F1F1F2" enable-background="new    " points="24.336,25.396 24.904,27.381 46.604,31.497 
			48.237,32.016 47.112,28.24 		"/>
		<polygon fill="#BBBDBF" points="22.709,26.194 27.103,38.405 51.875,44.394 45.732,29.361 		"/>
		<polygon opacity="0.2" fill="#262261" enable-background="new    " points="23.109,27.381 27.103,38.432 51.875,44.472 
			44.487,29.834 		"/>
		<polygon opacity="0.2" fill="#262261" enable-background="new    " points="23.589,28.634 23.452,28.252 43.88,31.551 
			51.875,44.354 51.291,44.731 41.423,36.145 		"/>
		<polygon opacity="0.2" fill="#262261" enable-background="new    " points="44.745,30.41 50.488,41.734 51.875,44.472 
			47.971,43.504 		"/>
		<g>
			<polygon fill="#BE1E2D" points="21.215,27.924 26.995,38.321 51.117,44.945 42.974,31.497 			"/>
			<polygon opacity="0.2" fill="#262261" enable-background="new    " points="42.974,31.497 26.995,38.321 51.117,44.945 			"/>
			<path opacity="0.2" fill="#262261" enable-background="new    " d="M21.304,28.047c0.158,0.452,5.709,10.274,5.709,10.274
				l24.104,6.624l-1.317-2.607L21.237,27.924"/>
			<polygon fill="#EC1C24" points="21.215,27.924 42.173,31.787 50.942,44.653 51.291,44.731 42.974,31.497 			"/>
			<polygon opacity="0.2" fill="#262261" enable-background="new    " points="32.378,29.945 48.046,40.388 42.173,31.787 			"/>
		</g>
		<polygon fill="#EC1C24" points="52.467,44.229 61.427,35.506 61.438,35.916 		"/>
		<polygon opacity="0.1" fill="#262261" enable-background="new    " points="50.16,38.321 53.981,39.58 53.716,40.097 
			54.336,39.995 54.008,40.552 54.514,40.552 53.954,41.37 54.7,41.13 51.875,44.346 		"/>
		<polygon opacity="0.2" fill="#2B388F" enable-background="new    " points="51.017,41.335 51.875,44.346 52.523,42.433 		"/>
		<polygon fill="#EC1C24" points="50.942,44.653 51.117,44.945 52.129,44.653 52.791,43.929 52.007,44.53 51.291,44.652 
			51.157,44.472 		"/>
	</g>
	<path opacity="0.3" fill="#2B388F" enable-background="new    " d="M50.031,33.788l-1.407-0.034l0.683,2.173l3.161-0.421
		l1.39-0.763l2.507-0.066c0,0,2.486-0.866,2.269-0.896c-0.216-0.028-6.677-0.89-6.677-0.89"/>
	<path fill="#2B388F" d="M53.148,33.023"/>
	<path fill="#2B388F" d="M52.791,33.003"/>
	<polygon fill="#362010" points="67.987,19.485 67.641,19.499 67.814,19.599 67.719,19.665 67.781,19.827 	"/>
	<polygon opacity="0.5" fill="#EC1C24" enable-background="new    " points="49.448,42.461 26.448,37.244 26.632,37.646 
		50.708,44.271 	"/>
</g>
</svg>
