<?xml version="1.0" encoding="utf-8"?>
<!-- Generator: Adobe Illustrator 15.1.0, SVG Export Plug-In . SVG Version: 6.00 Build 0)  -->
<!DOCTYPE svg PUBLIC "-//W3C//DTD SVG 1.1//EN" "http://www.w3.org/Graphics/SVG/1.1/DTD/svg11.dtd">
<svg version="1.1" id="Layer_1" xmlns="http://www.w3.org/2000/svg" xmlns:xlink="http://www.w3.org/1999/xlink" x="0px" y="0px"
	 width="87.892px" height="77.813px" viewBox="0 0 87.892 77.813" enable-background="new 0 0 87.892 77.813" xml:space="preserve">
<g>
	<g>
		<g>
			<polygon fill="#6D533B" points="83.273,34.38 72.021,46.508 72.014,40.157 			"/>
			<polygon fill="#4F3725" points="0,38.876 4.158,42.677 12.041,38.876 28.787,42.677 35.464,40.157 28.613,40.157 11.578,37.492 
							"/>
			<polygon fill="#75563B" points="4.158,42.677 5.911,46.508 18.498,44.593 12.041,38.876 			"/>
			<polygon fill="#433739" points="5.911,46.508 8.321,48.276 26.707,48.915 18.498,44.593 			"/>
			<polygon fill="#773F3D" points="28.787,42.677 12.041,38.876 18.498,44.593 26.707,48.915 34.597,54.28 			"/>
			<polygon fill="#2D2528" points="8.321,48.276 16.309,53.185 26.707,48.915 			"/>
			<polygon fill="#593135" points="16.309,53.185 31.852,66.539 34.597,54.28 28.816,50.35 26.707,48.915 			"/>
			<polygon fill="#433739" points="35.464,40.157 28.787,42.677 34.597,54.28 32.677,62.856 38.09,53.185 			"/>
			<polygon fill="#75484A" points="31.852,66.539 34.597,67.304 41.945,64.022 45.862,53.185 38.09,53.185 32.865,62.014 			"/>
			<polygon fill="#816348" points="72.02,44.593 60.311,42.677 39.951,44.593 36.165,43.635 35.464,40.157 72.014,40.157 			"/>
			<polygon fill="#64383D" points="69.286,54.28 52.32,57.125 42.119,63.537 45.862,53.185 51.991,56.14 53.741,50.394 			"/>
			<polygon fill="#27242B" points="72.021,46.508 69.286,54.28 53.741,50.394 52.32,57.125 45.862,53.185 56.646,45.342 
				54.618,48.915 			"/>
			<polygon fill="#E19378" points="34.597,67.304 44.659,72.339 50.239,65.443 42.119,63.537 			"/>
			<polygon fill="#483D3B" points="72.02,44.593 60.311,42.677 56.646,45.342 53.741,50.394 72.021,46.508 			"/>
			<polygon fill="#8C4538" points="50.239,65.443 52.32,57.125 42.119,63.537 			"/>
			<g>
				<polygon fill="#D18F64" points="44.659,72.339 44.659,77.813 41.243,70.63 				"/>
			</g>
			<g>
				<polygon fill="#A95A3D" points="69.286,54.28 61.624,63.537 50.239,65.443 52.32,57.125 				"/>
			</g>
			<g>
				<polygon fill="#CB8874" points="44.659,72.339 56.917,67.938 61.624,63.537 50.239,65.443 				"/>
			</g>
			<g>
				<polygon fill="#E8B366" points="53.741,69.079 44.659,77.813 44.659,72.339 				"/>
			</g>
			<polygon fill="#816348" points="87.892,33.708 83.273,40.445 83.273,44.1 72.021,46.508 83.273,34.38 			"/>
			<polyline fill="#5A4534" points="84.673,34.177 81.763,40.925 72.021,46.508 82.638,34.468 84.673,33.708 			"/>
			<polygon fill="#3F3936" points="83.273,44.1 72.021,46.508 69.286,54.28 			"/>
			<g>
				<polygon fill="#8A4638" points="52.32,57.125 64.347,60.245 69.286,54.28 				"/>
			</g>
			<g>
				<polygon fill="#64383D" points="35.464,40.157 40.607,44.532 36.509,45.342 				"/>
			</g>
			<g>
				<polygon fill="#2D2528" points="40.607,44.532 45.862,53.185 38.09,53.185 36.509,45.342 				"/>
			</g>
			<g>
				<polygon fill="#593135" points="40.607,44.532 58.338,40.085 60.311,42.677 45.862,53.185 				"/>
			</g>
			<polygon opacity="0.2" fill="#262261" points="28.317,55.593 32.677,62.856 34.597,54.28 26.707,48.915 			"/>
			<polygon opacity="0.2" fill="#262261" points="23.538,41.485 26.707,48.915 28.787,42.677 			"/>
			<path opacity="0.4" fill="#2C307B" d="M5.911,46.508l6.13-7.632l14.667,10.039l9.802-3.572l4.098-0.811l1.811-3.047l14.422,3.717
				l15.181,1.307l5.601-6.352l4.142,0.769l1.51,3.175l-9.11,6.63l-2.142-3.976l-18.28,3.64l-7.879,2.791l-4.895-7.983l-2.876,7.983
				l-3.493,1.095l-6.28,1.313l-11.585-2.046l1.766-4.358c0,0,0-3.098,0-3.847S5.911,46.508,5.911,46.508z"/>
			<polyline fill="#86C77C" points="82.838,34.603 87.892,33.708 82.072,30.076 77.624,27.447 70.58,25.887 41.204,25.05 
				28.168,27.715 15.426,25.717 5.653,30.38 3.431,34.528 0.616,38.38 11.578,37.492 28.613,40.157 60.61,40.157 72.014,40.157 
				82.838,34.603 			"/>
			<polygon fill="#57A653" points="83.273,34.38 41.945,38.956 25.831,35.781 3.431,34.528 0,38.876 11.578,37.492 28.613,40.157 
				62.937,40.157 			"/>
			<polygon fill="#77BA70" points="13.226,26.768 16.636,29.542 12.041,35.01 22.986,30.089 43.624,33.264 64.032,30.891 
				46.957,26.768 55.274,26.04 68.745,25.835 41.945,25.572 33.274,29.214 			"/>
			<polygon fill="#98CC74" points="28.317,36.271 50.239,34.38 41.945,38.956 			"/>
			<polygon fill="#93CA74" points="27.25,28.479 33.274,29.214 41.945,25.572 41.204,25.05 28.168,27.715 			"/>
			<polygon fill="#A3D292" points="50.239,34.38 51.444,32.603 76.278,29.214 63.157,35.672 			"/>
			<path fill="#A3D292" d="M17.396,32.603l5.59-2.514l15.049,5.344c0,0-13.627-2.735-13.956-2.671
				C23.752,32.826,17.396,32.603,17.396,32.603z"/>
			<polygon fill="#77BA70" points="70.883,29.951 63.258,27.983 76.278,28.844 77.624,27.447 87.892,33.708 76.278,29.214 			"/>
			<path fill="#98CC74" d="M63.647,28.009l7.236,1.942l-12.911-0.523c0,0-10.008-2.416-10.239-2.472
				C47.499,26.901,63.647,28.009,63.647,28.009z"/>
			<polygon opacity="0.4" fill="#2C307B" points="12.041,38.876 11.578,37.492 5.237,38.25 9.921,39.898 			"/>
			<polygon opacity="0.4" fill="#2C307B" points="28.317,40.157 23.538,41.485 28.787,42.677 			"/>
		</g>
		<polygon fill="#4F3725" points="75.336,42.749 73.478,39.407 72.014,40.157 72.021,46.754 		"/>
	</g>
	<g>
		<g>
			<polygon fill="#C6C3B2" points="16.947,25.965 27.995,18.684 41.798,0 43.301,1.042 43.301,20.148 34.274,16.721 26.402,27.444 
							"/>
			<polygon fill="#9CA98D" points="34.274,16.721 26.402,27.444 41.621,19.51 			"/>
			<polygon fill="#837D6A" points="43.301,1.042 43.301,20.148 51.45,26.218 45.538,16.721 			"/>
			<polygon opacity="0.5" fill="#837D6A" points="34.274,16.721 40.284,6.954 36.435,17.542 28.162,25.05 27.995,18.684 			"/>
			<polygon fill="#9CA98D" points="65.54,25.694 58.145,18.237 55.061,16.721 45.262,4.667 43.65,3.485 44.094,7.027 45.538,16.721 
				52.817,19.712 55.87,19.51 58.489,27.179 			"/>
			<polygon fill="#C6C3B2" points="55.87,19.51 52.817,19.712 50.887,21.849 48.876,24.3 49.917,25.207 47.407,25.744 51.45,27.213 
				58.489,27.179 			"/>
			<polygon fill="#B2AF9E" points="52.817,19.712 45.538,16.721 49.598,23.244 			"/>
			<polygon opacity="0.4" fill="#2C307B" points="44.334,8.05 48.876,18.093 45.758,17.072 43.301,20.148 43.301,8.204 			"/>
			<polygon fill="#C6C3B2" points="26.402,27.444 32.05,28.26 42.096,20.743 40.069,28.875 49.232,26.406 41.621,19.51 			"/>
			<polygon fill="#B2AF9E" points="32.05,28.26 40.069,28.875 42.096,20.743 			"/>
			<polygon fill="#9CA98D" points="41.621,19.51 47.376,26.564 51.45,27.213 50.135,25.215 49.178,24.192 43.301,20.148 			"/>
			<polygon opacity="0.4" fill="#2C307B" points="41.621,19.51 47.376,26.564 51.45,27.213 50.135,25.215 49.178,24.192 
				43.301,20.148 			"/>
			<polygon opacity="0.4" fill="#FFFFFF" points="38.113,4.667 40.863,3.718 40.284,6.954 43.301,4.306 43.301,1.042 41.621,1.896 
				41.798,0 			"/>
			<polygon opacity="0.4" fill="#2C307B" points="41.798,0 41.621,1.896 43.301,1.042 			"/>
		</g>
		<polygon opacity="0.2" fill="#2C307B" points="55.87,19.51 52.817,19.712 51.45,15.833 55.87,18.994 58.489,20.595 58.489,27.179 
					"/>
	</g>
</g>
</svg>
