<?xml version="1.0" encoding="utf-8"?>
<!-- Generator: Adobe Illustrator 15.1.0, SVG Export Plug-In . SVG Version: 6.00 Build 0)  -->
<!DOCTYPE svg PUBLIC "-//W3C//DTD SVG 1.1//EN" "http://www.w3.org/Graphics/SVG/1.1/DTD/svg11.dtd">
<svg version="1.1" id="Layer_1" xmlns="http://www.w3.org/2000/svg" xmlns:xlink="http://www.w3.org/1999/xlink" x="0px" y="0px"
	 width="90.411px" height="62.021px" viewBox="0 0 90.411 62.021" enable-background="new 0 0 90.411 62.021" xml:space="preserve">
<g>
	<g>
		<g>
			<g>
				<polygon fill="#6D533B" points="85.659,22.436 74.086,34.912 74.079,28.379 				"/>
				<polygon fill="#4F3725" points="0,27.061 4.279,30.972 12.385,27.061 29.611,30.972 36.479,28.379 29.434,28.379 11.91,25.636 
									"/>
				<polygon fill="#75563B" points="4.279,30.972 6.079,34.912 19.028,32.94 12.385,27.061 				"/>
				<polygon fill="#433739" points="6.079,34.912 8.561,36.729 27.473,37.389 19.028,32.94 				"/>
				<polygon fill="#773F3D" points="29.611,30.972 12.385,27.061 19.028,32.94 27.473,37.389 35.59,42.905 				"/>
				<polygon fill="#2D2528" points="8.561,36.729 16.776,41.779 27.473,37.389 				"/>
				<polygon fill="#593135" points="16.776,41.779 32.765,55.516 35.59,42.905 29.643,38.863 27.473,37.389 				"/>
				<polygon fill="#433739" points="36.479,28.379 29.611,30.972 35.59,42.905 33.612,51.727 39.182,41.779 				"/>
				<polygon fill="#75484A" points="32.765,55.516 35.59,56.303 43.146,52.926 47.176,41.779 39.182,41.779 33.807,50.861 				"/>
				<polygon fill="#816348" points="74.083,32.94 62.039,30.972 41.096,32.94 37.201,31.957 36.479,28.379 74.079,28.379 				"/>
				<polygon fill="#64383D" points="71.27,42.905 53.818,45.833 43.327,52.428 47.176,41.779 53.481,44.82 55.281,38.908 				"/>
				<polygon fill="#27242B" points="74.086,34.912 71.27,42.905 55.281,38.908 53.818,45.833 47.176,41.779 58.269,33.711 
					56.184,37.389 				"/>
				<polygon fill="#45B2D0" points="35.59,56.303 36.479,56.75 34.811,58.341 45.938,62.021 48.446,58.449 38.725,54.066 				"/>
				<polygon fill="#483D3B" points="74.083,32.94 62.039,30.972 58.269,33.711 55.281,38.908 74.086,34.912 				"/>
				<polygon fill="#8C4538" points="51.68,54.391 53.818,45.833 43.327,52.428 				"/>
				<g>
					<polygon fill="#A95A3D" points="71.27,42.905 63.389,52.428 51.68,54.391 53.818,45.833 					"/>
				</g>
				<polygon fill="#816348" points="90.411,21.745 85.659,28.674 85.659,32.435 73.823,35.659 85.659,22.436 				"/>
				<polyline fill="#57A653" points="87.1,22.227 84.107,29.17 74.086,34.912 85.006,22.526 87.1,21.745 				"/>
				<polygon fill="#77BA70" points="85.659,32.435 73.823,35.659 71.624,44.524 				"/>
				<g>
					<polygon fill="#45B2D0" points="44.687,59.271 57.086,59.725 58.547,56.955 63.389,52.428 54.028,54.264 48.446,58.449 					
						"/>
				</g>
				<g>
					<polygon fill="#8A4638" points="53.818,45.833 66.191,49.042 71.27,42.905 					"/>
				</g>
				<g>
					<polygon fill="#64383D" points="36.479,28.379 41.77,32.879 37.555,33.711 					"/>
				</g>
				<g>
					<polygon fill="#2D2528" points="41.77,32.879 47.176,41.779 39.182,41.779 37.555,33.711 					"/>
				</g>
				<g>
					<polygon fill="#593135" points="41.77,32.879 60.011,28.304 62.039,30.972 47.176,41.779 					"/>
				</g>
				<polygon opacity="0.2" fill="#262261" points="29.129,44.258 33.612,51.727 35.59,42.905 27.473,37.389 				"/>
				<polygon opacity="0.2" fill="#262261" points="24.213,29.746 27.473,37.389 29.611,30.972 				"/>
				<polyline fill="#86C77C" points="85.213,22.666 90.411,21.745 84.424,18.009 79.85,15.303 72.602,13.7 42.385,12.837 
					28.977,15.58 15.719,13.599 5.815,18.321 3.529,22.588 0.634,26.551 11.91,25.636 29.434,28.379 62.346,28.379 74.079,28.379 
					85.213,22.666 				"/>
				<polygon fill="#57A653" points="85.659,22.436 43.146,27.143 26.571,23.878 3.529,22.588 0,27.061 11.91,25.636 29.434,28.379 
					64.741,28.379 				"/>
				<polygon fill="#77BA70" points="13.605,14.607 17.114,17.46 12.385,23.084 23.645,18.024 44.876,21.289 65.866,18.845 
					48.303,14.607 56.858,13.857 70.715,13.646 43.146,13.376 34.228,17.122 				"/>
				<polygon fill="#98CC74" points="29.129,24.381 51.68,22.436 43.146,27.143 				"/>
				<polygon fill="#93CA74" points="28.031,16.367 34.228,17.122 43.146,13.376 42.385,12.837 28.977,15.58 				"/>
				<polygon fill="#A8D38D" points="51.68,22.436 52.918,20.608 78.465,17.122 64.965,23.766 				"/>
				<path fill="#A8D38D" d="M17.895,20.608l5.75-2.584l15.482,5.495c0,0-14.018-2.814-14.356-2.747
					C24.433,20.838,17.895,20.608,17.895,20.608z"/>
				<polygon fill="#77BA70" points="72.915,17.88 65.073,15.855 78.465,16.741 79.85,15.303 90.411,21.745 78.465,17.122 				"/>
				<path fill="#98CC74" d="M65.47,15.881l7.444,1.999l-13.281-0.539c0,0-10.295-2.483-10.533-2.542
					C48.862,14.742,65.47,15.881,65.47,15.881z"/>
				<polygon opacity="0.4" fill="#2C307B" points="12.385,27.061 11.91,25.636 5.387,26.417 10.206,28.112 				"/>
				<polygon opacity="0.4" fill="#2C307B" points="29.129,28.379 24.213,29.746 29.611,30.972 				"/>
			</g>
			<polygon fill="#4F3725" points="77.495,31.045 75.583,27.606 74.079,28.379 74.086,35.164 			"/>
		</g>
		<polygon fill="#5EBFDF" points="17.432,13.78 21.43,16.339 17.114,17.46 21.43,19.019 23.645,18.024 29.611,20.142 25.292,20.838 
			27.473,23.766 12.957,25.8 29.129,28.379 60.167,28.674 73.589,28.674 80.594,25.037 76.266,25.408 74.87,23.631 68.348,22.101 
			55.283,20.286 58.454,19.679 49.098,17.88 41.371,18.23 34.228,17.122 36.01,16.374 26.911,15.303 		"/>
		<polygon fill="#45B2D0" points="26.503,15.238 23.45,15.832 34.228,17.122 36.01,16.374 		"/>
		<polygon fill="#45B2D0" points="23.651,15.832 21.43,19.019 23.645,18.024 		"/>
		<polygon fill="#45B2D0" points="19.438,15.063 23.651,15.832 21.43,16.339 		"/>
		<polygon fill="#45B2D0" points="29.013,18.337 36.274,20.147 29.611,21.228 32.969,19.728 		"/>
		<polygon fill="#45B2D0" points="36.01,18.23 43.635,19.728 39.821,21.228 48.765,22.688 41.497,24.79 56.545,28.112 
			36.274,24.709 45.75,22.948 36.479,21.745 41.014,19.728 		"/>
		<polygon fill="#45B2D0" points="58.454,19.679 48.574,19.728 57.299,22.948 53.818,24.79 61.475,28.112 57.299,24.79 
			58.156,23.084 55.024,20.771 		"/>
		<polygon fill="#7BCBE4" points="25.582,21.228 32.256,24.112 25.582,27.814 22.998,27.372 29.503,24.349 		"/>
		<polygon fill="#7BCBE4" points="34.228,17.122 29.013,18.337 38.778,20.771 33.405,18.23 		"/>
		<polygon fill="#7BCBE4" points="37.555,25.823 49.098,28.674 55.283,28.674 56.151,28.112 		"/>
		<polygon fill="#7BCBE4" points="73.589,28.674 65.073,25.823 65.864,23.896 63.389,23.52 67.418,23.52 66.901,24.951 
			76.282,27.249 		"/>
		<path fill="#45B2D0" d="M66.391,21.829c0.406,0.057,5.996,2.625,5.996,2.625l2.482-0.823L66.391,21.829z"/>
		<polygon fill="#7BCBE4" points="23.651,15.832 23.645,18.024 34.228,17.122 		"/>
		<polygon fill="#57A653" points="48.574,17.88 65.647,18.87 58.454,19.679 		"/>
		<polygon fill="#77BA70" points="5.815,18.321 12.385,23.084 3.529,22.588 		"/>
		<polygon fill="#BFB99B" points="12.385,27.061 19.028,32.94 22.998,37.328 29.128,44.559 34.228,50.629 37.899,52.427 
			52.45,51.307 62.039,47.965 65.073,43.945 73.823,35.659 80.594,25.037 74.086,30.346 29.611,30.972 		"/>
		<polygon fill="#B1B097" points="74.086,30.346 62.039,47.965 57.11,49.684 64.104,30.487 		"/>
		<g>
			<polygon fill="#4488AA" points="37.899,36.693 37.899,33.746 38.766,32.435 39.991,32.435 40.856,33.746 40.856,36.693 			"/>
			<polygon fill="#E1DEB9" points="39.378,32.435 40.186,33.864 40.856,33.746 39.991,32.435 			"/>
			<rect x="40.117" y="33.744" fill="#E1DEB9" width="0.739" height="2.947"/>
			<polygon fill="#837D6A" points="37.899,36.137 40.117,36.137 40.856,36.693 37.899,36.693 			"/>
		</g>
		<g>
			<polygon fill="#4488AA" points="42.906,36.693 42.906,33.746 43.813,32.435 45.098,32.435 46.004,33.746 46.004,36.693 			"/>
			<polygon fill="#E1DEB9" points="44.456,32.435 45.302,33.864 46.004,33.746 45.098,32.435 			"/>
			<rect x="45.23" y="33.744" fill="#E1DEB9" width="0.774" height="2.947"/>
			<polygon fill="#837D6A" points="42.906,36.137 45.23,36.137 46.004,36.693 42.906,36.693 			"/>
		</g>
		<g>
			<polygon opacity="0.5" fill="#9A8479" points="35.936,33.746 35.936,51.968 38.107,52.427 			"/>
			<polygon opacity="0.5" fill="#837D6A" points="35.936,33.746 35.936,51.968 38.107,52.427 			"/>
			<polygon fill="#E1DEB9" points="35.936,33.746 37.885,33.746 40.385,52.427 38.107,52.427 			"/>
		</g>
		<g>
			<polygon fill="#4488AA" points="48.132,36.693 48.132,33.746 49.028,32.435 50.295,32.435 51.19,33.746 51.19,36.693 			"/>
			<polygon fill="#E1DEB9" points="49.663,32.435 50.499,33.864 51.19,33.746 50.295,32.435 			"/>
			<rect x="50.426" y="33.744" fill="#E1DEB9" width="0.764" height="2.947"/>
			<polygon fill="#837D6A" points="48.132,36.137 50.426,36.137 51.19,36.693 48.132,36.693 			"/>
		</g>
		<g>
			<polygon opacity="0.5" fill="#837D6A" points="40.905,33.742 40.905,51.963 43.075,52.422 			"/>
			<polygon fill="#E1DEB9" points="40.905,33.742 42.853,33.742 45.354,52.422 43.075,52.422 			"/>
		</g>
		<g>
			<polygon opacity="0.5" fill="#837D6A" points="46.075,33.742 46.075,51.963 48.244,52.422 			"/>
			<polygon fill="#E1DEB9" points="46.075,33.742 48.022,33.742 50.523,52.422 48.244,52.422 			"/>
		</g>
		<g>
			<polygon fill="#4488AA" points="53.252,36.693 53.252,33.746 54.165,32.435 55.457,32.435 56.37,33.746 56.37,36.693 			"/>
			<polygon fill="#E1DEB9" points="54.811,32.435 55.663,33.864 56.37,33.746 55.457,32.435 			"/>
			<rect x="55.59" y="33.744" fill="#E1DEB9" width="0.779" height="2.947"/>
			<polygon fill="#837D6A" points="53.252,36.137 55.59,36.137 56.37,36.693 53.252,36.693 			"/>
		</g>
		<g>
			<polygon opacity="0.5" fill="#837D6A" points="51.244,33.742 51.244,51.963 53.415,52.422 			"/>
			<polygon fill="#E1DEB9" points="51.244,33.742 53.192,33.742 55.692,52.422 53.415,52.422 			"/>
		</g>
		<g>
			<polygon opacity="0.5" fill="#837D6A" points="56.415,33.742 56.415,51.963 58.583,52.422 			"/>
			<polygon fill="#E1DEB9" points="56.415,33.742 58.362,33.742 60.864,52.422 58.583,52.422 			"/>
		</g>
		<polygon fill="#77BA70" points="80.696,24.943 73.924,35.566 79.842,31.881 85.762,22.526 85.073,22.721 		"/>
		<polygon fill="#57A653" points="80.549,25.308 79.825,31.869 73.823,35.659 		"/>
		<polygon fill="#77BA70" points="11.91,25.636 12.385,27.061 19.028,32.94 14.586,33.864 11.585,28.328 10.206,28.112 
			9.047,25.978 		"/>
		<polygon fill="#57A653" points="19.028,32.94 12.385,27.061 12.385,27.02 14.586,33.864 		"/>
		<polygon fill="#45B2D0" points="17.432,13.78 15.167,14.797 16.776,15.063 19.023,14.797 		"/>
		<polygon fill="#45B2D0" points="25.582,27.814 30.384,26.875 34.397,28.379 29.129,28.379 		"/>
		<polygon fill="#45B2D0" points="38.778,28.471 44.474,27.533 48.574,28.471 52.924,27.714 56.151,28.112 53.092,28.471 		"/>
		<polygon fill="#7BCBE4" points="53.818,24.79 49.717,23.52 46.495,25.037 49.781,24.521 		"/>
		<polygon fill="#7BCBE4" points="45.156,20.443 49.098,21.829 45.156,21.255 42.366,21.745 		"/>
		<polygon fill="#7BCBE4" points="48.19,18.086 52.131,19.471 48.19,18.899 45.4,19.388 		"/>
		<polygon fill="#7BCBE4" points="60.899,22.437 64.84,23.821 60.899,23.249 58.109,23.738 		"/>
		<polygon fill="#7BCBE4" points="38.209,27.249 34.862,25.823 31.413,27.249 34.862,26.875 		"/>
		<path fill="#45B2D0" d="M61.006,26.227c0,0,1.684-1.356,1.89-1.19c0.207,0.166,5.749,1.983,5.749,1.983l-5.256-0.999
			L61.006,26.227z"/>
		<polygon fill="#45B2D0" points="62.544,22.436 64.684,21.592 66.391,21.829 		"/>
		<polyline fill="#45B2D0" points="40.214,52.287 43.129,51.366 56.572,51.688 60.807,51.727 57.086,54.954 46.594,56.233 
			38.778,54.128 39.97,52.422 		"/>
		<polygon fill="#85D3EE" points="50.523,52.422 48.231,51.607 45.272,52.188 43.327,53.343 47.159,52.422 		"/>
		<line fill="#85D3EE" x1="47.159" y1="52.422" x2="48.844" y2="54.264"/>
		<polygon fill="#5EBFDF" points="50.523,52.422 47.159,52.422 48.844,54.264 		"/>
		<g>
			<polygon fill="#85D3EE" points="43.433,36.137 44.365,34.912 46.764,45.504 			"/>
			<polygon fill="#5EBFDF" points="44.365,34.912 46.764,45.504 47.465,41.195 45.302,36.137 			"/>
			<polygon fill="#45B2D0" points="44.082,37.958 43.706,39.889 44.687,47.223 45.729,42.591 			"/>
			<polygon fill="#85D3EE" points="45.729,42.591 44.687,47.223 46.968,52.677 			"/>
			<polygon fill="#45B2D0" points="45.729,42.591 46.968,52.677 48.655,52.895 46.764,45.504 			"/>
			<polygon fill="#85D3EE" points="46.764,45.504 47.278,42.35 48.655,52.895 			"/>
			<polygon fill="#5EBFDF" points="47.729,45.833 49.473,50.554 49.231,53.94 48.655,52.895 			"/>
			<polygon fill="#45B2D0" points="44.687,47.223 45.383,52.422 46.968,52.677 			"/>
			<polygon fill="#45B2D0" points="43.433,36.137 43.204,36.137 43.091,35.303 44.365,34.912 			"/>
		</g>
		<polygon fill="#E1DEB9" points="76.266,25.408 73.589,28.674 29.129,28.379 11.91,25.636 12.385,27.061 29.611,30.972 
			74.086,30.346 80.594,25.037 		"/>
		<polygon fill="#45B2D0" points="18.239,26.626 23.645,24.278 20.942,26.227 22.869,27.351 		"/>
		<polygon fill="#57A653" points="0,27.061 6.079,34.912 8.99,31.289 		"/>
		<polygon fill="#57A653" points="6.079,34.912 8.561,36.729 16.776,41.779 14.586,33.864 		"/>
		<polygon fill="#A8D38D" points="14.586,33.864 8.99,31.289 6.079,34.912 		"/>
		<polygon fill="#57A653" points="14.586,33.864 32.765,55.516 34.228,50.629 28.963,44.362 16.776,33.408 		"/>
		<polygon fill="#77BA70" points="14.586,33.864 16.776,41.779 32.765,55.516 		"/>
		<polygon fill="#77BA70" points="19.028,32.94 14.586,33.864 28.963,44.362 23.645,38.091 		"/>
		<polygon fill="#A8D38D" points="12.385,27.061 17.468,33.408 22.313,39.506 14.586,33.864 		"/>
		<polygon fill="#45B2D0" points="60.336,48.24 60.79,51.879 64.336,51.282 62.039,47.965 		"/>
		<polygon fill="#77BA70" points="11.91,25.636 14.586,34.054 0,27.061 		"/>
		<polygon fill="#77BA70" points="8.833,31.482 11.91,25.636 14.586,34.054 		"/>
		<g>
			<g>
				<g>
					<g>
						<polygon fill="#B1D57F" points="48.162,14.418 54.946,11.602 62.219,6.657 64.305,5.971 67.981,14.556 58.663,14.686 						
							"/>
						<polygon fill="#86C77C" points="64.305,5.971 63.958,12.536 65.789,13.957 70.438,15.167 66.535,10.562 						"/>
						<polygon opacity="0.5" fill="#837D6A" points="59.094,10.562 62.219,8.319 60.521,10.96 54.946,14.556 54.946,11.513 						
							"/>
						<polygon fill="#77BA70" points="77.743,14.837 74.861,11.296 72.824,10.562 65.807,6.098 64.305,5.971 66.577,10.785 
							71.342,12.013 73.357,11.915 75.088,15.632 						"/>
						<polygon fill="#B1D57F" points="73.357,11.915 71.342,12.013 70.067,13.049 68.09,14.556 69.465,14.914 70.438,15.649 
							75.088,15.632 						"/>
						<polygon fill="#56A980" points="71.342,12.013 66.656,10.732 69.202,13.709 						"/>
						<polygon opacity="0.2" fill="#2C307B" points="65.672,7.845 68.715,11.335 66.656,10.732 63.958,12.536 64.305,5.971 						
							"/>
					</g>
					<polygon opacity="0.2" fill="#2C307B" points="73.357,11.915 71.342,12.013 70.438,10.131 73.357,11.915 77.743,14.837 
						75.088,15.632 					"/>
				</g>
				<polygon fill="#77BA70" points="59.791,9.254 63.1,7.101 62.721,8.885 64.193,8.095 63.977,12.536 				"/>
			</g>
			<g>
				<g>
					<polygon fill="#B1D57F" points="18.622,14.032 27.644,8.559 38.845,1.044 42.058,0 43.213,9.639 34.032,7.113 29.128,15.564 
											"/>
					<polygon fill="#86C77C" points="34.032,6.978 26.503,15.238 41.505,9.033 					"/>
					<polygon fill="#86C77C" points="42.058,0 43.213,9.503 51.502,13.977 45.489,6.978 					"/>
					<polygon opacity="0.4" fill="#8BC53F" points="34.032,6.978 38.845,3.569 36.229,7.583 26.503,15.238 27.644,8.559 					"/>
					<polyline fill="#77BA70" points="58.663,9.833 58.313,8.095 55.176,6.978 44.37,0.192 42.058,0 45.489,6.978 52.895,9.183 
						55.997,9.033 58.663,14.686 65.789,13.957 					"/>
					<polygon fill="#B1D57F" points="55.997,9.033 52.895,9.183 50.93,10.758 48.885,12.564 49.943,13.233 47.389,13.627 
						51.502,14.71 58.663,14.686 					"/>
					<polygon fill="#56A980" points="52.895,9.183 45.489,6.978 49.683,11.859 					"/>
					<polygon fill="#B1D57F" points="25.778,15.538 31.544,15.849 40.052,11.499 39.777,16.039 49.096,14.22 41.505,9.033 					"/>
					<polygon fill="#86C77C" points="31.544,15.849 35.729,16.491 39.777,16.039 40.202,11.396 					"/>
					<polygon fill="#57A653" points="41.505,9.033 48.162,14.418 51.502,14.71 50.167,13.238 49.192,12.485 43.213,9.503 					"/>
					<polygon fill="#86C77C" points="31.544,15.849 35.729,16.491 39.777,16.039 40.202,11.396 					"/>
					<polygon opacity="0.2" fill="#2F3583" points="41.505,9.033 48.162,14.418 51.502,14.71 50.167,13.238 49.192,12.485 
						43.213,9.503 					"/>
				</g>
				<polygon fill="#57A653" points="55.997,9.033 52.895,9.183 51.502,6.323 55.997,8.654 58.663,9.833 58.663,14.686 				"/>
			</g>
			<polygon fill="#57A653" points="58.313,8.095 58.663,9.833 65.789,13.957 			"/>
			<polygon fill="#A8D38D" points="55.176,6.978 58.663,9.833 58.313,8.095 			"/>
			<polygon fill="#56A980" points="51.502,14.71 55.997,9.033 58.663,14.686 			"/>
			<polygon fill="#56A980" points="38.845,1.044 38.658,3.753 42.058,0 			"/>
		</g>
		<polygon fill="#B1B097" points="29.611,30.972 34.228,50.629 12.35,27.02 		"/>
		<polygon opacity="0.2" fill="#2F3583" points="58.362,33.742 60.358,48.647 62.039,47.965 63.389,46.176 		"/>
		<polygon opacity="0.2" fill="#2F3583" points="63.389,46.137 74.086,30.308 80.594,24.997 73.823,35.619 		"/>
		<polygon opacity="0.2" fill="#2F3583" points="29.611,30.972 21.139,29.048 34.105,50.508 		"/>
		<polygon fill="#5EBFDF" points="60.631,50.743 64.336,51.282 63.504,53.465 58.547,56.955 60.79,51.879 		"/>
		<polygon fill="#57A653" points="17.367,33.283 27.209,43.082 18.03,33.148 		"/>
		<polygon fill="#57A653" points="62.039,47.965 64.336,51.282 66.191,49.042 		"/>
		<polygon fill="#77BA70" points="62.039,47.965 66.191,49.042 73.823,35.659 65.073,43.685 		"/>
		<polygon fill="#57A653" points="66.191,49.042 73.823,35.659 70.188,50.314 		"/>
		<polygon fill="#57A653" points="62.039,47.965 65.073,43.527 73.823,35.659 		"/>
		<polygon fill="#57A653" points="73.823,35.659 84.107,29.17 85.659,28.674 85.659,32.435 		"/>
		<polygon fill="#57A653" points="84.107,29.17 85.762,22.567 90.411,21.745 85.659,28.674 		"/>
		<polygon fill="#86C77C" points="79.842,31.881 81.673,28.952 85.659,28.674 		"/>
		<polygon opacity="0.2" fill="#2F3583" points="11.91,25.636 9.047,31.399 3.644,31.766 6.079,34.912 16.776,41.779 32.765,55.516 
			34.228,50.629 21.544,36.729 		"/>
		<g>
			<polygon fill="#85D3EE" points="53.756,36.137 54.688,34.912 57.086,45.504 			"/>
			<polygon fill="#5EBFDF" points="54.688,34.912 57.086,45.504 57.514,40.576 55.625,36.137 			"/>
			<polygon fill="#45B2D0" points="54.405,37.958 54.028,39.889 55.01,47.223 56.051,42.591 			"/>
			<polygon fill="#85D3EE" points="56.051,42.591 55.01,47.223 57.292,52.677 			"/>
			<polygon fill="#45B2D0" points="56.051,42.591 57.292,52.677 58.977,52.895 57.086,45.504 			"/>
			<polygon fill="#85D3EE" points="57.053,45.409 57.397,41.855 59.075,53.389 			"/>
			<polygon fill="#5EBFDF" points="57.927,45.504 59.795,50.554 59.7,52.895 58.924,52.815 			"/>
			<polygon fill="#5EBFDF" points="55.01,47.223 55.706,52.422 54.028,54.264 57.292,52.677 			"/>
			<g>
				<polygon fill="#85D3EE" points="54.37,53.94 58.717,51.879 60.974,52.014 63.389,53.398 58.879,52.82 				"/>
			</g>
			<polygon fill="#45B2D0" points="57.245,52.574 55.818,52.287 54.139,54.128 			"/>
			<polygon fill="#45B2D0" points="59.795,50.554 58.717,51.879 60.974,52.014 			"/>
			<polygon fill="#45B2D0" points="53.756,36.137 53.526,36.137 53.415,35.303 54.688,34.912 			"/>
		</g>
		<g>
			<polygon fill="#85D3EE" points="48.574,36.137 49.504,34.912 51.905,45.504 			"/>
			<polygon fill="#5EBFDF" points="49.504,34.912 51.905,45.504 52.784,41.977 50.442,36.137 			"/>
			<polygon fill="#45B2D0" points="49.221,37.958 48.844,39.889 49.827,47.223 50.869,42.591 			"/>
			<polygon fill="#85D3EE" points="50.869,42.591 49.827,47.223 52.108,52.677 			"/>
			<polygon fill="#45B2D0" points="50.869,42.591 52.108,52.677 53.793,52.895 51.905,45.504 			"/>
			<polygon fill="#85D3EE" points="51.905,45.504 52.508,43.082 53.793,52.895 			"/>
			<polygon fill="#5EBFDF" points="52.87,45.833 54.612,50.554 54.37,53.94 53.793,52.895 			"/>
			<polygon fill="#45B2D0" points="48.574,36.137 48.343,36.137 48.231,35.303 49.504,34.912 			"/>
			<polygon fill="#5EBFDF" points="49.827,47.223 50.523,52.422 49.17,53.146 52.108,52.677 			"/>
		</g>
		<g>
			<polygon fill="#85D3EE" points="38.449,36.137 39.379,34.912 41.779,45.504 			"/>
			<polygon fill="#5EBFDF" points="39.379,34.912 41.779,45.504 42.659,41.977 40.317,36.137 			"/>
			<polygon fill="#45B2D0" points="39.097,37.958 38.721,39.889 39.703,47.223 40.744,42.591 			"/>
			<polygon fill="#85D3EE" points="40.744,42.591 39.703,47.223 41.984,52.677 			"/>
			<polygon fill="#45B2D0" points="40.744,42.591 40.905,47.223 41.984,52.677 43.669,52.895 41.779,45.504 			"/>
			<polygon fill="#85D3EE" points="41.779,45.504 42.383,43.082 43.669,52.895 			"/>
			<polygon fill="#5EBFDF" points="42.744,45.833 44.488,50.554 44.244,53.94 43.669,52.895 			"/>
			<polygon fill="#5EBFDF" points="39.703,47.223 40.214,52.287 38.725,54.066 41.984,52.677 			"/>
			<g>
				<polygon fill="#FFFFFF" points="38.725,54.066 43.62,51.822 45.667,52.014 48.198,53.465 43.742,52.778 				"/>
				<polygon fill="#4488AA" points="38.725,54.066 43.959,53.98 46.778,56.367 43.742,52.778 				"/>
				<polygon fill="#5EBFDF" points="43.742,52.778 47.891,53.285 50.298,53.957 46.594,56.233 				"/>
			</g>
			<polygon fill="#45B2D0" points="44.488,50.554 44.393,51.895 45.667,52.014 			"/>
			<polygon fill="#45B2D0" points="38.449,36.137 38.218,36.137 38.107,35.303 39.379,34.912 			"/>
		</g>
		<path fill="#5EBFDF" d="M33.615,52.677c0.358-0.012,6.599-0.39,6.599-0.39l-3.734,4.464l-3.715-1.235L33.615,52.677z"/>
		<polygon fill="#85D3EE" points="48.395,52.677 47.891,53.285 50.651,55.738 54.37,53.94 50.523,53.97 		"/>
		<polyline opacity="0.2" fill="#2F3583" points="52.069,52.582 50.523,53.97 54.37,53.94 52.069,52.582 		"/>
		<polygon fill="#45B2D0" points="32.765,55.516 34.06,51.057 34.111,50.436 35.561,50.846 37.899,52.427 		"/>
		<polygon opacity="0.2" fill="#2F3583" points="32.765,55.516 38.725,54.066 36.479,56.751 		"/>
		<polyline fill="#85D3EE" points="42.612,59.725 48.446,58.449 46.646,56.233 38.778,54.066 		"/>
		<polygon fill="#5EBFDF" points="46.594,56.233 48.395,58.449 57.086,54.954 		"/>
		<polygon opacity="0.2" fill="#2F3583" points="19.438,15.063 17.114,17.46 21.43,16.339 		"/>
		<polygon opacity="0.3" fill="#006838" points="17.114,17.46 21.43,19.019 17.895,20.608 25.292,20.838 27.473,23.766 
			17.35,20.852 		"/>
		<polygon opacity="0.3" fill="#006838" points="40.659,18.524 48.574,17.88 45.258,16.339 		"/>
		<polygon opacity="0.3" fill="#006838" points="57.086,20.443 72.915,19.853 74.87,23.631 67.071,21.974 		"/>
		<polyline fill="#4488AA" points="54.612,50.554 54.637,50.589 55.818,52.287 54.37,53.94 		"/>
		<path fill="#45B2D0" d="M49.083,53.096"/>
		<polygon fill="#5EBFDF" points="45.482,51.879 47.891,53.285 48.395,52.677 		"/>
		<polygon fill="#45B2D0" points="40.214,52.287 38.778,54.066 41.99,52.627 		"/>
		<polygon fill="#4488AA" points="57.013,54.979 58.844,52.805 60.299,53.019 		"/>
		<polygon fill="#85D3EE" points="48.446,58.449 58.547,56.955 55.818,59.725 		"/>
		<polygon fill="#85D3EE" points="58.547,56.955 55.137,55.738 53.415,56.43 		"/>
		<polygon fill="#85D3EE" points="53.415,56.43 51.68,57.129 50.653,55.738 		"/>
		<polyline fill="#5EBFDF" points="44.716,59.266 42.612,59.725 45.938,62.021 57.086,59.725 48.446,58.449 		"/>
		<polygon fill="#B3E2F4" points="41.674,58.341 42.612,59.725 48.395,58.449 		"/>
		<polygon fill="#FFFFFF" points="48.395,52.677 50.523,53.97 54.612,53.979 51.512,55.322 		"/>
		<polygon fill="#FFFFFF" points="47.644,57.525 48.395,58.449 53.415,56.43 		"/>
		<polyline fill="#FFFFFF" points="60.299,53.019 60.118,52.863 58.717,51.879 54.612,53.979 58.879,52.82 		"/>
		<polygon fill="#85D3EE" points="36.479,56.751 39.733,55.738 40.563,56.701 		"/>
		<polygon fill="#FFFFFF" points="39.733,55.738 43.742,56.955 40.563,56.701 		"/>
		<polygon opacity="0.2" fill="#2F3583" points="34.06,51.057 35.936,51.057 33.977,49.949 		"/>
		<polygon fill="#45B2D0" points="43.742,56.955 46.594,56.233 47.644,57.525 		"/>
		<g>
			<g>
				<path fill="#BFB99B" d="M24.459,17.163c0.595,0,2.098-0.9,0.804-0.9C24.668,16.262,23.166,17.163,24.459,17.163L24.459,17.163z"
					/>
			</g>
		</g>
		<polygon fill="#FFFFFF" points="35.936,51.057 37.899,52.908 40.214,52.287 38.107,52.428 		"/>
		<polygon fill="#FFFFFF" points="53.415,56.43 58.547,56.955 56.628,57.24 		"/>
		<polygon fill="#85D3EE" points="45.938,62.021 48.002,60.407 57.086,59.725 		"/>
		<polygon fill="#85D3EE" points="64.336,51.282 65.399,54.391 63.473,55.628 65.264,57.775 57.086,59.725 58.547,56.955 
			63.389,53.398 		"/>
		<path fill="#85D3EE" d="M64.336,51.282"/>
		<polygon fill="#77BA70" points="66.191,49.042 64.336,51.282 65.399,54.391 		"/>
		<polygon fill="#86C77C" points="66.191,49.042 65.399,54.391 70.188,50.314 		"/>
		<polygon opacity="0.2" fill="#2F3583" points="90.411,21.745 85.762,22.567 80.594,24.997 74.086,30.308 73.823,35.659 
			65.073,43.527 62.039,47.965 64.336,51.282 65.399,54.391 70.188,50.314 71.624,44.559 85.659,32.435 85.659,28.674 		"/>
		<polygon opacity="0.2" fill="#2F3583" points="40.563,56.701 34.811,58.341 41.674,58.341 		"/>
		<polygon fill="#4488AA" points="42.612,59.725 41.02,60.095 45.938,62.021 		"/>
		<path fill="#5EBFDF" d="M65.264,57.775c-0.257,0.061-6.717-0.82-6.717-0.82l4.926-1.327L65.264,57.775z"/>
		<polygon fill="#45B2D0" points="45.938,62.021 60.032,60.753 57.086,59.725 		"/>
		<polygon fill="#45B2D0" points="48.002,60.407 48.395,58.449 52.108,60.1 		"/>
		<polygon fill="#5EBFDF" points="65.264,57.775 57.086,59.725 60.032,60.753 		"/>
		<polygon fill="#4488AA" points="63.473,55.628 60.206,55.738 58.547,56.955 		"/>
		<polygon fill="#85D3EE" points="57.086,59.725 57.299,60.895 60.032,60.753 		"/>
		<polygon fill="#5EBFDF" points="34.06,51.057 30.452,53.529 32.765,55.516 		"/>
		<polygon fill="#45B2D0" points="64.336,51.282 68.542,51.717 65.399,54.391 		"/>
		<path fill="#45B2D0" d="M65.399,54.391"/>
		<polygon fill="#5EBFDF" points="63.389,53.398 65.399,54.391 62.774,53.85 		"/>
		<polygon fill="#FFFFFF" points="65.399,54.391 63.389,53.398 60.206,55.738 63.305,54.128 		"/>
		<polygon fill="#FFFFFF" points="53.137,60.539 55.891,59.033 59.25,60.479 56.415,59.832 		"/>
		<polygon fill="#FFFFFF" points="43.327,51.957 41.779,45.504 42.207,43.791 40.403,39.773 40.214,36.908 40.317,36.137 
			39.379,34.912 38.243,35.262 39.379,35.659 40.214,39.777 40.744,42.591 39.733,47.09 41.043,43.435 41.779,48.217 		"/>
		<g>
			<polygon fill="#FFFFFF" points="43.091,35.303 44.365,34.912 45.302,36.137 44.616,36.017 46.075,39.254 45.938,42.35 
				44.365,36.414 43.9,35.523 			"/>
			<polygon fill="#FFFFFF" points="45.938,42.35 44.687,47.223 45.915,44.105 46.764,45.504 			"/>
			<polygon fill="#FFFFFF" points="46.764,45.504 47.729,49.199 47.644,52.422 48.655,52.895 48.132,48.349 			"/>
		</g>
		<g>
			<polygon fill="#FFFFFF" points="53.448,35.303 54.719,34.912 55.657,36.137 54.97,36.017 56.428,39.254 56.292,42.35 
				54.719,36.414 54.253,35.523 			"/>
			<polygon fill="#FFFFFF" points="56.292,42.35 55.042,47.223 56.269,44.105 57.12,45.504 			"/>
			<polygon fill="#FFFFFF" points="57.12,45.504 57.803,48.647 57.292,52.677 58.487,48.349 			"/>
		</g>
		<polygon fill="#FFFFFF" points="48.868,34.982 48.574,36.137 49.473,35.659 50.653,40.576 50.056,36.414 51.101,37.779 
			50.442,36.137 49.504,34.912 		"/>
		<polygon fill="#FFFFFF" points="51.101,37.779 52.784,41.977 52.508,43.082 52.87,45.833 51.905,45.504 52.87,49.276 
			50.869,42.591 52.188,44.362 52.034,42.35 		"/>
		<polygon fill="#FFFFFF" points="50.869,42.591 49.827,47.223 51.244,43.848 		"/>
		<polygon fill="#FFFFFF" points="51.905,45.504 53.252,52.475 54.37,53.884 53.583,51.282 		"/>
		<polygon fill="#FFFFFF" points="58.487,48.349 59.795,50.554 58.109,49.199 		"/>
		<polygon fill="#FFFFFF" points="41.779,48.217 41.99,52.627 42.29,49.451 		"/>
		<polygon fill="#7BCBE4" points="16.776,15.063 16.933,15.044 19.271,14.755 20.221,15.564 		"/>
	</g>
	<polygon fill="#A8D38D" points="17.114,17.46 5.815,18.321 12.385,23.084 	"/>
	<polygon fill="#A8D38D" points="72.915,19.853 74.87,23.631 90.411,21.745 	"/>
</g>
</svg>
