<?xml version="1.0" encoding="utf-8"?>
<!-- Generator: Adobe Illustrator 15.1.0, SVG Export Plug-In . SVG Version: 6.00 Build 0)  -->
<!DOCTYPE svg PUBLIC "-//W3C//DTD SVG 1.1//EN" "http://www.w3.org/Graphics/SVG/1.1/DTD/svg11.dtd">
<svg version="1.1" id="Layer_1" xmlns="http://www.w3.org/2000/svg" xmlns:xlink="http://www.w3.org/1999/xlink" x="0px" y="0px"
	 width="164.263px" height="100.601px" viewBox="-41.073 -25.15 164.263 100.601"
	 enable-background="new -41.073 -25.15 164.263 100.601" xml:space="preserve">
<g>
	<path fill="#BF772A" d="M119.309,3.04l-4.477-4.985c0,0-7.313-6.015-14.768-7.04c-0.598-0.02-1.188-0.024-1.762-0.021
		c-5.328,0.044-9.727,1.048-9.727,1.048L83.204-8.25l-8.799-9.973c0,0-6.861-4.988-14.768-6.014c-10.891-2.054-17.604,0-17.604,0
		l-5.518,1.32c0,0-3.782-1.467-6.563-0.588c-2.781,0.88-12.979,4.107-12.979,4.107s-13.427,1.172-23.57,2.641
		c-10.14,1.464-17.151,4.252-17.151,4.252s-8.952,1.172-13.729,6.743c-4.775,5.574-2.09,16.28-2.09,16.28s-1.189,3.372-1.492,6.598
		c-0.296,3.229,4.03,8.801,4.03,8.801l-0.448,4.251l1.191-0.877l-0.147,1.904l4.776-8.108c0,0,0.745-5.158-0.302-7.69
		c-1.042-2.532-3.282-7.954-3.282-7.954s-1.188-6.308,1.194-9.24c2.39-2.936,5.071-1.611,5.071-1.611s-2.092,4.544-2.237,9.972
		c-0.146,5.426,3.729,17.45,3.133,21.703c-0.147,0.91-1.193,1.469-2.985,3.814c-1.784,2.346-5.067,3.082-5.221,5.422
		c-0.893,3.668,2.835,10.855,2.983,11.297c0.149,0.44,0.229,14.504,0.149,16.691c-0.074,2.191,1.494,3.986,1.494,3.986h2.98
		l-0.448,2.049c0,0,1.193,1.436,5.817,1.32c4.624-0.109,6.713,0,6.713,0s0.857-0.656-0.448-3.078
		c-1.307-2.418-5.893-7.369-6.712-12.764c-0.521-3.732-0.856-6.777,0.598-8.943c4.474,5.867,8.352,15.107,8.352,15.107l0.452,5.57
		l4.324,4.105l1.938-3.371l1.347,1.316c0,0-1.047,2.35,0,2.936c1.042,0.586,11.48,0,11.48,0s1.129-0.984,0.746-2.494
		c-1.487-1.469-5.815-5.744-5.815-5.744l-2.088-2.613c0,0,2.235,3.373-2.088-1.904c-4.324-5.279-5.221-14.229-5.221-14.229
		s0.597-8.627,7.906-11.791l4.772,6.953l6.414,4.695l4.025-3.668l2.836,1.172l0.746-0.877l4.626,1.906l0.296-2.492l5.519,3.08
		l1.345-2.789l3.879,1.467l1.042,2.201l2.092,2.344l-1.044,4.84l-0.45,4.109l1.643-1.031l-0.748,3.963l1.496-0.881
		c0,0-1.271,2.676-0.449,4.547c0.933-0.439,2.837-0.734,2.837-0.734s1.008-0.805,2.014-0.146c1.007,0.664-1.403,6.492-0.702,7.484
		c0.702,0.982,1.372,0.879,1.372,0.879l1.791,0.439l0.451,1.316c0,0,1.938,1.879,6.561,1.711c4.625-0.172,7.535-1.711,7.461-2.738
		c0.186-1.285-3.582-5.133-3.582-5.133s-0.482,0.148-0.146-1.465s4.176-3.41,4.776-5.867c0.595-2.457,0.293-2.199,0.293-2.199
		s1.681-2.531,3.284-2.934c1.604-0.406,2.389,2.053,2.389,2.053l1.938-3.377l1.791,1.469l0.742-2.055l2.09,0.293l1.346-2.348
		l2.232,1.611l2.537-4.396l1.344,1.615l2.088-1.762l3.136-0.439l0.745,1.762l2.535-0.293l3.133,3.375l1.041-1.027
		c0,0,0.451,3.082,1.941,3.445c5.07-3.008,6.264-6.188,6.264-6.188s2.387,2.154,4.254,1.553c0.445-0.783,0.891-1.553,0.891-1.553
		s4.705-0.398,6.045-2.275c1.344-1.877,0.926-3.336,0.926-3.336s3.848-6.754,4.668-11.299c0.816-4.547,0-5.969,0-5.969l2.621-2.876
		v-2.814v-2.126l3.871-5.72L119.309,3.04z"/>
	<g>
		<path fill="#A26C29" d="M94.854,44.494l-3.971-6.051l7.979-9.477l-23.41-6.082l6.842,25.164l1.959-0.277l0.746,1.762l2.535-0.293
			l3.133,3.375l1.043-1.027c0,0,0.449,3.082,1.941,3.445c5.07-3.008,6.262-6.188,6.262-6.188s2.389,2.154,4.254,1.553
			c0.445-0.783,0.893-1.553,0.893-1.553s4.703-0.398,6.043-2.275c1.344-1.877,0.93-3.336,0.93-3.336s3.041-5.35,4.291-9.729
			l-5.721-1.486L94.854,44.494z"/>
	</g>
	<polygon fill="none" points="17.92,4.092 -12.795,0.247 16.913,31.837 	"/>
	<polygon fill="#D0952A" points="17.92,2.344 44.854,-6.78 33.987,23.038 16.913,31.837 	"/>
	<path fill="#E89823" d="M71.706,18.452l3.746,4.435l23.775,5.65l-0.365,0.432l11.742,3.051l0,0l5.719,1.482
		c0.152-0.541,0.285-1.068,0.375-1.568c0.816-4.545,0-5.965,0-5.965l2.621-2.876v-2.816V18.15l-0.457-0.294l-2.09-1.904l0.299-4.254
		l-1.193,2.937l-1.344-1.179l0.447-3.813l-1.273-3.948l-0.711-0.144l-0.102,4.237l-2.238-3.226l-0.422-1.578l-3.787-0.77
		l-1.016,0.146l-0.121-0.38L88.948,0.648L71.706,18.452z"/>
	<polygon fill="#1D1D1D" points="107.559,22.11 105.247,22.885 103.409,21.304 103.885,18.948 106.194,18.177 108.153,20.066 	"/>
	<path opacity="0.5" fill="#442A23" enable-background="new    " d="M105.059,48.845l-3.828-3.311V41.22l2.178-3.502l3.465,1.168
		l1.156,3.02l2.217,1.328h1.783c0,0,0.078,0.936-0.016,1.32c-0.365,1.68-1.359,2.494-1.359,2.494s-1.145,0.887-2.625,1.242
		C106.436,48.719,105.059,48.845,105.059,48.845z"/>
	<polygon opacity="0.7" fill="#291A19" enable-background="new    " points="106.28,46.447 109.116,46.583 110.249,45.189 
		107.553,42.404 105.428,44.076 	"/>
	<polyline opacity="0.4" fill="#442A23" enable-background="new    " points="93.653,55.029 95.588,47.416 91.682,41.904 
		86.182,41.22 90.518,46.583 89.772,48.125 91.711,51.583 92.913,54.568 	"/>
	<polygon fill="#CE8029" points="35.544,-4.37 19.14,-19.644 17.92,2.344 	"/>
	<polyline fill="#D08829" points="54.743,-24.932 44.854,-6.78 57.471,7.774 57.67,32.972 61.936,28.537 58.944,6.312 
		54.948,-24.05 	"/>
	<polygon fill="#D08829" points="57.522,14.372 57.471,7.774 44.854,-6.78 33.987,23.038 	"/>
	<polygon fill="none" points="32.644,44.398 28.764,42.931 28.069,44.375 32.052,48.845 35.775,48.943 33.686,46.599 	"/>
	<path fill="none" d="M54.743-24.932L54.743-24.932L54.743-24.932z"/>
	<path fill="none" d="M-23.896,55.896l3.354,3.883l5.039,10.266l-7.646-21.98l-1.028,4.799
		C-24.145,53.806-24.034,54.818-23.896,55.896z"/>
	<path fill="none" d="M-31.202,6.56c0.02-0.702,0.069-1.388,0.146-2.052l-4.406,1.025c0.091,1.133,0.234,1.906,0.234,1.906
		s2.24,5.422,3.284,7.954c0.318,0.78,0.474,1.808,0.528,2.856l0.205,0.197l1.122,5.813l1.71-0.75
		C-29.248,18.102-31.314,10.552-31.202,6.56z"/>
	<path fill="#D17428" d="M94.081-4.652l4.227-4.354C96.098-8.11,90.52-5.317,90.52-5.317L94.081-4.652z"/>
	<polygon fill="#E07E26" points="106.448,4.212 105.313,3.98 105.436,4.36 	"/>
	<polygon fill="#E9AC32" points="113.545,25.968 113.545,25.968 110.604,32.017 116.325,33.501 116.909,30.56 117.059,28.537 
		116.698,25.968 	"/>
	<polygon fill="#E07E26" points="112.895,9.786 112.997,5.55 110.235,4.982 110.657,6.56 	"/>
	<g>
		<path fill="#804937" d="M116.325,33.501L116.325,33.501L116.325,33.501z"/>
	</g>
	<g>
		<path fill="#925742" d="M-1.814,34.951c-1.112,0.484-2.07,1.094-2.894,1.779L-1.814,34.951z"/>
	</g>
	<g>
		<path fill="#925742" d="M-1.814,34.951"/>
	</g>
	<g>
		<path fill="#804937" d="M-24.177,52.861l1.028-4.797C-24.019,49.361-24.246,50.976-24.177,52.861z"/>
	</g>
	<g opacity="0.5">
		<polygon fill="#533D37" points="34.281,57.892 34.355,57.222 33.712,57.892 33.712,57.892 		"/>
	</g>
	<polygon fill="none" points="37.874,25.15 52.409,38.443 52.407,38.443 61.936,28.537 58.944,6.312 58.944,6.312 54.743,-24.932 
		54.743,-24.932 44.854,-6.78 35.544,-4.37 18.789,-19.97 16.913,31.837 28.069,44.375 28.764,42.931 32.644,44.398 33.686,46.599 
		35.775,48.943 32.825,28.537 	"/>
	<polygon fill="none" points="113.042,3.626 112.997,5.55 113.708,5.69 	"/>
	<path fill="none" d="M-24.645,55.029l0.748,0.869c-0.142-1.078-0.248-2.092-0.28-3.037L-24.645,55.029z"/>
	<path fill="none" d="M18.789-19.97L18.789-19.97L18.789-19.97z"/>
	<path fill="none" d="M-19.834,26.292l19.088-5.072l4.704-3.156L-12.797,0.247l-18.262,4.262c-0.074,0.666-0.126,1.35-0.146,2.052
		c-0.11,3.99,1.954,11.542,2.819,16.954l5.234-2.294L-19.834,26.292z"/>
	<polygon opacity="0.3" fill="#533D37" enable-background="new    " points="71.706,18.452 88.952,0.648 105.313,3.98 
		103.047,-2.972 94.081,-4.652 	"/>
	<path fill="none" d="M-31.948,15.396c-1.042-2.532-3.284-7.954-3.284-7.954s-0.144-0.773-0.232-1.906l-4.708,1.104
		c0.215,2.284,0.616,3.884,0.616,3.884l8.139,7.734C-31.475,17.204-31.629,16.177-31.948,15.396z"/>
	<polygon fill="none" points="109.313,1.574 108.42,3.92 106.448,4.212 110.235,4.982 	"/>
	<polygon fill="none" points="16.913,31.837 11.285,25.852 11.285,34.05 	"/>
	<polygon fill="none" points="94.854,44.494 110.604,32.017 98.862,28.968 90.885,38.443 	"/>
	<path fill="#C47C2A" d="M83.208-8.251l-8.799-9.973c0,0-6.861-4.988-14.768-6.014c-1.742-0.33-3.377-0.552-4.898-0.694
		l4.201,31.244L71.708,18.45L94.084-4.654L90.522-5.32c0,0,5.578-2.792,7.787-3.69c-5.328,0.044-9.727,1.048-9.727,1.048
		L83.208-8.251z"/>
	<path fill="#C7802A" d="M18.789-19.97L18.789-19.97l16.753,15.6l9.313-2.408l9.887-18.152c-7.965-0.754-12.703,0.694-12.703,0.694
		l-5.518,1.32c0,0-3.782-1.467-6.563-0.588C27.907-22.856,21.848-20.938,18.789-19.97L18.789-19.97L18.789-19.97z"/>
	<path opacity="0.7" fill="#D08829" enable-background="new    " d="M-2.328-17.335L-12.795,0.247l0,0L3.96,18.062l7.327-4.916
		v12.708l5.626,5.987l1.876-51.813l0,0l0,0c-1.098,0.347-1.81,0.574-1.81,0.574S6.945-18.52-2.328-17.335z"/>
	<path fill="#D87627" d="M18.789-19.97L18.789-19.97L18.789-19.97z"/>
	<path fill="#D29129" d="M-34.036-1.798c2.39-2.936,5.071-1.611,5.071-1.611s-1.584,3.447-2.094,7.918l18.262-4.262l-11.848-12.599
		c-2.384,0.46-8.964,2.088-12.824,6.592c-2.928,3.418-3.048,8.772-2.706,12.396l4.71-1.103C-35.624,3.438-35.591,0.108-34.036-1.798
		z"/>
	<path fill="#C47E2A" d="M-2.328-17.335c-1.448,0.186-2.885,0.38-4.263,0.577c-10.14,1.464-17.149,4.253-17.149,4.253
		s-0.332,0.043-0.902,0.153l11.848,12.599l0,0L-2.328-17.335z"/>
	<g>
		<polygon fill="#804937" points="116.323,33.494 110.6,32.01 110.6,32.01 		"/>
	</g>
	<g>
		<path fill="#7A5523" d="M48.44,75.369c0.629,0.07,1.324,0.102,2.098,0.07c4.629-0.172,7.537-1.709,7.461-2.734
			c0.188-1.285-3.582-5.135-3.582-5.135s-0.479,0.148-0.146-1.467c0.336-1.611,4.176-3.406,4.777-5.865
			c0.596-2.459,0.291-2.201,0.291-2.201s1.682-2.525,3.287-2.934c1.604-0.406,2.387,2.055,2.387,2.055l1.938-3.375l1.793,1.465
			l0.742-2.051l2.09,0.291l1.344-2.348l2.234,1.613l2.539-4.396l1.344,1.613l2.086-1.762l1.174-0.164l-6.842-25.162L48.44,75.369z"
			/>
	</g>
	<g>
		<path fill="#795126" d="M-23.148,48.062c4.474,5.869,8.352,15.105,8.352,15.105l0.452,5.572l4.324,4.107l1.938-3.373l1.348,1.316
			c0,0-1.046,2.35,0,2.936c1.042,0.586,11.479,0,11.479,0s1.129-0.984,0.746-2.494c-1.487-1.471-5.813-5.744-5.813-5.744
			l-2.09-2.613c0,0,2.235,3.371-2.088-1.904c-2.204-2.691-3.517-6.332-4.271-9.26l-4.394,1.082L-23.148,48.062z"/>
	</g>
	<g>
		<path fill="#79562D" d="M-33.292,48.8c0.149,0.438,0.229,14.502,0.149,16.689c-0.074,2.191,1.494,3.986,1.494,3.986h2.98
			l-0.446,2.049c0,0,1.191,1.436,5.815,1.32c4.624-0.109,6.713,0,6.713,0s0.857-0.656-0.446-3.078
			c-1.309-2.418-5.895-7.369-6.714-12.764c-0.053-0.375-0.104-0.744-0.15-1.109l-0.748-0.865l-11.632-17.527
			C-37.168,41.169-33.442,48.357-33.292,48.8z"/>
	</g>
	<g>
		<polygon fill="#925742" points="61.936,28.537 58.944,6.312 58.944,6.312 		"/>
	</g>
	<g>
		<polygon fill="#C47E2A" points="71.706,18.452 58.944,6.312 61.936,28.537 		"/>
	</g>
	<g>
		<path fill="#AD6E29" d="M11.285,25.852l-7.327-7.79l-4.704,3.156l-19.088,5.072l9.193,14.086l-12.508,7.688L-4.709,36.73
			c0.823-0.688,1.779-1.295,2.894-1.779l2.294,3.342l10.808-4.242L11.285,25.852L11.285,25.852z"/>
	</g>
	<g>
		<polygon fill="#B17129" points="11.285,13.146 3.96,18.062 11.285,25.852 		"/>
	</g>
	<g opacity="0.7">
		<path fill="#925742" d="M-4.708,36.728l-18.438,11.334l9.98,4.73l4.394-1.082c-0.73-2.814-0.948-4.969-0.948-4.969
			S-9.292,40.546-4.708,36.728z"/>
	</g>
	<g>
		<path fill="#996127" d="M-24.177,52.861c-0.071-1.885,0.158-3.5,1.028-4.797l-7.238-16.824c-0.208,0.254-0.43,0.531-0.67,0.844
			c-1.784,2.346-5.067,3.078-5.22,5.424l11.632,17.521L-24.177,52.861z"/>
	</g>
	<g opacity="0.5">
		<path fill="#533D37" d="M-23.148,21.219l-5.234,2.294c0.314,1.948,0.471,3.624,0.313,4.751c-0.016,0.078-0.038,0.15-0.064,0.229
			l8.298-2.205L-23.148,21.219z"/>
	</g>
	<g>
		<path fill="#A76027" d="M-19.834,26.292l-8.299,2.205c-0.235,0.678-1.008,1.25-2.252,2.742l7.238,16.824l12.508-7.688
			L-19.834,26.292z"/>
	</g>
	<g>
		<polygon fill="#704E2C" points="52.409,38.443 37.874,25.15 32.825,28.537 35.775,48.943 34.731,53.783 34.355,57.222 
			52.407,38.443 		"/>
	</g>
	<g opacity="0.5">
		<polygon fill="#533D37" points="11.285,34.05 11.285,34.951 13.67,43.044 16.233,44.103 16.979,43.226 21.604,45.134 
			21.901,42.64 27.42,45.72 28.069,44.375 16.913,31.837 		"/>
	</g>
	<g opacity="0.5">
		<polygon fill="#533D37" points="34.355,57.222 34.281,57.892 52.407,38.443 		"/>
	</g>
	<g opacity="0.7">
		<polygon fill="#533D37" points="11.285,34.05 0.478,38.292 2.958,41.904 9.371,46.599 13.397,42.931 13.67,43.044 11.285,34.951 
					"/>
	</g>
	<path opacity="0.5" fill="#925742" enable-background="new    " d="M-37.021,25.92l-0.15,1.448l4.049-1.771l1.476-2.506
		c0,0,0.354-2.473,0.229-4.834l-8.139-7.734c0,0-1.189,3.372-1.492,6.598C-41.347,20.346-37.021,25.92-37.021,25.92z"/>
	<polygon opacity="0.5" fill="#925742" enable-background="new    " points="-37.469,30.169 -36.276,29.292 -36.425,31.197 
		-33.122,25.596 -37.171,27.369 	"/>
	<g opacity="0.5">
		<polygon fill="#925742" points="13.355,42.972 14.128,43.232 13.397,42.931 		"/>
	</g>
	<polygon fill="none" points="2.958,41.904 9.371,46.599 13.355,42.972 0.731,38.662 	"/>
	<path fill="none" d="M14.128,43.232L14.128,43.232L14.128,43.232z"/>
	<g opacity="0.5">
		<polygon fill="#81562C" points="37.874,25.15 33.987,23.038 16.913,31.837 0.478,38.292 0.731,38.662 13.355,42.972 
			13.397,42.931 14.128,43.232 14.128,43.232 14.128,43.232 16.233,44.103 16.979,43.226 21.604,45.134 21.901,42.64 27.42,45.72 
			28.764,42.931 32.644,44.398 33.686,46.599 35.775,48.943 32.922,29.193 		"/>
	</g>
	<g>
		<polygon fill="#7E5736" points="-14.345,68.742 -14.797,63.169 -23.148,48.062 -10.641,40.378 -4.708,36.728 -7.784,40.322 
			-9.389,44.763 -13.166,52.796 		"/>
	</g>
	<g>
		<polyline fill="#9E7A2C" points="-9.522,48.166 -9.356,48.845 -5.933,62.728 0.09,68.742 2.563,68.343 -1.814,63.625 
			-3.482,62.201 -6.221,58.814 		"/>
	</g>
	<g opacity="0.5">
		<polygon fill="#D17428" points="-23.148,48.062 -26.358,55.029 -25.813,64.353 -22.568,67.728 -18.362,67.728 -19.834,65.619 
			-23.148,59.392 -24.188,55.177 -23.896,52.861 		"/>
	</g>
	<g opacity="0.7">
		<path fill="#533D37" d="M34.281,57.892l1.643-1.031l-0.746,3.963l1.494-0.881c0,0-1.271,2.676-0.448,4.547
			c0.932-0.439,2.836-0.732,2.836-0.732s1.008-0.807,2.014-0.148c1.007,0.664-1.403,6.492-0.702,7.484
			c0.702,0.982,1.372,0.879,1.372,0.879l1.793,0.439l0.449,1.316c0,0,1.344,1.301,4.461,1.641l0.176-0.344l-6.926-25.082
			L34.281,57.892z"/>
	</g>
	<g>
		<polygon fill="#AF6F29" points="60.385,52.158 75.452,22.885 71.706,18.452 61.936,28.537 52.534,38.31 52.678,38.443 		"/>
	</g>
	<g>
		<polygon fill="#80562C" points="52.534,38.31 38.144,25.15 34.256,23.038 41.69,49.943 52.407,38.443 		"/>
	</g>
	<g>
		<path fill="#785534" d="M48.616,75.029l0.098,0.34c0,0,5.016,0.246,7.316-0.977c2.305-1.219,1.969-1.688,1.969-1.688l-1.189-2.412
			l-2.393-2.723c0,0-1.137-1.188,0.563-2.688c1.695-1.5,3.051-2.791,3.66-3.664c0.611-0.873,0.396-2.352,0.697-3.184
			c0.309-0.832,2.613-2.75,2.613-2.75l-1.564-3.125L48.616,75.029z"/>
	</g>
	<g opacity="0.7">
		<polygon fill="#946226" points="52.678,38.443 52.534,38.31 52.407,38.443 41.69,49.943 48.616,75.029 60.385,52.158 		"/>
	</g>
	<path fill="#805522" d="M119.309,3.04l-4.477-4.985c0,0-7.313-6.015-14.768-7.04c-0.598-0.02-1.188-0.024-1.762-0.021
		c-2.209,0.896-7.787,3.69-7.787,3.69l12.527,2.346l2.387,7.334l2.986-0.438l0.893-2.349l1.344,4.986l2.238,3.226l0.145-6.159
		l1.941,6.014l-0.445,3.813l1.344,1.173l1.193-2.935l-0.299,4.254l2.09,1.904l0.457,0.294l3.871-5.72L119.309,3.04z"/>
	<g>
		<polygon fill="#DAC5A4" points="92.149,8.161 93.424,11.924 95.694,12.898 98.67,10.946 99.096,8.02 98.1,3.144 101.502,-0.48 
			102.495,-4.938 99.661,-1.314 95.125,1.752 93.567,6.07 		"/>
		<polygon opacity="0.7" fill="#808184" enable-background="new    " points="101.502,-0.48 95.979,3.168 94.875,8.844 
			98.186,11.26 95.694,12.898 93.424,11.924 92.149,8.161 95.125,1.752 99.661,-1.314 102.495,-4.938 		"/>
	</g>
	<polygon opacity="0.5" fill="#BBBDBF" enable-background="new    " points="103.885,18.948 105.026,20.89 106.194,18.177 	"/>
	<polygon opacity="0.5" fill="#F1F1F2" enable-background="new    " points="105.026,20.89 104.229,19.532 105.909,18.838 
		107.167,19.862 	"/>
	<polygon opacity="0.4" fill="#E4B86D" enable-background="new    " points="83.208,-8.251 76.522,1.574 74.85,-13.072 
		76.522,-15.824 	"/>
	<polygon opacity="0.2" fill="#925742" enable-background="new    " points="76.522,1.574 71.706,18.452 80.797,9.066 	"/>
	<polygon opacity="0.3" fill="#442A23" enable-background="new    " points="108.829,15.375 110.604,23.088 108.153,25.152 
		105.698,26.292 101.231,21.219 101.231,17.074 104.229,13.564 107.838,13.146 	"/>
	<path opacity="0.7" fill="#804937" enable-background="new    " d="M99.055,44.494"/>
	<polygon opacity="0.4" fill="#442A23" enable-background="new    " points="105.436,4.36 105.698,-4.652 103.047,-2.972 	"/>
	<polygon opacity="0.4" fill="#442A23" enable-background="new    " points="110.657,6.56 112.895,2.344 113.44,3.516 
		117.059,11.296 115.877,14.626 114.534,13.454 114.936,10.014 112.895,9.786 	"/>
	<path fill="#976327" d="M-23.148,21.219l-4.36-12.626l-1.456-12.006c0,0-1.945,5.867-2.094,7.92
		c-0.578,3.876,0.672,8.762,0.672,8.762l2.004,10.244L-23.148,21.219z"/>
	<polygon fill="#8B5B24" points="-38.671,23.514 -33.748,16.042 -34.944,8.128 -31.723,16.083 -31.418,18.254 -31.648,23.088 
		-37.055,29.869 -37.021,25.92 	"/>
	<g>
		<polygon fill="#D8A128" points="38.27,11.296 31.924,-2.4 44.854,-6.78 		"/>
	</g>
	<path fill="#C97929" d="M105.436,4.36c0,0,2.516,8.774,2.4,8.786c-0.109,0.017-6.945,0.804-6.945,0.804l-2.223-3.004l0.428-2.926
		L105.436,4.36z"/>
	<polygon opacity="0.7" fill="#231F20" enable-background="new    " points="106.28,46.447 108.141,43.966 109.116,46.583 	"/>
	<g>
		<polygon fill="#B0782B" points="94.903,19.415 98.862,28.968 100.12,40.322 98.432,46.583 99.917,48.845 95.588,47.416 
			90.885,38.443 89.6,34.951 75.452,22.885 80.797,9.066 93.67,-4.224 95.844,-4.224 92.506,9.56 		"/>
	</g>
	<polygon opacity="0.3" fill="#442A23" enable-background="new    " points="95.588,-4.37 90.518,1.508 87.034,6.552 87.719,11.428 
		89.256,9.915 88.403,15.831 89.256,21.219 90.885,19.415 91.311,25.968 90.885,30.955 87.034,34.951 86.182,41.22 89.6,34.951 
		93.534,30.955 94.903,19.415 92.682,9.579 94.657,1.86 	"/>
	<polygon opacity="0.1" fill="#533D37" enable-background="new    " points="107.838,13.146 100.12,13.969 95.588,21.064 
		98.862,28.968 100.12,40.322 110.604,32.017 110.604,23.088 108.829,15.375 	"/>
	<polyline opacity="0.6" fill="#804937" enable-background="new    " points="113.858,23.674 108.829,15.375 107.694,21.635 
		110.604,23.088 103.497,37.736 110.604,32.017 113.545,25.968 116.698,25.968 117.784,24.774 	"/>
	<polygon fill="#B2762A" points="58.944,7.386 58.793,8.128 57.522,14.372 34.256,23.038 38.144,25.15 51.917,38.955 57.522,33.064 
			"/>
	<path opacity="0.2" fill="#533D37" enable-background="new    " d="M-28.965-3.412l2.414-4.603l-13.485,8.809l-0.137,5.844
		l4.708-1.103C-35.465,5.536-36.542-4.434-28.965-3.412z"/>
	<g>
		<polygon fill="#925742" points="0.47,38.279 0.857,38.128 -1.814,34.951 		"/>
	</g>
</g>
</svg>
