<?xml version="1.0" encoding="utf-8"?>
<!-- Generator: Adobe Illustrator 15.1.0, SVG Export Plug-In . SVG Version: 6.00 Build 0)  -->
<!DOCTYPE svg PUBLIC "-//W3C//DTD SVG 1.1//EN" "http://www.w3.org/Graphics/SVG/1.1/DTD/svg11.dtd">
<svg version="1.1" id="Layer_1" xmlns="http://www.w3.org/2000/svg" xmlns:xlink="http://www.w3.org/1999/xlink" x="0px" y="0px"
	 width="171.929px" height="92.6px" viewBox="-42.982 -23.15 171.929 92.6" enable-background="new -42.982 -23.15 171.929 92.6"
	 xml:space="preserve">
<g>
	<g>
		<g>
			<polyline fill="#595B4F" points="-36.974,13.678 -26.15,12.277 -25.506,7.343 -18.49,5.563 -13.585,3.144 -28.348,5.546 
				-36.974,13.678 			"/>
			<polygon fill="#767661" points="-26.15,12.277 -25.506,7.343 -18.49,5.563 -10.548,10.394 -18.959,13.239 			"/>
			<polygon fill="#E2D8BA" points="-10.548,10.394 -15.368,19.321 -12.822,25.907 -19.466,29.4 -25.272,26.343 -34.37,19.135 
				-36.974,13.678 -26.15,12.277 -18.959,13.239 			"/>
			<polygon fill="#4B4E44" points="-23.886,13.302 -23.08,10.124 -19.86,8.678 -17.024,10.472 -16.314,10.923 -15.956,13.418 
				-17.098,15.967 -20.318,17.13 -23.152,15.616 			"/>
			<polyline fill="#525E61" points="-13.585,3.144 -6.166,-0.316 7.88,-3.612 -3.852,5.383 -10.548,10.394 -18.49,5.563 
				-13.585,3.153 			"/>
			<polygon fill="#D2CDA5" points="-10.548,10.394 -15.368,19.321 -1.448,17.74 5.083,10.764 14.866,5.149 5.992,4.136 
				-3.852,5.383 			"/>
			<polyline fill="#767864" points="34.036,-5.177 32.207,7.189 22.292,2.388 14.866,5.149 5.992,4.136 -3.852,5.383 7.88,-3.612 
				34.036,-5.177 			"/>
			<polygon fill="#555A50" points="44.767,9.71 32.207,7.189 34.036,-5.177 46.583,-3.814 51.632,-2.743 62.394,-0.038 
				55.431,6.901 			"/>
			<polyline fill="#BE986B" points="34.036,-5.177 43.618,-15.713 49.81,-15.788 51.802,-2.862 47.99,-3.659 34.036,-5.177 			"/>
			<polygon fill="#D0AF96" points="53.099,-23.15 43.618,-15.713 49.81,-15.788 			"/>
			<polygon fill="#A499A7" points="52.849,-22.937 58.138,-5.265 51.833,-2.652 49.562,-15.575 			"/>
			<polyline fill="#B1B097" points="51.833,-2.652 58.138,-5.265 62.394,-0.038 51.833,-2.652 			"/>
			<polyline fill="#899684" points="62.394,-0.038 55.431,6.901 65.771,6.773 73.431,2.626 62.394,-0.038 			"/>
			<polygon fill="#A499A7" points="65.771,6.773 74.804,8.248 73.431,2.781 			"/>
			<polyline fill="#6E7367" points="73.31,2.781 74.804,8.248 84.794,2.315 73.31,2.781 			"/>
			<polygon fill="#899684" points="74.804,8.248 84.794,2.315 84.197,9.222 			"/>
			<polygon fill="#6E7367" points="84.197,9.222 84.794,2.315 90.292,2.812 98.632,4.794 96.029,9.074 90.388,4.002 			"/>
			<polyline fill="#B1B097" points="91.888,18.394 96.029,9.074 99.748,23.552 91.888,18.394 			"/>
			<polygon fill="#E1DEB9" points="-1.448,17.74 -15.368,19.321 -12.822,25.907 -5.964,27.963 			"/>
			<polygon fill="#E1DEB9" points="14.866,5.149 5.083,10.764 -1.448,17.74 10.604,19.58 14.866,5.149 25.06,11.359 32.207,7.189 
				22.292,2.388 			"/>
			<polygon fill="#C7CBB7" points="10.604,19.58 25.06,11.359 14.866,5.149 			"/>
			<polygon fill="#899684" points="84.197,9.222 90.388,4.002 96.029,9.074 90.181,14.628 			"/>
			<polygon fill="#C0C5AE" points="96.029,9.074 85.135,18.077 91.89,18.573 			"/>
			<polyline fill="#B1B097" points="85.135,18.077 89.767,14.25 84.197,9.222 57.052,35.459 73.51,23.01 85.135,18.077 			"/>
			<polygon fill="#D9D8BE" points="62.783,29.92 55.431,6.901 65.771,6.773 74.804,8.248 84.197,9.222 			"/>
			<polygon fill="#B1B097" points="5.816,36.093 6.138,39.188 13.606,39.657 24.466,41.666 27.366,40.757 43.876,39.986 
				37.852,25.277 27.833,32.643 17.244,29.568 			"/>
			<polygon fill="#C07D4C" points="27.833,32.643 24.466,41.773 27.47,49.014 			"/>
			<polygon fill="#F0CAA9" points="80.062,26.709 73.56,36.934 68.242,49.613 66.158,38.135 63.76,30.814 73.51,23.01 			"/>
			<polygon fill="#DFB179" points="66.158,38.135 73.56,36.934 73.51,23.01 63.443,30.748 			"/>
			<polyline fill="#DDB97D" points="28.116,40.748 36.398,53.475 32.396,58.24 27.47,49.014 27.65,40.83 			"/>
			<polygon fill="#EAD0A4" points="38.64,44.157 33.15,40.486 28.116,40.748 36.398,53.475 			"/>
			<polygon opacity="0.4" fill="#655671" enable-background="new    " points="27.47,49.014 33.15,40.486 27.65,40.83 			"/>
			<polygon fill="#C07D4C" points="68.242,49.613 57.052,35.459 63.406,30.65 66.158,38.135 			"/>
			<polyline opacity="0.5" fill="#655671" enable-background="new    " points="57.052,35.459 57.324,35.539 66.158,38.135 
				61.677,41.314 			"/>
			<polygon fill="#E1DEB9" points="27.833,32.643 27.924,34.3 27.65,40.83 33.052,40.51 			"/>
			<path fill="#C07D4C" d="M2.65,26.927"/>
			<path fill="#C07D4C" d="M17.244,29.568"/>
			<polygon fill="#E2E0BB" points="25.06,11.359 27.833,32.643 17.244,29.568 10.604,19.58 			"/>
			<polygon fill="#C07D4C" points="-1.448,17.74 3.346,26.918 17.244,29.568 5.816,36.093 -1.832,32.385 -5.964,27.963 			"/>
			<polygon opacity="0.4" fill="#655671" enable-background="new    " points="3.346,26.918 -5.964,27.963 -1.832,32.385 			"/>
			<polygon fill="#D4B787" points="3.346,26.918 10.604,19.58 17.244,29.568 			"/>
			<polygon fill="#D2C5A4" points="-1.448,17.74 10.604,19.58 3.346,26.918 			"/>
			<polygon fill="#E8E8C3" points="25.06,11.359 32.207,7.189 44.767,9.71 37.852,25.277 27.833,32.643 			"/>
			<polygon fill="#C0C5AE" points="44.767,9.71 37.852,25.277 43.876,39.986 			"/>
			<polygon fill="#D2C5A4" points="-12.822,25.907 -19.466,29.4 -10.396,34.184 1.844,37.885 6.138,39.188 5.816,36.093 
				-1.552,32.385 -5.964,27.963 			"/>
			<polyline opacity="0.2" fill="#655671" enable-background="new    " points="-10.396,34.184 -1.694,32.24 2.054,37.948 
				-10.396,34.184 			"/>
			<polygon fill="#C7CBB7" points="-15.368,19.321 -25.318,18.883 -25.272,26.343 -19.466,29.4 -12.822,25.907 			"/>
			<polygon fill="#C7CBB7" points="-17.896,9.923 -19.672,12.766 -16.314,10.923 			"/>
			<polygon fill="#E4E1BA" points="44.189,29.236 58.388,16.155 55.431,6.901 44.767,9.71 			"/>
			<polygon fill="#BFB99B" points="62.783,29.92 57.052,35.459 43.876,39.986 44.189,29.236 58.388,16.155 			"/>
			<polygon fill="#CACEB4" points="55.431,6.901 67.849,17.728 74.804,8.248 65.771,6.773 			"/>
			<polyline fill="#938A6B" points="98.632,4.794 96.029,9.074 99.392,23.556 104.144,19.153 103.316,11.985 98.632,4.794 			"/>
			<polygon fill="#B1B097" points="103.316,11.985 96.029,9.074 104.144,19.153 			"/>
			<polygon fill="#927460" points="98.632,4.794 114.56,-5.961 126.554,-14.064 124.14,0.397 116.673,0.489 103.316,11.985 
				98.632,4.794 103.316,11.985 			"/>
			<polygon fill="#927460" points="115.712,27.527 109.578,24.92 104.144,19.153 99.378,23.439 107.455,29.178 117.898,37.143 			
				"/>
			<polyline fill="#CEB39A" points="123.611,26.779 115.712,27.527 117.898,37.143 128.947,42.498 123.615,26.779 			"/>
			<polygon fill="#AC7C5A" points="111.148,17.178 118.861,12.777 116.673,0.489 103.316,11.985 104.144,19.153 			"/>
			<polygon fill="#938A6B" points="104.144,19.153 111.148,17.178 118.861,12.777 115.712,27.527 109.578,24.92 			"/>
			<polygon fill="#7BCBE4" points="-42.982,48.039 -27.642,32.639 -1.432,42.096 			"/>
			<polygon fill="#5EBFDF" points="-1.432,42.096 -42.982,48.039 -15.702,60.314 			"/>
			<polygon fill="#72CBD7" points="-15.702,60.314 -1.432,42.096 38.35,65.564 11.958,69.45 			"/>
			<polygon fill="#5EBFDF" points="32.066,61.855 40.02,56.275 53.476,46.846 62.885,61.475 38.35,65.564 			"/>
			<polygon fill="#4FACD5" points="62.885,61.475 53.476,46.846 70.886,55.896 82.578,65.016 			"/>
			<polygon fill="#7BCBE4" points="51.537,42.811 70.886,55.896 53.476,46.846 41.668,55.123 			"/>
			<polygon fill="#5EBFDF" points="73.474,57.889 94.607,40.95 112.865,55.05 			"/>
			<polygon fill="#45B2D0" points="82.578,65.016 127.568,68.021 112.865,55.05 73.474,57.914 			"/>
			<polygon fill="#45B2D0" points="-42.982,48.039 -36.362,63.162 11.958,69.45 -15.702,60.314 			"/>
			<polygon fill="#C09F84" points="116.673,0.489 118.861,12.777 115.712,27.527 123.615,26.779 118.861,12.777 124.14,0.397 			"/>
			<polygon fill="#C09F84" points="103.316,11.985 111.148,17.178 104.144,19.153 			"/>
			<polygon fill="#7BCBE4" points="89.599,44.963 107.986,51.281 94.607,40.95 			"/>
			<polygon fill="#3F9FC0" points="119.878,61.232 127.568,68.021 101.044,66.252 			"/>
			<polygon fill="#C0C5AE" points="-25.318,18.883 -27.156,18.06 -34.37,19.135 -25.272,26.343 			"/>
		</g>
		<polygon fill="#6E7367" points="98.632,4.757 101.111,8.67 114.88,-6.179 		"/>
	</g>
	<polygon fill="#3F9FC0" points="-36.362,63.162 -15.702,60.314 11.958,69.45 	"/>
	<polygon fill="#3F9FC0" points="73.474,57.914 82.578,65.016 86.927,65.307 	"/>
</g>
</svg>
