<?xml version="1.0" encoding="utf-8"?>
<!-- Generator: Adobe Illustrator 15.1.0, SVG Export Plug-In . SVG Version: 6.00 Build 0)  -->
<!DOCTYPE svg PUBLIC "-//W3C//DTD SVG 1.1//EN" "http://www.w3.org/Graphics/SVG/1.1/DTD/svg11.dtd">
<svg version="1.1" id="Layer_1" xmlns="http://www.w3.org/2000/svg" xmlns:xlink="http://www.w3.org/1999/xlink" x="0px" y="0px"
	 width="87.365px" height="84.957px" viewBox="-7.042 -7.281 87.365 84.957" enable-background="new -7.042 -7.281 87.365 84.957"
	 xml:space="preserve">
<polygon fill="none" stroke="#137184" stroke-width="0.8" stroke-miterlimit="10" points="21.619,59.5 -1.395,44.458 -6.612,21.407 
	8.408,1.141 36.64,-6.865 64.869,1.141 79.892,21.407 74.674,44.458 51.66,59.5 "/>
<line fill="none" stroke="#137184" stroke-width="0.8" stroke-miterlimit="10" x1="8.408" y1="1.141" x2="-1.395" y2="44.458"/>
<line fill="none" stroke="#137184" stroke-width="0.8" stroke-miterlimit="10" x1="79.892" y1="21.407" x2="51.66" y2="59.5"/>
<line fill="none" stroke="#137184" stroke-width="0.8" stroke-miterlimit="10" x1="74.674" y1="44.458" x2="64.869" y2="1.141"/>
<line fill="none" stroke="#137184" stroke-width="0.8" stroke-miterlimit="10" x1="-6.612" y1="21.407" x2="36.64" y2="-6.865"/>
<line fill="none" stroke="#137184" stroke-width="0.8" stroke-miterlimit="10" x1="36.64" y1="-6.865" x2="79.892" y2="21.407"/>
<line fill="none" stroke="#137184" stroke-width="0.8" stroke-miterlimit="10" x1="-6.612" y1="21.407" x2="21.619" y2="59.5"/>
<polyline fill="none" stroke="#137184" stroke-width="0.8" stroke-miterlimit="10" points="74.674,44.458 21.619,59.5 21.619,76.98 
	51.66,59.5 "/>
<path fill="none" stroke="#137184" stroke-width="0.8" stroke-miterlimit="10" d="M51.66,59.5"/>
<line fill="none" stroke="#137184" stroke-width="0.8" stroke-miterlimit="10" x1="21.619" y1="76.98" x2="47.515" y2="52.156"/>
<line fill="none" stroke="#137184" stroke-width="0.8" stroke-miterlimit="10" x1="-1.395" y1="44.458" x2="47.515" y2="52.156"/>
<g>
	<path fill="none" stroke="#137184" stroke-width="0.8" stroke-miterlimit="10" d="M29.519,17.407l-3.758-4.227l6.02-6.637h13.396
		l5.535,6.156v10.113l-9.629,9.475v3.697h-5.545V29.72l9.639-9.479v-5.348l-2.457-2.73h-8.434L29.519,17.407z"/>
</g>
<line fill="none" stroke="#137184" stroke-width="0.8" stroke-miterlimit="10" x1="31.781" y1="6.542" x2="29.519" y2="17.407"/>
<line fill="none" stroke="#137184" stroke-width="0.8" stroke-miterlimit="10" x1="31.781" y1="6.542" x2="42.719" y2="12.165"/>
<line fill="none" stroke="#137184" stroke-width="0.8" stroke-miterlimit="10" x1="42.719" y1="12.165" x2="45.177" y2="6.542"/>
<line fill="none" stroke="#137184" stroke-width="0.8" stroke-miterlimit="10" x1="45.177" y1="14.896" x2="50.713" y2="22.813"/>
<line fill="none" stroke="#137184" stroke-width="0.8" stroke-miterlimit="10" x1="50.713" y1="22.813" x2="35.539" y2="29.72"/>
<line fill="none" stroke="#137184" stroke-width="0.8" stroke-miterlimit="10" x1="35.539" y1="29.72" x2="41.082" y2="32.286"/>
<polygon fill="none" stroke="#137184" stroke-width="0.8" stroke-miterlimit="10" points="37.164,44.988 35.539,43.361 
	35.539,41.067 37.164,39.44 39.463,39.44 41.086,41.067 41.086,43.361 39.463,44.988 "/>
</svg>
