<?xml version="1.0" encoding="utf-8"?>
<!-- Generator: Adobe Illustrator 15.1.0, SVG Export Plug-In . SVG Version: 6.00 Build 0)  -->
<!DOCTYPE svg PUBLIC "-//W3C//DTD SVG 1.1//EN" "http://www.w3.org/Graphics/SVG/1.1/DTD/svg11.dtd">
<svg version="1.1" id="Layer_1" xmlns="http://www.w3.org/2000/svg" xmlns:xlink="http://www.w3.org/1999/xlink" x="0px" y="0px"
	 width="151.199px" height="145.723px" viewBox="-37.8 -36.43 151.199 145.723"
	 enable-background="new -37.8 -36.43 151.199 145.723" xml:space="preserve">
<g>
	<g>
		<g>
			<polygon fill="#6D533B" points="103.968,75.935 84.814,98.954 84.802,86.9 			"/>
			<polygon fill="#5A4534" points="-37.8,84.466 -30.718,91.681 -17.3,84.466 11.208,91.681 22.575,86.9 10.911,86.9 
				-18.091,81.837 			"/>
			<polygon fill="#75563B" points="-30.718,91.681 -27.739,98.954 -6.305,95.322 -17.3,84.466 			"/>
			<polygon fill="#433739" points="-27.739,98.954 -23.632,102.306 7.665,103.525 -6.305,95.322 			"/>
			<polygon fill="#773F3D" points="11.208,91.681 -17.3,84.466 -6.305,95.322 7.665,103.525 31.691,109.292 			"/>
			<polygon fill="#816348" points="84.81,95.322 64.874,91.681 30.216,95.322 23.771,93.501 22.575,86.9 84.802,86.9 			"/>
			<polygon fill="#483D3B" points="84.81,95.322 64.874,91.681 58.636,96.74 44.915,109.292 84.814,98.954 			"/>
			<polygon fill="#816348" points="113.4,74.657 103.968,87.445 103.968,94.382 84.814,98.954 103.968,75.935 			"/>
			<polyline fill="#5A4534" points="106.355,75.544 103.968,87.445 84.814,98.954 102.888,76.097 106.355,74.657 			"/>
			<g>
				<polygon fill="#64383D" points="22.575,86.9 31.329,95.197 24.357,96.74 				"/>
			</g>
			<g>
				<polygon fill="#4F3725" points="31.329,95.197 44.915,109.292 31.691,109.292 24.357,96.74 				"/>
			</g>
			<g>
				<polygon fill="#5A4534" points="31.329,95.197 61.521,86.761 64.874,91.681 44.915,109.292 				"/>
			</g>
			<polygon opacity="0.2" fill="#262261" enable-background="new    " points="2.273,89.419 7.665,103.525 11.208,91.681 			"/>
			<polyline fill="#86C77C" points="103.228,76.357 113.4,74.657 101.923,67.759 95.913,64.277 82.361,59.81 33.611,59.208 
				11.208,60.437 -11.784,59.618 -28.175,68.341 -31.958,76.214 -36.753,83.525 -18.091,81.837 10.911,86.9 65.384,86.9 
				84.802,86.9 103.228,76.357 			"/>
			<polygon fill="#57A653" points="103.968,75.935 33.611,84.616 6.175,78.591 -31.958,76.214 -37.8,84.466 -18.091,81.837 
				10.911,86.9 69.349,86.9 			"/>
			<polygon fill="#77BA70" points="-15.284,61.484 -9.475,66.745 -17.3,77.126 1.331,67.784 36.468,73.814 71.21,69.306 
				42.142,61.484 56.302,60.099 79.236,59.708 33.611,59.208 18.849,66.122 			"/>
			<polygon fill="#98CC74" points="10.407,79.521 54.79,76.499 33.611,84.616 			"/>
			<polygon fill="#93CA74" points="8.593,64.73 18.849,66.122 33.611,59.208 33.611,59.208 11.208,60.437 			"/>
			<path fill="#A3D292" d="M-8.182,72.56l9.514-4.775l25.623,10.143c0,0-23.201-5.193-23.758-5.068
				C2.636,72.982-8.182,72.56-8.182,72.56z"/>
			<polygon fill="#77BA70" points="82.876,67.523 69.896,63.786 92.06,65.423 95.913,64.277 113.4,74.657 92.06,66.122 			"/>
			<path fill="#98CC74" d="M70.556,63.835l12.32,3.688l-21.98-0.994c0,0-17.039-4.582-17.434-4.689
				C43.064,61.736,70.556,63.835,70.556,63.835z"/>
			<polygon opacity="0.4" fill="#2C307B" enable-background="new    " points="-17.3,84.466 -18.091,81.837 -28.884,83.275 
				-20.909,86.406 			"/>
			<polygon opacity="0.4" fill="#2C307B" enable-background="new    " points="10.407,86.9 2.273,89.419 11.208,91.681 			"/>
			<polygon fill="#4F3725" points="90.454,91.822 87.294,85.474 84.802,86.9 84.814,98.954 			"/>
			<g>
				<polygon fill="#6D533B" points="22.575,86.804 31.691,109.292 11.208,91.681 				"/>
			</g>
		</g>
		<polygon opacity="0.4" fill="#2C307B" enable-background="new    " points="72.685,76.499 78.876,70.392 87.626,70.392 
			95.913,67.784 82.876,64.745 79.236,59.708 57.083,56.325 49.441,62.769 45.04,68.71 37.54,66.122 48.105,72.304 59.157,70.392 
			54.79,76.499 		"/>
		<polygon opacity="0.4" fill="#2C307B" enable-background="new    " points="-1.985,78.359 6.74,75.935 10.407,70.939 
			14.368,67.523 19.128,70.392 25.839,68.167 24.509,64.679 30.202,64.679 28.904,59.343 24.357,59.716 11.208,60.437 
			-3.751,60.437 0.775,66.136 -6.95,74.657 		"/>
	</g>
	<g>
		<g>
			<polygon fill="#37B783" points="53.642,-21.065 43.034,-11.462 64.093,-14.751 84.613,-10.913 71.421,-22.163 			"/>
			<polygon fill="#85CA9B" points="53.642,-21.065 64.093,-14.751 63.966,-36.43 			"/>
			<polygon fill="#8CCC9A" points="45.04,23.116 61.958,26.409 48.197,45.345 			"/>
			<polygon fill="#13A36D" points="63.966,-36.43 64.093,-14.751 71.421,-22.163 			"/>
			<polygon fill="#13A36D" points="43.034,-11.462 64.093,-14.751 52.21,-4.6 			"/>
			<polygon fill="#13A36D" points="74.286,-4.876 61.958,26.409 82.032,24.214 			"/>
			<polygon fill="#13A36D" points="61.958,26.409 48.197,45.345 65.974,46.716 			"/>
			<path fill="#13A36D" d="M45.04,23.116l3.154,22.227c0,0-12.189-6.373-11.113-7.029S45.04,23.116,45.04,23.116z"/>
			<polygon fill="#07815D" points="43.034,6.376 45.04,23.116 52.21,-4.6 			"/>
			<path fill="#13A36D" d="M65.7,45.345c0,0,0.131,0.396,0.363,1.072c1.422,4.207,7.078,17.861,7.078,17.861
				c0.574-1.639,7.455-18.934,7.455-18.934l1.436-21.129L65.7,45.345z"/>
			<polygon fill="#13A36D" points="54.79,64.277 48.197,45.07 37.3,59.343 			"/>
			<polygon fill="#07815D" points="84.613,-10.913 64.093,-14.751 74.286,-4.876 			"/>
			<polygon fill="#07815D" points="74.286,-4.876 82.032,24.214 83.464,8.025 			"/>
			<polygon fill="#07815D" points="61.958,26.409 82.032,24.214 65.974,46.716 			"/>
			<polygon fill="#07815D" points="48.197,45.345 54.79,64.277 65.974,46.716 			"/>
			<polygon fill="#07815D" points="73.142,64.277 80.597,45.345 82.032,24.214 90.06,38.759 82.032,46.716 90.347,60.437 			"/>
			<polygon fill="#13A36D" points="95.794,15.208 83.464,7.802 82.032,24.263 			"/>
			<polygon fill="#37B783" points="43.034,6.376 45.04,23.116 31.564,14.611 			"/>
			<polygon fill="#37B783" points="52.21,-4.6 61.958,26.409 74.286,-4.876 			"/>
			<polygon fill="#37B783" points="48.197,45.281 21.814,48.304 37.575,37.97 			"/>
			<polygon fill="#85CA9B" points="52.21,-4.6 64.093,-14.751 74.286,-4.876 			"/>
			<polygon fill="#85CA9B" points="45.04,23.116 48.197,45.345 21.814,48.361 37.3,59.343 51.044,41.429 61.958,26.409 			"/>
			<polygon fill="#13A36D" points="61.958,26.409 52.21,-4.6 45.04,23.116 			"/>
			<polygon fill="#37B783" points="65.974,46.716 82.032,24.214 80.597,45.345 65.974,46.716 73.142,64.277 54.79,64.277 			"/>
			<polygon fill="#13A36D" points="90.06,38.759 106.404,48.913 82.032,46.716 			"/>
			<polygon fill="#0F5640" points="106.404,48.913 90.347,60.437 82.032,46.716 			"/>
			<polygon fill="#8A5D3B" points="54.79,76.499 63.529,70.939 72.685,76.499 			"/>
			<polygon fill="#A87C4F" points="72.685,76.499 63.529,70.939 72.583,64.277 			"/>
			<polygon fill="#C3996B" points="54.79,64.277 63.529,70.939 54.79,76.499 			"/>
			<polygon fill="#D8A573" points="72.583,64.277 63.529,70.939 54.79,64.277 			"/>
		</g>
		<g>
			<polygon fill="#C0D52F" points="-15.719,-20.335 -8.509,-28.075 5.753,-32.126 15.001,-21.475 29.894,-14.71 35.066,-1.225 
				35.066,7.478 24.407,16.573 23.624,24.126 16.728,32.079 4.343,32.833 -7.725,31.931 -18.542,29.98 -25.126,23.681 
				-25.126,12.595 -34.057,0.355 -34.057,-3.923 -35.94,-7.983 -29.983,-16.526 			"/>
			<polyline fill="#748838" points="24.509,16.105 23.974,23.777 17.036,32.113 4.226,32.833 6.222,16.105 			"/>
			<polygon fill="#8EAB3D" points="35.376,7.511 16.304,-3.423 24.716,16.605 			"/>
			<polygon fill="#8EAB3D" points="23.935,24.163 6.222,16.605 17.036,32.113 			"/>
			<polygon fill="#8EAB3D" points="-7.417,31.96 -7.417,16.605 -18.231,30.013 			"/>
			<polygon fill="#8EAB3D" points="6.064,-32.093 -0.128,-11.843 15.314,-21.444 			"/>
			<polygon fill="#A4BF39" points="30.202,-14.675 16.566,-3.889 35.376,-1.188 			"/>
			<polygon fill="#A4BF39" points="-6.95,16.12 -24.815,23.708 -18.231,30.013 			"/>
			<polygon fill="#D8E26A" points="-0.128,-11.843 6.064,-32.093 -8.2,-28.046 -0.128,-11.843 -11.178,-6.44 -29.675,-16.493 
				-35.632,-7.956 -11.352,-6.065 16.304,-3.423 			"/>
			<path fill="#D8E26A" d="M-24.815,12.63"/>
			<polygon fill="#D8E26A" points="-7.417,16.105 -11.352,-6.065 -24.815,12.63 			"/>
			<path fill="#D8E26A" d="M5.851,16.105"/>
			<polyline fill="#A4BF39" points="5.851,16.605 4.226,32.833 6.222,16.605 16.304,-3.423 -0.128,-11.843 -14.759,-21.003 
				-11.352,-6.065 5.851,16.105 			"/>
			<polygon fill="#8EAB3D" points="16.282,-21.003 16.304,-3.423 30.202,-14.675 			"/>
			<polygon fill="#81983B" points="-7.417,16.105 -7.417,31.96 6.222,16.605 			"/>
			<polygon fill="#D8E26A" points="-11.018,-5.634 -0.598,8.238 16.304,-3.423 			"/>
			<polyline fill="none" points="6.222,16.605 6.152,16.685 -7.417,31.96 4.226,32.833 2.644,45.695 3.175,66.136 4.894,74.368 
				-1.985,78.359 -8.585,75.579 -6.581,66.958 -5.716,46.929 -7.444,32.087 			"/>
			<polygon fill="#A87C4F" points="3.175,66.136 -1.985,78.359 4.894,74.368 			"/>
			<polygon fill="#A87C4F" points="2.644,45.695 -7.444,32.087 4.226,32.833 			"/>
			<polygon fill="#8A5D3B" points="2.644,45.695 -6.581,66.958 3.175,66.136 			"/>
			<polygon fill="#CB9260" points="2.644,45.695 -7.444,32.087 -5.716,46.929 			"/>
			<polygon fill="#CB9260" points="3.175,66.136 -1.985,78.359 -6.581,66.958 			"/>
			<polygon fill="#E4C081" points="-5.716,46.929 2.644,45.695 -6.581,66.958 -1.985,78.359 -8.585,75.579 -6.581,66.958 			"/>
			<polygon fill="#A4BF39" points="30.202,-14.675 16.304,-3.423 35.376,-1.188 			"/>
		</g>
	</g>
	<polygon fill="#5A4534" points="68.107,103.062 83.464,103.888 92.198,96.726 	"/>
</g>
</svg>
