<?xml version="1.0" encoding="utf-8"?>
<!-- Generator: Adobe Illustrator 15.1.0, SVG Export Plug-In . SVG Version: 6.00 Build 0)  -->
<!DOCTYPE svg PUBLIC "-//W3C//DTD SVG 1.1//EN" "http://www.w3.org/Graphics/SVG/1.1/DTD/svg11.dtd">
<svg version="1.1" id="Layer_1" xmlns="http://www.w3.org/2000/svg" xmlns:xlink="http://www.w3.org/1999/xlink" x="0px" y="0px"
	 width="85.827px" height="86.915px" viewBox="-7.016 -7.783 85.827 86.915" enable-background="new -7.016 -7.783 85.827 86.915"
	 xml:space="preserve">
<g>
	<polygon fill="none" stroke="#137184" stroke-width="0.8" stroke-miterlimit="10" points="35.895,-7.376 2.706,-1.167 2.706,2.635 
		35.895,3.837 69.089,2.635 69.089,-1.167 	"/>
	<g>
		<g>
			<polygon fill="none" stroke="#137184" stroke-width="0.8" stroke-miterlimit="10" points="2.106,54.065 -5.689,46.733 
				25.489,46.733 17.694,54.065 			"/>
			<polyline fill="none" stroke="#137184" stroke-width="0.8" stroke-miterlimit="10" points="26.444,46.464 9.899,4.339 
				-6.644,46.464 			"/>
			<line fill="none" stroke="#137184" stroke-width="0.8" stroke-miterlimit="10" x1="9.899" y1="4.841" x2="9.899" y2="46.966"/>
		</g>
		<g>
			<polygon fill="none" stroke="#137184" stroke-width="0.8" stroke-miterlimit="10" points="54.098,54.065 46.305,46.733 
				77.481,46.733 69.688,54.065 			"/>
			<polyline fill="none" stroke="#137184" stroke-width="0.8" stroke-miterlimit="10" points="78.438,46.464 61.895,4.339 
				45.348,46.464 			"/>
			<line fill="none" stroke="#137184" stroke-width="0.8" stroke-miterlimit="10" x1="61.895" y1="46.966" x2="61.895" y2="4.841"/>
		</g>
	</g>
	<polyline fill="none" stroke="#137184" stroke-width="0.8" stroke-miterlimit="10" points="39.122,70.112 44.069,57.966 
		38.8,29.196 42.852,13.786 36.239,3.913 35.895,3.403 35.557,3.913 28.938,13.786 32.993,29.196 27.725,57.966 32.669,70.11 	"/>
	<polyline fill="none" stroke="#137184" stroke-width="0.8" stroke-miterlimit="10" points="32.534,70.112 28.593,70.112 
		18.464,75.161 18.464,78.731 53.057,78.731 53.057,75.161 42.923,70.112 38.983,70.112 	"/>
	<polyline fill="none" stroke="#137184" stroke-width="0.8" stroke-miterlimit="10" points="42.968,70.112 35.657,75.518 
		28.552,70.112 	"/>
	<line fill="none" stroke="#137184" stroke-width="0.8" stroke-miterlimit="10" x1="35.657" y1="75.518" x2="35.657" y2="78.731"/>
	<line fill="none" stroke="#137184" stroke-width="0.8" stroke-miterlimit="10" x1="18.464" y1="75.161" x2="26.932" y2="78.321"/>
	<line fill="none" stroke="#137184" stroke-width="0.8" stroke-miterlimit="10" x1="26.307" y1="78.321" x2="35.657" y2="75.518"/>
	<line fill="none" stroke="#137184" stroke-width="0.8" stroke-miterlimit="10" x1="35.657" y1="75.518" x2="45.212" y2="78.321"/>
	<line fill="none" stroke="#137184" stroke-width="0.8" stroke-miterlimit="10" x1="44.452" y1="78.321" x2="53.057" y2="75.161"/>
	<line fill="none" stroke="#137184" stroke-width="0.8" stroke-miterlimit="10" x1="35.895" y1="-7.376" x2="35.895" y2="3.837"/>
	<line fill="none" stroke="#137184" stroke-width="0.8" stroke-miterlimit="10" x1="35.895" y1="3.837" x2="17.218" y2="-3.882"/>
	<line fill="none" stroke="#137184" stroke-width="0.8" stroke-miterlimit="10" x1="35.895" y1="3.837" x2="54.579" y2="-3.882"/>
	<line fill="none" stroke="#137184" stroke-width="0.8" stroke-miterlimit="10" x1="2.106" y1="54.065" x2="9.899" y2="46.966"/>
	<line fill="none" stroke="#137184" stroke-width="0.8" stroke-miterlimit="10" x1="17.694" y1="54.065" x2="9.899" y2="46.966"/>
	<line fill="none" stroke="#137184" stroke-width="0.8" stroke-miterlimit="10" x1="44.069" y1="57.966" x2="35.657" y2="46.464"/>
	<line fill="none" stroke="#137184" stroke-width="0.8" stroke-miterlimit="10" x1="27.725" y1="58.835" x2="35.657" y2="46.464"/>
	<line fill="none" stroke="#137184" stroke-width="0.8" stroke-miterlimit="10" x1="28.938" y1="13.786" x2="35.759" y2="15.751"/>
	<line fill="none" stroke="#137184" stroke-width="0.8" stroke-miterlimit="10" x1="42.852" y1="13.786" x2="35.759" y2="15.751"/>
	<line fill="none" stroke="#137184" stroke-width="0.8" stroke-miterlimit="10" x1="32.993" y1="29.196" x2="35.759" y2="15.751"/>
	<line fill="none" stroke="#137184" stroke-width="0.8" stroke-miterlimit="10" x1="35.759" y1="15.751" x2="38.8" y2="29.196"/>
	<line fill="none" stroke="#137184" stroke-width="0.8" stroke-miterlimit="10" x1="32.993" y1="29.196" x2="35.759" y2="45.634"/>
	<line fill="none" stroke="#137184" stroke-width="0.8" stroke-miterlimit="10" x1="38.8" y1="29.196" x2="35.657" y2="46.464"/>
	<line fill="none" stroke="#137184" stroke-width="0.8" stroke-miterlimit="10" x1="27.983" y1="57.966" x2="44.069" y2="57.966"/>
	<path fill="none" stroke="#137184" stroke-width="0.8" stroke-miterlimit="10" d="M54.098,54.065"/>
	<line fill="none" stroke="#137184" stroke-width="0.8" stroke-miterlimit="10" x1="54.098" y1="54.065" x2="61.895" y2="46.966"/>
	<line fill="none" stroke="#137184" stroke-width="0.8" stroke-miterlimit="10" x1="69.688" y1="54.065" x2="61.895" y2="46.966"/>
	<line fill="none" stroke="#137184" stroke-width="0.8" stroke-miterlimit="10" x1="9.899" y1="2.895" x2="17.218" y2="-3.882"/>
	<line fill="none" stroke="#137184" stroke-width="0.8" stroke-miterlimit="10" x1="61.895" y1="3.403" x2="54.579" y2="-3.882"/>
	<line fill="none" stroke="#137184" stroke-width="0.8" stroke-miterlimit="10" x1="27.987" y1="57.966" x2="39.481" y2="70.339"/>
	<line fill="none" stroke="#137184" stroke-width="0.8" stroke-miterlimit="10" x1="32.114" y1="70.225" x2="44.069" y2="57.966"/>
</g>
</svg>
