<?xml version="1.0" encoding="utf-8"?>
<!-- Generator: Adobe Illustrator 15.1.0, SVG Export Plug-In . SVG Version: 6.00 Build 0)  -->
<!DOCTYPE svg PUBLIC "-//W3C//DTD SVG 1.1//EN" "http://www.w3.org/Graphics/SVG/1.1/DTD/svg11.dtd">
<svg version="1.1" id="Layer_1" xmlns="http://www.w3.org/2000/svg" xmlns:xlink="http://www.w3.org/1999/xlink" x="0px" y="0px"
	 width="55.346px" height="72.774px" viewBox="0 0 55.346 72.774" enable-background="new 0 0 55.346 72.774" xml:space="preserve">
<g>
	<path fill="none" stroke="#147185" stroke-linecap="round" stroke-linejoin="round" stroke-miterlimit="10" d="M15.17,8.692
		l-1.642-3.564c-0.647-2.542-2.705-4.46-5.25-4.617C5.051,0.313,2.257,3.018,2.04,6.556c-0.217,3.537,2.222,6.565,5.449,6.764
		c2.646,0.164,4.997-1.628,5.88-4.227l0,0L15.17,8.692z"/>
	<polygon fill="none" stroke="#147185" stroke-linecap="round" stroke-linejoin="round" stroke-miterlimit="10" points="
		7.553,68.234 9.284,56.296 8.174,45.199 1.173,45.199 2.284,56.296 0.553,71.569 6.847,71.569 7.553,71.569 12.217,71.569 
		12.217,70.271 7.553,68.387 	"/>
	<polygon fill="none" stroke="#147185" stroke-linecap="round" stroke-linejoin="round" stroke-miterlimit="10" points="
		12.075,68.387 12.075,68.234 12.94,56.143 12.388,45.199 8.174,45.199 9.284,56.296 7.553,68.234 7.553,68.387 12.217,70.271 
		12.217,71.569 16.739,71.569 16.739,70.271 	"/>
	<path fill="none" stroke="#147185" stroke-linecap="round" stroke-linejoin="round" stroke-miterlimit="10" d="M24.39,33.173
		c-0.018-0.018-0.029-0.037-0.046-0.053L9.23,18.803c-1.275-1.204-3.169-1.272-4.233-0.148c-1.063,1.123-0.896,3.013,0.379,4.219
		L20.49,37.191c0.018,0.016,0.037,0.025,0.054,0.043L24.39,33.173z"/>
	<path fill="none" stroke="#147185" stroke-linecap="round" stroke-linejoin="round" stroke-miterlimit="10" d="M5.375,22.874
		c-1.275-1.206-1.442-3.096-0.379-4.219c1.064-1.124,2.958-1.056,4.233,0.148l3.87,3.666v-0.805c0-3.479-2.821-6.3-6.3-6.3
		s-6.3,2.82-6.3,6.3v11.188v4.836v7.511h12.6v-7.511v-4.836v-2.659L5.375,22.874z"/>
	<path fill="none" stroke="#147185" stroke-linecap="round" stroke-linejoin="round" stroke-miterlimit="10" d="M47.467,42.344
		c0-0.024,0.007-0.047,0.007-0.069l0.495-20.813c0.039-1.752-1.18-3.206-2.729-3.242c-1.546-0.035-2.835,1.355-2.877,3.109
		L41.87,42.143c0,0.021,0.005,0.043,0.005,0.068L47.467,42.344z"/>
	<path fill="none" stroke="#147185" stroke-linecap="round" stroke-linejoin="round" stroke-miterlimit="10" d="M36.549,8.692
		l1.643-3.564c0.646-2.542,2.705-4.46,5.25-4.617c3.228-0.197,6.021,2.508,6.238,6.046c0.217,3.537-2.222,6.565-5.449,6.764
		c-2.646,0.164-4.996-1.628-5.879-4.227l0,0L36.549,8.692z"/>
	<path fill="none" stroke="#147185" stroke-linecap="round" stroke-linejoin="round" stroke-miterlimit="10" d="M44.92,15.365
		c3.479,0,6.3,2.82,6.3,6.3v11.188v4.836v7.511H38.619v-7.511v-4.836V21.665C38.619,18.185,41.44,15.365,44.92,15.365z"/>
	<path fill="none" stroke="#147185" stroke-linecap="round" stroke-linejoin="round" stroke-miterlimit="10" d="M38.619,22.741
		l-10.958,10.38c-0.018,0.016-0.029,0.035-0.046,0.053l3.848,4.061c0.018-0.018,0.037-0.027,0.053-0.043l7.104-6.729V22.741z"/>
	<path fill="none" stroke="#147185" stroke-linecap="round" stroke-linejoin="round" stroke-miterlimit="10" d="M53.701,58.661
		c0,1.288-1.043,2.332-2.33,2.332H38.469c-1.287,0-2.332-1.044-2.332-2.332v-7.674c0-1.287,1.045-2.332,2.332-2.332h12.902
		c1.287,0,2.33,1.045,2.33,2.332V58.661z"/>
	<g>
		<polygon fill="none" stroke="#147185" stroke-linecap="round" stroke-linejoin="round" stroke-miterlimit="10" points="
			43.346,48.655 43.166,45.594 45.656,45.199 39.918,45.199 39.572,48.655 		"/>
		<polygon fill="none" stroke="#147185" stroke-linecap="round" stroke-linejoin="round" stroke-miterlimit="10" points="
			47.02,67.005 45.146,60.993 39.486,60.993 40.538,68.234 40.538,68.387 35.872,70.271 35.872,71.569 40.538,71.569 41.244,71.569 
			43.213,71.569 43.121,70.991 47.194,68.539 		"/>
	</g>
	<g>
		<polygon fill="none" stroke="#147185" stroke-linecap="round" stroke-linejoin="round" stroke-miterlimit="10" points="
			50.322,48.655 50.121,45.199 45.656,45.199 43.166,45.594 43.346,48.655 		"/>
		<path fill="none" stroke="#147185" stroke-linecap="round" stroke-linejoin="round" stroke-miterlimit="10" d="M52.178,60.839
			c-0.252,0.095-0.521,0.153-0.807,0.153h-6.225l2.26,7.253l0.024,0.151l-4.31,2.594l0.206,1.283l4.604-0.735l0.699-0.111
			l6.215-0.99L52.178,60.839z"/>
	</g>
	<g>
		<g>
			<path fill="none" stroke="#147185" stroke-linecap="round" stroke-linejoin="round" stroke-miterlimit="10" d="M24.251,37.543
				c-0.479,0.478-0.482,1.256-0.005,1.735l1.203,1.211c0.478,0.479,1.256,0.482,1.735,0.004l2.117-2.104
				c0.48-0.478,0.482-1.256,0.004-1.735l-1.202-1.209c-0.478-0.48-1.254-0.482-1.735-0.005L24.251,37.543z"/>
			<polygon fill="none" stroke="#147185" stroke-linecap="round" stroke-linejoin="round" stroke-miterlimit="10" points="
				23.908,36.382 23.908,36.382 23.908,36.382 23.908,36.382 25.579,34.721 25.579,34.721 25.579,34.721 25.579,34.721 			"/>
		</g>
		<g>
			<path fill="none" stroke="#147185" stroke-linecap="round" stroke-linejoin="round" stroke-miterlimit="10" d="M27.267,37.365
				c0.479,0.477,0.482,1.253,0.005,1.733l-1.203,1.209c-0.476,0.481-1.254,0.482-1.735,0.005l-2.117-2.104
				c-0.479-0.478-0.482-1.256-0.005-1.735l1.203-1.209c0.478-0.48,1.255-0.482,1.734-0.005L27.267,37.365z"/>
			<polygon fill="none" stroke="#147185" stroke-linecap="round" stroke-linejoin="round" stroke-miterlimit="10" points="
				27.612,36.202 27.612,36.202 27.612,36.202 27.612,36.202 25.94,34.541 25.94,34.541 25.94,34.541 25.94,34.541 			"/>
		</g>
	</g>
	
		<line fill="none" stroke="#147185" stroke-linecap="round" stroke-linejoin="round" stroke-miterlimit="10" x1="7.553" y1="68.387" x2="0.66" y2="70.625"/>
	
		<line fill="none" stroke="#147185" stroke-linecap="round" stroke-linejoin="round" stroke-miterlimit="10" x1="47.406" y1="68.246" x2="54.283" y2="69.505"/>
	
		<line fill="none" stroke="#147185" stroke-linecap="round" stroke-linejoin="round" stroke-miterlimit="10" x1="41.135" y1="68.875" x2="44.752" y2="69.505"/>
	
		<line fill="none" stroke="#147185" stroke-linecap="round" stroke-linejoin="round" stroke-miterlimit="10" x1="12.075" y1="68.387" x2="9.543" y2="69.191"/>
	<path fill="none" stroke="#147185" stroke-linecap="round" stroke-linejoin="round" stroke-miterlimit="10" d="M47.928,48.655
		c0.02-0.132,0.041-0.265,0.041-0.4c0-1.688-1.367-3.056-3.054-3.056h-0.326c-1.687,0-3.056,1.367-3.056,3.056
		c0,0.136,0.022,0.269,0.04,0.4H47.928z"/>
	<path fill="none" stroke="#147185" stroke-linecap="round" stroke-linejoin="round" stroke-miterlimit="10" d="M46.956,45.144
		c0,1.123-0.912,2.037-2.036,2.037l0,0c-1.125,0-2.037-0.914-2.037-2.037v-0.766c0-1.122,0.912-2.034,2.037-2.034l0,0
		c1.124,0,2.036,0.912,2.036,2.034V45.144z"/>
	<path fill="none" stroke="#147185" stroke-linecap="round" stroke-linejoin="round" stroke-miterlimit="10" d="M46.956,45.144
		c0,1.123-0.912,2.037-2.036,2.037l0,0c-1.125,0-2.037-0.914-2.037-2.037v-0.766c0-1.122,0.912-2.034,2.037-2.034l0,0
		c1.124,0,2.036,0.912,2.036,2.034V45.144z"/>
	
		<line fill="none" stroke="#147185" stroke-linecap="round" stroke-linejoin="round" stroke-miterlimit="10" x1="40.225" y1="5.67" x2="41.87" y2="5.67"/>
	
		<line fill="none" stroke="#147185" stroke-linecap="round" stroke-linejoin="round" stroke-miterlimit="10" x1="39.449" y1="11.106" x2="41.87" y2="9.919"/>
	
		<line fill="none" stroke="#147185" stroke-linecap="round" stroke-linejoin="round" stroke-miterlimit="10" x1="11.722" y1="5.876" x2="10.3" y2="5.962"/>
	
		<line fill="none" stroke="#147185" stroke-linecap="round" stroke-linejoin="round" stroke-miterlimit="10" x1="12.145" y1="11.261" x2="9.696" y2="9.919"/>
</g>
</svg>
