<?xml version="1.0" encoding="utf-8"?>
<!-- Generator: Adobe Illustrator 15.1.0, SVG Export Plug-In . SVG Version: 6.00 Build 0)  -->
<!DOCTYPE svg PUBLIC "-//W3C//DTD SVG 1.1//EN" "http://www.w3.org/Graphics/SVG/1.1/DTD/svg11.dtd">
<svg version="1.1" id="Layer_1" xmlns="http://www.w3.org/2000/svg" xmlns:xlink="http://www.w3.org/1999/xlink" x="0px" y="0px"
	 width="109.689px" height="144.54px" viewBox="-27.174 -35.883 109.689 144.54"
	 enable-background="new -27.174 -35.883 109.689 144.54" xml:space="preserve">
<g>
	<path fill="none" stroke="#FFFFFF" stroke-linecap="round" stroke-linejoin="round" stroke-miterlimit="10" d="M2.67-19.003
		l-3.287-7.127c-1.291-5.084-5.406-8.92-10.5-9.232c-6.451-0.398-12.039,5.012-12.473,12.088
		c-0.434,7.072,4.443,13.129,10.895,13.527c5.293,0.328,9.994-3.256,11.764-8.455l0,0L2.67-19.003z"/>
	<polygon fill="none" stroke="#FFFFFF" stroke-linecap="round" stroke-linejoin="round" stroke-miterlimit="10" points="
		-12.565,100.081 -9.102,76.204 -11.323,54.009 -25.324,54.009 -23.102,76.204 -26.565,106.751 -13.977,106.751 -12.565,106.751 
		-3.237,106.751 -3.237,104.155 -12.565,100.387 	"/>
	<polygon fill="none" stroke="#FFFFFF" stroke-linecap="round" stroke-linejoin="round" stroke-miterlimit="10" points="
		-3.52,100.387 -3.52,100.081 -1.791,75.899 -2.895,54.009 -11.323,54.009 -9.102,76.204 -12.565,100.081 -12.565,100.387 
		-3.237,104.155 -3.237,106.751 5.806,106.751 5.806,104.155 	"/>
	<path fill="none" stroke="#FFFFFF" stroke-linecap="round" stroke-linejoin="round" stroke-miterlimit="10" d="M21.109,29.958
		c-0.035-0.037-0.059-0.074-0.092-0.105L-9.211,1.218c-2.547-2.406-6.338-2.543-8.463-0.295c-2.127,2.246-1.793,6.027,0.758,8.439
		L13.31,37.995c0.035,0.033,0.07,0.049,0.107,0.086L21.109,29.958z"/>
	<path fill="none" stroke="#FFFFFF" stroke-linecap="round" stroke-linejoin="round" stroke-miterlimit="10" d="M-16.92,9.36
		c-2.551-2.412-2.885-6.193-0.758-8.439c2.125-2.248,5.916-2.111,8.463,0.295l7.74,7.332V6.938c0-6.957-5.643-12.602-12.6-12.602
		c-6.959,0-12.6,5.641-12.6,12.602v22.377v9.672v15.021h25.199V38.987v-9.672v-5.318L-16.92,9.36z"/>
	<path fill="none" stroke="#FFFFFF" stroke-linecap="round" stroke-linejoin="round" stroke-miterlimit="10" d="M67.263,48.3
		c0-0.047,0.014-0.094,0.014-0.137l0.99-41.627c0.078-3.504-2.359-6.412-5.457-6.484c-3.096-0.068-5.674,2.711-5.758,6.219
		L56.07,47.899c0,0.041,0.01,0.086,0.01,0.135L67.263,48.3z"/>
	<path fill="none" stroke="#FFFFFF" stroke-linecap="round" stroke-linejoin="round" stroke-miterlimit="10" d="M45.427-19.003
		l3.285-7.127c1.293-5.084,5.41-8.92,10.5-9.232c6.459-0.395,12.043,5.016,12.477,12.092c0.434,7.072-4.443,13.129-10.898,13.527
		c-5.291,0.328-9.992-3.256-11.758-8.455l0,0L45.427-19.003z"/>
	<path fill="none" stroke="#FFFFFF" stroke-linecap="round" stroke-linejoin="round" stroke-miterlimit="10" d="M62.169-5.657
		c6.957,0,12.6,5.641,12.6,12.602v22.377v9.672v15.02H49.568V38.989v-9.672V6.942C49.568-0.017,55.208-5.657,62.169-5.657z"/>
	<path fill="none" stroke="#FFFFFF" stroke-linecap="round" stroke-linejoin="round" stroke-miterlimit="10" d="M49.568,9.094
		l-21.916,20.76c-0.039,0.033-0.059,0.068-0.092,0.105l7.695,8.123c0.035-0.037,0.074-0.053,0.105-0.086L49.57,24.538L49.568,9.094
		L49.568,9.094z"/>
	<path fill="none" stroke="#FFFFFF" stroke-linecap="round" stroke-linejoin="round" stroke-miterlimit="10" d="M79.732,80.934
		c0,2.574-2.086,4.664-4.66,4.664H49.267c-2.574,0-4.664-2.09-4.664-4.664v-15.35c0-2.572,2.09-4.664,4.664-4.664h25.805
		c2.574,0,4.66,2.092,4.66,4.664V80.934z"/>
	<g>
		<polygon fill="none" stroke="#FFFFFF" stroke-linecap="round" stroke-linejoin="round" stroke-miterlimit="10" points="
			59.021,60.923 58.661,54.8 63.64,54.009 52.165,54.009 51.472,60.923 		"/>
		<polygon fill="none" stroke="#FFFFFF" stroke-linecap="round" stroke-linejoin="round" stroke-miterlimit="10" points="
			66.368,97.622 62.62,85.598 51.3,85.598 53.406,100.081 53.406,100.387 44.073,104.155 44.073,106.751 53.406,106.751 
			54.818,106.751 58.755,106.751 58.572,105.593 66.716,100.69 		"/>
	</g>
	<g>
		<polygon fill="none" stroke="#FFFFFF" stroke-linecap="round" stroke-linejoin="round" stroke-miterlimit="10" points="
			72.972,60.923 72.572,54.009 63.64,54.009 58.661,54.8 59.021,60.923 		"/>
		<path fill="none" stroke="#FFFFFF" stroke-linecap="round" stroke-linejoin="round" stroke-miterlimit="10" d="M76.685,85.29
			c-0.504,0.191-1.041,0.307-1.613,0.307H62.618l4.52,14.506l0.049,0.301l-8.619,5.188l0.412,2.566l9.207-1.469l1.398-0.223
			l12.43-1.979L76.685,85.29z"/>
	</g>
	<g>
		<g>
			<path fill="none" stroke="#FFFFFF" stroke-linecap="round" stroke-linejoin="round" stroke-miterlimit="10" d="M20.832,38.698
				c-0.959,0.957-0.965,2.512-0.01,3.469l2.406,2.422c0.955,0.957,2.512,0.963,3.467,0.01l4.234-4.207
				c0.957-0.957,0.965-2.514,0.008-3.471l-2.404-2.418c-0.955-0.959-2.507-0.963-3.466-0.01L20.832,38.698z"/>
			<polygon fill="none" stroke="#FFFFFF" stroke-linecap="round" stroke-linejoin="round" stroke-miterlimit="10" points="
				20.146,36.376 20.146,36.376 20.146,36.376 20.146,36.376 23.488,33.055 23.488,33.055 23.488,33.055 23.488,33.055 			"/>
		</g>
		<g>
			<path fill="none" stroke="#FFFFFF" stroke-linecap="round" stroke-linejoin="round" stroke-miterlimit="10" d="M26.863,38.343
				c0.959,0.955,0.965,2.508,0.01,3.467l-2.406,2.418c-0.951,0.961-2.508,0.963-3.467,0.01l-4.234-4.209
				c-0.959-0.957-0.965-2.512-0.01-3.469l2.406-2.418c0.955-0.959,2.51-0.965,3.465-0.012L26.863,38.343z"/>
			<polygon fill="none" stroke="#FFFFFF" stroke-linecap="round" stroke-linejoin="round" stroke-miterlimit="10" points="
				27.552,36.016 27.552,36.016 27.552,36.016 27.552,36.016 24.209,32.694 24.209,32.694 24.209,32.694 24.209,32.694 			"/>
		</g>
	</g>
	
		<line fill="none" stroke="#FFFFFF" stroke-linecap="round" stroke-linejoin="round" stroke-miterlimit="10" x1="-12.565" y1="100.387" x2="-26.35" y2="104.862"/>
	
		<line fill="none" stroke="#FFFFFF" stroke-linecap="round" stroke-linejoin="round" stroke-miterlimit="10" x1="67.14" y1="100.104" x2="80.896" y2="102.622"/>
	
		<line fill="none" stroke="#FFFFFF" stroke-linecap="round" stroke-linejoin="round" stroke-miterlimit="10" x1="54.599" y1="101.362" x2="61.833" y2="102.622"/>
	
		<line fill="none" stroke="#FFFFFF" stroke-linecap="round" stroke-linejoin="round" stroke-miterlimit="10" x1="-3.52" y1="100.387" x2="-8.584" y2="101.995"/>
	<path fill="none" stroke="#FFFFFF" stroke-linecap="round" stroke-linejoin="round" stroke-miterlimit="10" d="M68.185,60.923
		c0.043-0.264,0.082-0.529,0.082-0.799c0-3.375-2.734-6.113-6.107-6.113h-0.652c-3.377,0-6.111,2.734-6.111,6.113
		c0,0.273,0.041,0.539,0.08,0.799H68.185z"/>
	<path fill="none" stroke="#FFFFFF" stroke-linecap="round" stroke-linejoin="round" stroke-miterlimit="10" d="M66.241,53.901
		c0,2.246-1.824,4.074-4.072,4.074l0,0c-2.25,0-4.074-1.828-4.074-4.074v-1.533c0-2.244,1.824-4.068,4.074-4.068l0,0
		c2.248,0,4.072,1.824,4.072,4.068V53.901z"/>
	<path fill="none" stroke="#FFFFFF" stroke-linecap="round" stroke-linejoin="round" stroke-miterlimit="10" d="M66.241,53.901
		c0,2.246-1.824,4.074-4.072,4.074l0,0c-2.25,0-4.074-1.828-4.074-4.074v-1.533c0-2.244,1.824-4.068,4.074-4.068l0,0
		c2.248,0,4.072,1.824,4.072,4.068V53.901z"/>
	
		<line fill="none" stroke="#FFFFFF" stroke-linecap="round" stroke-linejoin="round" stroke-miterlimit="10" x1="52.779" y1="-25.048" x2="56.07" y2="-25.048"/>
	
		<line fill="none" stroke="#FFFFFF" stroke-linecap="round" stroke-linejoin="round" stroke-miterlimit="10" x1="51.228" y1="-14.175" x2="56.07" y2="-16.55"/>
	
		<line fill="none" stroke="#FFFFFF" stroke-linecap="round" stroke-linejoin="round" stroke-miterlimit="10" x1="-4.227" y1="-24.636" x2="-7.071" y2="-24.464"/>
	
		<line fill="none" stroke="#FFFFFF" stroke-linecap="round" stroke-linejoin="round" stroke-miterlimit="10" x1="-3.381" y1="-13.866" x2="-8.28" y2="-16.55"/>
</g>
</svg>
