<?xml version="1.0" encoding="utf-8"?>
<!-- Generator: Adobe Illustrator 15.1.0, SVG Export Plug-In . SVG Version: 6.00 Build 0)  -->
<!DOCTYPE svg PUBLIC "-//W3C//DTD SVG 1.1//EN" "http://www.w3.org/Graphics/SVG/1.1/DTD/svg11.dtd">
<svg version="1.1" id="Layer_1" xmlns="http://www.w3.org/2000/svg" xmlns:xlink="http://www.w3.org/1999/xlink" x="0px" y="0px"
	 width="67.251px" height="88.561px" viewBox="-7.266 -7.631 67.251 88.561" enable-background="new -7.266 -7.631 67.251 88.561"
	 xml:space="preserve">
<g>
	<path fill="none" stroke="#FFFFFF" stroke-width="0.8" stroke-linecap="round" stroke-linejoin="round" stroke-miterlimit="10" d="
		M11.071,2.785L9.063-1.574c-0.791-3.109-3.305-5.455-6.42-5.645c-3.945-0.242-7.361,3.066-7.625,7.393
		c-0.266,4.324,2.715,8.027,6.662,8.27C4.917,8.645,7.79,6.453,8.87,3.276l0,0L11.071,2.785z"/>
	
		<polygon fill="none" stroke="#FFFFFF" stroke-width="0.8" stroke-linecap="round" stroke-linejoin="round" stroke-miterlimit="10" points="
		1.759,75.588 3.874,60.992 2.518,47.422 -6.044,47.422 -4.685,60.992 -6.8,79.666 0.893,79.666 1.759,79.666 7.46,79.666 
		7.46,78.08 1.759,75.776 	"/>
	
		<polygon fill="none" stroke="#FFFFFF" stroke-width="0.8" stroke-linecap="round" stroke-linejoin="round" stroke-miterlimit="10" points="
		7.288,75.776 7.288,75.588 8.346,60.805 7.671,47.422 2.518,47.422 3.874,60.992 1.759,75.588 1.759,75.776 7.46,78.08 
		7.46,79.666 12.989,79.666 12.989,78.08 	"/>
	<path fill="none" stroke="#FFFFFF" stroke-width="0.8" stroke-linecap="round" stroke-linejoin="round" stroke-miterlimit="10" d="
		M22.346,32.719c-0.023-0.021-0.037-0.043-0.057-0.064L3.809,15.149c-1.557-1.471-3.875-1.555-5.176-0.182
		c-1.299,1.375-1.096,3.684,0.463,5.158l18.479,17.506c0.023,0.02,0.045,0.033,0.066,0.053L22.346,32.719z"/>
	<path fill="none" stroke="#FFFFFF" stroke-width="0.8" stroke-linecap="round" stroke-linejoin="round" stroke-miterlimit="10" d="
		M-0.904,20.125c-1.559-1.475-1.764-3.785-0.463-5.158c1.301-1.375,3.619-1.291,5.176,0.182l4.732,4.482v-0.984
		c0-4.254-3.449-7.703-7.703-7.703s-7.705,3.449-7.705,7.703v13.68v5.912v9.186H8.54v-9.186v-5.912v-3.252L-0.904,20.125z"/>
	<path fill="none" stroke="#FFFFFF" stroke-width="0.8" stroke-linecap="round" stroke-linejoin="round" stroke-miterlimit="10" d="
		M50.561,43.932c0-0.031,0.008-0.057,0.008-0.084l0.607-25.451c0.045-2.141-1.445-3.92-3.336-3.963s-3.467,1.658-3.52,3.801
		l-0.604,25.451c0,0.027,0.006,0.051,0.006,0.084L50.561,43.932z"/>
	<path fill="none" stroke="#FFFFFF" stroke-width="0.8" stroke-linecap="round" stroke-linejoin="round" stroke-miterlimit="10" d="
		M37.212,2.785l2.008-4.359c0.793-3.109,3.307-5.455,6.42-5.645c3.947-0.242,7.363,3.066,7.627,7.393
		c0.266,4.324-2.717,8.027-6.662,8.27c-3.236,0.201-6.111-1.99-7.189-5.168l0,0L37.212,2.785z"/>
	<path fill="none" stroke="#FFFFFF" stroke-width="0.8" stroke-linecap="round" stroke-linejoin="round" stroke-miterlimit="10" d="
		M47.448,10.944c4.254,0,7.703,3.449,7.703,7.703v13.68v5.912v9.186H39.745v-9.186v-5.912v-13.68
		C39.743,14.393,43.194,10.944,47.448,10.944z"/>
	<path fill="none" stroke="#FFFFFF" stroke-width="0.8" stroke-linecap="round" stroke-linejoin="round" stroke-miterlimit="10" d="
		M39.743,19.963L26.346,32.655c-0.023,0.021-0.037,0.043-0.057,0.064l4.705,4.965c0.023-0.021,0.045-0.035,0.064-0.053l8.686-8.227
		v-9.441H39.743z"/>
	<path fill="none" stroke="#FFFFFF" stroke-width="0.8" stroke-linecap="round" stroke-linejoin="round" stroke-miterlimit="10" d="
		M58.186,63.883c0,1.574-1.277,2.852-2.85,2.852H39.559c-1.574,0-2.852-1.277-2.852-2.852v-9.381c0-1.574,1.277-2.854,2.852-2.854
		h15.777c1.572,0,2.85,1.279,2.85,2.854V63.883z"/>
	<g>
		
			<polygon fill="none" stroke="#FFFFFF" stroke-width="0.8" stroke-linecap="round" stroke-linejoin="round" stroke-miterlimit="10" points="
			45.524,51.649 45.302,47.906 48.348,47.422 41.333,47.422 40.907,51.649 		"/>
		
			<polygon fill="none" stroke="#FFFFFF" stroke-width="0.8" stroke-linecap="round" stroke-linejoin="round" stroke-miterlimit="10" points="
			50.016,74.086 47.723,66.735 40.803,66.735 42.091,75.588 42.091,75.776 36.384,78.08 36.384,79.666 42.091,79.666 42.954,79.666 
			45.362,79.666 45.249,78.959 50.227,75.961 		"/>
	</g>
	<g>
		
			<polygon fill="none" stroke="#FFFFFF" stroke-width="0.8" stroke-linecap="round" stroke-linejoin="round" stroke-miterlimit="10" points="
			54.052,51.649 53.805,47.422 48.348,47.422 45.302,47.906 45.524,51.649 		"/>
		
			<path fill="none" stroke="#FFFFFF" stroke-width="0.8" stroke-linecap="round" stroke-linejoin="round" stroke-miterlimit="10" d="
			M56.321,66.547c-0.307,0.117-0.637,0.188-0.984,0.188h-7.613l2.764,8.869l0.031,0.186l-5.27,3.172l0.252,1.568l5.629-0.898
			l0.854-0.135l7.602-1.211L56.321,66.547z"/>
	</g>
	<g>
		<g>
			
				<path fill="#FFFFFF" stroke="#FFFFFF" stroke-width="0.8" stroke-linecap="round" stroke-linejoin="round" stroke-miterlimit="10" d="
				M22.177,38.063c-0.586,0.584-0.59,1.537-0.006,2.123l1.469,1.48c0.584,0.586,1.537,0.59,2.123,0.006l2.588-2.574
				c0.588-0.584,0.59-1.537,0.006-2.123l-1.471-1.477c-0.584-0.59-1.533-0.592-2.121-0.008L22.177,38.063z"/>
			
				<polygon fill="#FFFFFF" stroke="#FFFFFF" stroke-width="0.8" stroke-linecap="round" stroke-linejoin="round" stroke-miterlimit="10" points="
				21.757,36.643 21.757,36.643 21.757,36.643 21.757,36.643 23.798,34.612 23.798,34.612 23.798,34.612 23.798,34.612 			"/>
		</g>
		<g>
			
				<path fill="#FFFFFF" stroke="#FFFFFF" stroke-width="0.8" stroke-linecap="round" stroke-linejoin="round" stroke-miterlimit="10" d="
				M25.864,37.844c0.586,0.582,0.59,1.531,0.006,2.119l-1.471,1.479c-0.582,0.588-1.533,0.59-2.121,0.006l-2.588-2.572
				c-0.586-0.584-0.59-1.535-0.006-2.121l1.469-1.479c0.584-0.588,1.537-0.59,2.123-0.006L25.864,37.844z"/>
			
				<polygon fill="#FFFFFF" stroke="#FFFFFF" stroke-width="0.8" stroke-linecap="round" stroke-linejoin="round" stroke-miterlimit="10" points="
				26.286,36.422 26.286,36.422 26.286,36.422 26.286,36.422 24.239,34.391 24.239,34.391 24.239,34.391 24.239,34.391 			"/>
		</g>
	</g>
	
		<line fill="none" stroke="#FFFFFF" stroke-width="0.8" stroke-linecap="round" stroke-linejoin="round" stroke-miterlimit="10" x1="1.759" y1="75.776" x2="-6.669" y2="78.512"/>
	
		<line fill="none" stroke="#FFFFFF" stroke-width="0.8" stroke-linecap="round" stroke-linejoin="round" stroke-miterlimit="10" x1="50.487" y1="75.602" x2="58.895" y2="77.143"/>
	
		<line fill="none" stroke="#FFFFFF" stroke-width="0.8" stroke-linecap="round" stroke-linejoin="round" stroke-miterlimit="10" x1="42.819" y1="76.371" x2="47.241" y2="77.143"/>
	
		<line fill="none" stroke="#FFFFFF" stroke-width="0.8" stroke-linecap="round" stroke-linejoin="round" stroke-miterlimit="10" x1="7.288" y1="75.776" x2="4.192" y2="76.758"/>
	<path fill="none" stroke="#FFFFFF" stroke-width="0.8" stroke-linecap="round" stroke-linejoin="round" stroke-miterlimit="10" d="
		M51.124,51.649c0.023-0.162,0.051-0.324,0.051-0.49c0-2.063-1.672-3.734-3.734-3.734h-0.398c-2.063,0-3.736,1.672-3.736,3.734
		c0,0.166,0.029,0.328,0.049,0.49H51.124z"/>
	
		<path fill="#FFFFFF" stroke="#FFFFFF" stroke-width="0.8" stroke-linecap="round" stroke-linejoin="round" stroke-miterlimit="10" d="
		M49.938,47.356c0,1.373-1.117,2.49-2.49,2.49l0,0c-1.377,0-2.49-1.119-2.49-2.49V46.42c0-1.375,1.115-2.488,2.49-2.488l0,0
		c1.375,0,2.49,1.115,2.49,2.488V47.356z"/>
	
		<path fill="#FFFFFF" stroke="#FFFFFF" stroke-width="0.8" stroke-linecap="round" stroke-linejoin="round" stroke-miterlimit="10" d="
		M49.938,47.356c0,1.373-1.117,2.49-2.49,2.49l0,0c-1.377,0-2.49-1.119-2.49-2.49V46.42c0-1.375,1.115-2.488,2.49-2.488l0,0
		c1.375,0,2.49,1.115,2.49,2.488V47.356z"/>
	
		<line fill="none" stroke="#FFFFFF" stroke-width="0.8" stroke-linecap="round" stroke-linejoin="round" stroke-miterlimit="10" x1="41.706" y1="-0.91" x2="43.718" y2="-0.91"/>
	
		<line fill="none" stroke="#FFFFFF" stroke-width="0.8" stroke-linecap="round" stroke-linejoin="round" stroke-miterlimit="10" x1="40.759" y1="5.737" x2="43.718" y2="4.285"/>
	
		<line fill="none" stroke="#FFFFFF" stroke-width="0.8" stroke-linecap="round" stroke-linejoin="round" stroke-miterlimit="10" x1="6.856" y1="-0.658" x2="5.118" y2="-0.552"/>
	
		<line fill="none" stroke="#FFFFFF" stroke-width="0.8" stroke-linecap="round" stroke-linejoin="round" stroke-miterlimit="10" x1="7.372" y1="5.926" x2="4.378" y2="4.285"/>
</g>
</svg>
