<?xml version="1.0" encoding="utf-8"?>
<!-- Generator: Adobe Illustrator 15.1.0, SVG Export Plug-In . SVG Version: 6.00 Build 0)  -->
<!DOCTYPE svg PUBLIC "-//W3C//DTD SVG 1.1//EN" "http://www.w3.org/Graphics/SVG/1.1/DTD/svg11.dtd">
<svg version="1.1" id="Layer_1" xmlns="http://www.w3.org/2000/svg" xmlns:xlink="http://www.w3.org/1999/xlink" x="0px" y="0px"
	 width="198.272px" height="155.531px" viewBox="-49.568 -38.883 198.272 155.531"
	 enable-background="new -49.568 -38.883 198.272 155.531" xml:space="preserve">
<g>
	<polygon fill="#A3A49E" points="32.184,76.074 28.257,93.209 17.669,102.02 15.839,105.129 19.811,114.498 33.231,116.649 
		40.233,114.516 43.343,111.754 48.223,112.688 51.586,100.942 	"/>
	<g>
		<g>
			<polygon fill="#E86E62" points="53.67,95.5 56.213,98 55.479,102.418 49.887,106.621 47.348,103.633 46.759,102.74 
				47.167,100.293 51.869,98.311 			"/>
			<polygon fill="#C66661" points="53.073,99.651 54.09,101.547 47.962,104.078 48.37,101.629 			"/>
		</g>
		<g>
			<polygon fill="#AF9A92" points="94.168,-9.98 87.182,-22.279 73.803,-38.883 73.033,-34.271 75.246,-27.976 68.951,-35.547 
				68.086,-30.355 69.67,-25.646 63.135,-29.107 63.518,-23.414 65.608,-19.953 58.951,-21.806 59.408,-17.429 61.449,-13.683 
				55.877,-14.914 56.74,-10.32 58.254,-7.847 54.289,-5.396 55.49,-1.049 53.397,-0.066 53.684,5.321 52.364,6.133 53.733,11.25 
				52.436,11.922 53.467,15.504 53.082,16.916 54.336,21.826 54.619,21.031 			"/>
			<polygon fill="#A38368" points="54.336,21.826 52.381,27.324 54.426,22.182 			"/>
			<polygon fill="#A38368" points="94.172,-9.982 97.783,-3.631 97.783,-3.631 			"/>
			<polygon fill="#82766A" points="78.85,2.787 98.059,-3.127 94.168,-9.98 54.619,21.031 54.336,21.826 54.426,22.182 
				52.381,27.324 57.758,34.52 			"/>
			<polygon fill="#A38368" points="98.059,-3.127 97.776,-3.629 97.776,-3.629 			"/>
			<polygon fill="#82766A" points="91.893,-7.91 75.483,-27.638 88.225,-5.008 69.908,-25.308 83.84,-2.244 65.848,-19.617 
				81.147,-0.322 56.74,-10.32 58.496,-7.51 72.344,1.387 54.289,-5.396 55.49,-1.049 66.422,2.553 52.364,6.133 61.108,7.889 
				52.436,11.922 53.467,15.504 77.176,3.346 			"/>
			<line fill="none" x1="76.248" y1="3.287" x2="64.119" y2="13.574"/>
			<path fill="#DFD4C3" d="M70.889,39.811l-7.777-2.207l-5.355-3.082l-5.377-7.197c0,0-12.056-11.197-16.595-14.178
				c-4.541-2.984-9.945-2.547-9.945-2.547L9.094,3.987L7.893,4.946L-9.525,7.656l28.68,16.791l-2.4,6.848
				c0,0,4.355,6.986,11.209,12.281l2.42-8.307l17.4,16.922l23.449-11.793L70.889,39.811z"/>
			<polygon fill="#D9CBBA" points="7.895,4.944 9.096,3.987 7.632,3.406 -49.568,-2.734 -34.698,1.381 -44.573,3.731 -28.191,5.873 
				-36.07,8.707 -26.82,10.102 -9.523,7.656 			"/>
			<path fill="#1A5650" d="M115.506,38.526l-10.17,1.254l-1.619,1.297l-2.43,0.418l2.754,6.084l4.09,6.68l2.441-0.334
				c0.834-1.262,1.639-2.363,2.633-3.115c2.883-2.186,6.223-1.777,6.223-1.777l1.1-0.061l-5.166-6.641L115.506,38.526z"/>
			<path fill="#27664F" d="M130.959,47.957l-0.672-1.408l1.033-2.197l1.826-5.621l3.957,1.066l-0.229-0.299l-1.754-3.699
				c0,0-2.063-4.492-7.785-4.855c-0.145-0.041-0.295-0.068-0.447-0.102l-5.893,3.043l-5.49,4.637l-0.143,3.805l5.166,6.641
				l4.879-0.273L130.959,47.957z"/>
			<polygon fill="#655671" points="57.758,34.52 65.19,38.35 64.975,17.574 77.908,2.783 61.721,10.756 54.619,21.031 
				51.901,27.541 			"/>
			<polyline fill="#333035" points="122.75,36.252 123.948,35.27 126.135,34.596 126.877,36.35 126.735,37.217 125.99,38.131 
				124.188,38.272 123.299,37.385 122.949,36.506 			"/>
			<g>
				<g>
					<path fill="#F2BE6B" d="M140.354,48.823l4.947,0.977l1.949-0.852l-6.727-4.691l-3.42-4.457l-3.957-1.066l-1.826,5.621
						l-1.033,2.197l0.672,1.408l0.361-0.049l9.416,3.053c0,0,0.791,0.111,1.859,0.238l-2.553-0.502L140.354,48.823z"/>
					<path fill="#D7973A" d="M148.352,49.715l-1.104-0.768l-1.949,0.852l-4.947-0.977l-0.313,1.877l2.553,0.502
						c1.895,0.223,4.672,0.488,5.469,0.242C149.313,51.061,148.352,49.715,148.352,49.715z"/>
				</g>
				<polygon fill="#DBB43A" points="131.321,47.908 130.287,46.549 131.129,44.617 140.354,48.823 140.041,50.698 				"/>
			</g>
			<polygon fill="#5A4A42" points="136.008,43.574 137.959,44.524 136.805,45.119 			"/>
			<path fill="none" d="M63.112,37.602l8.486,2.412l8.553-1.539l8.143,0.025c-1.223-2.424-1.391-13.859-1.391-13.859l4.186-14.414
				l4.039-5.547l0.77-2.838l2.162-4.969L87.184-22.279L73.803-38.883l-0.77,4.611l2.209,6.295l-6.291-7.57l-0.867,5.191l1.584,4.709
				l-6.535-3.461l0.383,5.695l2.09,3.459l-6.654-1.854l0.457,4.375l2.043,3.746l-5.572-1.229l0.863,4.594l1.514,2.471l-3.963,2.453
				l1.203,4.348l-2.096,0.982l0.289,5.385l-1.32,0.813l1.369,5.119l-1.295,0.672l1.031,3.582l-0.393,1.412l1.344,5.266l-2.043,5.141
				l5.377,7.197L63.112,37.602z"/>
			<path fill="#E6E7E8" d="M104.041,47.578l-2.754-6.084l-1.938,0.33l2.564,7.396l4.563,7.277l2.477-0.121
				c0.586-0.852,1.105-1.682,1.617-2.455l-2.441,0.334L104.041,47.578z"/>
			<path fill="#184A81" d="M126.274,30.735c-6.244-0.924-14.002,3.477-14.002,3.477l-6.938,5.568l10.17-1.254l5.488-4.637
				l5.895-3.041C126.686,30.803,126.481,30.768,126.274,30.735z"/>
			<polygon fill="#603F38" points="108.955,56.379 106.479,56.498 101.916,49.223 86.274,51.498 87.543,69.637 95.205,66.324 
				99.115,64.311 104.004,61.571 107.162,58.731 			"/>
			<polygon fill="#805C51" points="87.543,69.637 86.377,70.311 70.569,55.104 86.274,51.498 			"/>
			<polygon fill="#6E5040" points="101.916,49.223 99.35,41.824 89.905,45.737 78.092,42.834 69.94,45.516 70.569,55.104 
				86.25,52.086 			"/>
			<polygon fill="#9D8D83" points="70.569,55.104 69.94,45.516 71.237,40.397 55.108,47.928 47.788,52.188 54.754,57.498 			"/>
			<polygon fill="#877A73" points="47.788,52.188 39.956,65.696 32.405,75.992 41.993,68.254 54.754,57.498 			"/>
			<polygon fill="#FFF2DF" points="86.377,70.311 86.194,70.131 70.569,55.104 67.987,68.744 68.85,81.334 76.344,87.028 
				83.383,79.465 86.149,70.889 			"/>
			<polygon fill="#F5E2C6" points="95.205,66.324 91.18,71.799 88.112,74.324 83.383,79.465 86.377,70.311 87.543,69.637 			"/>
			<polygon fill="#D6CCC0" points="56.819,67.77 51.717,83.658 68.922,81.789 68.059,69.199 70.569,55.104 			"/>
			<polygon fill="#E3D6CA" points="66.211,93.481 51.717,83.658 68.85,81.334 76.344,87.028 			"/>
			<polygon fill="#BFB5AB" points="70.569,55.104 56.819,67.77 51.717,83.658 32.405,75.992 54.754,57.498 			"/>
			<polygon fill="#E8DED0" points="67.932,69.088 79.68,63.867 70.569,55.104 			"/>
			<polygon fill="#BFA999" points="32.405,75.992 28.366,93.096 37.889,87.5 51.717,83.658 			"/>
			<polygon fill="#655671" points="71.598,40.014 80.153,38.477 88.295,38.5 92.783,39.78 96.703,42.278 99.35,41.824 
				89.905,45.737 78.092,42.834 			"/>
			<polygon fill="#FDF6E3" points="62.377,44.25 51.487,36.436 30.307,12.231 47.788,52.188 			"/>
			<polygon fill="#9D8D83" points="47.788,52.188 30.387,35.266 30.307,12.231 31.891,15.162 			"/>
			<polygon fill="#A8A198" points="30.387,35.266 19.157,24.446 30.307,12.231 			"/>
			<polygon fill="#ACA59E" points="-9.523,7.656 -28.689,12.553 -21.224,15.629 -13.851,16.711 -15.892,18.299 -10.681,20.797 
				-6.765,21.303 -8.013,22.574 12.573,31.492 16.757,31.293 19.157,24.446 			"/>
			<polygon fill="#9D8D83" points="-28.689,12.553 -9.523,7.656 -26.82,10.102 -29.683,12.145 			"/>
			<polygon fill="#766356" points="87.221,8.99 95.139,3.942 94.799,5.131 95.127,4.68 95.897,1.842 98.059,-3.127 78.85,2.787 
				57.758,34.52 63.112,37.602 71.598,40.014 80.153,38.477 80.305,38.477 81.033,25.201 			"/>
			<path fill="#9D8D83" d="M86.905,24.643l4.186-14.414l4.039-5.547l0.25-0.928L87.223,8.99l-6.188,16.211l-0.729,13.275l7.99,0.025
				C87.073,36.076,86.905,24.643,86.905,24.643z"/>
			<polygon fill="#F2E2CE" points="51.717,83.658 48.233,93.893 51.643,100.979 59.276,98.74 63.254,96.221 66.211,93.481 			"/>
			<polygon fill="#DCC3B1" points="37.889,87.5 51.717,83.658 48.233,93.893 40.655,97.125 36.639,92.364 			"/>
			<polygon fill="#585864" points="46.132,104.158 39.317,105.59 32.042,93.707 27.628,101.071 27.399,113.08 37.509,108.449 			"/>
			<g>
				<polygon fill="#E86E62" points="37.448,95.5 39.991,98 39.257,102.418 33.663,106.621 31.124,103.633 30.534,102.74 
					30.944,100.293 35.645,98.311 				"/>
				<polygon fill="#C66661" points="35.645,98.311 36.659,100.209 30.534,102.74 30.944,100.293 				"/>
			</g>
			<polygon fill="#D8CEBF" points="51.643,100.979 48.233,93.893 40.655,97.125 36.639,92.364 37.448,95.5 39.991,98 
				39.257,102.418 37.968,103.391 39.317,105.59 46.132,104.158 			"/>
			<path fill="#DCC3B1" d="M51.643,100.979"/>
			<polygon fill="#949198" points="32.04,90.938 32.042,93.707 35.02,98.574 35.645,98.311 37.448,95.5 36.639,92.364 37.889,87.5 
							"/>
			<polygon fill="#D2C9BB" points="71.549,40.303 57.758,34.52 52.381,27.324 37.651,14.492 30.8,11.065 25.731,11.022 
				30.307,12.231 30.307,12.231 51.487,36.436 62.377,44.25 			"/>
			<polygon fill="#8C7C76" points="78.092,42.834 71.598,40.014 71.121,40.451 69.94,45.516 			"/>
			<path fill="#E2DCD7" d="M30.26,12.52"/>
			<polygon fill="#479578" points="118.592,37.192 123.674,38.039 126.151,40.721 125.098,43.739 			"/>
		</g>
		<polygon fill="#9D998F" points="30.387,35.266 27.968,43.574 29.759,47.656 31.225,60.906 34.296,65.174 41.163,63.617 
			47.788,52.188 		"/>
		<polygon opacity="0.3" fill="#554961" enable-background="new    " points="78.85,2.787 77.908,2.783 64.975,17.574 
			64.975,23.662 		"/>
		<polygon fill="#D9CBBA" points="40.202,34.52 55.891,47.778 47.788,52.188 		"/>
		<polygon opacity="0.5" fill="#554961" enable-background="new    " points="57.758,34.52 73.803,31.492 71.598,40.014 		"/>
		<polygon opacity="0.3" fill="#554961" enable-background="new    " points="95.205,66.324 93.176,69.088 86.377,70.311 
			87.543,69.381 		"/>
		<polygon opacity="0.5" fill="#655671" enable-background="new    " points="19.157,24.446 16.757,31.293 21.26,37.192 
			27.968,43.574 46.344,54.678 47.788,52.188 		"/>
	</g>
	<polygon fill="#BFB5AB" points="30.387,35.266 19.157,24.446 16.757,31.293 21.276,37.211 27.968,43.574 	"/>
</g>
</svg>
