<?xml version="1.0" encoding="utf-8"?>
<!-- Generator: Adobe Illustrator 15.1.0, SVG Export Plug-In . SVG Version: 6.00 Build 0)  -->
<!DOCTYPE svg PUBLIC "-//W3C//DTD SVG 1.1//EN" "http://www.w3.org/Graphics/SVG/1.1/DTD/svg11.dtd">
<svg version="1.1" id="Layer_1" xmlns="http://www.w3.org/2000/svg" xmlns:xlink="http://www.w3.org/1999/xlink" x="0px" y="0px"
	 width="152.637px" height="145.165px" viewBox="-37.897 -36.042 152.637 145.165"
	 enable-background="new -37.897 -36.042 152.637 145.165" xml:space="preserve">
<g>
	<g>
		<polygon fill="none" stroke="#FFFFFF" stroke-miterlimit="10" points="15.002,108.624 -22.894,81.09 -37.371,36.541 
			-22.894,-8.007 15.002,-35.542 61.844,-35.542 99.74,-8.007 114.215,36.541 99.74,81.09 61.844,108.624 		"/>
		<polygon fill="none" stroke="#FFFFFF" stroke-miterlimit="10" points="40.403,93.198 6.719,83.542 -14.851,55.93 -16.074,20.917 
			3.52,-8.133 36.444,-20.118 70.125,-10.459 91.696,17.151 92.918,52.167 73.326,81.213 		"/>
		<line fill="none" stroke="#FFFFFF" stroke-miterlimit="10" x1="3.52" y1="-8.133" x2="15.002" y2="-35.542"/>
		<line fill="none" stroke="#FFFFFF" stroke-miterlimit="10" x1="36.444" y1="-20.118" x2="61.844" y2="-35.542"/>
		<line fill="none" stroke="#FFFFFF" stroke-miterlimit="10" x1="70.125" y1="-10.459" x2="99.74" y2="-8.007"/>
		<line fill="none" stroke="#FFFFFF" stroke-miterlimit="10" x1="91.696" y1="17.151" x2="114.215" y2="38.217"/>
		<line fill="none" stroke="#FFFFFF" stroke-miterlimit="10" x1="92.918" y1="52.167" x2="99.74" y2="81.09"/>
		<line fill="none" stroke="#FFFFFF" stroke-miterlimit="10" x1="73.326" y1="81.213" x2="61.844" y2="108.624"/>
		<line fill="none" stroke="#FFFFFF" stroke-miterlimit="10" x1="40.403" y1="93.198" x2="15.002" y2="108.624"/>
		<line fill="none" stroke="#FFFFFF" stroke-miterlimit="10" x1="6.719" y1="83.542" x2="-22.894" y2="81.09"/>
		<line fill="none" stroke="#FFFFFF" stroke-miterlimit="10" x1="-14.851" y1="55.93" x2="-37.371" y2="36.541"/>
		<line fill="none" stroke="#FFFFFF" stroke-miterlimit="10" x1="-16.074" y1="20.917" x2="-22.894" y2="-8.007"/>
	</g>
	<g>
		<polygon fill="none" stroke="#FFFFFF" stroke-miterlimit="10" points="23.969,81.026 0.582,64.034 -8.347,36.541 0.582,9.048 
			23.969,-7.94 52.875,-7.94 76.262,9.048 85.194,36.541 76.262,64.034 52.875,81.026 		"/>
		<polygon fill="none" stroke="#FFFFFF" stroke-miterlimit="10" points="39.645,71.502 18.86,65.545 5.547,48.504 4.793,26.898 
			16.883,8.972 37.201,1.577 57.987,7.537 71.297,24.577 72.051,46.184 59.961,64.108 		"/>
		<line fill="none" stroke="#FFFFFF" stroke-miterlimit="10" x1="16.883" y1="8.972" x2="23.969" y2="-7.94"/>
		<line fill="none" stroke="#FFFFFF" stroke-miterlimit="10" x1="37.201" y1="1.577" x2="52.875" y2="-7.94"/>
		<line fill="none" stroke="#FFFFFF" stroke-miterlimit="10" x1="57.987" y1="7.537" x2="76.262" y2="9.048"/>
		<line fill="none" stroke="#FFFFFF" stroke-miterlimit="10" x1="71.297" y1="24.577" x2="85.194" y2="37.577"/>
		<line fill="none" stroke="#FFFFFF" stroke-miterlimit="10" x1="72.051" y1="46.184" x2="76.262" y2="64.034"/>
		<line fill="none" stroke="#FFFFFF" stroke-miterlimit="10" x1="59.961" y1="64.108" x2="52.875" y2="81.026"/>
		<line fill="none" stroke="#FFFFFF" stroke-miterlimit="10" x1="39.645" y1="71.502" x2="23.969" y2="81.026"/>
		<line fill="none" stroke="#FFFFFF" stroke-miterlimit="10" x1="18.86" y1="65.545" x2="0.582" y2="64.034"/>
		<line fill="none" stroke="#FFFFFF" stroke-miterlimit="10" x1="5.547" y1="48.504" x2="-8.347" y2="36.541"/>
		<line fill="none" stroke="#FFFFFF" stroke-miterlimit="10" x1="4.793" y1="26.898" x2="0.582" y2="9.048"/>
	</g>
</g>
</svg>
