<?xml version="1.0" encoding="utf-8"?>
<!-- Generator: Adobe Illustrator 15.1.0, SVG Export Plug-In . SVG Version: 6.00 Build 0)  -->
<!DOCTYPE svg PUBLIC "-//W3C//DTD SVG 1.1//EN" "http://www.w3.org/Graphics/SVG/1.1/DTD/svg11.dtd">
<svg version="1.1" id="Layer_1" xmlns="http://www.w3.org/2000/svg" xmlns:xlink="http://www.w3.org/1999/xlink" x="0px" y="0px"
	 width="178.405px" height="117.938px" viewBox="-44.601 -29.485 178.405 117.938"
	 enable-background="new -44.601 -29.485 178.405 117.938" xml:space="preserve">
<g>
	<g>
		<polyline opacity="0.5" fill="#362010" enable-background="new    " points="108.464,19.181 110.078,15.701 109.255,19.127 
			108.464,19.181 		"/>
		<g>
			<polygon fill="#D08F41" points="30.839,-15.797 45.493,-15.797 48.964,-16.951 58.603,-20.037 75.185,-22.545 86.369,-26.789 
				90.613,-29.485 100.447,-29.485 103.529,-27.75 113.746,-25.243 122.041,-24.279 125.126,-24.279 125.126,-21.579 
				130.332,-18.109 130.332,-13.869 133.804,-8.661 132.648,-6.731 128.597,-3.277 123.582,-4.997 119.148,-3.277 115.677,-6.155 
				110.085,-6.542 105.648,-2.493 100.062,-0.371 110.085,2.521 114.324,5.994 116.451,12.905 117.027,16.597 115.099,22.383 
				112.402,22.383 108.546,20.843 108.738,14.671 110.279,12.905 108.546,10.042 101.603,8.305 101.603,11.582 97.361,15.439 
				88.3,16.597 83.285,15.635 80.394,14.091 80.585,10.813 87.335,10.233 87.722,10.193 90.804,9.851 92.873,7.599 87.91,6.958 
				86.703,4.166 86.369,5.994 74.414,7.149 62.652,5.801 57.447,4.643 53.205,6.765 48.578,5.603 43.757,6.379 30.839,17.559 
				25.827,21.031 23.597,22.383 15.605,28.746 10.785,30.672 2.879,41.856 4.423,44.75 4.229,47.063 -2.903,48.028 -4.639,44.942 
				-6.955,41.471 -6.955,36.844 -3.675,33.368 3.458,21.225 13.869,13.705 16.765,9.271 16.571,5.221 9.241,9.271 -4.833,9.271 
				-17.171,3.487 -25.271,-4.997 -24.307,-10.011 -20.065,-10.205 -15.053,-5.581 -9.073,-1.141 -2.327,2.332 9.437,0.211 
				17.533,-4.997 23.511,-12.523 			"/>
			<polyline fill="#EAA847" points="128.255,-5.415 133.253,-7.747 133.804,-8.661 130.332,-13.869 130.332,-18.109 
				125.126,-21.579 116.332,-21.579 112.402,-15.643 115.152,-11.237 119.148,-3.277 124.275,-4.761 128.597,-3.277 			"/>
			<polygon fill="#D7AE6A" points="125.126,-21.579 124.3,-18.155 122.337,-18.155 121.353,-17.281 120.591,-14.336 
				119.611,-17.499 120.591,-22.301 122.041,-24.279 125.126,-24.279 			"/>
			<path fill="#362010" d="M121.738-23.869c-0.113,0.158-4.75,2.008-4.75,2.008l-0.656,3.708l2.703,2.946l1.557,0.874l-0.98-3.162
				l0.98-4.803l1.449-1.978L121.738-23.869z"/>
			<polygon fill="#673714" points="120.591,-22.301 116.988,-21.861 122.041,-24.279 			"/>
			<polygon fill="#825424" points="121.353,-17.281 120.632,-19.137 122.882,-20.993 122.337,-18.155 			"/>
			<polyline fill="#FAC66B" points="120.591,-22.301 124.193,-23.609 125.126,-21.579 125.126,-24.279 122.041,-24.279 
				121.05,-22.933 			"/>
			<path fill="none" stroke="#29B473" stroke-width="0.25" stroke-miterlimit="10" d="M87.527,11.746"/>
			<polygon opacity="0.7" fill="#673714" enable-background="new    " points="86.271,11.746 88.07,13.489 90.119,14.883 
				95.599,14.883 99.283,11.746 101.603,11.582 97.361,15.439 88.3,16.597 83.285,15.635 80.394,14.091 82.263,12.101 			"/>
			<polygon fill="#362010" points="82.593,15.269 82.593,12.905 84.8,11.746 84.8,12.905 85.779,14.257 85.779,11.746 
				89.359,10.005 80.585,10.813 80.394,14.091 			"/>
			<polygon fill="#362010" points="110.279,12.905 110.279,10.005 111.644,12.905 113.5,13.381 113.5,15.269 112.625,16.765 
				113.5,17.307 113.5,20.143 112.625,20.143 112.402,22.383 108.546,20.843 108.738,14.671 			"/>
			<polygon opacity="0.8" fill="#78612F" enable-background="new    " points="106.132,-2.929 111.021,-8.987 115.025,-10.845 
				117.644,-7.458 119.611,-5.168 122.367,-6.887 125.126,-6.887 128.597,-3.277 123.582,-4.997 119.148,-3.277 115.677,-6.155 
				110.085,-6.542 			"/>
			<polygon opacity="0.8" fill="#78612F" enable-background="new    " points="105.648,-2.493 100.623,-6.039 97.347,-4.265 
				99.417,-0.149 99.855,-0.475 			"/>
			<path fill="#362010" d="M89.953-15.643c-0.002,0-0.111,0.082-0.301,0.225c-1.246,0.951-5.914,4.573-5.914,4.573l-1.473,4.805
				l3.27,4.798l3.826,3.928l3.787,4.338l-2.344,2.826l4.309-0.58l1.305-2.576l-1.715-4.906l-7.174-3.6l-0.354-3.523l-2.299-4.42
				L89.953-15.643z"/>
			<polygon opacity="0.7" fill="#673714" enable-background="new    " points="110.279,12.905 108.546,10.042 105.648,4.893 
				110.41,5.797 113.033,8.664 116.332,12.905 114.996,17.333 113.5,18.157 109.595,15.269 			"/>
			<polygon opacity="0.7" fill="#673714" enable-background="new    " points="48.578,5.603 49.443,4.323 52.964,4.893 
				56.099,3.177 63.271,4.391 74.414,7.149 62.652,5.801 57.447,4.643 53.205,6.765 			"/>
			<polygon opacity="0.7" fill="#673714" enable-background="new    " points="116.869,-8.457 119.189,-10.081 120.152,-8.605 
				122.367,-10.081 125.886,-8.605 126.945,-8.605 128.255,-5.415 130.796,-6.887 133.253,-7.747 128.597,-3.277 125.484,-6.517 
				122.367,-6.887 119.611,-5.168 			"/>
			<polygon fill="#362010" points="127.734,-6.681 128.255,-5.415 130.796,-6.887 130.796,-10.845 129.265,-13.765 128.597,-14.991 
				127.734,-13.922 126.292,-13.519 128.171,-13.357 129.894,-10.205 129.976,-7.625 			"/>
			<polygon opacity="0.7" fill="#673714" enable-background="new    " points="117.906,-12.126 119.07,-10.081 120.037,-8.605 
				124.398,-9.183 125.007,-10.845 126.173,-12.126 126.173,-13.519 123.8,-12.041 120.513,-11.061 119.07,-12.617 			"/>
			<polygon opacity="0.7" fill="#673714" enable-background="new    " points="116.988,-21.861 114.832,-17.281 115.91,-14.336 
				120.591,-14.336 116.332,-18.155 			"/>
			<polygon opacity="0.5" fill="#BF8231" enable-background="new    " points="26.529,-7.353 34.277,-12.369 45.625,-11.825 
				49.66,-3.277 48.578,0.33 43.757,6.379 30.839,17.559 24.891,21.601 23.597,22.383 15.605,28.746 11.523,30.381 10.785,30.672 
				2.879,41.856 4.423,44.75 1.539,44.75 -0.425,40.661 8.739,26.475 13.325,25.491 17.799,20.143 22.599,13.705 21.073,7.599 
				21.073,2.141 			"/>
			<path fill="#EECE5F" d="M13.869,13.705"/>
			<path opacity="0.6" fill="#362010" enable-background="new    " d="M-4.077,45.942c-0.213-0.379,0-3.971,0-3.971l5.726-8.072
				l0.982-2.84l2.51-3.49l1.418-2.075l0.434-2.509l1.204-1.854l2.4-1.204l5.565-3.732l3.49-7.396l1.422-1.2V2.141l5.456-9.492
				l-8.404,9.818l-4.258,4.248l2.702-1.494l0.194,4.05l-2.895,4.434L3.458,21.227l-7.134,12.141l-3.018,3.201l-0.262,4.902
				L-4.077,45.942z"/>
			<path fill="none" stroke="#362010" stroke-miterlimit="10" d="M-0.425,31.278"/>
			<path opacity="0.6" fill="#612D10" enable-background="new    " d="M-25.271-4.997c0,0,6.404-0.158,6.076,0
				c-0.326,0.153,5.458,6.701,5.458,6.701l10.472,5.446H9.723l6.848-1.93l-7.33,4.05H-4.833l-12.338-5.784L-25.271-4.997z"/>
			<polygon opacity="0.7" fill="#673714" enable-background="new    " points="90.613,-29.485 87.527,-24.279 75.087,-19.137 
				58.603,-20.037 75.185,-22.545 86.369,-26.789 			"/>
			<path opacity="0.5" fill="#EECE5F" enable-background="new    " d="M25.981,15.269c0,0,16.042-20.558,15.714-20.34
				c-0.328,0.228-11.674-1.61-11.674-1.61l-3.492,5.765L25.981,15.269z"/>
			<polygon opacity="0.3" fill="#362010" enable-background="new    " points="49.66,-3.277 61.492,-9.533 75.185,-22.545 
				58.603,-20.037 45.493,-15.797 34.277,-12.369 45.625,-11.825 			"/>
			<polygon opacity="0.5" fill="#362010" enable-background="new    " points="97.347,-4.265 93.853,-8.605 87.173,-5.334 
				84.406,-2.899 82.263,-6.039 84.875,-9.317 94.398,-10.081 100.623,-6.039 			"/>
			<polygon opacity="0.8" fill="#EECE5F" enable-background="new    " points="105.648,-2.493 105.648,-11.497 100.623,-16.517 
				94.074,-17.281 100.623,-17.281 108.546,-12.911 109.703,-7.353 110.085,-6.542 			"/>
			<polygon opacity="0.8" fill="#EECE5F" enable-background="new    " points="101.603,7.923 99.417,-0.149 97.347,-4.265 
				93.853,-8.605 87.527,-5.506 96.417,1.269 99.093,4.893 99.283,11.746 101.603,11.582 			"/>
			<polygon opacity="0.8" fill="#EECE5F" enable-background="new    " points="105.648,4.893 100.185,-0.149 110.085,2.521 
				114.324,5.994 116.332,12.531 116.402,12.931 117.027,16.597 115.099,22.383 113.5,18.157 114.996,17.333 110.41,5.797 			"/>
			<polygon fill="#78612F" points="112.402,22.383 115.099,22.383 113.5,18.157 112.402,19.711 			"/>
			<polygon opacity="0.8" fill="#78612F" enable-background="new    " points="85.779,11.746 89.359,10.005 90.996,12.639 
				95.386,12.905 99.201,8.687 99.283,11.746 95.599,14.883 90.119,14.883 			"/>
			<polygon opacity="0.7" fill="#673714" enable-background="new    " points="90.613,-29.485 99.283,-26.883 110.085,-16.081 
				109.703,-7.353 110.085,-6.542 115.677,-6.155 114.832,-14.336 112.402,-15.643 116.332,-21.579 122.041,-24.279 
				115.582,-25.029 103.529,-27.75 100.447,-29.485 			"/>
			<polygon opacity="0.5" fill="#78612F" enable-background="new    " points="124.3,-18.155 126.582,-13.603 124.324,-12.369 
				124.3,-15.643 122.337,-18.155 			"/>
			<polygon opacity="0.5" fill="#78612F" enable-background="new    " points="124.398,-9.183 126.582,-10.845 129.894,-10.205 
				128.708,-12.369 126.173,-12.126 125.007,-10.845 			"/>
			<polygon opacity="0.8" fill="#EECE5F" enable-background="new    " points="129.976,-7.625 129.894,-10.205 126.582,-10.845 
				124.398,-9.183 125.886,-8.605 126.582,-8.605 127.734,-6.681 			"/>
			<polygon fill="#FDE58A" points="128.021,-10.567 127.734,-6.681 129.976,-7.625 129.976,-10.567 			"/>
			<polygon opacity="0.5" fill="#362010" enable-background="new    " points="120.591,-14.336 120.513,-11.061 120.037,-8.605 
				124.275,-4.761 119.148,-3.277 117.714,-11.715 			"/>
			<polygon opacity="0.5" fill="#EAA847" enable-background="new    " points="75.087,-19.137 83.734,-10.845 82.263,-6.039 
				73.996,1.567 49.66,-3.277 61.492,-9.533 73.554,-20.993 			"/>
			<polygon opacity="0.8" fill="#EECE5F" enable-background="new    " points="-25.271,-4.997 -19.195,-4.997 -17.795,-8.109 
				-20.065,-10.205 -24.307,-10.011 			"/>
			<polygon opacity="0.5" fill="#BF8231" enable-background="new    " points="-2.327,2.332 9.785,3.779 17.165,-4.761 9.437,0.211 
							"/>
			<polygon fill="#FDE58A" points="133.804,-8.661 132.484,-8.605 130.796,-10.845 129.398,-13.519 130.332,-13.869 			"/>
			<polygon opacity="0.7" fill="#673714" enable-background="new    " points="17.533,-4.997 30.839,-15.797 23.511,-12.523 			"/>
			<polygon opacity="0.5" fill="#362010" enable-background="new    " points="-17.795,-8.109 -19.195,-4.997 -19.195,-3.277 
				-22.877,-2.493 -20.335,0.175 -16.765,-1.792 -15.701,-3.965 -16.042,-6.491 			"/>
			<polygon fill="#362010" points="-13.557,-4.465 -13.557,-1.46 -15.701,0.175 -19.003,1.567 -17.171,3.487 -14.611,3.177 
				-11.337,-0.491 -11.709,-3.099 			"/>
			<polygon fill="#362010" points="-9.683,-1.595 -10.248,2.578 -13.593,5.164 -11.639,6.078 -10.137,4.295 -9.155,2.241 
				-9.155,-0.491 			"/>
			<polygon fill="#362010" points="-7.809,-0.491 -6.955,3.177 -9.155,6.078 -6.955,7.149 -5.881,3.779 -6.955,0.175 			"/>
			<polygon fill="#362010" points="-4.351,1.29 -4.351,4.893 -6.319,7.149 -3.265,5.164 			"/>
			<polygon fill="#EAA847" points="45.521,-11.539 45.521,-4.551 43.757,6.379 48.578,0.33 49.66,-3.277 			"/>
			<polygon fill="#362010" points="-1.625,3.177 -0.425,4.893 -0.425,6.29 -2.327,8.251 -2.327,5.717 			"/>
			<polygon fill="#362010" points="2.185,2.871 1.649,5.164 2.185,8.251 3.067,5.559 3.067,3.779 			"/>
			<polygon fill="#362010" points="3.067,9.271 5.467,9.271 7.418,7.149 6.668,4.893 5.243,7.599 			"/>
			<polygon fill="#362010" points="9.241,9.271 10.925,4.893 11.695,7.916 			"/>
			<polygon fill="#362010" points="6.223,0.787 9.437,0.211 9.785,3.779 			"/>
			<polygon fill="#362010" points="12.781,2.241 11.695,3.779 14.307,3.779 			"/>
			<polygon fill="#362010" points="13.869,-0.949 12.873,0.211 14.958,1.567 			"/>
			<polygon fill="#362010" points="4.423,44.75 4.229,47.063 1.649,47.411 -2.903,48.028 -3.825,46.387 -2.327,43.168 
				-2.327,41.315 -0.425,40.661 1.649,44.344 			"/>
			<g>
				<polygon fill="#362010" points="35.705,-11.193 34.441,-10.681 33.681,-11.427 34.475,-12.401 35.725,-12.265 				"/>
				<polygon fill="#362010" points="39.171,-10.857 37.887,-10.259 36.947,-11.187 37.651,-12.359 39.025,-12.159 				"/>
				<polygon fill="#362010" points="42.637,-10.519 41.334,-9.836 40.215,-10.945 40.827,-12.317 42.325,-12.057 				"/>
				<polygon fill="#362010" points="46.103,-10.183 44.783,-9.415 43.483,-10.705 44.002,-12.275 45.626,-11.951 				"/>
				<polygon fill="#362010" points="43.979,-5.499 42.655,-4.729 41.391,-5.965 41.931,-7.497 43.531,-7.208 				"/>
				<polygon fill="#362010" points="41.853,-0.815 40.529,-0.042 39.297,-1.223 39.857,-2.721 41.439,-2.467 				"/>
				<polygon fill="#362010" points="39.729,3.869 38.401,4.643 37.203,3.519 37.785,2.057 39.343,2.275 				"/>
				<polygon fill="#362010" points="36.533,7.459 35.063,8.317 33.853,7.281 34.575,5.785 36.231,5.897 				"/>
				<polygon fill="#362010" points="33.341,11.049 31.721,11.989 30.5,11.043 31.365,9.515 33.117,9.517 				"/>
				<polygon fill="#362010" points="30.147,14.639 28.381,15.662 27.149,14.805 28.155,13.246 30.005,13.141 				"/>
			</g>
			<g>
				<polygon fill="#362010" points="42.631,-13.657 41.255,-13.203 40.525,-14.079 41.441,-15.073 42.747,-14.813 				"/>
				<polygon fill="#362010" points="46.246,-12.993 44.841,-12.449 43.937,-13.537 44.777,-14.754 46.207,-14.417 				"/>
				<polygon fill="#362010" points="49.859,-12.329 48.427,-11.695 47.349,-12.995 48.115,-14.437 49.664,-14.021 				"/>
				<polygon fill="#362010" points="53.476,-11.665 52.013,-10.941 50.763,-12.453 51.451,-14.117 53.126,-13.625 				"/>
				<polygon fill="#362010" points="50.824,-6.754 49.363,-6.031 48.14,-7.483 48.847,-9.105 50.505,-8.651 				"/>
				<polygon fill="#362010" points="48.171,-1.847 46.714,-1.123 45.519,-2.511 46.242,-4.09 47.886,-3.679 				"/>
				<polygon fill="#362010" points="45.521,3.061 44.061,3.787 42.897,2.461 43.641,0.921 45.263,1.295 				"/>
				<polygon fill="#362010" points="41.845,6.687 40.223,7.494 39.041,6.261 39.935,4.699 41.667,4.965 				"/>
				<polygon fill="#362010" points="38.168,10.315 36.383,11.199 35.185,10.061 36.229,8.475 38.073,8.635 				"/>
				<polygon fill="#362010" points="34.493,13.941 32.545,14.905 31.329,13.863 32.523,12.253 34.477,12.305 				"/>
			</g>
			<g>
				<polygon fill="#362010" points="48.91,3.343 47.771,3.881 46.902,2.965 47.509,1.853 48.75,2.087 				"/>
				<polygon fill="#362010" points="51.644,-0.851 50.5,-0.313 49.636,-1.229 50.238,-2.338 51.48,-2.105 				"/>
				<polygon fill="#362010" points="54.371,-5.042 53.23,-4.504 52.363,-5.422 52.968,-6.529 54.21,-6.299 				"/>
				<polygon fill="#362010" points="57.101,-9.237 55.958,-8.697 55.093,-9.615 55.697,-10.721 56.939,-10.491 				"/>
				<polygon fill="#362010" points="60.207,-12.393 58.953,-11.799 58.099,-12.601 58.824,-13.689 60.128,-13.563 				"/>
				<polygon fill="#362010" points="63.316,-15.549 61.945,-14.901 61.105,-15.584 61.953,-16.655 63.316,-16.635 				"/>
				<polygon fill="#362010" points="66.417,-18.703 64.939,-18 64.111,-18.571 65.078,-19.621 66.507,-19.707 				"/>
			</g>
			<g>
				<polygon fill="#362010" points="71.238,-18.875 70.189,-18.963 69.947,-19.991 70.847,-20.533 71.648,-19.849 				"/>
				<polygon fill="#362010" points="68.46,-15.851 67.275,-15.787 66.871,-16.792 67.812,-17.479 68.792,-16.899 				"/>
				<polygon fill="#362010" points="65.685,-12.827 64.359,-12.609 63.796,-13.597 64.773,-14.42 65.941,-13.949 				"/>
				<polygon fill="#362010" points="62.906,-9.803 61.445,-9.433 60.722,-10.399 61.734,-11.365 63.087,-10.999 				"/>
				<polygon fill="#362010" points="60.183,-6.791 58.857,-6.571 58.292,-7.559 59.271,-8.385 60.439,-7.911 				"/>
				<polygon fill="#362010" points="57.457,-3.777 56.269,-3.71 55.867,-4.719 56.808,-5.403 57.789,-4.823 				"/>
				<polygon fill="#362010" points="54.734,-0.765 53.681,-0.851 53.439,-1.876 54.341,-2.422 55.14,-1.735 				"/>
			</g>
			<g>
				<polygon fill="#362010" points="65.402,3.673 64.57,4.167 63.734,3.349 64.05,2.347 65.078,2.551 				"/>
				<polygon fill="#362010" points="68.375,0.121 67.546,0.617 66.707,-0.203 67.023,-1.203 68.054,-1 				"/>
				<polygon fill="#362010" points="71.347,-3.429 70.515,-2.933 69.681,-3.752 69.996,-4.754 71.025,-4.551 				"/>
				<polygon fill="#362010" points="74.316,-6.981 73.488,-6.483 72.652,-7.305 72.968,-8.305 73.996,-8.103 				"/>
				<polygon fill="#362010" points="77.958,-10.243 77.128,-9.745 76.328,-10.511 76.66,-11.477 77.671,-11.309 				"/>
				<polygon fill="#362010" points="81.599,-13.504 80.769,-13.009 80,-13.719 80.355,-14.649 81.343,-14.515 				"/>
				<polygon fill="#362010" points="85.238,-16.767 84.41,-16.273 83.673,-16.924 84.05,-17.821 85.017,-17.721 				"/>
				<polygon fill="#362010" points="75.89,-10.873 75.111,-11.338 75.304,-12.223 76.201,-12.297 76.566,-11.467 				"/>
				<polygon fill="#362010" points="67.373,-5.475 66.55,-5.752 66.558,-6.623 67.386,-6.873 67.89,-6.165 				"/>
				<polygon fill="#362010" points="58.853,-0.075 57.984,-0.168 57.816,-1.025 58.566,-1.449 59.214,-0.865 				"/>
				<polygon fill="#362010" points="61.708,-2.747 60.746,-2.853 60.558,-3.801 61.394,-4.275 62.109,-3.626 				"/>
				<polygon fill="#362010" points="64.566,-5.418 63.509,-5.539 63.296,-6.577 64.218,-7.099 65,-6.387 				"/>
				<polygon fill="#362010" points="67.417,-8.09 66.271,-8.223 66.039,-9.355 67.046,-9.924 67.898,-9.147 				"/>
				<polygon fill="#362010" points="69.902,-10.849 68.753,-10.981 68.521,-12.113 69.527,-12.683 70.378,-11.903 				"/>
				<polygon fill="#362010" points="72.382,-13.609 71.234,-13.737 71.005,-14.871 72.009,-15.441 72.863,-14.659 				"/>
				<polygon fill="#362010" points="74.865,-16.367 73.718,-16.495 73.488,-17.629 74.492,-18.199 75.345,-17.417 				"/>
				<polygon fill="#362010" points="79.183,-18.147 78.078,-18.309 77.894,-19.411 78.882,-19.929 79.679,-19.145 				"/>
				<polygon fill="#362010" points="83.5,-19.927 82.439,-20.123 82.3,-21.193 83.271,-21.657 84.011,-20.873 				"/>
				<polygon fill="#362010" points="87.816,-21.705 86.8,-21.939 86.705,-22.973 87.66,-23.385 88.345,-22.603 				"/>
				<polygon fill="#362010" points="84.648,-19.309 83.632,-19.539 83.537,-20.573 84.492,-20.985 85.179,-20.203 				"/>
				<polygon fill="#362010" points="81.48,-16.909 80.464,-17.141 80.369,-18.174 81.324,-18.584 82.011,-17.805 				"/>
				<polygon fill="#362010" points="78.312,-14.513 77.3,-14.743 77.201,-15.777 78.156,-16.187 78.845,-15.405 				"/>
				<polygon fill="#362010" points="75.621,-11.905 74.66,-12.125 74.57,-13.103 75.476,-13.491 76.126,-12.749 				"/>
				<polygon fill="#362010" points="72.929,-9.297 72.025,-9.504 71.941,-10.429 72.792,-10.795 73.406,-10.095 				"/>
				<polygon fill="#362010" points="70.238,-6.691 69.39,-6.887 69.312,-7.754 70.111,-8.101 70.687,-7.441 				"/>
				<polygon fill="#362010" points="67.033,-3.703 66.267,-4.051 66.359,-4.881 67.177,-5.053 67.595,-4.323 				"/>
				<polygon fill="#362010" points="63.824,-0.715 63.148,-1.213 63.406,-2.006 64.242,-2.004 64.503,-1.207 				"/>
				<polygon fill="#362010" points="61.41,1.91 60.617,2.273 60.025,1.625 60.457,0.867 61.312,1.043 				"/>
				<polygon fill="#362010" points="72.726,-7.371 71.914,-6.963 71.277,-7.615 71.691,-8.417 72.582,-8.269 				"/>
				<polygon fill="#362010" points="84.035,-16.651 83.218,-16.199 82.531,-16.853 82.923,-17.703 83.851,-17.579 				"/>
				<polygon fill="#362010" points="95.347,-25.931 94.515,-25.437 93.783,-26.093 94.156,-26.987 95.123,-26.889 				"/>
				<polygon fill="#362010" points="96.917,-26.531 96.089,-26.037 95.355,-26.693 95.73,-27.586 96.697,-27.489 				"/>
				<polygon fill="#362010" points="98.492,-27.133 97.66,-26.637 96.927,-27.291 97.304,-28.187 98.271,-28.09 				"/>
				<polygon fill="#362010" points="100.066,-27.733 99.234,-27.237 98.5,-27.891 98.876,-28.785 99.845,-28.693 				"/>
			</g>
			<g>
				<polygon fill="#362010" points="104.339,-26.141 103.636,-25.834 103.123,-26.407 103.509,-27.073 104.263,-26.907 				"/>
				<polygon fill="#362010" points="107.679,-25.117 106.976,-24.811 106.464,-25.383 106.849,-26.049 107.603,-25.885 				"/>
				<polygon fill="#362010" points="111.017,-24.093 110.316,-23.787 109.804,-24.359 110.189,-25.025 110.943,-24.863 				"/>
				<polygon fill="#362010" points="114.357,-23.069 113.652,-22.763 113.144,-23.336 113.529,-24 114.283,-23.84 				"/>
			</g>
			<g>
				<polygon fill="#362010" points="77.054,2.557 75.958,3.015 75.185,2.111 75.808,1.097 76.964,1.374 				"/>
				<polygon fill="#362010" points="78.619,0.139 77.652,0.542 76.972,-0.254 77.519,-1.149 78.539,-0.903 				"/>
				<polygon fill="#362010" points="80.183,-2.281 79.347,-1.931 78.761,-2.621 79.234,-3.395 80.113,-3.181 				"/>
				<polygon fill="#362010" points="81.746,-4.699 81.041,-4.405 80.55,-4.987 80.947,-5.639 81.689,-5.457 				"/>
			</g>
			<polygon fill="#362010" points="29.537,17.417 29.051,18.419 27.949,18.259 27.757,17.169 28.739,16.641 			"/>
			<polygon fill="#362010" points="21.803,22.673 21.315,23.673 20.215,23.519 20.025,22.421 21.005,21.901 			"/>
			<polygon fill="#362010" points="15.851,24.447 15.361,25.447 14.263,25.292 14.069,24.195 15.053,23.673 			"/>
			<polygon fill="#362010" points="11.359,26.979 10.873,27.983 9.771,27.828 9.577,26.731 10.559,26.211 			"/>
			<polygon fill="#362010" points="6.613,32.629 6.125,33.627 5.025,33.475 4.831,32.379 5.815,31.86 			"/>
			<polygon fill="#362010" points="2.537,35.247 2.049,36.247 0.949,36.094 0.757,34.997 1.739,34.477 			"/>
			<polygon fill="#362010" points="20.911,19.667 20.359,20.799 18.945,20.542 18.623,19.253 19.839,18.715 			"/>
			<polygon fill="#362010" points="25.811,13.803 25.069,15.321 23.393,15.087 23.101,13.423 24.597,12.625 			"/>
			<g>
				<polygon fill="#362010" points="14.371,21.901 13.869,19.927 15.185,18.715 16.497,19.927 15.995,21.901 				"/>
				<polygon fill="#362010" points="17.643,17.263 17.375,15.557 18.645,14.748 19.697,15.943 19.079,17.503 				"/>
				<polygon fill="#362010" points="20.913,12.621 20.879,11.185 22.107,10.781 22.899,11.961 22.161,13.101 				"/>
				<polygon fill="#362010" points="26.101,7.977 25.245,8.703 24.185,7.981 24.383,6.813 25.567,6.813 				"/>
				<polygon fill="#362010" points="24.863,5.805 24.063,6.483 23.067,5.807 23.255,4.715 24.363,4.713 				"/>
				<polygon fill="#362010" points="23.625,3.631 22.879,4.263 21.951,3.633 22.126,2.615 23.159,2.613 				"/>
				<polygon fill="#362010" points="22.387,1.458 21.695,2.043 20.834,1.459 20.997,0.515 21.955,0.513 				"/>
			</g>
			<g>
				<polygon fill="#362010" points="25.899,0.751 24.991,1.093 24.387,0.337 24.921,-0.471 25.853,-0.213 				"/>
				<polygon fill="#362010" points="27.797,-2.489 26.889,-2.149 26.287,-2.903 26.819,-3.71 27.75,-3.455 				"/>
				<polygon fill="#362010" points="29.695,-5.731 28.787,-5.391 28.185,-6.145 28.717,-6.951 29.649,-6.697 				"/>
				<polygon fill="#362010" points="31.595,-8.971 30.687,-8.631 30.084,-9.385 30.615,-10.193 31.547,-9.939 				"/>
			</g>
			<polygon fill="#362010" points="28.511,4.733 27.605,5.076 27.002,4.319 27.533,3.513 28.467,3.765 			"/>
			<polygon fill="#362010" points="32.347,2.011 31.441,2.351 30.839,1.593 31.371,0.787 32.303,1.045 			"/>
			<polygon fill="#362010" points="28.745,-0.321 27.841,0.021 27.237,-0.739 27.769,-1.547 28.699,-1.289 			"/>
			<polygon fill="#362010" points="32.623,-3.405 31.577,-3.881 31.703,-5.021 32.827,-5.254 33.397,-4.256 			"/>
			<polygon fill="#362010" points="37.337,-3.041 36.291,-3.517 36.417,-4.657 37.542,-4.891 38.111,-3.889 			"/>
			<polygon fill="#362010" points="29.675,8.078 28.629,7.599 28.757,6.459 29.879,6.225 30.447,7.221 			"/>
			<polygon fill="#362010" points="33.047,5.565 32,5.091 32.126,3.949 33.255,3.719 33.819,4.715 			"/>
			<polygon fill="#362010" points="35.757,0.333 34.493,0.809 33.649,-0.245 34.393,-1.371 35.693,-1.013 			"/>
			<polygon fill="#362010" points="37.203,-6.771 36.005,-6.323 35.207,-7.317 35.911,-8.381 37.141,-8.045 			"/>
			<path fill="#362010" d="M16.051-2.422c0,0,3.275-0.038,3.025,0c-0.242,0.033-1.544-0.982-1.544-0.982l-0.826-1.061L16.051-2.422z
				"/>
			<polyline fill="#362010" points="20.834,-2.899 21.611,-3.695 20.834,-4.997 20.161,-6.691 19.093,-5.639 20.161,-4.405 
				20.353,-2.899 			"/>
			<polygon fill="#362010" points="22.387,-8.109 24.185,-7.605 24.185,-6.323 22.387,-6.691 			"/>
			<polyline fill="#362010" points="23.511,-12.523 23.597,-10.845 24.617,-9.924 23.101,-9.71 22.387,-10.845 23.285,-12.237 			
				"/>
			<polyline opacity="0.2" fill="#262261" enable-background="new    " points="-1.375,34.477 -6.955,41.471 -6.955,36.844 
				-3.825,33.627 3.458,21.225 			"/>
			<g>
				<polygon fill="#362010" points="69.312,2.871 68.214,3.351 67.414,2.453 68.021,1.421 69.193,1.677 				"/>
				<polygon fill="#362010" points="73.353,-0.857 72.32,-0.405 71.57,-1.25 72.144,-2.219 73.242,-1.979 				"/>
				<polygon fill="#362010" points="77.398,-4.584 76.431,-4.161 75.73,-4.953 76.261,-5.859 77.292,-5.635 				"/>
				<polygon fill="#362010" points="81.439,-8.313 80.541,-7.918 79.886,-8.657 80.382,-9.5 81.343,-9.291 				"/>
				<polygon fill="#362010" points="85.031,-12.603 84.132,-12.208 83.48,-12.945 83.976,-13.791 84.935,-13.581 				"/>
				<polygon fill="#362010" points="88.625,-16.893 87.726,-16.499 87.07,-17.235 87.566,-18.081 88.527,-17.869 				"/>
				<polygon fill="#362010" points="92.218,-21.183 91.316,-20.789 90.664,-21.525 91.16,-22.371 92.119,-22.159 				"/>
				<polygon fill="#362010" points="96.023,-21.633 95.123,-21.239 94.472,-21.975 94.968,-22.821 95.925,-22.609 				"/>
				<polygon fill="#362010" points="99.828,-22.083 98.927,-21.691 98.275,-22.422 98.773,-23.271 99.73,-23.061 				"/>
				<polygon fill="#362010" points="103.636,-22.533 102.734,-22.141 102.078,-22.873 102.578,-23.721 103.537,-23.513 				"/>
				<polygon fill="#362010" points="100.472,-20.401 99.574,-20.109 99.017,-20.865 99.566,-21.631 100.464,-21.345 				"/>
				<polygon fill="#362010" points="97.308,-18.269 96.417,-18.075 95.955,-18.855 96.558,-19.539 97.394,-19.177 				"/>
				<polygon fill="#362010" points="94.144,-16.137 93.259,-16.041 92.894,-16.847 93.546,-17.447 94.32,-17.011 				"/>
				<polygon fill="#362010" points="92.226,-13.369 91.164,-13.252 90.722,-14.221 91.505,-14.945 92.439,-14.418 				"/>
				<polygon fill="#362010" points="90.308,-10.603 89.066,-10.463 88.55,-11.597 89.468,-12.441 90.558,-11.827 				"/>
				<polygon fill="#362010" points="88.39,-7.834 86.972,-7.674 86.382,-8.971 87.429,-9.939 88.673,-9.235 				"/>
			</g>
			<g>
				<polygon fill="#362010" points="91.365,-7.913 90.453,-7.807 90.07,-8.643 90.746,-9.265 91.55,-8.815 				"/>
				<polygon fill="#362010" points="93.667,-9.857 92.685,-9.741 92.273,-10.643 93,-11.315 93.865,-10.829 				"/>
				<polygon fill="#362010" points="95.972,-11.799 94.914,-11.677 94.476,-12.643 95.257,-13.363 96.183,-12.843 				"/>
				<polygon fill="#362010" points="98.277,-13.743 97.148,-13.611 96.677,-14.643 97.511,-15.413 98.5,-14.857 				"/>
				<polygon fill="#362010" points="100.714,-15.807 99.667,-15.685 99.234,-16.643 100.005,-17.355 100.921,-16.838 				"/>
				<polygon fill="#362010" points="103.152,-17.869 102.189,-17.759 101.785,-18.641 102.5,-19.299 103.345,-18.823 				"/>
				<polygon fill="#362010" points="105.591,-19.933 104.708,-19.833 104.339,-20.639 104.992,-21.241 105.767,-20.807 				"/>
				<polygon fill="#362010" points="107.816,-20.017 106.935,-19.917 106.566,-20.725 107.222,-21.323 107.996,-20.891 				"/>
				<polygon fill="#362010" points="110.046,-20.103 109.164,-20 108.796,-20.811 109.447,-21.407 110.222,-20.975 				"/>
				<polygon fill="#362010" points="112.273,-20.189 111.39,-20.086 111.021,-20.895 111.673,-21.491 112.451,-21.057 				"/>
			</g>
			<g>
				<polygon fill="#362010" points="101.771,-6.84 100.48,-6.199 99.472,-7.227 100.14,-8.506 101.562,-8.263 				"/>
				<polygon fill="#362010" points="103.578,-9.279 102.351,-8.67 101.394,-9.649 102.027,-10.861 103.376,-10.631 				"/>
				<polygon fill="#362010" points="105.386,-11.719 104.222,-11.145 103.316,-12.069 103.917,-13.217 105.195,-12.999 				"/>
				<polygon fill="#362010" points="107.191,-14.157 106.095,-13.615 105.238,-14.489 105.808,-15.571 107.011,-15.367 				"/>
				<polygon fill="#362010" points="110.091,-16.387 109.085,-15.891 108.3,-16.693 108.82,-17.685 109.925,-17.499 				"/>
				<polygon fill="#362010" points="112.992,-18.617 112.074,-18.165 111.359,-18.895 111.832,-19.801 112.841,-19.633 				"/>
				<polygon fill="#362010" points="115.894,-20.849 115.066,-20.441 114.417,-21.099 114.845,-21.915 115.755,-21.765 				"/>
			</g>
			<polygon fill="#362010" points="99.234,-9.588 98.277,-9.263 97.664,-10.073 98.25,-10.901 99.218,-10.603 			"/>
			<polygon fill="#362010" points="102.058,-12.417 101.095,-12.09 100.484,-12.903 101.07,-13.731 102.041,-13.433 			"/>
			<polygon fill="#362010" points="105.123,-16.249 104.164,-15.918 103.554,-16.735 104.14,-17.563 105.107,-17.265 			"/>
			<polygon fill="#362010" points="90.125,-25.34 89.164,-25.011 88.558,-25.823 89.14,-26.653 90.107,-26.355 			"/>
			<g>
				<polygon fill="#362010" points="104.394,-3.077 103.185,-2.659 102.423,-3.681 103.152,-4.723 104.371,-4.349 				"/>
				<polygon fill="#362010" points="107.273,-6.307 106.167,-5.922 105.472,-6.859 106.14,-7.815 107.255,-7.471 				"/>
				<polygon fill="#362010" points="110.156,-9.537 109.152,-9.189 108.515,-10.039 109.125,-10.905 110.14,-10.595 				"/>
				<polygon fill="#362010" points="113.037,-12.767 112.136,-12.453 111.562,-13.217 112.111,-13.997 113.023,-13.717 				"/>
			</g>
			<polygon fill="#362010" points="83.718,3.099 82.726,3.807 81.746,3.083 82.136,1.929 83.353,1.939 			"/>
			<polygon opacity="0.2" fill="#262261" enable-background="new    " points="8.195,21.131 8.739,26.475 -0.425,40.661 
				-3.825,46.387 -4.077,41.971 1.739,34.477 2.629,31.057 6.559,25.491 6.993,22.983 			"/>
			<polygon opacity="0.5" fill="#FDE58A" enable-background="new    " points="125.816,-15.125 128.992,-17.115 128.541,-15.918 			
				"/>
			<polygon opacity="0.5" fill="#362010" enable-background="new    " points="125.082,-21.491 123.509,-18.017 124.3,-18.155 			
				"/>
			<polygon fill="#362010" points="92.472,-28.645 92.529,-27.893 91.353,-27.569 90.566,-28.119 91.255,-28.785 			"/>
			<polygon fill="#362010" points="79.414,3.433 79.472,4.187 78.472,4.503 77.796,3.939 78.382,3.279 			"/>
			<polygon fill="#362010" points="73.738,4.043 73.8,4.799 72.8,5.113 72.123,4.549 72.705,3.891 			"/>
			<polygon fill="#362010" points="91.66,-3.691 90.82,-2.542 89.472,-2.981 89.476,-4.405 90.824,-4.84 			"/>
			<polygon fill="#362010" points="96.054,-4.405 95.394,-3.497 94.32,-3.845 94.32,-4.971 95.394,-5.317 			"/>
			<polygon fill="#362010" points="94.472,-1.595 93.812,-0.683 92.738,-1.029 92.742,-2.157 93.812,-2.504 			"/>
			<polygon fill="#362010" points="97.287,0.513 96.625,1.421 95.554,1.071 95.554,-0.053 96.626,-0.401 			"/>
			<polygon fill="#362010" points="99.316,3.807 98.656,4.717 97.582,4.371 97.587,3.246 98.656,2.897 			"/>
			<polygon fill="#362010" points="97.984,6.967 97.414,7.748 96.496,7.449 96.496,6.479 97.414,6.183 			"/>
			<polygon fill="#362010" points="94.787,11.155 94.242,11.907 93.361,11.619 93.361,10.693 94.242,10.405 			"/>
			<polyline opacity="0.2" fill="#262261" enable-background="new    " points="101.603,8.687 101.603,8.305 101.603,7.923 
				100.855,5.164 100.017,2.057 101.271,2.057 101.771,5.727 108.546,10.042 			"/>
			<polygon fill="#362010" points="105.025,1.801 104.107,2.143 103.597,1.645 104.197,0.991 105.078,1.087 			"/>
			<polygon fill="#362010" points="107.386,7.871 106.275,8.045 105.767,7.047 106.566,6.253 107.562,6.765 			"/>
			<polygon fill="#362010" points="108.349,4.127 107.029,4.332 106.492,3.547 107.476,2.857 108.623,3.211 			"/>
			<polyline opacity="0.2" fill="#262261" enable-background="new    " points="94.697,1.767 93.14,7.003 92.683,7.551 
				87.902,6.935 86.703,4.166 86.369,5.994 80.968,6.471 74.41,7.129 87.521,0.843 87.521,-1.838 94.697,1.767 94.697,1.767 			"/>
			<polygon opacity="0.2" fill="#262261" enable-background="new    " points="82.263,-6.039 87.902,6.935 92.683,7.551 
				93.14,7.003 			"/>
			<g>
				<polygon fill="#362010" points="26.529,-9.009 25.765,-8.771 25.301,-9.418 25.777,-10.065 26.535,-9.807 				"/>
				<polygon fill="#362010" points="28.863,-11.131 28.051,-11.067 27.741,-11.817 28.359,-12.349 29.053,-11.918 				"/>
				<polygon fill="#362010" points="31.567,-14.031 31.197,-13.254 30.337,-13.363 30.181,-14.215 30.941,-14.631 				"/>
				<polygon fill="#362010" points="34.643,-14.727 34.217,-14.131 33.577,-14.277 33.609,-14.971 34.267,-15.245 				"/>
				<polygon fill="#362010" points="37.717,-15.42 37.235,-15.009 36.817,-15.193 37.039,-15.725 37.595,-15.859 				"/>
			</g>
			<polygon opacity="0.2" fill="#262261" enable-background="new    " points="-20.065,-10.205 -19.195,-4.997 -17.795,-8.109 			
				"/>
			<polygon opacity="0.5" fill="#362010" enable-background="new    " points="16.571,5.221 26.529,-7.353 21.073,2.141 
				21.073,7.599 16.765,9.271 			"/>
			<polygon opacity="0.3" fill="#362010" enable-background="new    " points="8.195,21.131 6.695,22.685 -6.955,36.844 
				-6.955,41.471 -4.077,45.897 -4.077,41.971 1.739,34.477 2.629,31.057 6.223,26.211 			"/>
			<polygon opacity="0.3" fill="#362010" enable-background="new    " points="8.195,21.131 18.623,8.547 21.073,7.599 
				16.161,16.195 			"/>
			<polygon opacity="0.5" fill="#262261" enable-background="new    " points="17.945,3.487 18.623,8.251 21.073,7.599 
				21.073,2.141 23.101,-3.041 			"/>
			<polyline opacity="0.2" fill="#262261" enable-background="new    " points="34.475,-12.401 34.281,-12.155 30.021,-6.681 
				26.529,-7.353 			"/>
			<polygon opacity="0.2" fill="#262261" enable-background="new    " points="43.757,6.379 48.578,0.33 49.66,-3.277 49.443,4.323 
				48.578,5.603 			"/>
			<polygon opacity="0.2" fill="#262261" enable-background="new    " points="52.964,4.893 56.099,3.177 73.996,1.567 73.8,7.149 
				57.447,4.643 			"/>
			<polygon opacity="0.5" fill="#362010" enable-background="new    " points="73.996,1.567 73.8,7.149 86.369,5.994 			"/>
		</g>
	</g>
	<g>
		<polygon fill="#A3234A" points="70.119,87.639 73.648,86.653 76.246,84.145 108.824,54.012 108.781,52.45 35.935,38.692 
			65.75,86.352 		"/>
		<polygon opacity="0.2" fill="#262261" enable-background="new    " points="71.578,45.184 101.828,59.461 73.648,86.653 
			70.119,87.639 56.91,63.512 		"/>
		<path fill="#A6A8AB" d="M72.39,86.233c-0.041,0.119,17.027-19.594,17.027-19.594l13.008-9.479H78.173L72.39,86.233z"/>
		<path opacity="0.2" fill="#262261" enable-background="new    " d="M72.39,86.233c-0.041,0.119,17.027-19.594,17.027-19.594
			l13.008-9.479H78.173L72.39,86.233z"/>
		<polygon fill="#BBBDBF" points="72.349,86.352 85.578,67.09 91.513,60.391 101.593,55.977 50.082,42.979 69.277,83.135 		"/>
		<polygon fill="#DBDBDA" points="72.23,85.725 82.988,67.442 92.677,58.036 101.175,53.555 49.423,43.782 67.57,83.184 		"/>
		<polygon opacity="0.2" fill="#262261" enable-background="new    " points="72.033,84.918 80.078,67.461 88.39,59.399 
			95.843,54.235 47.07,54.778 68.14,81.411 		"/>
		<polygon fill="#F1F1F2" points="72.39,86.233 82.734,62.61 92.55,52.446 101.175,46.278 77.996,43.188 47.619,39.141 
			68.417,80.598 		"/>
		<g>
			<polygon opacity="0.8" fill="#655671" enable-background="new    " points="66.507,71.7 73.435,57.161 83.123,49.54 
				71.458,56.266 			"/>
			<polygon opacity="0.8" fill="#655671" enable-background="new    " points="59.943,69.963 66.869,55.43 76.558,47.801 
				64.894,54.532 			"/>
			<polygon opacity="0.8" fill="#655671" enable-background="new    " points="52.837,68.899 59.763,54.364 69.455,46.739 
				57.791,53.471 			"/>
		</g>
		<polygon fill="#DBDBDA" points="-32.699,13.889 -19.861,58.79 72.349,85.747 54.177,24.733 		"/>
		<polygon opacity="0.4" fill="#262261" enable-background="new    " points="69.074,85.635 70.119,87.639 73.648,86.653 
			89.082,67.02 72.349,86.172 69.074,84.307 		"/>
		<polygon opacity="0.6" fill="#F1F1F2" enable-background="new    " points="-32.699,13.889 -30.533,21.459 52.242,37.157 
			58.468,39.141 54.177,24.733 		"/>
		<polygon fill="#BBBDBF" points="-38.903,16.933 -22.143,63.512 72.349,86.356 48.914,29.013 		"/>
		<polygon opacity="0.2" fill="#262261" enable-background="new    " points="-37.379,21.459 -22.143,63.614 72.349,86.653 
			44.165,30.815 		"/>
		<polygon opacity="0.2" fill="#262261" enable-background="new    " points="-35.547,26.237 -36.069,24.783 41.851,37.364 
			72.349,86.2 70.119,87.639 32.477,54.891 		"/>
		<polygon opacity="0.2" fill="#262261" enable-background="new    " points="45.149,33.016 67.054,76.208 72.349,86.653 
			57.455,82.958 		"/>
		<g>
			<polygon fill="#BE1E2D" points="-44.601,23.531 -22.555,63.188 69.455,88.454 38.393,37.157 			"/>
			<polygon opacity="0.2" fill="#262261" enable-background="new    " points="38.393,37.157 -22.555,63.188 69.455,88.454 			"/>
			<path opacity="0.2" fill="#262261" enable-background="new    " d="M-44.265,24.001c0.604,1.724,21.778,39.187,21.778,39.187
				l91.941,25.266l-5.025-9.945L-44.517,23.531"/>
			<polygon fill="#EC1C24" points="-44.601,23.531 35.339,38.266 68.787,87.344 70.119,87.639 38.393,37.157 			"/>
			<polygon opacity="0.2" fill="#262261" enable-background="new    " points="-2.021,31.239 57.742,71.073 35.339,38.266 			"/>
		</g>
		<polygon fill="#EC1C24" points="74.607,85.725 108.781,52.45 108.824,54.012 		"/>
		<polygon opacity="0.1" fill="#262261" enable-background="new    " points="65.804,63.188 80.378,67.989 79.371,69.963 
			81.734,69.575 80.484,71.7 82.414,71.7 80.275,74.817 83.123,73.903 72.349,86.172 		"/>
		<polygon opacity="0.2" fill="#2B388F" enable-background="new    " points="69.074,74.684 72.349,86.172 74.816,78.875 		"/>
		<polygon fill="#EC1C24" points="68.787,87.344 69.455,88.454 73.316,87.344 75.837,84.583 72.851,86.874 70.119,87.336 
			69.605,86.653 		"/>
	</g>
	<path opacity="0.3" fill="#2B388F" enable-background="new    " d="M65.312,45.897l-5.369-0.131l2.604,8.287l12.061-1.604
		l5.299-2.91l9.563-0.254c0,0,9.484-3.303,8.652-3.414c-0.824-0.109-25.469-3.393-25.469-3.393"/>
	<path fill="#2B388F" d="M77.201,42.979"/>
	<path fill="#2B388F" d="M75.837,42.901"/>
	<polygon fill="#362010" points="133.804,-8.661 132.484,-8.605 133.144,-8.223 132.783,-7.973 133.017,-7.353 	"/>
	<polygon opacity="0.5" fill="#EC1C24" enable-background="new    " points="63.087,78.979 -24.641,59.079 -23.939,60.618 
		67.898,85.883 	"/>
</g>
</svg>
