<?xml version="1.0" encoding="utf-8"?>
<!-- Generator: Adobe Illustrator 15.1.0, SVG Export Plug-In . SVG Version: 6.00 Build 0)  -->
<!DOCTYPE svg PUBLIC "-//W3C//DTD SVG 1.0//EN" "http://www.w3.org/TR/2001/REC-SVG-20010904/DTD/svg10.dtd">
<svg version="1.0" id="Layer_1" xmlns="http://www.w3.org/2000/svg" xmlns:xlink="http://www.w3.org/1999/xlink" x="0px" y="0px"
	 width="68.57px" height="84.921px" viewBox="-6.809 -6.617 68.57 84.921" enable-background="new -6.809 -6.617 68.57 84.921"
	 xml:space="preserve">
<path fill="none" stroke="#137184" stroke-width="0.8" stroke-miterlimit="10" d="M4.171,68.837l-2.616,4.535l2.616,4.531
	L61.36,77.89v-9.045L4.171,68.837z"/>
<line fill="none" stroke="#137184" stroke-width="0.8" stroke-miterlimit="10" x1="8.906" y1="67.201" x2="8.906" y2="77.902"/>
<path fill="#137184" d="M4.103,71.416L4.103,71.416l-1.422-1.424l0,0l-0.367-0.363h-6.514l-2.189,2.191v3.1l2.189,2.193h6.514
	l0.367-0.365l0,0l1.422-1.424l0,0l0.403-0.404v-3.1L4.103,71.416z M2.726,74.183l-1.148,1.148h-5.039l-1.147-1.148v-1.625
	l1.147-1.15h5.039l1.148,1.15v0.475v0.674V74.183z"/>
<path fill="none" stroke="#137184" stroke-width="0.8" stroke-miterlimit="10" d="M-2.059,14.51"/>
<path fill="none" stroke="#137184" stroke-width="0.8" stroke-miterlimit="10" d="M49.136,16.549"/>
<line fill="none" stroke="#137184" stroke-width="0.8" stroke-miterlimit="10" x1="49.136" y1="16.549" x2="49.136" y2="14.51"/>
<path fill="none" stroke="#137184" stroke-width="0.8" stroke-miterlimit="10" d="M51.177,39.562"/>
<polyline fill="none" stroke="#137184" stroke-width="0.8" stroke-miterlimit="10" points="8.76,41.601 55.081,41.601 
	55.081,15.728 49.136,15.765 "/>
<line fill="none" stroke="#137184" stroke-width="0.8" stroke-miterlimit="10" x1="49.136" y1="16.549" x2="49.136" y2="37.525"/>
<polyline fill="none" stroke="#137184" stroke-width="0.8" stroke-miterlimit="10" points="8.353,37.525 49.136,37.525 
	49.136,16.549 "/>
<line fill="none" stroke="#137184" stroke-width="0.8" stroke-miterlimit="10" x1="20.156" y1="41.601" x2="31.456" y2="52.037"/>
<line fill="none" stroke="#137184" stroke-width="0.8" stroke-miterlimit="10" x1="31.456" y1="51.644" x2="31.456" y2="56.738"/>
<line fill="none" stroke="#137184" stroke-width="0.8" stroke-miterlimit="10" x1="31.456" y1="51.644" x2="35.933" y2="47.169"/>
<polyline fill="none" stroke="#137184" stroke-width="0.8" stroke-miterlimit="10" points="-1.946,30.008 0.886,27.037 
	0.886,20.275 "/>
<g>
	<path fill="#137184" d="M14.632,18.377l-0.868,1.275v1.627l0,0l4.606,4.123l0.631,1.721v3.457l-1.959,2.865h-3.094l-2.145-1.043
		l0.577-2.52l1.878,0.951h1.913l0.871-1.273v-2.041v0.133l-4.694-4.217l-0.543-1.195v-3.611l1.959-2.867h3.157l2.082,1.025
		l-0.532,2.461l-1.873-0.875h-1.968L14.632,18.377L14.632,18.377z"/>
	<path fill="#137184" d="M35.048,15.765l2.15,2.865v11.951l-2.15,2.865h-3.771l-2.15-2.865v-11.95l2.15-2.865L35.048,15.765
		L35.048,15.765z M34.267,18.377h-2.209l-0.968,1.324v9.836l0.968,1.295h2.209l0.969-1.324v-9.808L34.267,18.377z"/>
	<path fill="#137184" d="M40.632,33.445h-1.961v-17.68h5.578l1.978,2.865v5.801l-1.978,2.865h-3.617V33.445z M40.632,18.377v6.301
		h2.767l0.871-1.293v-3.711l-0.871-1.295h-2.767V18.377z"/>
	<polygon fill="#137184" points="28.103,15.765 20.224,15.765 20.224,18.377 23.185,18.377 23.185,33.445 25.144,33.445 
		25.144,18.377 28.103,18.377 	"/>
</g>
<line fill="none" stroke="#137184" stroke-width="0.8" stroke-miterlimit="10" x1="5.777" y1="20.275" x2="5.777" y2="11.521"/>
<g>
	<polygon fill="none" stroke="#137184" stroke-width="0.8" stroke-miterlimit="10" points="48.085,11.521 48.085,-3.432 
		45.515,-6.217 40.366,-6.217 37.792,-3.432 37.792,11.521 	"/>
	<polyline fill="none" stroke="#137184" stroke-width="0.8" stroke-miterlimit="10" points="9.591,41.601 8.353,41.601 8.353,23.06 
		5.777,20.275 0.628,20.275 -1.946,23.06 -1.946,59.769 3.812,64.592 6.025,64.592 8.353,64.592 8.906,64.592 8.906,65.011 
		8.906,67.21 8.962,68.892 58.458,68.804 58.402,66.658 61.331,63.457 61.331,54.404 61.331,49.58 61.331,44.748 61.331,-3.432 
		58.76,-6.217 53.611,-6.217 51.038,-3.432 50.874,15.531 	"/>
	<polygon fill="none" stroke="#137184" stroke-width="0.8" stroke-miterlimit="10" points="34.841,11.521 34.841,-3.432 
		32.269,-6.217 27.12,-6.217 24.546,-3.432 24.546,11.521 	"/>
	<polygon fill="none" stroke="#137184" stroke-width="0.8" stroke-miterlimit="10" points="21.597,11.521 21.597,-3.432 
		19.025,-6.217 13.874,-6.217 11.301,-3.432 11.301,11.521 	"/>
</g>
<polyline fill="none" stroke="#137184" stroke-width="0.8" stroke-miterlimit="10" points="-1.946,37.525 -6.409,37.525 
	-6.409,11.521 49.136,11.521 49.136,37.525 8.353,37.525 "/>
</svg>
