<?xml version="1.0" encoding="utf-8"?>
<!-- Generator: Adobe Illustrator 15.1.0, SVG Export Plug-In . SVG Version: 6.00 Build 0)  -->
<!DOCTYPE svg PUBLIC "-//W3C//DTD SVG 1.0//EN" "http://www.w3.org/TR/2001/REC-SVG-20010904/DTD/svg10.dtd">
<svg version="1.0" id="Layer_1" xmlns="http://www.w3.org/2000/svg" xmlns:xlink="http://www.w3.org/1999/xlink" x="0px" y="0px"
	 width="111.177px" height="142.535px" viewBox="-28.445 -34.72 111.177 142.535"
	 enable-background="new -28.445 -34.72 111.177 142.535" xml:space="preserve">
<g>
	<g>
		<polyline fill="none" stroke="#FFFFFF" stroke-miterlimit="10" points="-3.909,45.387 -5.974,45.387 -5.974,14.522 -10.258,9.884 
			-18.827,9.884 -23.111,14.522 -23.111,75.635 -13.525,83.666 -9.848,83.666 -5.974,83.666 -5.046,83.666 -5.046,88.022 
			76.519,88.022 82.232,81.772 82.232,66.703 82.232,58.677 82.232,50.627 82.232,-29.582 77.949,-34.22 69.38,-34.22 
			65.094,-29.582 65.094,0.289 61.929,0.289 61.929,-3.105 60.179,-3.105 60.179,-29.582 55.898,-34.22 47.326,-34.22 
			43.042,-29.582 43.042,-3.105 38.13,-3.105 38.13,-29.582 33.844,-34.22 25.276,-34.22 20.99,-29.582 20.99,-3.105 16.078,-3.105 
			16.078,-29.582 11.795,-34.22 3.225,-34.22 -1.06,-29.582 -1.06,-3.105 -3.909,-3.105 		"/>
		<rect x="-5.045" y="103.098" fill="none" stroke="#FFFFFF" stroke-miterlimit="10" width="82.401" height="4.217"/>
	</g>
	<path fill="none" stroke="#FFFFFF" stroke-miterlimit="10" d="M-12.976,88.009l-4.354,7.543l4.354,7.545l95.208-0.023V88.014
		L-12.976,88.009z M-13.426,95.552l2.404-4.164h5.896v8.328h-5.896L-13.426,95.552z"/>
	<line fill="none" stroke="#FFFFFF" stroke-miterlimit="10" x1="-5.046" y1="88.009" x2="-5.046" y2="103.082"/>
	<polygon fill="#FFFFFF" points="-13.955,89.315 -24.798,89.315 -28.445,92.966 -28.445,98.125 -24.798,101.774 -13.955,101.774 
		-13.35,101.168 -14.834,98.463 -15.184,98.813 -23.569,98.813 -25.483,96.899 -25.483,94.194 -23.569,92.28 -15.184,92.28 
		-13.27,94.194 -13.27,96.106 -10.978,98.797 -10.308,98.125 -10.308,92.966 	"/>
	<g>
		<path fill="none" stroke="#FFFFFF" stroke-miterlimit="10" d="M-23.304,0.289"/>
		<polyline fill="none" stroke="#FFFFFF" stroke-miterlimit="10" points="61.929,0.289 61.929,-3.105 -26.695,-3.105 
			-26.695,38.602 -23.304,38.602 		"/>
		<polyline fill="none" stroke="#FFFFFF" stroke-miterlimit="10" points="65.322,3.68 65.322,0.289 61.929,0.289 61.929,3.68 		"/>
		<line fill="none" stroke="#FFFFFF" stroke-miterlimit="10" x1="61.929" y1="3.68" x2="61.929" y2="0.289"/>
		<polyline fill="none" stroke="#FFFFFF" stroke-miterlimit="10" points="-5.974,45.387 68.718,45.387 68.718,3.68 65.322,3.68 
			65.322,41.993 		"/>
		<polyline fill="none" stroke="#FFFFFF" stroke-miterlimit="10" points="-5.974,41.993 65.322,41.993 65.322,3.68 		"/>
		<line fill="none" stroke="#FFFFFF" stroke-miterlimit="10" x1="61.929" y1="3.68" x2="61.929" y2="38.602"/>
		<polyline fill="none" stroke="#FFFFFF" stroke-miterlimit="10" points="-5.974,38.602 61.929,38.602 61.929,3.68 		"/>
	</g>
	<line fill="none" stroke="#FFFFFF" stroke-miterlimit="10" x1="13.681" y1="45.387" x2="32.496" y2="62.76"/>
	<line fill="none" stroke="#FFFFFF" stroke-miterlimit="10" x1="32.496" y1="62.11" x2="32.496" y2="70.593"/>
	<line fill="none" stroke="#FFFFFF" stroke-miterlimit="10" x1="32.496" y1="62.11" x2="39.945" y2="54.659"/>
	<polyline fill="none" stroke="#FFFFFF" stroke-miterlimit="10" points="-23.111,26.093 -18.399,21.141 -18.399,9.884 	"/>
	<g>
		<path fill="#FFFFFF" d="M3.503,7.946L2.101,9.998v2.625l0,0l7.428,6.646l1.019,2.772v5.578l-3.158,4.616H2.402l-3.462-1.682
			l0.934-4.063l3.022,1.531h3.086l1.404-2.051v-3.289V22.9l-7.568-6.801l-0.88-1.924V8.356L2.1,3.735h5.092l3.354,1.648L9.694,9.356
			l-3.021-1.41H3.503z"/>
		<path fill="#FFFFFF" d="M36.416,3.735l3.463,4.621v19.269l-3.463,4.616h-6.082l-3.463-4.616V8.356l3.463-4.621H36.416z
			 M35.15,7.946h-3.553l-1.566,2.131v15.859l1.566,2.09h3.553l1.568-2.131V10.077L35.15,7.946z"/>
		<path fill="#FFFFFF" d="M45.414,32.239h-3.16V3.735h8.996l3.188,4.621v9.354l-3.188,4.614h-5.836V32.239z M45.414,7.946v10.162
			h4.461l1.402-2.088v-5.981l-1.402-2.093H45.414z"/>
		<polygon fill="#FFFFFF" points="25.219,3.735 12.519,3.735 12.519,7.946 17.286,7.946 17.286,32.239 20.446,32.239 20.446,7.946 
			25.219,7.946 		"/>
	</g>
	<line fill="none" stroke="#FFFFFF" stroke-miterlimit="10" x1="-10.258" y1="9.884" x2="-10.258" y2="-3.105"/>
</g>
</svg>
