<?xml version="1.0" encoding="utf-8"?>
<!-- Generator: Adobe Illustrator 15.1.0, SVG Export Plug-In . SVG Version: 6.00 Build 0)  -->
<!DOCTYPE svg PUBLIC "-//W3C//DTD SVG 1.1//EN" "http://www.w3.org/Graphics/SVG/1.1/DTD/svg11.dtd">
<svg version="1.1" id="Layer_1" xmlns="http://www.w3.org/2000/svg" xmlns:xlink="http://www.w3.org/1999/xlink" x="0px" y="0px"
	 width="93.543px" height="82.817px" viewBox="-2.825 -2.501 93.543 82.817" enable-background="new -2.825 -2.501 93.543 82.817"
	 xml:space="preserve">
<g>
	<g>
		<g>
			<polygon fill="#6D533B" points="85.803,34.089 73.829,46.996 73.819,40.24 			"/>
			<polygon fill="#4F3725" points="-2.825,38.872 1.599,42.92 9.988,38.872 27.811,42.92 34.92,40.24 27.627,40.24 9.498,37.399 			
				"/>
			<polygon fill="#75563B" points="1.599,42.92 3.464,46.996 16.861,44.959 9.988,38.872 			"/>
			<polygon fill="#433739" points="3.464,46.996 6.031,48.877 25.598,49.561 16.861,44.959 			"/>
			<polygon fill="#773F3D" points="27.811,42.92 9.988,38.872 16.861,44.959 25.598,49.561 33.998,55.268 			"/>
			<polygon fill="#2D2528" points="6.031,48.877 14.533,54.102 25.598,49.561 			"/>
			<polygon fill="#593135" points="14.533,54.102 31.076,68.318 33.998,55.268 27.844,51.086 25.598,49.561 			"/>
			<polygon fill="#433739" points="34.92,40.24 27.811,42.92 33.998,55.268 31.951,64.396 37.713,54.102 			"/>
			<polygon fill="#75484A" points="31.076,68.318 33.998,69.131 41.814,65.639 45.985,54.102 37.713,54.102 32.15,63.5 			"/>
			<polygon fill="#816348" points="73.827,44.959 61.364,42.92 39.693,44.959 35.666,43.939 34.92,40.24 73.819,40.24 			"/>
			<polygon fill="#64383D" points="70.917,55.268 52.858,58.299 42.002,65.123 45.985,54.102 52.511,57.248 54.37,51.135 			"/>
			<polygon fill="#27242B" points="73.829,46.996 70.917,55.268 54.37,51.135 52.858,58.299 45.985,54.102 57.464,45.756 
				55.304,49.561 			"/>
			<polygon fill="#E19378" points="33.998,69.131 44.706,74.49 50.644,67.15 42.002,65.123 			"/>
			<polygon fill="#483D3B" points="73.827,44.959 61.364,42.92 57.464,45.756 54.37,51.135 73.829,46.996 			"/>
			<polygon fill="#8C4538" points="50.644,67.15 52.858,58.299 42.002,65.123 			"/>
			<g>
				<polygon fill="#D18F64" points="44.706,74.49 44.706,80.315 41.068,72.67 				"/>
			</g>
			<g>
				<polygon fill="#A95A3D" points="70.917,55.268 62.763,65.123 50.644,67.15 52.858,58.299 				"/>
			</g>
			<g>
				<polygon fill="#CB8874" points="44.706,74.49 57.753,69.807 62.763,65.123 50.644,67.15 				"/>
			</g>
			<g>
				<polygon fill="#E8B366" points="54.37,71.02 44.706,80.315 44.706,74.49 				"/>
			</g>
			<polygon fill="#816348" points="90.719,33.372 85.803,40.545 85.803,44.434 73.829,46.996 85.803,34.089 			"/>
			<polyline fill="#5A4534" points="87.293,33.872 84.194,41.057 73.829,46.996 85.127,34.183 87.293,33.372 			"/>
			<polygon fill="#3F3936" points="85.803,44.434 73.829,46.996 70.917,55.268 			"/>
			<g>
				<polygon fill="#8A4638" points="52.858,58.299 65.661,61.619 70.917,55.268 				"/>
			</g>
			<g>
				<polygon fill="#64383D" points="34.92,40.24 40.391,44.896 36.029,45.756 				"/>
			</g>
			<g>
				<polygon fill="#2D2528" points="40.391,44.896 45.985,54.102 37.713,54.102 36.029,45.756 				"/>
			</g>
			<g>
				<polygon fill="#593135" points="40.391,44.896 59.263,40.16 61.364,42.92 45.985,54.102 				"/>
			</g>
			<polygon opacity="0.2" fill="#262261" enable-background="new    " points="27.311,56.666 31.951,64.396 33.998,55.268 
				25.598,49.561 			"/>
			<polygon opacity="0.2" fill="#262261" enable-background="new    " points="22.225,41.65 25.598,49.561 27.811,42.92 			"/>
			<path opacity="0.4" fill="#2C307B" enable-background="new    " d="M3.464,46.996l6.523-8.124L25.6,49.557l10.432-3.801
				l4.361-0.863l1.926-3.242l15.351,3.957l16.158,1.391l5.959-6.762l4.408,0.816l1.608,3.379l-9.696,7.055l-2.279-4.229
				l-19.459,3.873l-8.385,2.971l-5.208-8.496l-3.063,8.496l-3.715,1.166l-6.686,1.396l-12.33-2.178l1.879-4.639c0,0,0-3.295,0-4.094
				C16.865,44.959,3.464,46.996,3.464,46.996z"/>
			<polyline fill="#86C77C" points="85.342,34.325 90.719,33.372 84.525,29.509 79.79,26.708 72.292,25.048 41.027,24.159 
				27.152,26.995 13.591,24.868 3.191,29.831 0.828,34.245 -2.17,38.345 9.498,37.399 27.627,40.24 61.683,40.24 73.819,40.24 
				85.342,34.325 			"/>
			<polygon fill="#57A653" points="85.803,34.089 41.814,38.959 24.666,35.579 0.828,34.245 -2.825,38.872 9.498,37.399 
				27.627,40.24 64.161,40.24 			"/>
			<polygon fill="#77BA70" points="11.251,25.985 14.881,28.94 9.988,34.759 21.637,29.522 43.604,32.899 65.323,30.376 
				47.151,25.985 56.005,25.212 70.341,24.993 41.814,24.712 32.588,28.591 			"/>
			<polygon fill="#98CC74" points="27.311,36.101 50.644,34.089 41.814,38.959 			"/>
			<polygon fill="#93CA74" points="26.178,27.81 32.588,28.591 41.814,24.712 41.027,24.159 27.152,26.995 			"/>
			<polygon fill="#A3D292" points="50.644,34.089 51.929,32.196 78.356,28.591 64.392,35.462 			"/>
			<path fill="#A3D292" d="M15.689,32.196l5.949-2.674l16.016,5.686c0,0-14.502-2.91-14.854-2.84
				C22.453,32.435,15.689,32.196,15.689,32.196z"/>
			<polygon fill="#77BA70" points="72.614,29.376 64.501,27.282 78.356,28.196 79.79,26.708 90.719,33.372 78.356,28.591 			"/>
			<path fill="#98CC74" d="M64.917,27.31l7.699,2.066l-13.74-0.559c0,0-10.652-2.57-10.896-2.629
				C47.728,26.13,64.917,27.31,64.917,27.31z"/>
			<polygon opacity="0.4" fill="#2C307B" enable-background="new    " points="9.988,38.872 9.498,37.399 2.75,38.208 7.732,39.963 
							"/>
			<polygon opacity="0.4" fill="#2C307B" enable-background="new    " points="27.311,40.24 22.225,41.65 27.811,42.92 			"/>
		</g>
		<polygon fill="#4F3725" points="77.354,42.996 75.378,39.439 73.819,40.24 73.829,47.258 		"/>
	</g>
	<g>
		<g>
			<polygon fill="#C6C3B2" points="15.211,25.134 26.969,17.384 41.66,-2.501 43.26,-1.394 43.26,18.94 33.65,15.294 25.273,26.704 
							"/>
			<polygon fill="#9CA98D" points="33.65,15.294 25.273,26.704 41.471,18.263 			"/>
			<polygon fill="#837D6A" points="43.26,-1.394 43.26,18.94 51.933,25.403 45.64,15.294 			"/>
			<polygon opacity="0.5" fill="#837D6A" enable-background="new    " points="33.65,15.294 40.049,4.899 35.953,16.167 
				27.146,24.159 26.969,17.384 			"/>
			<polygon fill="#9CA98D" points="66.931,24.843 59.058,16.907 55.776,15.294 45.347,2.464 43.631,1.207 44.104,4.977 
				45.64,15.294 53.388,18.478 56.636,18.263 59.427,26.425 			"/>
			<polygon fill="#C6C3B2" points="56.636,18.263 53.388,18.478 51.335,20.751 49.192,23.36 50.302,24.325 47.63,24.896 
				51.933,26.462 59.427,26.425 			"/>
			<polygon fill="#B2AF9E" points="53.388,18.478 45.64,15.294 49.962,22.235 			"/>
			<polygon opacity="0.4" fill="#2C307B" enable-background="new    " points="44.36,6.067 49.192,16.755 45.874,15.667 
				43.26,18.94 43.26,6.231 			"/>
			<polygon fill="#C6C3B2" points="25.273,26.704 31.285,27.575 41.977,19.575 39.818,28.231 49.573,25.601 41.471,18.263 			"/>
			<polygon fill="#B2AF9E" points="31.285,27.575 39.818,28.231 41.977,19.575 			"/>
			<polygon fill="#9CA98D" points="41.471,18.263 47.597,25.769 51.933,26.462 50.532,24.335 49.515,23.245 43.26,18.94 			"/>
			<polygon opacity="0.4" fill="#2C307B" enable-background="new    " points="41.471,18.263 47.597,25.769 51.933,26.462 
				50.532,24.335 49.515,23.245 43.26,18.94 			"/>
			<polygon opacity="0.4" fill="#FFFFFF" enable-background="new    " points="37.736,2.464 40.666,1.455 40.049,4.899 43.26,2.081 
				43.26,-1.394 41.471,-0.486 41.66,-2.501 			"/>
			<polygon opacity="0.4" fill="#2C307B" enable-background="new    " points="41.66,-2.501 41.471,-0.486 43.26,-1.394 			"/>
		</g>
		<polygon opacity="0.2" fill="#2C307B" enable-background="new    " points="56.636,18.263 53.388,18.478 51.933,14.349 
			56.636,17.712 59.427,19.417 59.427,26.425 		"/>
	</g>
</g>
</svg>
