<?xml version="1.0" encoding="utf-8"?>
<!-- Generator: Adobe Illustrator 15.1.0, SVG Export Plug-In . SVG Version: 6.00 Build 0)  -->
<!DOCTYPE svg PUBLIC "-//W3C//DTD SVG 1.1//EN" "http://www.w3.org/Graphics/SVG/1.1/DTD/svg11.dtd">
<svg version="1.1" id="Layer_1" xmlns="http://www.w3.org/2000/svg" xmlns:xlink="http://www.w3.org/1999/xlink" x="0px" y="0px"
	 width="93.543px" height="57.287px" viewBox="-5.706 -3.494 93.543 57.287" enable-background="new -5.706 -3.494 93.543 57.287"
	 xml:space="preserve">
<g>
	<path fill="#BF772A" d="M85.617,12.558l-2.549-2.839c0,0-4.163-3.423-8.407-4.007c-0.342-0.01-0.676-0.014-1.004-0.012
		c-3.034,0.023-5.538,0.596-5.538,0.596L65.061,6.13l-5.012-5.677c0,0-3.907-2.84-8.409-3.424c-6.2-1.168-10.022,0-10.022,0
		l-3.143,0.752c0,0-2.153-0.836-3.737-0.336c-1.584,0.502-7.389,2.34-7.389,2.34s-7.646,0.668-13.42,1.501
		C8.153,2.12,4.16,3.708,4.16,3.708s-5.1,0.668-7.816,3.839c-2.721,3.174-1.191,9.271-1.191,9.271s-0.678,1.92-0.85,3.756
		C-5.865,22.411-3.4,25.587-3.4,25.587l-0.256,2.421l0.68-0.5l-0.086,1.086l2.718-4.618c0,0,0.424-2.938-0.17-4.379
		c-0.594-1.443-1.871-4.53-1.871-4.53s-0.676-3.592,0.682-5.262c1.359-1.672,2.888-0.918,2.888-0.918s-1.193,2.588-1.275,5.677
		c-0.084,3.089,2.125,9.939,1.785,12.361c-0.084,0.517-0.68,0.835-1.703,2.173c-1.016,1.334-2.884,1.754-2.97,3.088
		c-0.508,2.088,1.613,6.182,1.699,6.432c0.083,0.251,0.13,8.259,0.083,9.505c-0.041,1.248,0.85,2.271,0.85,2.271h1.701l-0.256,1.166
		c0,0,0.68,0.816,3.313,0.752c2.632-0.061,3.822,0,3.822,0s0.488-0.373-0.254-1.754c-0.744-1.374-3.355-4.194-3.822-7.267
		c-0.297-2.125-0.488-3.859,0.338-5.093c2.548,3.341,4.757,8.604,4.757,8.604l0.258,3.172l2.46,2.337l1.104-1.92l0.768,0.75
		c0,0-0.598,1.338,0,1.672c0.594,0.334,6.537,0,6.537,0s0.645-0.559,0.424-1.42c-0.846-0.838-3.313-3.271-3.313-3.271l-1.188-1.488
		c0,0,1.271,1.92-1.189-1.086c-2.463-3.006-2.973-8.101-2.973-8.101s0.34-4.914,4.501-6.715l2.719,3.959l3.654,2.674l2.291-2.088
		l1.617,0.666l0.424-0.498l2.633,1.084l0.168-1.418l3.143,1.754l0.766-1.588l2.209,0.834l0.593,1.254l1.191,1.335l-0.594,2.756
		l-0.256,2.34l0.934-0.588l-0.426,2.258l0.852-0.502c0,0-0.723,1.525-0.256,2.59c0.531-0.252,1.617-0.418,1.617-0.418
		s0.572-0.457,1.145-0.086c0.574,0.379-0.797,3.698-0.398,4.263c0.398,0.561,0.781,0.5,0.781,0.5l1.02,0.25l0.256,0.75
		c0,0,1.107,1.07,3.736,0.975c2.634-0.098,4.292-0.975,4.249-1.559c0.104-0.73-2.041-2.923-2.041-2.923s-0.277,0.084-0.084-0.834
		c0.191-0.918,2.375-1.941,2.719-3.342c0.338-1.398,0.166-1.252,0.166-1.252s0.959-1.441,1.873-1.67
		c0.914-0.232,1.359,1.168,1.359,1.168l1.104-1.922l1.02,0.834l0.426-1.168l1.189,0.166l0.766-1.336l1.271,0.918l1.447-2.503
		l0.766,0.919l1.188-1.003l1.789-0.25l0.424,1.001l1.443-0.166l1.785,1.922l0.592-0.586c0,0,0.26,1.756,1.107,1.963
		c2.886-1.713,3.567-3.524,3.567-3.524s1.357,1.226,2.422,0.884c0.254-0.449,0.506-0.884,0.506-0.884s2.68-0.225,3.443-1.295
		c0.764-1.068,0.527-1.898,0.527-1.898s2.19-3.846,2.657-6.436c0.465-2.587,0-3.397,0-3.397l1.492-1.639v-1.604v-1.211l2.207-3.258
		L85.617,12.558z"/>
	<g>
		<path fill="#A26C29" d="M71.69,36.166l-2.259-3.447l4.54-5.396l-13.331-3.462l3.896,14.331l1.115-0.158l0.428,1.003l1.443-0.168
			l1.783,1.922l0.596-0.584c0,0,0.256,1.754,1.107,1.961c2.884-1.713,3.562-3.524,3.562-3.524s1.361,1.228,2.426,0.884
			c0.254-0.449,0.506-0.884,0.506-0.884s2.68-0.225,3.441-1.293c0.766-1.07,0.529-1.9,0.529-1.9s1.731-3.047,2.446-5.543
			l-3.257-0.848L71.69,36.166z"/>
	</g>
	<polygon fill="none" points="27.882,13.156 10.393,10.969 27.31,28.957 	"/>
	<polygon fill="#D0952A" points="27.882,12.162 43.221,6.967 37.031,23.948 27.31,28.957 	"/>
	<path fill="#E89823" d="M58.513,21.337l2.13,2.523l13.54,3.218l-0.209,0.244l6.689,1.736l0,0l3.255,0.846
		c0.088-0.307,0.162-0.609,0.213-0.893c0.465-2.587,0-3.396,0-3.396l1.492-1.639v-1.604v-1.209l-0.26-0.166l-1.191-1.084l0.17-2.424
		l-0.68,1.674l-0.766-0.672l0.254-2.172l-0.722-2.25l-0.406-0.082l-0.057,2.416L80.69,14.57l-0.24-0.898l-2.156-0.439l-0.578,0.084
		l-0.07-0.215l-9.315-1.898L58.513,21.337z"/>
	<polygon fill="#1D1D1D" points="78.929,23.419 77.61,23.861 76.563,22.96 76.835,21.618 78.149,21.179 79.265,22.255 	"/>
	<path opacity="0.5" fill="#442A23" enable-background="new    " d="M77.505,38.643l-2.182-1.881v-2.459l1.24-1.994l1.973,0.664
		l0.658,1.721l1.264,0.756h1.014c0,0,0.045,0.533-0.008,0.752c-0.207,0.957-0.773,1.42-0.773,1.42s-0.652,0.506-1.496,0.707
		C78.286,38.571,77.505,38.643,77.505,38.643z"/>
	<polygon opacity="0.7" fill="#291A19" enable-background="new    " points="78.198,37.278 79.813,37.356 80.458,36.561 
		78.925,34.975 77.714,35.928 	"/>
	<polyline opacity="0.4" fill="#442A23" enable-background="new    " points="71.01,42.165 72.11,37.828 69.887,34.69 
		66.756,34.301 69.223,37.356 68.799,38.233 69.902,40.2 70.588,41.902 	"/>
	<polygon fill="#CE8029" points="37.92,8.342 28.577,-0.358 27.882,12.162 	"/>
	<polyline fill="#D08829" points="48.851,-3.368 43.221,6.967 50.403,15.256 50.519,29.604 52.946,27.078 51.243,14.424 
		48.968,-2.866 	"/>
	<polygon fill="#D08829" points="50.433,19.013 50.403,15.256 43.221,6.967 37.031,23.948 	"/>
	<polygon fill="none" points="36.269,36.11 34.058,35.276 33.661,36.1 35.931,38.643 38.051,38.698 36.859,37.364 	"/>
	<path fill="none" d="M48.851-3.368L48.851-3.368L48.851-3.368z"/>
	<path fill="none" d="M4.07,42.657l1.91,2.211l2.871,5.845L4.496,38.198L3.91,40.929C3.931,41.468,3.992,42.044,4.07,42.657z"/>
	<path fill="none" d="M-0.09,14.562c0.012-0.4,0.041-0.789,0.082-1.168l-2.507,0.584c0.053,0.646,0.133,1.086,0.133,1.086
		s1.275,3.085,1.871,4.53c0.184,0.443,0.271,1.029,0.303,1.627l0.115,0.113l0.641,3.309l0.975-0.428
		C1.023,21.136-0.153,16.837-0.09,14.562z"/>
	<path fill="#D17428" d="M71.253,8.18l2.404-2.48c-1.258,0.51-4.435,2.101-4.435,2.101L71.253,8.18z"/>
	<polygon fill="#E07E26" points="78.294,13.226 77.647,13.095 77.718,13.31 	"/>
	<polygon fill="#E9AC32" points="82.337,25.615 82.337,25.615 80.663,29.059 83.92,29.905 84.252,28.231 84.338,27.078 
		84.131,25.615 	"/>
	<polygon fill="#E07E26" points="81.966,16.4 82.022,13.986 80.45,13.666 80.69,14.562 	"/>
	<g>
		<path fill="#804937" d="M83.92,29.905L83.92,29.905L83.92,29.905z"/>
	</g>
	<g>
		<path fill="#925742" d="M16.645,30.731c-0.632,0.277-1.177,0.625-1.644,1.014L16.645,30.731z"/>
	</g>
	<g>
		<path fill="#925742" d="M16.645,30.731"/>
	</g>
	<g>
		<path fill="#804937" d="M3.91,40.931l0.586-2.731C4.003,38.935,3.873,39.855,3.91,40.931z"/>
	</g>
	<g opacity="0.5">
		<polygon fill="#533D37" points="37.199,43.794 37.24,43.415 36.875,43.794 36.875,43.794 		"/>
	</g>
	<polygon fill="none" points="39.244,25.15 47.521,32.719 47.521,32.719 52.946,27.078 51.243,14.424 51.243,14.424 48.851,-3.368 
		48.851,-3.368 43.221,6.967 37.92,8.342 28.378,-0.544 27.31,28.957 33.661,36.1 34.058,35.276 36.269,36.11 36.859,37.364 
		38.051,38.698 36.37,27.078 	"/>
	<polygon fill="none" points="82.048,12.892 82.022,13.986 82.431,14.068 	"/>
	<path fill="none" d="M3.644,42.165l0.426,0.492c-0.08-0.613-0.141-1.189-0.16-1.727L3.644,42.165z"/>
	<path fill="none" d="M28.378-0.544L28.378-0.544L28.378-0.544z"/>
	<path fill="none" d="M6.384,25.8l10.87-2.891l2.678-1.795l-9.542-10.146L-0.01,13.394c-0.041,0.379-0.07,0.768-0.082,1.168
		c-0.063,2.273,1.113,6.574,1.607,9.656l2.979-1.307L6.384,25.8z"/>
	<polygon opacity="0.3" fill="#533D37" enable-background="new    " points="58.513,21.337 68.332,11.198 77.647,13.095 
		76.356,9.137 71.253,8.18 	"/>
	<path fill="none" d="M-0.514,19.597c-0.594-1.443-1.871-4.53-1.871-4.53s-0.08-0.44-0.133-1.086l-2.682,0.629
		c0.125,1.298,0.352,2.21,0.352,2.21l4.634,4.404C-0.243,20.626-0.331,20.04-0.514,19.597z"/>
	<polygon fill="none" points="79.927,11.725 79.419,13.06 78.294,13.226 80.45,13.666 	"/>
	<polygon fill="none" points="27.31,28.957 24.105,25.55 24.105,30.217 	"/>
	<polygon fill="none" points="71.69,36.166 80.663,29.059 73.974,27.323 69.432,32.719 	"/>
	<path fill="#C47C2A" d="M65.061,6.13l-5.012-5.677c0,0-3.907-2.84-8.409-3.424c-0.992-0.188-1.922-0.314-2.789-0.396l2.391,17.792
		l7.27,6.912L71.253,8.178l-2.03-0.379c0,0,3.177-1.589,4.435-2.101c-3.034,0.023-5.538,0.596-5.538,0.596L65.061,6.13z"/>
	<path fill="#C7802A" d="M28.378-0.544L28.378-0.544L37.92,8.34l5.303-1.375L48.851-3.37c-4.536-0.43-7.233,0.396-7.233,0.396
		l-3.143,0.752c0,0-2.153-0.836-3.737-0.336C33.569-2.188,30.12-1.094,28.378-0.544L28.378-0.544L28.378-0.544z"/>
	<path opacity="0.7" fill="#D08829" enable-background="new    " d="M16.354,0.958l-5.96,10.011l0,0l9.542,10.146l4.172-2.801v7.238
		l3.202,3.409l1.068-29.503l0,0l0,0c-0.625,0.197-1.029,0.328-1.029,0.328S21.633,0.282,16.354,0.958z"/>
	<path fill="#D87627" d="M28.378-0.544L28.378-0.544L28.378-0.544z"/>
	<path fill="#D29129" d="M-1.703,9.805c1.359-1.672,2.888-0.918,2.888-0.918s-0.902,1.965-1.193,4.507l10.399-2.425L3.644,3.796
		C2.287,4.057-1.461,4.983-3.658,7.549c-1.666,1.945-1.736,4.996-1.543,7.06l2.682-0.627C-2.607,12.787-2.59,10.891-1.703,9.805z"/>
	<path fill="#C47E2A" d="M16.354,0.958c-0.826,0.104-1.644,0.217-2.427,0.328C8.151,2.12,4.158,3.708,4.158,3.708
		S3.968,3.733,3.644,3.796l6.747,7.173l0,0L16.354,0.958z"/>
	<g>
		<polygon fill="#804937" points="83.918,29.901 80.661,29.055 80.661,29.055 		"/>
	</g>
	<g>
		<path fill="#7A5523" d="M45.264,53.748c0.359,0.039,0.754,0.055,1.195,0.039c2.634-0.098,4.292-0.973,4.247-1.557
			c0.107-0.73-2.039-2.923-2.039-2.923s-0.275,0.084-0.084-0.836c0.189-0.918,2.375-1.939,2.719-3.34
			c0.338-1.4,0.166-1.252,0.166-1.252s0.959-1.441,1.873-1.672c0.914-0.232,1.359,1.17,1.359,1.17l1.104-1.922l1.02,0.834
			l0.426-1.168l1.189,0.166l0.766-1.338l1.271,0.92l1.449-2.503l0.766,0.917l1.188-1.001l0.668-0.094l-3.896-14.329L45.264,53.748z"
			/>
	</g>
	<g>
		<path fill="#795126" d="M4.496,38.198C7.044,41.538,9.253,46.8,9.253,46.8l0.258,3.172l2.46,2.339l1.104-1.92l0.768,0.75
			c0,0-0.598,1.336,0,1.67c0.594,0.334,6.537,0,6.537,0s0.645-0.559,0.424-1.42c-0.846-0.838-3.313-3.271-3.313-3.271l-1.188-1.488
			c0,0,1.271,1.92-1.189-1.086c-1.254-1.531-2.002-3.605-2.432-5.271l-2.5,0.617L4.496,38.198z"/>
	</g>
	<g>
		<path fill="#79562D" d="M-1.279,38.615c0.083,0.251,0.13,8.259,0.083,9.505c-0.041,1.248,0.85,2.271,0.85,2.271h1.701
			l-0.256,1.166c0,0,0.68,0.816,3.313,0.752c2.632-0.061,3.822,0,3.822,0s0.488-0.373-0.254-1.754
			c-0.744-1.374-3.355-4.194-3.822-7.267c-0.029-0.213-0.059-0.424-0.086-0.633l-0.426-0.49l-6.623-9.979
			C-3.484,34.272-1.365,38.365-1.279,38.615z"/>
	</g>
	<g>
		<polygon fill="#925742" points="52.946,27.078 51.243,14.424 51.243,14.424 		"/>
	</g>
	<g>
		<polygon fill="#C47E2A" points="58.513,21.337 51.243,14.424 52.946,27.078 		"/>
	</g>
	<g>
		<path fill="#AD6E29" d="M24.105,25.55l-4.172-4.436l-2.678,1.795L6.386,25.8l5.236,8.021l-7.124,4.377L15,31.742
			c0.467-0.389,1.012-0.736,1.644-1.014l1.307,1.902l6.154-2.416V25.55z"/>
	</g>
	<g>
		<polygon fill="#B17129" points="24.105,18.314 19.934,21.115 24.105,25.55 		"/>
	</g>
	<g opacity="0.7">
		<path fill="#925742" d="M14.997,31.742L4.496,38.199l5.685,2.694l2.5-0.617c-0.416-1.604-0.541-2.829-0.541-2.829
			S12.387,33.918,14.997,31.742z"/>
	</g>
	<g>
		<path fill="#996127" d="M3.91,40.931c-0.039-1.074,0.092-1.994,0.586-2.731l-4.121-9.58c-0.117,0.145-0.244,0.303-0.383,0.48
			c-1.016,1.334-2.884,1.752-2.97,3.088l6.623,9.978L3.91,40.931z"/>
	</g>
	<g opacity="0.5">
		<path fill="#533D37" d="M4.496,22.909l-2.979,1.307c0.178,1.109,0.268,2.064,0.178,2.707c-0.008,0.043-0.021,0.086-0.039,0.126
			l4.726-1.253L4.496,22.909z"/>
	</g>
	<g>
		<path fill="#A76027" d="M6.384,25.8l-4.726,1.255c-0.133,0.385-0.572,0.713-1.281,1.563l4.121,9.58l7.124-4.377L6.384,25.8z"/>
	</g>
	<g>
		<polygon fill="#704E2C" points="47.521,32.719 39.244,25.15 36.37,27.078 38.051,38.698 37.455,41.454 37.24,43.415 		"/>
	</g>
	<g opacity="0.5">
		<polygon fill="#533D37" points="24.105,30.217 24.105,30.731 25.462,35.342 26.923,35.942 27.349,35.444 29.979,36.528 
			30.149,35.11 33.292,36.864 33.661,36.1 27.31,28.957 		"/>
	</g>
	<g opacity="0.5">
		<polygon fill="#533D37" points="37.24,43.415 37.199,43.794 47.521,32.719 		"/>
	</g>
	<g opacity="0.7">
		<polygon fill="#533D37" points="24.105,30.217 17.951,32.633 19.363,34.69 23.015,37.364 25.308,35.276 25.462,35.342 
			24.105,30.731 		"/>
	</g>
	<path opacity="0.5" fill="#925742" enable-background="new    " d="M-3.4,25.589l-0.086,0.828l2.304-1.014l0.838-1.426
		c0,0,0.205-1.406,0.133-2.752l-4.634-4.404c0,0-0.678,1.92-0.85,3.758C-5.865,22.415-3.4,25.589-3.4,25.589z"/>
	<polygon opacity="0.5" fill="#925742" enable-background="new    " points="-3.656,28.01 -2.979,27.51 -3.063,28.594 
		-1.184,25.404 -3.486,26.417 	"/>
	<g opacity="0.5">
		<polygon fill="#925742" points="25.282,35.299 25.724,35.446 25.308,35.276 		"/>
	</g>
	<polygon fill="none" points="19.363,34.69 23.015,37.364 25.282,35.299 18.096,32.844 	"/>
	<path fill="none" d="M25.724,35.446L25.724,35.446L25.724,35.446z"/>
	<g opacity="0.5">
		<polygon fill="#81562C" points="39.244,25.15 37.031,23.948 27.31,28.957 17.951,32.633 18.096,32.844 25.282,35.299 
			25.308,35.276 25.724,35.446 25.724,35.446 25.724,35.446 26.923,35.942 27.349,35.444 29.979,36.528 30.149,35.11 33.292,36.864 
			34.058,35.276 36.269,36.11 36.859,37.364 38.051,38.698 36.427,27.451 		"/>
	</g>
	<g>
		<polygon fill="#7E5736" points="9.511,49.972 9.253,46.8 4.496,38.198 11.62,33.821 14.997,31.742 13.245,33.789 12.333,36.319 
			10.183,40.892 		"/>
	</g>
	<g>
		<polyline fill="#9E7A2C" points="12.256,38.258 12.352,38.643 14.301,46.548 17.729,49.972 19.139,49.747 16.645,47.058 
			15.696,46.249 14.137,44.32 		"/>
	</g>
	<g opacity="0.5">
		<polygon fill="#D17428" points="4.496,38.198 2.669,42.165 2.98,47.474 4.825,49.396 7.222,49.396 6.384,48.195 4.496,44.648 
			3.904,42.249 4.07,40.931 		"/>
	</g>
	<g opacity="0.7">
		<path fill="#533D37" d="M37.199,43.794l0.936-0.588l-0.426,2.258l0.852-0.502c0,0-0.721,1.525-0.256,2.59
			c0.531-0.252,1.617-0.418,1.617-0.418s0.572-0.457,1.145-0.086c0.574,0.379-0.797,3.698-0.398,4.263
			c0.398,0.561,0.781,0.5,0.781,0.5l1.021,0.25l0.256,0.75c0,0,0.764,0.742,2.541,0.938l0.102-0.199l-3.945-14.282L37.199,43.794z"
			/>
	</g>
	<g>
		<polygon fill="#AF6F29" points="52.063,40.529 60.643,23.861 58.513,21.337 52.946,27.078 47.596,32.643 47.678,32.719 		"/>
	</g>
	<g>
		<polygon fill="#80562C" points="47.596,32.643 39.398,25.15 37.186,23.948 41.42,39.267 47.521,32.719 		"/>
	</g>
	<g>
		<path fill="#785534" d="M45.361,53.553l0.057,0.195c0,0,2.854,0.137,4.165-0.557s1.121-0.961,1.121-0.961l-0.678-1.373
			l-1.361-1.55c0,0-0.647-0.678,0.318-1.531c0.965-0.854,1.736-1.59,2.084-2.086c0.352-0.498,0.227-1.338,0.398-1.811
			c0.174-0.475,1.488-1.566,1.488-1.566l-0.893-1.783L45.361,53.553z"/>
	</g>
	<g opacity="0.7">
		<polygon fill="#946226" points="47.678,32.719 47.596,32.643 47.521,32.719 41.42,39.267 45.361,53.553 52.063,40.529 		"/>
	</g>
	<path fill="#805522" d="M85.617,12.558l-2.549-2.839c0,0-4.163-3.423-8.407-4.007c-0.342-0.01-0.676-0.014-1.004-0.012
		c-1.258,0.51-4.435,2.101-4.435,2.101l7.134,1.336l1.359,4.175l1.703-0.25l0.508-1.335l0.766,2.839l1.273,1.835l0.082-3.507
		l1.104,3.423L82.9,18.49l0.766,0.666l0.68-1.67l-0.17,2.422l1.191,1.084l0.26,0.168l2.205-3.258L85.617,12.558z"/>
	<g>
		<polygon fill="#DAC5A4" points="70.152,15.474 70.879,17.618 72.171,18.173 73.864,17.06 74.106,15.395 73.54,12.619 
			75.478,10.555 76.042,8.018 74.431,10.08 71.847,11.826 70.959,14.285 		"/>
		<polygon opacity="0.7" fill="#808184" enable-background="new    " points="75.478,10.555 72.333,12.633 71.704,15.863 
			73.591,17.24 72.171,18.173 70.879,17.618 70.152,15.474 71.847,11.826 74.431,10.08 76.042,8.018 		"/>
	</g>
	<polygon opacity="0.5" fill="#BBBDBF" enable-background="new    " points="76.835,21.618 77.483,22.724 78.149,21.179 	"/>
	<polygon opacity="0.5" fill="#F1F1F2" enable-background="new    " points="77.483,22.724 77.03,21.95 77.987,21.556 
		78.702,22.138 	"/>
	<polygon opacity="0.4" fill="#E4B86D" enable-background="new    " points="65.061,6.13 61.254,11.725 60.301,3.385 61.254,1.815 	
		"/>
	<polygon opacity="0.2" fill="#925742" enable-background="new    " points="61.254,11.725 58.513,21.337 63.688,15.99 	"/>
	<polygon opacity="0.3" fill="#442A23" enable-background="new    " points="79.649,19.585 80.663,23.976 79.265,25.15 77.866,25.8 
		75.323,22.909 75.323,20.552 77.03,18.552 79.087,18.314 	"/>
	<path opacity="0.7" fill="#804937" enable-background="new    " d="M74.085,36.166"/>
	<polygon opacity="0.4" fill="#442A23" enable-background="new    " points="77.718,13.31 77.866,8.18 76.356,9.137 	"/>
	<polygon opacity="0.4" fill="#442A23" enable-background="new    " points="80.69,14.562 81.966,12.162 82.276,12.83 
		84.338,17.261 83.664,19.156 82.898,18.49 83.127,16.531 81.966,16.4 	"/>
	<path fill="#976327" d="M4.496,22.909L2.013,15.72l-0.83-6.835c0,0-1.109,3.342-1.193,4.509c-0.33,2.208,0.383,4.99,0.383,4.99
		l1.143,5.834L4.496,22.909z"/>
	<polygon fill="#8B5B24" points="-4.344,24.218 -1.539,19.964 -2.221,15.456 -0.385,19.986 -0.211,21.224 -0.344,23.976 
		-3.422,27.838 -3.4,25.589 	"/>
	<g>
		<polygon fill="#D8A128" points="39.471,17.261 35.858,9.461 43.221,6.967 		"/>
	</g>
	<path fill="#C97929" d="M77.718,13.31c0,0,1.432,4.998,1.369,5.003c-0.063,0.008-3.957,0.459-3.957,0.459l-1.266-1.711l0.242-1.665
		L77.718,13.31z"/>
	<polygon opacity="0.7" fill="#231F20" enable-background="new    " points="78.198,37.278 79.261,35.864 79.813,37.356 	"/>
	<g>
		<polygon fill="#B0782B" points="71.72,21.884 73.974,27.323 74.69,33.789 73.729,37.356 74.577,38.643 72.11,37.828 
			69.432,32.719 68.699,30.731 60.643,23.861 63.688,15.99 71.018,8.424 72.257,8.424 70.355,16.273 		"/>
	</g>
	<polygon opacity="0.3" fill="#442A23" enable-background="new    " points="72.11,8.342 69.223,11.686 67.238,14.558 
		67.629,17.337 68.506,16.474 68.018,19.843 68.506,22.909 69.432,21.884 69.676,25.615 69.432,28.455 67.238,30.731 66.756,34.301 
		68.699,30.731 70.939,28.455 71.72,21.884 70.455,16.282 71.581,11.889 	"/>
	<polygon opacity="0.1" fill="#533D37" enable-background="new    " points="79.087,18.314 74.69,18.782 72.11,22.822 
		73.974,27.323 74.69,33.789 80.663,29.059 80.663,23.976 79.649,19.585 	"/>
	<polyline opacity="0.6" fill="#804937" enable-background="new    " points="82.515,24.308 79.649,19.585 79.005,23.148 
		80.663,23.976 76.612,32.317 80.663,29.059 82.337,25.615 84.131,25.615 84.75,24.937 	"/>
	<polygon fill="#B2762A" points="51.243,15.035 51.157,15.456 50.433,19.013 37.186,23.948 39.398,25.15 47.242,33.014 
		50.433,29.656 	"/>
	<path opacity="0.2" fill="#533D37" enable-background="new    " d="M1.185,8.885L2.56,6.264l-7.679,5.015l-0.078,3.328l2.682-0.627
		C-2.518,13.98-3.129,8.303,1.185,8.885z"/>
	<g>
		<polygon fill="#925742" points="17.945,32.625 18.168,32.539 16.645,30.731 		"/>
	</g>
</g>
</svg>
