<?xml version="1.0" encoding="utf-8"?>
<!-- Generator: Adobe Illustrator 15.1.0, SVG Export Plug-In . SVG Version: 6.00 Build 0)  -->
<!DOCTYPE svg PUBLIC "-//W3C//DTD SVG 1.1//EN" "http://www.w3.org/Graphics/SVG/1.1/DTD/svg11.dtd">
<svg version="1.1" id="Layer_1" xmlns="http://www.w3.org/2000/svg" xmlns:xlink="http://www.w3.org/1999/xlink" x="0px" y="0px"
	 width="93.543px" height="50.381px" viewBox="-3.789 -2.04 93.543 50.381" enable-background="new -3.789 -2.04 93.543 50.381"
	 xml:space="preserve">
<g>
	<g>
		<g>
			<polyline fill="#595B4F" points="-0.52,17.995 5.367,17.233 5.721,14.55 9.535,13.581 12.203,12.265 4.172,13.571 -0.52,17.995 
							"/>
			<polygon fill="#767661" points="5.367,17.233 5.721,14.55 9.535,13.581 13.855,16.21 9.279,17.757 			"/>
			<polygon fill="#E2D8BA" points="13.855,16.21 11.234,21.067 12.619,24.65 9.006,26.552 5.846,24.888 0.896,20.966 -0.52,17.995 
				5.367,17.233 9.279,17.757 			"/>
			<polygon fill="#4B4E44" points="6.6,17.792 7.041,16.061 8.793,15.274 10.334,16.251 10.721,16.497 10.916,17.854 10.295,19.241 
				8.543,19.876 7,19.052 			"/>
			<polyline fill="#525E61" points="12.203,12.265 16.242,10.384 23.885,8.589 17.5,13.481 13.855,16.21 9.535,13.581 
				12.203,12.269 			"/>
			<polygon fill="#D2CDA5" points="13.855,16.21 11.234,21.067 18.811,20.208 22.361,16.411 27.684,13.354 22.855,12.806 
				17.5,13.481 			"/>
			<polyline fill="#767864" points="38.113,7.738 37.119,14.468 31.727,11.853 27.684,13.354 22.855,12.806 17.5,13.481 
				23.885,8.589 38.113,7.738 			"/>
			<polygon fill="#555A50" points="43.953,15.837 37.119,14.468 38.113,7.738 44.939,8.48 47.688,9.062 53.545,10.532 
				49.756,14.309 			"/>
			<polyline fill="#BE986B" points="38.113,7.738 43.328,2.005 46.695,1.966 47.779,8.997 45.707,8.564 38.113,7.738 			"/>
			<polygon fill="#D0AF96" points="48.486,-2.04 43.328,2.005 46.695,1.966 			"/>
			<polygon fill="#A499A7" points="48.352,-1.925 51.229,7.689 47.799,9.111 46.563,2.079 			"/>
			<polyline fill="#B1B097" points="47.799,9.111 51.229,7.689 53.545,10.532 47.799,9.111 			"/>
			<polyline fill="#899684" points="53.545,10.532 49.756,14.309 55.381,14.239 59.549,11.984 53.545,10.532 			"/>
			<polygon fill="#A499A7" points="55.381,14.239 60.297,15.042 59.549,12.068 			"/>
			<polyline fill="#6E7367" points="59.484,12.068 60.297,15.042 65.732,11.814 59.484,12.068 			"/>
			<polygon fill="#899684" points="60.297,15.042 65.732,11.814 65.406,15.571 			"/>
			<polygon fill="#6E7367" points="65.406,15.571 65.732,11.814 68.723,12.083 73.262,13.163 71.844,15.491 68.773,12.732 			"/>
			<polyline fill="#B1B097" points="69.592,20.561 71.844,15.491 73.865,23.371 69.592,20.561 			"/>
			<polygon fill="#E1DEB9" points="18.811,20.208 11.234,21.067 12.619,24.65 16.352,25.769 			"/>
			<polygon fill="#E1DEB9" points="27.684,13.354 22.361,16.411 18.811,20.208 25.365,21.208 27.684,13.354 33.23,16.735 
				37.119,14.468 31.727,11.853 			"/>
			<polygon fill="#C7CBB7" points="25.365,21.208 33.23,16.735 27.684,13.354 			"/>
			<polygon fill="#899684" points="65.406,15.571 68.773,12.732 71.844,15.491 68.662,18.512 			"/>
			<polygon fill="#C0C5AE" points="71.844,15.491 65.916,20.389 69.592,20.659 			"/>
			<polyline fill="#B1B097" points="65.916,20.389 68.436,18.307 65.406,15.571 50.639,29.847 59.592,23.074 65.916,20.389 			"/>
			<polygon fill="#D9D8BE" points="53.756,26.834 49.756,14.309 55.381,14.239 60.297,15.042 65.406,15.571 			"/>
			<polygon fill="#B1B097" points="22.762,30.191 22.936,31.877 27,32.135 32.908,33.226 34.486,32.728 43.471,32.31 40.189,24.308 
				34.74,28.314 28.979,26.642 			"/>
			<polygon fill="#C07D4C" points="34.74,28.314 32.908,33.283 34.543,37.224 			"/>
			<polygon fill="#F0CAA9" points="63.158,25.086 59.617,30.65 56.727,37.551 55.592,31.304 54.285,27.32 59.592,23.074 			"/>
			<polygon fill="#DFB179" points="55.592,31.304 59.617,30.65 59.592,23.074 54.113,27.283 			"/>
			<polyline fill="#DDB97D" points="34.895,32.726 39.4,39.648 37.223,42.242 34.543,37.224 34.641,32.769 			"/>
			<polygon fill="#EAD0A4" points="40.619,34.58 37.633,32.582 34.895,32.726 39.4,39.648 			"/>
			<polygon opacity="0.4" fill="#655671" enable-background="new    " points="34.543,37.224 37.633,32.582 34.641,32.769 			"/>
			<polygon fill="#C07D4C" points="56.727,37.551 50.639,29.847 54.096,27.23 55.592,31.304 			"/>
			<polyline opacity="0.5" fill="#655671" enable-background="new    " points="50.639,29.847 50.783,29.892 55.592,31.304 
				53.154,33.033 			"/>
			<polygon fill="#E1DEB9" points="34.74,28.314 34.791,29.219 34.641,32.769 37.578,32.595 			"/>
			<path fill="#C07D4C" d="M21.037,25.207"/>
			<path fill="#C07D4C" d="M28.979,26.642"/>
			<polygon fill="#E2E0BB" points="33.23,16.735 34.74,28.314 28.979,26.642 25.365,21.208 			"/>
			<polygon fill="#C07D4C" points="18.811,20.208 21.418,25.201 28.979,26.642 22.762,30.191 18.6,28.174 16.352,25.769 			"/>
			<polygon opacity="0.4" fill="#655671" enable-background="new    " points="21.418,25.201 16.352,25.769 18.6,28.174 			"/>
			<polygon fill="#D4B787" points="21.418,25.201 25.365,21.208 28.979,26.642 			"/>
			<polygon fill="#D2C5A4" points="18.811,20.208 25.365,21.208 21.418,25.201 			"/>
			<polygon fill="#E8E8C3" points="33.23,16.735 37.119,14.468 43.953,15.837 40.189,24.308 34.74,28.314 			"/>
			<polygon fill="#C0C5AE" points="43.953,15.837 40.189,24.308 43.471,32.31 			"/>
			<polygon fill="#D2C5A4" points="12.619,24.65 9.006,26.552 13.939,29.154 20.6,31.168 22.936,31.877 22.762,30.191 
				18.752,28.174 16.352,25.769 			"/>
			<polyline opacity="0.2" fill="#655671" enable-background="new    " points="13.939,29.154 18.676,28.095 20.715,31.205 
				13.939,29.154 			"/>
			<polygon fill="#C7CBB7" points="11.234,21.067 5.822,20.827 5.846,24.888 9.006,26.552 12.619,24.65 			"/>
			<polygon fill="#C7CBB7" points="9.859,15.954 8.895,17.499 10.721,16.497 			"/>
			<polygon fill="#E4E1BA" points="43.641,26.463 51.363,19.344 49.756,14.309 43.953,15.837 			"/>
			<polygon fill="#BFB99B" points="53.756,26.834 50.639,29.847 43.471,32.31 43.641,26.463 51.363,19.344 			"/>
			<polygon fill="#CACEB4" points="49.756,14.309 56.512,20.198 60.297,15.042 55.381,14.239 			"/>
			<polyline fill="#938A6B" points="73.262,13.163 71.844,15.491 73.674,23.373 76.26,20.975 75.809,17.075 73.262,13.163 			"/>
			<polygon fill="#B1B097" points="75.809,17.075 71.844,15.491 76.26,20.975 			"/>
			<polygon fill="#927460" points="73.262,13.163 81.928,7.312 88.451,2.902 87.139,10.769 83.076,10.822 75.809,17.075 
				73.262,13.163 75.809,17.075 			"/>
			<polygon fill="#927460" points="82.555,25.531 79.217,24.113 76.26,20.975 73.666,23.308 78.061,26.429 83.742,30.763 			"/>
			<polyline fill="#CEB39A" points="86.852,25.127 82.555,25.531 83.742,30.763 89.754,33.677 86.852,25.127 			"/>
			<polygon fill="#AC7C5A" points="80.07,19.899 84.268,17.507 83.076,10.822 75.809,17.075 76.26,20.975 			"/>
			<polygon fill="#938A6B" points="76.26,20.975 80.07,19.899 84.268,17.507 82.555,25.531 79.217,24.113 			"/>
			<polygon fill="#7BCBE4" points="-3.789,36.693 4.559,28.312 18.816,33.461 			"/>
			<polygon fill="#5EBFDF" points="18.816,33.461 -3.789,36.693 11.055,43.373 			"/>
			<polygon fill="#72CBD7" points="11.055,43.373 18.816,33.461 40.463,46.226 26.102,48.342 			"/>
			<polygon fill="#5EBFDF" points="37.043,44.211 41.369,41.174 48.689,36.045 53.811,44.002 40.463,46.226 			"/>
			<polygon fill="#4FACD5" points="53.811,44.002 48.689,36.045 58.164,40.969 64.523,45.927 			"/>
			<polygon fill="#7BCBE4" points="47.637,33.847 58.164,40.969 48.689,36.045 42.268,40.549 			"/>
			<polygon fill="#5EBFDF" points="59.572,42.052 71.07,32.836 81.004,40.506 			"/>
			<polygon fill="#45B2D0" points="64.523,45.927 89.004,47.564 81.004,40.506 59.572,42.064 			"/>
			<polygon fill="#45B2D0" points="-3.789,36.693 -0.188,44.92 26.102,48.342 11.055,43.373 			"/>
			<polygon fill="#C09F84" points="83.076,10.822 84.268,17.507 82.555,25.531 86.852,25.127 84.268,17.507 87.139,10.769 			"/>
			<polygon fill="#C09F84" points="75.809,17.075 80.07,19.899 76.26,20.975 			"/>
			<polygon fill="#7BCBE4" points="68.346,35.017 78.35,38.457 71.07,32.836 			"/>
			<polygon fill="#3F9FC0" points="84.82,43.873 89.004,47.564 74.574,46.601 			"/>
			<polygon fill="#C0C5AE" points="5.822,20.827 4.822,20.382 0.896,20.966 5.846,24.888 			"/>
		</g>
		<polygon fill="#6E7367" points="73.262,13.141 74.607,15.27 82.102,7.193 		"/>
	</g>
	<polygon fill="#3F9FC0" points="-0.188,44.92 11.055,43.373 26.102,48.342 	"/>
	<polygon fill="#3F9FC0" points="59.572,42.064 64.523,45.927 66.893,46.086 	"/>
</g>
</svg>
