<?xml version="1.0" encoding="utf-8"?>
<!-- Generator: Adobe Illustrator 15.1.0, SVG Export Plug-In . SVG Version: 6.00 Build 0)  -->
<!DOCTYPE svg PUBLIC "-//W3C//DTD SVG 1.1//EN" "http://www.w3.org/Graphics/SVG/1.1/DTD/svg11.dtd">
<svg version="1.1" id="Layer_1" xmlns="http://www.w3.org/2000/svg" xmlns:xlink="http://www.w3.org/1999/xlink" x="0px" y="0px"
	 width="93.543px" height="61.837px" viewBox="-2.17 -1.434 93.543 61.837" enable-background="new -2.17 -1.434 93.543 61.837"
	 xml:space="preserve">
<g>
	<g>
		<polyline opacity="0.5" fill="#362010" enable-background="new    " points="78.088,24.082 78.934,22.258 78.5,24.057 
			78.088,24.082 		"/>
		<g>
			<polygon fill="#D08F41" points="37.386,5.744 45.068,5.744 46.889,5.139 51.943,3.52 60.639,2.206 66.5,-0.02 68.727,-1.434 
				73.883,-1.434 75.498,-0.524 80.855,0.791 85.205,1.296 86.822,1.296 86.822,2.713 89.553,4.531 89.553,6.754 91.373,9.486 
				90.768,10.494 88.643,12.307 86.014,11.404 83.689,12.307 81.869,10.799 78.938,10.596 76.611,12.717 73.682,13.832 
				78.938,15.348 81.158,17.168 82.275,20.791 82.574,22.729 81.564,25.762 80.15,25.762 78.131,24.955 78.23,21.717 79.039,20.791 
				78.131,19.291 74.488,18.381 74.488,20.098 72.266,22.119 67.514,22.729 64.885,22.225 63.369,21.414 63.469,19.695 
				67.008,19.393 67.211,19.369 68.826,19.191 69.91,18.01 67.311,17.674 66.678,16.209 66.5,17.168 60.232,17.775 54.064,17.068 
				51.338,16.459 49.113,17.572 46.688,16.963 44.159,17.369 37.386,23.232 34.759,25.053 33.591,25.762 29.399,29.098 
				26.872,30.109 22.726,35.971 23.536,37.49 23.435,38.705 19.694,39.209 18.784,37.59 17.569,35.771 17.569,33.344 19.29,31.523 
				23.03,25.154 28.487,21.213 30.009,18.885 29.903,16.764 26.062,18.885 18.683,18.885 12.214,15.854 7.966,11.404 8.472,8.777 
				10.696,8.676 13.323,11.1 16.46,13.428 19.995,15.248 26.163,14.139 30.409,11.404 33.544,7.459 			"/>
			<polyline fill="#EAA847" points="88.465,11.186 91.082,9.963 91.373,9.486 89.553,6.754 89.553,4.531 86.822,2.713 82.213,2.713 
				80.15,5.822 81.594,8.135 83.689,12.307 86.377,11.529 88.643,12.307 			"/>
			<polygon fill="#D7AE6A" points="86.822,2.713 86.391,4.506 85.361,4.506 84.846,4.967 84.445,6.508 83.932,4.85 84.445,2.332 
				85.205,1.296 86.822,1.296 			"/>
			<path fill="#362010" d="M85.047,1.512c-0.059,0.084-2.49,1.053-2.49,1.053l-0.344,1.943l1.416,1.545l0.816,0.459l-0.514-1.658
				l0.514-2.518l0.76-1.038L85.047,1.512z"/>
			<polygon fill="#673714" points="84.445,2.332 82.557,2.564 85.205,1.296 			"/>
			<polygon fill="#825424" points="84.846,4.967 84.467,3.99 85.646,3.018 85.361,4.506 			"/>
			<polyline fill="#FAC66B" points="84.445,2.332 86.332,1.647 86.822,2.713 86.822,1.296 85.205,1.296 84.686,2.002 			"/>
			<path fill="none" stroke="#29B473" stroke-width="0.25" stroke-miterlimit="10" d="M67.109,20.184"/>
			<polygon opacity="0.7" fill="#673714" enable-background="new    " points="66.451,20.184 67.395,21.098 68.469,21.83 
				71.342,21.83 73.273,20.184 74.488,20.098 72.266,22.119 67.514,22.729 64.885,22.225 63.369,21.414 64.35,20.369 			"/>
			<polygon fill="#362010" points="64.521,22.031 64.521,20.791 65.68,20.184 65.68,20.791 66.193,21.502 66.193,20.184 
				68.068,19.271 63.469,19.695 63.369,21.414 			"/>
			<polygon fill="#362010" points="79.039,20.791 79.039,19.271 79.752,20.791 80.727,21.041 80.727,22.031 80.268,22.814 
				80.727,23.102 80.727,24.588 80.268,24.588 80.15,25.762 78.131,24.955 78.23,21.717 			"/>
			<polygon opacity="0.8" fill="#78612F" enable-background="new    " points="76.865,12.49 79.428,9.314 81.527,8.34 
				82.898,10.115 83.932,11.314 85.377,10.414 86.822,10.414 88.643,12.307 86.014,11.404 83.689,12.307 81.869,10.799 
				78.938,10.596 			"/>
			<polygon opacity="0.8" fill="#78612F" enable-background="new    " points="76.611,12.717 73.975,10.859 72.258,11.791 
				73.344,13.947 73.57,13.777 			"/>
			<path fill="#362010" d="M68.381,5.822c0,0-0.059,0.043-0.158,0.119c-0.652,0.5-3.1,2.398-3.1,2.398l-0.773,2.52l1.713,2.514
				l2.006,2.061l1.986,2.275l-1.229,1.48l2.258-0.305l0.688-1.348l-0.9-2.574l-3.762-1.887l-0.186-1.848l-1.207-2.32L68.381,5.822z"
				/>
			<polygon opacity="0.7" fill="#673714" enable-background="new    " points="79.039,20.791 78.131,19.291 76.611,16.592 
				79.107,17.064 80.482,18.568 82.213,20.791 81.512,23.113 80.727,23.545 78.68,22.031 			"/>
			<polygon opacity="0.7" fill="#673714" enable-background="new    " points="46.688,16.963 47.141,16.291 48.984,16.592 
				50.631,15.691 54.391,16.326 60.232,17.775 54.064,17.068 51.338,16.459 49.113,17.572 			"/>
			<polygon opacity="0.7" fill="#673714" enable-background="new    " points="82.492,9.592 83.711,8.74 84.215,9.514 85.377,8.74 
				87.223,9.514 87.777,9.514 88.465,11.186 89.797,10.414 91.082,9.963 88.643,12.307 87.012,10.609 85.377,10.414 83.932,11.314 
							"/>
			<polygon fill="#362010" points="88.191,10.523 88.465,11.186 89.797,10.414 89.797,8.34 88.992,6.807 88.643,6.166 88.191,6.725 
				87.436,6.938 88.418,7.023 89.322,8.676 89.367,10.027 			"/>
			<polygon opacity="0.7" fill="#673714" enable-background="new    " points="83.037,7.668 83.648,8.74 84.152,9.514 86.441,9.213 
				86.762,8.34 87.373,7.668 87.373,6.938 86.129,7.713 84.402,8.225 83.648,7.412 			"/>
			<polygon opacity="0.7" fill="#673714" enable-background="new    " points="82.557,2.564 81.426,4.967 81.988,6.508 
				84.445,6.508 82.213,4.506 			"/>
			<polygon opacity="0.5" fill="#BF8231" enable-background="new    " points="35.126,10.17 39.19,7.541 45.139,7.826 
				47.252,12.307 46.688,14.199 44.159,17.369 37.386,23.232 34.269,25.352 33.591,25.762 29.399,29.098 27.259,29.955 
				26.872,30.109 22.726,35.971 23.536,37.49 22.024,37.49 20.993,35.346 25.798,27.908 28.204,27.393 30.55,24.588 33.065,21.213 
				32.267,18.01 32.267,15.15 			"/>
			<path fill="#EECE5F" d="M28.487,21.213"/>
			<path opacity="0.6" fill="#362010" enable-background="new    " d="M19.077,38.115c-0.111-0.199,0-2.082,0-2.082l3.002-4.23
				l0.516-1.492l1.314-1.828l0.744-1.09l0.229-1.316l0.631-0.971l1.258-0.631l2.918-1.959l1.83-3.877l0.746-0.629v-2.863
				l2.859-4.977l-4.406,5.148l-2.232,2.227l1.416-0.783l0.102,2.123l-1.518,2.328l-5.459,3.941l-3.74,6.369l-1.582,1.678
				l-0.139,2.57L19.077,38.115z"/>
			<path fill="none" stroke="#362010" stroke-miterlimit="10" d="M20.993,30.426"/>
			<path opacity="0.6" fill="#612D10" enable-background="new    " d="M7.966,11.404c0,0,3.357-0.082,3.186,0
				c-0.17,0.082,2.863,3.516,2.863,3.516l5.488,2.855h6.811l3.59-1.012l-3.842,2.125h-7.379l-6.469-3.033L7.966,11.404z"/>
			<polygon opacity="0.7" fill="#673714" enable-background="new    " points="68.727,-1.434 67.109,1.296 60.584,3.99 51.943,3.52 
				60.639,2.206 66.5,-0.02 			"/>
			<path opacity="0.5" fill="#EECE5F" enable-background="new    " d="M34.841,22.031c0,0,8.41-10.777,8.238-10.666
				c-0.172,0.121-6.121-0.844-6.121-0.844l-1.832,3.023L34.841,22.031z"/>
			<polygon opacity="0.3" fill="#362010" enable-background="new    " points="47.252,12.307 53.459,9.027 60.639,2.206 
				51.943,3.52 45.068,5.744 39.19,7.541 45.139,7.826 			"/>
			<polygon opacity="0.5" fill="#362010" enable-background="new    " points="72.258,11.791 70.426,9.514 66.924,11.229 
				65.473,12.506 64.35,10.859 65.719,9.139 70.711,8.74 73.975,10.859 			"/>
			<polygon opacity="0.8" fill="#EECE5F" enable-background="new    " points="76.611,12.717 76.611,7.998 73.975,5.365 
				70.541,4.967 73.975,4.967 78.131,7.256 78.734,10.17 78.938,10.596 			"/>
			<polygon opacity="0.8" fill="#EECE5F" enable-background="new    " points="74.488,18.18 73.344,13.947 72.258,11.791 
				70.426,9.514 67.109,11.139 71.771,14.691 73.174,16.592 73.273,20.184 74.488,20.098 			"/>
			<polygon opacity="0.8" fill="#EECE5F" enable-background="new    " points="76.611,16.592 73.744,13.947 78.938,15.348 
				81.158,17.168 82.213,20.596 82.248,20.807 82.574,22.729 81.564,25.762 80.727,23.545 81.512,23.113 79.107,17.064 			"/>
			<polygon fill="#78612F" points="80.15,25.762 81.564,25.762 80.727,23.545 80.15,24.361 			"/>
			<polygon opacity="0.8" fill="#78612F" enable-background="new    " points="66.193,20.184 68.068,19.271 68.928,20.654 
				71.23,20.791 73.23,18.58 73.273,20.184 71.342,21.83 68.469,21.83 			"/>
			<polygon opacity="0.7" fill="#673714" enable-background="new    " points="68.727,-1.434 73.273,-0.07 78.938,5.594 
				78.734,10.17 78.938,10.596 81.869,10.799 81.426,6.508 80.15,5.822 82.213,2.713 85.205,1.296 81.816,0.904 75.498,-0.524 
				73.883,-1.434 			"/>
			<polygon opacity="0.5" fill="#78612F" enable-background="new    " points="86.391,4.506 87.584,6.893 86.4,7.541 86.391,5.822 
				85.361,4.506 			"/>
			<polygon opacity="0.5" fill="#78612F" enable-background="new    " points="86.441,9.213 87.584,8.34 89.322,8.676 88.701,7.541 
				87.373,7.668 86.762,8.34 			"/>
			<polygon opacity="0.8" fill="#EECE5F" enable-background="new    " points="89.367,10.027 89.322,8.676 87.584,8.34 
				86.441,9.213 87.223,9.514 87.584,9.514 88.191,10.523 			"/>
			<polygon fill="#FDE58A" points="88.342,8.486 88.191,10.523 89.367,10.027 89.367,8.486 			"/>
			<polygon opacity="0.5" fill="#362010" enable-background="new    " points="84.445,6.508 84.402,8.225 84.152,9.514 
				86.377,11.529 83.689,12.307 82.938,7.885 			"/>
			<polygon opacity="0.5" fill="#EAA847" enable-background="new    " points="60.584,3.99 65.121,8.34 64.35,10.859 60.014,14.848 
				47.252,12.307 53.459,9.027 59.783,3.018 			"/>
			<polygon opacity="0.8" fill="#EECE5F" enable-background="new    " points="7.966,11.404 11.151,11.404 11.886,9.773 
				10.696,8.676 8.472,8.777 			"/>
			<polygon opacity="0.5" fill="#BF8231" enable-background="new    " points="19.995,15.248 26.349,16.008 30.216,11.529 
				26.163,14.139 			"/>
			<polygon fill="#FDE58A" points="91.373,9.486 90.682,9.514 89.797,8.34 89.063,6.938 89.553,6.754 			"/>
			<polygon opacity="0.7" fill="#673714" enable-background="new    " points="30.409,11.404 37.386,5.744 33.544,7.459 			"/>
			<polygon opacity="0.5" fill="#362010" enable-background="new    " points="11.886,9.773 11.151,11.404 11.151,12.307 
				9.222,12.717 10.554,14.117 12.427,13.086 12.983,11.947 12.806,10.623 			"/>
			<polygon fill="#362010" points="14.108,11.686 14.108,13.26 12.983,14.117 11.251,14.848 12.214,15.854 13.556,15.691 
				15.272,13.768 15.075,12.4 			"/>
			<polygon fill="#362010" points="16.14,13.189 15.845,15.377 14.091,16.732 15.114,17.213 15.899,16.277 16.415,15.201 
				16.415,13.768 			"/>
			<polygon fill="#362010" points="17.122,13.768 17.569,15.691 16.415,17.213 17.569,17.775 18.134,16.008 17.569,14.117 			"/>
			<polygon fill="#362010" points="18.937,14.705 18.937,16.592 17.903,17.775 19.503,16.732 			"/>
			<polygon fill="#EAA847" points="45.082,7.975 45.082,11.639 44.159,17.369 46.688,14.199 47.252,12.307 			"/>
			<polygon fill="#362010" points="20.364,15.691 20.993,16.592 20.993,17.322 19.995,18.352 19.995,17.023 			"/>
			<polygon fill="#362010" points="22.362,15.531 22.081,16.732 22.362,18.352 22.823,16.941 22.823,16.008 			"/>
			<polygon fill="#362010" points="22.823,18.885 24.083,18.885 25.106,17.775 24.714,16.592 23.966,18.01 			"/>
			<polygon fill="#362010" points="26.062,18.885 26.944,16.592 27.349,18.176 			"/>
			<polygon fill="#362010" points="24.479,14.439 26.163,14.139 26.349,16.008 			"/>
			<polygon fill="#362010" points="27.917,15.201 27.349,16.008 28.718,16.008 			"/>
			<polygon fill="#362010" points="28.487,13.529 27.966,14.139 29.06,14.848 			"/>
			<polygon fill="#362010" points="23.536,37.49 23.435,38.705 22.081,38.885 19.694,39.209 19.212,38.35 19.995,36.658 
				19.995,35.689 20.993,35.346 22.081,37.277 			"/>
			<g>
				<polygon fill="#362010" points="39.938,8.158 39.276,8.426 38.876,8.037 39.292,7.523 39.948,7.596 				"/>
				<polygon fill="#362010" points="41.757,8.334 41.081,8.646 40.591,8.162 40.958,7.545 41.679,7.65 				"/>
				<polygon fill="#362010" points="43.571,8.51 42.89,8.867 42.302,8.287 42.624,7.568 43.407,7.705 				"/>
				<polygon fill="#362010" points="45.389,8.688 44.697,9.09 44.017,8.414 44.288,7.59 45.139,7.76 				"/>
				<polygon fill="#362010" points="44.276,11.143 43.581,11.545 42.919,10.9 43.202,10.096 44.042,10.244 				"/>
				<polygon fill="#362010" points="43.161,13.598 42.468,14.004 41.821,13.385 42.114,12.6 42.944,12.732 				"/>
				<polygon fill="#362010" points="42.048,16.057 41.353,16.459 40.724,15.869 41.028,15.105 41.847,15.217 				"/>
				<polygon fill="#362010" points="40.372,17.938 39.603,18.389 38.966,17.844 39.347,17.061 40.214,17.117 				"/>
				<polygon fill="#362010" points="38.698,19.818 37.851,20.311 37.208,19.818 37.661,19.014 38.579,19.016 				"/>
				<polygon fill="#362010" points="37.024,21.701 36.099,22.236 35.452,21.787 35.979,20.971 36.95,20.916 				"/>
			</g>
			<g>
				<polygon fill="#362010" points="43.569,6.865 42.849,7.104 42.466,6.643 42.946,6.123 43.63,6.258 				"/>
				<polygon fill="#362010" points="45.463,7.213 44.727,7.498 44.253,6.928 44.693,6.291 45.443,6.467 				"/>
				<polygon fill="#362010" points="47.359,7.561 46.607,7.893 46.043,7.213 46.443,6.455 47.256,6.674 				"/>
				<polygon fill="#362010" points="49.256,7.908 48.486,8.291 47.83,7.494 48.193,6.623 49.07,6.881 				"/>
				<polygon fill="#362010" points="47.865,10.482 47.098,10.863 46.457,10.102 46.826,9.252 47.697,9.49 				"/>
				<polygon fill="#362010" points="46.475,13.057 45.709,13.438 45.082,12.709 45.461,11.881 46.322,12.098 				"/>
				<polygon fill="#362010" points="45.082,15.631 44.317,16.012 43.708,15.318 44.101,14.508 44.949,14.705 				"/>
				<polygon fill="#362010" points="43.157,17.531 42.308,17.955 41.688,17.307 42.155,16.49 43.063,16.631 				"/>
				<polygon fill="#362010" points="41.229,19.434 40.294,19.896 39.665,19.303 40.212,18.471 41.181,18.553 				"/>
				<polygon fill="#362010" points="39.302,21.336 38.28,21.842 37.644,21.295 38.271,20.451 39.294,20.479 				"/>
			</g>
			<g>
				<polygon fill="#362010" points="46.861,15.779 46.264,16.061 45.809,15.58 46.127,14.998 46.777,15.119 				"/>
				<polygon fill="#362010" points="48.295,13.58 47.695,13.861 47.24,13.381 47.557,12.799 48.209,12.922 				"/>
				<polygon fill="#362010" points="49.725,11.381 49.127,11.664 48.672,11.182 48.986,10.604 49.641,10.721 				"/>
				<polygon fill="#362010" points="51.154,9.182 50.557,9.467 50.104,8.986 50.418,8.404 51.068,8.525 				"/>
				<polygon fill="#362010" points="52.785,7.527 52.127,7.838 51.68,7.418 52.059,6.848 52.742,6.914 				"/>
				<polygon fill="#362010" points="54.412,5.873 53.695,6.213 53.256,5.854 53.699,5.291 54.412,5.303 				"/>
				<polygon fill="#362010" points="56.041,4.221 55.266,4.588 54.83,4.287 55.338,3.74 56.088,3.693 				"/>
			</g>
			<g>
				<polygon fill="#362010" points="58.566,4.131 58.018,4.084 57.891,3.545 58.363,3.26 58.783,3.619 				"/>
				<polygon fill="#362010" points="57.111,5.713 56.488,5.748 56.279,5.221 56.771,4.861 57.285,5.164 				"/>
				<polygon fill="#362010" points="55.654,7.299 54.961,7.414 54.664,6.896 55.178,6.463 55.791,6.713 				"/>
				<polygon fill="#362010" points="54.199,8.885 53.434,9.08 53.055,8.572 53.584,8.068 54.295,8.258 				"/>
				<polygon fill="#362010" points="52.771,10.467 52.074,10.58 51.781,10.061 52.293,9.627 52.904,9.877 				"/>
				<polygon fill="#362010" points="51.342,12.045 50.719,12.08 50.508,11.553 51,11.193 51.516,11.494 				"/>
				<polygon fill="#362010" points="49.912,13.623 49.363,13.58 49.234,13.041 49.709,12.756 50.127,13.115 				"/>
			</g>
			<g>
				<polygon fill="#362010" points="55.508,15.951 55.07,16.209 54.633,15.781 54.799,15.256 55.338,15.363 				"/>
				<polygon fill="#362010" points="57.064,14.09 56.633,14.35 56.191,13.92 56.357,13.396 56.898,13.5 				"/>
				<polygon fill="#362010" points="58.625,12.229 58.189,12.486 57.75,12.057 57.914,11.533 58.457,11.639 				"/>
				<polygon fill="#362010" points="60.182,10.365 59.746,10.627 59.311,10.195 59.475,9.67 60.014,9.777 				"/>
				<polygon fill="#362010" points="62.092,8.654 61.654,8.916 61.234,8.516 61.408,8.008 61.941,8.096 				"/>
				<polygon fill="#362010" points="64,6.945 63.564,7.205 63.16,6.832 63.35,6.344 63.867,6.416 				"/>
				<polygon fill="#362010" points="65.906,5.236 65.475,5.494 65.088,5.15 65.287,4.682 65.793,4.732 				"/>
				<polygon fill="#362010" points="61.008,8.326 60.6,8.08 60.701,7.617 61.168,7.576 61.361,8.014 				"/>
				<polygon fill="#362010" points="56.541,11.154 56.111,11.01 56.115,10.553 56.549,10.422 56.813,10.795 				"/>
				<polygon fill="#362010" points="52.072,13.986 51.619,13.938 51.531,13.49 51.924,13.266 52.264,13.572 				"/>
				<polygon fill="#362010" points="53.57,12.586 53.064,12.529 52.969,12.033 53.404,11.787 53.781,12.123 				"/>
				<polygon fill="#362010" points="55.068,11.184 54.516,11.123 54.402,10.576 54.887,10.303 55.297,10.676 				"/>
				<polygon fill="#362010" points="56.564,9.783 55.965,9.713 55.842,9.119 56.371,8.822 56.814,9.229 				"/>
				<polygon fill="#362010" points="57.867,8.338 57.266,8.268 57.145,7.676 57.672,7.377 58.117,7.787 				"/>
				<polygon fill="#362010" points="59.166,6.889 58.564,6.822 58.447,6.229 58.973,5.93 59.418,6.34 				"/>
				<polygon fill="#362010" points="60.471,5.445 59.869,5.377 59.746,4.783 60.273,4.482 60.723,4.893 				"/>
				<polygon fill="#362010" points="62.732,4.51 62.152,4.426 62.059,3.848 62.574,3.576 62.992,3.986 				"/>
				<polygon fill="#362010" points="64.996,3.576 64.441,3.475 64.369,2.914 64.877,2.67 65.266,3.082 				"/>
				<polygon fill="#362010" points="67.26,2.646 66.729,2.523 66.678,1.979 67.18,1.764 67.539,2.174 				"/>
				<polygon fill="#362010" points="65.6,3.9 65.064,3.781 65.018,3.24 65.518,3.023 65.879,3.434 				"/>
				<polygon fill="#362010" points="63.939,5.158 63.404,5.037 63.355,4.494 63.857,4.281 64.217,4.689 				"/>
				<polygon fill="#362010" points="62.277,6.416 61.744,6.295 61.695,5.754 62.195,5.537 62.557,5.949 				"/>
				<polygon fill="#362010" points="60.867,7.783 60.363,7.668 60.314,7.154 60.791,6.951 61.131,7.342 				"/>
				<polygon fill="#362010" points="59.455,9.15 58.98,9.041 58.938,8.557 59.383,8.365 59.705,8.732 				"/>
				<polygon fill="#362010" points="58.043,10.518 57.6,10.414 57.559,9.959 57.977,9.779 58.279,10.123 				"/>
				<polygon fill="#362010" points="56.363,12.084 55.963,11.9 56.01,11.467 56.439,11.377 56.656,11.76 				"/>
				<polygon fill="#362010" points="54.682,13.65 54.324,13.389 54.461,12.975 54.898,12.975 55.037,13.393 				"/>
				<polygon fill="#362010" points="53.414,15.027 52.998,15.217 52.689,14.877 52.914,14.479 53.363,14.572 				"/>
				<polygon fill="#362010" points="59.348,10.162 58.922,10.377 58.588,10.033 58.807,9.613 59.273,9.689 				"/>
				<polygon fill="#362010" points="65.277,5.295 64.85,5.533 64.488,5.189 64.695,4.744 65.182,4.807 				"/>
				<polygon fill="#362010" points="71.209,0.43 70.773,0.69 70.389,0.344 70.582,-0.124 71.092,-0.074 				"/>
				<polygon fill="#362010" points="72.033,0.116 71.6,0.375 71.213,0.03 71.408,-0.438 71.916,-0.386 				"/>
				<polygon fill="#362010" points="72.857,-0.202 72.422,0.06 72.037,-0.284 72.234,-0.754 72.74,-0.702 				"/>
				<polygon fill="#362010" points="73.684,-0.516 73.246,-0.254 72.863,-0.598 73.061,-1.066 73.566,-1.018 				"/>
			</g>
			<g>
				<polygon fill="#362010" points="75.924,0.32 75.557,0.48 75.287,0.18 75.486,-0.169 75.885,-0.082 				"/>
				<polygon fill="#362010" points="77.676,0.858 77.307,1.016 77.039,0.716 77.238,0.368 77.635,0.455 				"/>
				<polygon fill="#362010" points="79.426,1.394 79.059,1.554 78.789,1.254 78.99,0.906 79.387,0.99 				"/>
				<polygon fill="#362010" points="81.178,1.93 80.807,2.09 80.541,1.79 80.74,1.441 81.139,1.525 				"/>
			</g>
			<g>
				<polygon fill="#362010" points="61.617,15.367 61.043,15.607 60.639,15.131 60.965,14.602 61.568,14.744 				"/>
				<polygon fill="#362010" points="62.438,14.1 61.932,14.311 61.572,13.893 61.861,13.424 62.396,13.553 				"/>
				<polygon fill="#362010" points="63.258,12.83 62.818,13.014 62.514,12.65 62.762,12.244 63.221,12.357 				"/>
				<polygon fill="#362010" points="64.076,11.561 63.709,11.717 63.451,11.412 63.656,11.068 64.049,11.164 				"/>
			</g>
			<polygon fill="#362010" points="36.704,23.158 36.448,23.684 35.87,23.6 35.772,23.027 36.286,22.752 			"/>
			<polygon fill="#362010" points="32.649,25.914 32.394,26.438 31.815,26.357 31.716,25.781 32.229,25.51 			"/>
			<polygon fill="#362010" points="29.528,26.844 29.272,27.367 28.694,27.287 28.595,26.713 29.11,26.438 			"/>
			<polygon fill="#362010" points="27.173,28.172 26.917,28.699 26.341,28.617 26.237,28.041 26.753,27.77 			"/>
			<polygon fill="#362010" points="24.685,31.135 24.429,31.658 23.853,31.576 23.749,31.004 24.267,30.729 			"/>
			<polygon fill="#362010" points="22.546,32.506 22.292,33.031 21.714,32.951 21.614,32.373 22.128,32.104 			"/>
			<polygon fill="#362010" points="32.183,24.338 31.892,24.932 31.149,24.795 30.981,24.119 31.618,23.84 			"/>
			<polygon fill="#362010" points="34.749,21.264 34.36,22.061 33.481,21.936 33.329,21.064 34.114,20.646 			"/>
			<g>
				<polygon fill="#362010" points="28.751,25.51 28.487,24.475 29.179,23.84 29.866,24.475 29.604,25.51 				"/>
				<polygon fill="#362010" points="30.468,23.076 30.325,22.184 30.991,21.758 31.544,22.385 31.22,23.205 				"/>
				<polygon fill="#362010" points="32.183,20.643 32.163,19.889 32.808,19.678 33.224,20.299 32.835,20.896 				"/>
				<polygon fill="#362010" points="34.901,18.209 34.452,18.59 33.897,18.209 34.001,17.598 34.622,17.598 				"/>
				<polygon fill="#362010" points="34.251,17.068 33.833,17.426 33.312,17.072 33.409,16.498 33.989,16.498 				"/>
				<polygon fill="#362010" points="33.604,15.93 33.214,16.262 32.726,15.932 32.817,15.396 33.36,15.396 				"/>
				<polygon fill="#362010" points="32.954,14.791 32.593,15.098 32.142,14.791 32.226,14.295 32.728,14.295 				"/>
			</g>
			<g>
				<polygon fill="#362010" points="34.796,14.42 34.319,14.6 34.003,14.205 34.284,13.779 34.772,13.914 				"/>
				<polygon fill="#362010" points="35.792,12.721 35.315,12.9 34.999,12.504 35.278,12.08 35.769,12.213 				"/>
				<polygon fill="#362010" points="36.786,11.021 36.31,11.199 35.993,10.803 36.274,10.381 36.763,10.516 				"/>
				<polygon fill="#362010" points="37.782,9.322 37.308,9.5 36.989,9.105 37.271,8.682 37.759,8.814 				"/>
			</g>
			<polygon fill="#362010" points="36.165,16.508 35.692,16.688 35.374,16.291 35.651,15.867 36.144,16 			"/>
			<polygon fill="#362010" points="38.179,15.08 37.702,15.258 37.386,14.861 37.665,14.439 38.153,14.572 			"/>
			<polygon fill="#362010" points="36.288,13.857 35.815,14.037 35.497,13.639 35.776,13.217 36.265,13.35 			"/>
			<polygon fill="#362010" points="38.321,12.24 37.774,11.99 37.841,11.393 38.429,11.27 38.728,11.795 			"/>
			<polygon fill="#362010" points="40.794,12.432 40.243,12.182 40.312,11.584 40.899,11.463 41.2,11.986 			"/>
			<polygon fill="#362010" points="36.776,18.262 36.228,18.01 36.296,17.412 36.884,17.291 37.183,17.811 			"/>
			<polygon fill="#362010" points="38.544,16.943 37.995,16.695 38.062,16.096 38.653,15.975 38.948,16.498 			"/>
			<polygon fill="#362010" points="39.966,14.201 39.302,14.451 38.86,13.896 39.249,13.307 39.933,13.494 			"/>
			<polygon fill="#362010" points="40.724,10.475 40.097,10.709 39.677,10.189 40.046,9.631 40.692,9.807 			"/>
			<path fill="#362010" d="M29.632,12.756c0,0,1.719-0.02,1.586,0c-0.125,0.018-0.811-0.516-0.811-0.516l-0.434-0.555L29.632,12.756
				z"/>
			<polyline fill="#362010" points="32.142,12.506 32.548,12.088 32.142,11.404 31.788,10.518 31.228,11.068 31.788,11.717 
				31.888,12.506 			"/>
			<polygon fill="#362010" points="32.954,9.773 33.897,10.037 33.897,10.709 32.954,10.518 			"/>
			<polyline fill="#362010" points="33.544,7.459 33.591,8.34 34.124,8.822 33.329,8.934 32.954,8.34 33.427,7.609 			"/>
			<polyline opacity="0.2" fill="#262261" enable-background="new    " points="20.495,32.104 17.569,35.771 17.569,33.344 
				19.212,31.658 23.03,25.154 			"/>
			<g>
				<polygon fill="#362010" points="57.559,15.531 56.982,15.783 56.563,15.314 56.881,14.771 57.494,14.904 				"/>
				<polygon fill="#362010" points="59.678,13.576 59.135,13.814 58.74,13.369 59.043,12.861 59.619,12.986 				"/>
				<polygon fill="#362010" points="61.799,11.623 61.291,11.844 60.924,11.43 61.203,10.955 61.74,11.072 				"/>
				<polygon fill="#362010" points="63.916,9.666 63.445,9.873 63.104,9.486 63.363,9.045 63.867,9.154 				"/>
				<polygon fill="#362010" points="65.801,7.418 65.328,7.623 64.984,7.24 65.246,6.795 65.748,6.904 				"/>
				<polygon fill="#362010" points="67.686,5.168 67.213,5.373 66.869,4.99 67.129,4.545 67.633,4.658 				"/>
				<polygon fill="#362010" points="69.566,2.92 69.096,3.127 68.752,2.74 69.014,2.296 69.518,2.407 				"/>
				<polygon fill="#362010" points="71.564,2.682 71.092,2.889 70.748,2.504 71.012,2.06 71.512,2.172 				"/>
				<polygon fill="#362010" points="73.559,2.447 73.084,2.654 72.742,2.27 73.006,1.825 73.508,1.934 				"/>
				<polygon fill="#362010" points="75.557,2.212 75.08,2.416 74.736,2.033 74.998,1.588 75.502,1.697 				"/>
				<polygon fill="#362010" points="73.896,3.326 73.426,3.482 73.133,3.086 73.422,2.686 73.893,2.834 				"/>
				<polygon fill="#362010" points="72.236,4.447 71.771,4.549 71.527,4.139 71.844,3.781 72.283,3.971 				"/>
				<polygon fill="#362010" points="70.576,5.564 70.115,5.615 69.924,5.193 70.266,4.877 70.668,5.107 				"/>
				<polygon fill="#362010" points="69.57,7.016 69.016,7.076 68.785,6.568 69.195,6.189 69.686,6.467 				"/>
				<polygon fill="#362010" points="68.564,8.467 67.914,8.541 67.646,7.945 68.127,7.502 68.699,7.826 				"/>
				<polygon fill="#362010" points="67.563,9.918 66.816,10.002 66.51,9.322 67.059,8.814 67.711,9.184 				"/>
			</g>
			<g>
				<polygon fill="#362010" points="69.121,9.877 68.643,9.932 68.443,9.494 68.797,9.168 69.219,9.404 				"/>
				<polygon fill="#362010" points="70.326,8.857 69.814,8.918 69.598,8.445 69.979,8.092 70.432,8.348 				"/>
				<polygon fill="#362010" points="71.537,7.838 70.982,7.904 70.75,7.396 71.16,7.02 71.648,7.291 				"/>
				<polygon fill="#362010" points="72.744,6.818 72.152,6.889 71.904,6.348 72.344,5.943 72.863,6.236 				"/>
				<polygon fill="#362010" points="74.023,5.736 73.475,5.803 73.246,5.299 73.65,4.926 74.133,5.197 				"/>
				<polygon fill="#362010" points="75.301,4.658 74.797,4.713 74.582,4.252 74.959,3.908 75.4,4.154 				"/>
				<polygon fill="#362010" points="76.578,3.576 76.117,3.627 75.924,3.205 76.266,2.889 76.674,3.115 				"/>
				<polygon fill="#362010" points="77.746,3.531 77.285,3.582 77.092,3.158 77.436,2.846 77.842,3.072 				"/>
				<polygon fill="#362010" points="78.914,3.486 78.453,3.537 78.262,3.113 78.602,2.803 79.01,3.027 				"/>
				<polygon fill="#362010" points="80.082,3.439 79.621,3.494 79.428,3.068 79.77,2.758 80.178,2.986 				"/>
			</g>
			<g>
				<polygon fill="#362010" points="74.576,10.439 73.898,10.775 73.373,10.236 73.723,9.564 74.469,9.693 				"/>
				<polygon fill="#362010" points="75.525,9.162 74.883,9.479 74.381,8.967 74.711,8.332 75.418,8.455 				"/>
				<polygon fill="#362010" points="76.473,7.881 75.863,8.182 75.389,7.697 75.703,7.096 76.373,7.209 				"/>
				<polygon fill="#362010" points="77.418,6.604 76.846,6.889 76.395,6.428 76.695,5.861 77.324,5.971 				"/>
				<polygon fill="#362010" points="78.939,5.434 78.41,5.693 78,5.273 78.273,4.754 78.854,4.85 				"/>
				<polygon fill="#362010" points="80.461,4.266 79.98,4.502 79.605,4.119 79.854,3.643 80.383,3.732 				"/>
				<polygon fill="#362010" points="81.982,3.094 81.549,3.307 81.209,2.963 81.434,2.537 81.908,2.613 				"/>
			</g>
			<polygon fill="#362010" points="73.246,8.998 72.744,9.17 72.424,8.744 72.73,8.311 73.236,8.467 			"/>
			<polygon fill="#362010" points="74.729,7.516 74.223,7.686 73.9,7.26 74.211,6.826 74.719,6.982 			"/>
			<polygon fill="#362010" points="76.334,5.506 75.83,5.68 75.514,5.25 75.818,4.818 76.324,4.975 			"/>
			<polygon fill="#362010" points="68.471,0.74 67.967,0.912 67.648,0.486 67.955,0.05 68.461,0.208 			"/>
			<g>
				<polygon fill="#362010" points="75.953,12.412 75.316,12.631 74.918,12.096 75.301,11.549 75.941,11.744 				"/>
				<polygon fill="#362010" points="77.463,10.717 76.883,10.92 76.518,10.43 76.869,9.928 77.453,10.107 				"/>
				<polygon fill="#362010" points="78.975,9.025 78.447,9.209 78.113,8.762 78.434,8.307 78.967,8.471 				"/>
				<polygon fill="#362010" points="80.482,7.332 80.012,7.494 79.711,7.096 79.998,6.688 80.477,6.834 				"/>
			</g>
			<polygon fill="#362010" points="65.111,15.65 64.592,16.021 64.076,15.643 64.283,15.037 64.918,15.041 			"/>
			<polygon opacity="0.2" fill="#262261" enable-background="new    " points="25.515,25.105 25.798,27.908 20.993,35.346 
				19.212,38.35 19.077,36.033 22.128,32.104 22.597,30.311 24.655,27.393 24.884,26.076 			"/>
			<polygon opacity="0.5" fill="#FDE58A" enable-background="new    " points="87.186,6.096 88.85,5.053 88.613,5.68 			"/>
			<polygon opacity="0.5" fill="#362010" enable-background="new    " points="86.801,2.758 85.977,4.58 86.391,4.506 			"/>
			<polygon fill="#362010" points="69.701,-0.994 69.732,-0.6 69.115,-0.428 68.703,-0.716 69.064,-1.066 			"/>
			<polygon fill="#362010" points="62.855,15.826 62.887,16.221 62.361,16.389 62.008,16.092 62.314,15.744 			"/>
			<polygon fill="#362010" points="59.879,16.146 59.91,16.541 59.387,16.705 59.031,16.412 59.338,16.064 			"/>
			<polygon fill="#362010" points="69.275,12.09 68.834,12.693 68.129,12.463 68.131,11.717 68.838,11.486 			"/>
			<polygon fill="#362010" points="71.578,11.717 71.232,12.191 70.668,12.01 70.668,11.42 71.232,11.236 			"/>
			<polygon fill="#362010" points="70.748,13.189 70.402,13.668 69.842,13.486 69.844,12.896 70.402,12.713 			"/>
			<polygon fill="#362010" points="72.227,14.295 71.879,14.771 71.316,14.588 71.316,13.998 71.881,13.814 			"/>
			<polygon fill="#362010" points="73.291,16.021 72.943,16.5 72.381,16.318 72.385,15.729 72.943,15.545 			"/>
			<polygon fill="#362010" points="72.592,17.68 72.293,18.088 71.813,17.932 71.813,17.424 72.293,17.268 			"/>
			<polygon fill="#362010" points="70.914,19.873 70.629,20.27 70.166,20.119 70.166,19.631 70.629,19.482 			"/>
			<polyline opacity="0.2" fill="#262261" enable-background="new    " points="74.488,18.58 74.488,18.381 74.488,18.18 
				74.098,16.732 73.656,15.105 74.314,15.105 74.576,17.029 78.131,19.291 			"/>
			<polygon fill="#362010" points="76.283,14.971 75.803,15.15 75.535,14.889 75.85,14.545 76.311,14.596 			"/>
			<polygon fill="#362010" points="77.521,18.154 76.939,18.244 76.674,17.721 77.092,17.303 77.613,17.572 			"/>
			<polygon fill="#362010" points="78.027,16.189 77.332,16.295 77.053,15.885 77.566,15.523 78.168,15.709 			"/>
			<polyline opacity="0.2" fill="#262261" enable-background="new    " points="70.869,14.951 70.053,17.697 69.813,17.986 
				67.307,17.662 66.678,16.209 66.5,17.168 63.668,17.42 60.23,17.764 67.105,14.467 67.105,13.061 70.869,14.951 70.869,14.951 
							"/>
			<polygon opacity="0.2" fill="#262261" enable-background="new    " points="64.35,10.859 67.307,17.662 69.813,17.986 
				70.053,17.697 			"/>
			<g>
				<polygon fill="#362010" points="35.126,9.303 34.726,9.428 34.483,9.088 34.731,8.748 35.13,8.885 				"/>
				<polygon fill="#362010" points="36.351,8.189 35.925,8.225 35.763,7.83 36.085,7.553 36.45,7.775 				"/>
				<polygon fill="#362010" points="37.769,6.67 37.573,7.076 37.124,7.02 37.042,6.572 37.44,6.355 				"/>
				<polygon fill="#362010" points="39.382,6.303 39.157,6.617 38.821,6.541 38.839,6.176 39.185,6.033 				"/>
				<polygon fill="#362010" points="40.991,5.939 40.739,6.154 40.522,6.061 40.638,5.781 40.931,5.709 				"/>
			</g>
			<polygon opacity="0.2" fill="#262261" enable-background="new    " points="10.696,8.676 11.151,11.404 11.886,9.773 			"/>
			<polygon opacity="0.5" fill="#362010" enable-background="new    " points="29.903,16.764 35.126,10.17 32.267,15.15 
				32.267,18.01 30.009,18.885 			"/>
			<polygon opacity="0.3" fill="#362010" enable-background="new    " points="25.515,25.105 24.728,25.92 17.569,33.344 
				17.569,35.771 19.077,38.092 19.077,36.033 22.128,32.104 22.597,30.311 24.479,27.77 			"/>
			<polygon opacity="0.3" fill="#362010" enable-background="new    " points="25.515,25.105 30.981,18.508 32.267,18.01 
				29.69,22.518 			"/>
			<polygon opacity="0.5" fill="#262261" enable-background="new    " points="30.626,15.854 30.981,18.352 32.267,18.01 
				32.267,15.15 33.329,12.432 			"/>
			<polyline opacity="0.2" fill="#262261" enable-background="new    " points="39.292,7.523 39.192,7.654 36.958,10.523 
				35.126,10.17 			"/>
			<polygon opacity="0.2" fill="#262261" enable-background="new    " points="44.159,17.369 46.688,14.199 47.252,12.307 
				47.141,16.291 46.688,16.963 			"/>
			<polygon opacity="0.2" fill="#262261" enable-background="new    " points="48.984,16.592 50.631,15.691 60.014,14.848 
				59.91,17.775 51.338,16.459 			"/>
			<polygon opacity="0.5" fill="#362010" enable-background="new    " points="60.014,14.848 59.91,17.775 66.5,17.168 			"/>
		</g>
	</g>
	<g>
		<polygon fill="#A3234A" points="57.98,59.978 59.83,59.458 61.193,58.146 78.275,42.348 78.252,41.527 40.058,34.311 
			55.691,59.302 		"/>
		<polygon opacity="0.2" fill="#262261" enable-background="new    " points="58.744,37.717 74.607,45.204 59.83,59.458 
			57.98,59.978 51.055,47.325 		"/>
		<path fill="#A6A8AB" d="M59.172,59.239C59.148,59.302,68.1,48.966,68.1,48.966l6.818-4.973H62.205L59.172,59.239z"/>
		<path opacity="0.2" fill="#262261" enable-background="new    " d="M59.172,59.239C59.148,59.302,68.1,48.966,68.1,48.966
			l6.818-4.973H62.205L59.172,59.239z"/>
		<polygon fill="#BBBDBF" points="59.148,59.302 66.088,49.204 69.199,45.69 74.482,43.377 47.475,36.561 57.541,57.616 		"/>
		<polygon fill="#DBDBDA" points="59.088,58.974 64.729,49.388 69.811,44.454 74.266,42.107 47.131,36.982 56.645,57.638 		"/>
		<polygon opacity="0.2" fill="#262261" enable-background="new    " points="58.982,58.548 63.203,49.396 67.563,45.171 
			71.469,42.463 45.896,42.748 56.943,56.712 		"/>
		<polygon fill="#F1F1F2" points="59.172,59.239 64.596,46.853 69.74,41.525 74.266,38.291 62.111,36.672 46.184,34.549 
			57.09,56.286 		"/>
		<g>
			<polygon opacity="0.8" fill="#655671" enable-background="new    " points="56.088,51.618 59.721,43.993 64.799,40.002 
				58.684,43.526 			"/>
			<polygon opacity="0.8" fill="#655671" enable-background="new    " points="52.646,50.708 56.277,43.09 61.357,39.09 
				55.24,42.619 			"/>
			<polygon opacity="0.8" fill="#655671" enable-background="new    " points="48.918,50.149 52.551,42.529 57.633,38.533 
				51.518,42.061 			"/>
		</g>
		<polygon fill="#DBDBDA" points="4.071,21.307 10.804,44.851 59.148,58.981 49.623,26.994 		"/>
		<polygon opacity="0.4" fill="#262261" enable-background="new    " points="57.434,58.927 57.98,59.978 59.83,59.458 
			67.924,49.165 59.148,59.208 57.434,58.228 		"/>
		<polygon opacity="0.6" fill="#F1F1F2" enable-background="new    " points="4.071,21.307 5.208,25.277 48.607,33.51 
			51.873,34.549 49.623,26.994 		"/>
		<polygon fill="#BBBDBF" points="0.818,22.904 9.606,47.325 59.148,59.302 46.863,29.236 		"/>
		<polygon opacity="0.2" fill="#262261" enable-background="new    " points="1.619,25.277 9.606,47.38 59.148,59.458 
			44.374,30.184 		"/>
		<polygon opacity="0.2" fill="#262261" enable-background="new    " points="2.577,27.783 2.304,27.02 43.159,33.617 
			59.148,59.224 57.98,59.978 38.245,42.807 		"/>
		<polygon opacity="0.2" fill="#262261" enable-background="new    " points="44.889,31.336 56.375,53.981 59.148,59.458 
			51.342,57.522 		"/>
		<g>
			<polygon fill="#BE1E2D" points="-2.17,26.363 9.39,47.157 57.633,60.403 41.349,33.51 			"/>
			<polygon opacity="0.2" fill="#262261" enable-background="new    " points="41.349,33.51 9.39,47.157 57.633,60.403 			"/>
			<path opacity="0.2" fill="#262261" enable-background="new    " d="M-1.991,26.609c0.314,0.904,11.417,20.548,11.417,20.548
				l48.206,13.246l-2.635-5.213L-2.125,26.363"/>
			<polygon fill="#EC1C24" points="-2.17,26.363 39.745,34.09 57.283,59.821 57.98,59.978 41.349,33.51 			"/>
			<polygon opacity="0.2" fill="#262261" enable-background="new    " points="20.155,30.404 51.49,51.29 39.745,34.09 			"/>
		</g>
		<polygon fill="#EC1C24" points="60.332,58.974 78.252,41.527 78.275,42.348 		"/>
		<polygon opacity="0.1" fill="#262261" enable-background="new    " points="55.719,47.157 63.361,49.675 62.83,50.708 
			64.07,50.505 63.414,51.618 64.428,51.618 63.307,53.255 64.799,52.774 59.148,59.208 		"/>
		<polygon opacity="0.2" fill="#2B388F" enable-background="new    " points="57.434,53.185 59.148,59.208 60.445,55.38 		"/>
		<polygon fill="#EC1C24" points="57.283,59.821 57.633,60.403 59.656,59.821 60.98,58.372 59.412,59.575 57.98,59.817 
			57.713,59.458 		"/>
	</g>
	<path opacity="0.3" fill="#2B388F" enable-background="new    " d="M55.461,38.092l-2.814-0.068l1.367,4.346l6.32-0.842
		l2.781-1.525l5.014-0.133c0,0,4.973-1.73,4.537-1.793c-0.432-0.055-13.354-1.777-13.354-1.777"/>
	<path fill="#2B388F" d="M61.695,36.561"/>
	<path fill="#2B388F" d="M60.98,36.521"/>
	<polygon fill="#362010" points="91.373,9.486 90.682,9.514 91.027,9.713 90.838,9.846 90.961,10.17 	"/>
	<polygon opacity="0.5" fill="#EC1C24" enable-background="new    " points="54.295,55.437 8.296,45.003 8.663,45.806 
		56.814,59.056 	"/>
</g>
</svg>
