<?xml version="1.0" encoding="utf-8"?>
<!-- Generator: Adobe Illustrator 15.1.0, SVG Export Plug-In . SVG Version: 6.00 Build 0)  -->
<!DOCTYPE svg PUBLIC "-//W3C//DTD SVG 1.1//EN" "http://www.w3.org/Graphics/SVG/1.1/DTD/svg11.dtd">
<svg version="1.1" id="Layer_1" xmlns="http://www.w3.org/2000/svg" xmlns:xlink="http://www.w3.org/1999/xlink" x="0px" y="0px"
	 width="93.543px" height="73.38px" viewBox="2.796 2.193 93.543 73.38" enable-background="new 2.796 2.193 93.543 73.38"
	 xml:space="preserve">
<g>
	<polygon fill="#A3A49E" points="41.366,56.428 39.515,64.512 34.519,68.671 33.653,70.137 35.528,74.557 41.86,75.573 
		45.165,74.567 46.632,73.262 48.935,73.702 50.521,68.163 	"/>
	<g>
		<g>
			<polygon fill="#E86E62" points="51.505,65.594 52.703,66.772 52.356,68.856 49.718,70.843 48.521,69.43 48.241,69.01 
				48.435,67.854 50.653,66.921 			"/>
			<polygon fill="#C66661" points="51.222,67.552 51.702,68.446 48.81,69.641 49.003,68.487 			"/>
		</g>
		<g>
			<polygon fill="#AF9A92" points="70.609,15.83 67.313,10.027 61.002,2.193 60.639,4.369 61.682,7.34 58.713,3.767 58.305,6.217 
				59.053,8.439 55.969,6.806 56.146,9.492 57.135,11.125 53.992,10.252 54.211,12.316 55.174,14.084 52.546,13.504 52.951,15.67 
				53.666,16.838 51.796,17.994 52.362,20.043 51.376,20.508 51.511,23.049 50.888,23.431 51.534,25.847 50.921,26.164 
				51.407,27.853 51.226,28.519 51.815,30.838 51.952,30.461 			"/>
			<polygon fill="#A38368" points="51.815,30.838 50.894,33.429 51.86,31.004 			"/>
			<polygon fill="#A38368" points="70.611,15.83 72.314,18.826 72.314,18.826 			"/>
			<polygon fill="#82766A" points="63.383,21.853 72.445,19.064 70.609,15.83 51.952,30.461 51.815,30.838 51.86,31.004 
				50.894,33.429 53.432,36.826 			"/>
			<polygon fill="#A38368" points="72.445,19.064 72.311,18.828 72.311,18.828 			"/>
			<polygon fill="#82766A" points="69.537,16.808 61.795,7.5 67.807,18.177 59.164,8.597 65.734,19.48 57.248,11.283 64.467,20.385 
				52.951,15.67 53.779,16.996 60.311,21.193 51.796,17.994 52.362,20.043 57.52,21.744 50.888,23.431 55.012,24.261 50.921,26.164 
				51.407,27.853 62.594,22.117 			"/>
			<line fill="none" x1="62.154" y1="22.09" x2="56.434" y2="26.943"/>
			<path fill="#DFD4C3" d="M59.627,39.321l-3.67-1.042l-2.525-1.453l-2.538-3.396c0,0-5.688-5.283-7.83-6.689
				c-2.141-1.408-4.691-1.203-4.691-1.203l-7.9-3.119l-0.568,0.451l-8.215,1.281l13.529,7.922l-1.131,3.229
				c0,0,2.053,3.297,5.287,5.794l1.143-3.919l8.207,7.983l11.063-5.564L59.627,39.321z"/>
			<polygon fill="#D9CBBA" points="29.905,22.871 30.474,22.42 29.782,22.146 2.796,19.25 9.812,21.189 5.151,22.299 12.882,23.31 
				9.165,24.648 13.528,25.306 21.69,24.152 			"/>
			<path fill="#1A5650" d="M80.678,38.715l-4.799,0.593l-0.764,0.611l-1.146,0.197l1.299,2.871l1.93,3.152l1.152-0.158
				c0.391-0.598,0.773-1.117,1.242-1.469c1.359-1.031,2.936-0.84,2.936-0.84l0.52-0.027l-2.438-3.133L80.678,38.715z"/>
			<path fill="#27664F" d="M87.967,43.165l-0.316-0.664l0.488-1.039l0.863-2.649l1.867,0.503l-0.109-0.143l-0.826-1.745
				c0,0-0.973-2.119-3.674-2.293c-0.068-0.018-0.139-0.031-0.211-0.047l-2.779,1.436l-2.59,2.188l-0.068,1.796l2.438,3.133
				l2.303-0.129L87.967,43.165z"/>
			<polygon fill="#655671" points="53.432,36.826 56.938,38.631 56.836,28.83 62.939,21.851 55.301,25.613 51.952,30.461 
				50.669,33.533 			"/>
			<polyline fill="#333035" points="84.094,37.642 84.658,37.179 85.691,36.859 86.041,37.687 85.973,38.097 85.623,38.529 
				84.773,38.595 84.354,38.177 84.189,37.763 			"/>
			<g>
				<g>
					<path fill="#F2BE6B" d="M92.398,43.573l2.334,0.459l0.92-0.402l-3.174-2.211l-1.613-2.102l-1.867-0.503l-0.863,2.649
						l-0.488,1.039l0.316,0.664l0.172-0.021l4.443,1.439c0,0,0.373,0.053,0.875,0.113L92.25,44.46L92.398,43.573z"/>
					<path fill="#D7973A" d="M96.174,43.995L95.65,43.63l-0.92,0.402l-2.334-0.459l-0.145,0.883l1.203,0.238
						c0.895,0.104,2.207,0.23,2.58,0.115C96.627,44.628,96.174,43.995,96.174,43.995z"/>
				</g>
				<polygon fill="#DBB43A" points="88.139,43.141 87.648,42.501 88.047,41.589 92.398,43.573 92.252,44.456 				"/>
			</g>
			<polygon fill="#5A4A42" points="90.35,41.096 91.27,41.544 90.723,41.825 			"/>
			<path fill="none" d="M55.957,38.279l4.004,1.136l4.037-0.724l3.842,0.012c-0.576-1.143-0.656-6.539-0.656-6.539l1.973-6.801
				l1.906-2.617l0.365-1.338l1.02-2.344l-5.131-9.037l-6.311-7.834l-0.365,2.176l1.043,2.971l-2.969-3.572l-0.41,2.449l0.748,2.223
				l-3.084-1.631l0.182,2.686l0.986,1.631l-3.139-0.873l0.215,2.064l0.963,1.766l-2.628-0.58l0.407,2.166l0.713,1.166l-1.87,1.158
				l0.568,2.049l-0.988,0.465l0.135,2.541l-0.625,0.383l0.646,2.416l-0.611,0.318l0.484,1.689l-0.184,0.666l0.633,2.484
				l-0.963,2.426l2.538,3.396L55.957,38.279z"/>
			<path fill="#E6E7E8" d="M75.268,42.985l-1.299-2.871l-0.914,0.156l1.209,3.488l2.152,3.434l1.17-0.055
				c0.275-0.402,0.521-0.793,0.762-1.158l-1.15,0.154L75.268,42.985z"/>
			<path fill="#184A81" d="M85.758,35.039c-2.949-0.436-6.609,1.641-6.609,1.641l-3.273,2.626l4.799-0.593l2.59-2.188l2.781-1.436
				C85.951,35.072,85.855,35.056,85.758,35.039z"/>
			<polygon fill="#603F38" points="77.586,47.137 76.418,47.192 74.266,43.762 66.885,44.835 67.482,53.393 71.1,51.831 
				72.943,50.878 75.25,49.587 76.738,48.247 			"/>
			<polygon fill="#805C51" points="67.482,53.393 66.934,53.71 59.475,46.534 66.885,44.835 			"/>
			<polygon fill="#6E5040" points="74.266,43.762 73.055,40.27 68.598,42.116 63.025,40.747 59.18,42.012 59.475,46.534 
				66.875,45.11 			"/>
			<polygon fill="#9D8D83" points="59.475,46.534 59.18,42.012 59.791,39.596 52.183,43.149 48.728,45.161 52.015,47.667 			"/>
			<polygon fill="#877A73" points="48.728,45.161 45.032,51.532 41.47,56.391 45.993,52.741 52.015,47.667 			"/>
			<polygon fill="#FFF2DF" points="66.934,53.71 66.848,53.624 59.475,46.534 58.258,52.971 58.664,58.911 62.201,61.596 
				65.521,58.028 66.824,53.983 			"/>
			<polygon fill="#F5E2C6" points="71.1,51.831 69.199,54.413 67.752,55.602 65.521,58.028 66.934,53.71 67.482,53.393 			"/>
			<polygon fill="#D6CCC0" points="52.986,52.512 50.583,60.009 58.699,59.124 58.291,53.184 59.475,46.534 			"/>
			<polygon fill="#E3D6CA" points="57.42,64.641 50.583,60.009 58.664,58.911 62.201,61.596 			"/>
			<polygon fill="#BFB5AB" points="59.475,46.534 52.986,52.512 50.583,60.009 41.47,56.391 52.015,47.667 			"/>
			<polygon fill="#E8DED0" points="58.23,53.132 63.773,50.671 59.475,46.534 			"/>
			<polygon fill="#BFA999" points="41.47,56.391 39.563,64.458 44.058,61.821 50.583,60.009 			"/>
			<polygon fill="#655671" points="59.961,39.415 63.998,38.691 67.84,38.703 69.957,39.305 71.807,40.485 73.055,40.27 
				68.598,42.116 63.025,40.747 			"/>
			<polygon fill="#FDF6E3" points="55.611,41.415 50.474,37.73 40.479,26.31 48.728,45.161 			"/>
			<polygon fill="#9D8D83" points="48.728,45.161 40.519,37.177 40.479,26.31 41.228,27.691 			"/>
			<polygon fill="#A8A198" points="40.519,37.177 35.22,32.072 40.479,26.31 			"/>
			<polygon fill="#ACA59E" points="21.69,24.152 12.646,26.461 16.171,27.914 19.647,28.424 18.685,29.174 21.142,30.349 
				22.989,30.59 22.401,31.189 32.114,35.396 34.089,35.302 35.22,32.072 			"/>
			<polygon fill="#9D8D83" points="12.646,26.461 21.69,24.152 13.528,25.306 12.179,26.267 			"/>
			<polygon fill="#766356" points="67.332,24.779 71.066,22.398 70.906,22.959 71.061,22.746 71.426,21.408 72.445,19.064 
				63.383,21.853 53.432,36.826 55.957,38.279 59.961,39.415 63.998,38.691 64.066,38.691 64.412,32.429 			"/>
			<path fill="#9D8D83" d="M67.184,32.166l1.973-6.801l1.904-2.617l0.121-0.438l-3.848,2.469l-2.92,7.648l-0.346,6.264l3.771,0.012
				C67.262,37.56,67.184,32.166,67.184,32.166z"/>
			<polygon fill="#F2E2CE" points="50.583,60.009 48.938,64.837 50.548,68.178 54.146,67.122 56.025,65.932 57.42,64.641 			"/>
			<polygon fill="#DCC3B1" points="44.058,61.821 50.583,60.009 48.938,64.837 45.362,66.36 43.468,64.114 			"/>
			<polygon fill="#585864" points="47.946,69.678 44.731,70.354 41.3,64.749 39.216,68.223 39.108,73.889 43.878,71.702 			"/>
			<g>
				<polygon fill="#E86E62" points="43.851,65.594 45.05,66.772 44.704,68.856 42.063,70.843 40.866,69.43 40.589,69.01 
					40.782,67.854 43.001,66.921 				"/>
				<polygon fill="#C66661" points="43.001,66.921 43.478,67.817 40.589,69.01 40.782,67.854 				"/>
			</g>
			<polygon fill="#D8CEBF" points="50.548,68.178 48.938,64.837 45.362,66.36 43.468,64.114 43.851,65.594 45.05,66.772 
				44.704,68.856 44.097,69.317 44.731,70.354 47.946,69.678 			"/>
			<path fill="#DCC3B1" d="M50.548,68.178"/>
			<polygon fill="#949198" points="41.298,63.44 41.3,64.749 42.704,67.044 43.001,66.921 43.851,65.594 43.468,64.114 
				44.058,61.821 			"/>
			<polygon fill="#D2C9BB" points="59.938,39.552 53.432,36.826 50.894,33.429 43.946,27.377 40.714,25.76 38.321,25.74 
				40.479,26.31 40.479,26.31 50.474,37.73 55.611,41.415 			"/>
			<polygon fill="#8C7C76" points="63.025,40.747 59.961,39.415 59.734,39.622 59.18,42.012 			"/>
			<path fill="#E2DCD7" d="M40.458,26.445"/>
			<polygon fill="#479578" points="82.133,38.086 84.531,38.486 85.699,39.751 85.203,41.175 			"/>
		</g>
		<polygon fill="#9D998F" points="40.519,37.177 39.378,41.096 40.222,43.02 40.915,49.272 42.362,51.286 45.603,50.552 
			48.728,45.161 		"/>
		<polygon opacity="0.3" fill="#554961" enable-background="new    " points="63.383,21.853 62.939,21.851 56.836,28.83 
			56.836,31.703 		"/>
		<polygon fill="#D9CBBA" points="45.147,36.826 52.552,43.081 48.728,45.161 		"/>
		<polygon opacity="0.5" fill="#554961" enable-background="new    " points="53.432,36.826 61.002,35.396 59.961,39.415 		"/>
		<polygon opacity="0.3" fill="#554961" enable-background="new    " points="71.1,51.831 70.141,53.132 66.934,53.71 67.482,53.27 
					"/>
		<polygon opacity="0.5" fill="#655671" enable-background="new    " points="35.22,32.072 34.089,35.302 36.212,38.086 
			39.378,41.096 48.048,46.335 48.728,45.161 		"/>
	</g>
	<polygon fill="#BFB5AB" points="40.519,37.177 35.22,32.072 34.089,35.302 36.22,38.095 39.378,41.096 	"/>
</g>
</svg>
