<?xml version="1.0" encoding="utf-8"?>
<!-- Generator: Adobe Illustrator 15.1.0, SVG Export Plug-In . SVG Version: 6.00 Build 0)  -->
<!DOCTYPE svg PUBLIC "-//W3C//DTD SVG 1.1//EN" "http://www.w3.org/Graphics/SVG/1.1/DTD/svg11.dtd">
<svg version="1.1" id="Layer_1" xmlns="http://www.w3.org/2000/svg" xmlns:xlink="http://www.w3.org/1999/xlink" x="0px" y="0px"
	 width="93.543px" height="64.169px" viewBox="-1.567 -1.074 93.543 64.169" enable-background="new -1.567 -1.074 93.543 64.169"
	 xml:space="preserve">
<g>
	<g>
		<g>
			<g>
				<polygon fill="#6D533B" points="87.061,22.141 75.086,35.047 75.078,28.288 				"/>
				<polygon fill="#4F3725" points="-1.567,26.926 2.863,30.973 11.249,26.926 29.071,30.973 36.177,28.288 28.888,28.288 
					10.757,25.45 				"/>
				<polygon fill="#75563B" points="2.863,30.973 4.724,35.047 18.122,33.008 11.249,26.926 				"/>
				<polygon fill="#433739" points="4.724,35.047 7.294,36.928 26.86,37.61 18.122,33.008 				"/>
				<polygon fill="#773F3D" points="29.071,30.973 11.249,26.926 18.122,33.008 26.86,37.61 35.257,43.317 				"/>
				<polygon fill="#2D2528" points="7.294,36.928 15.792,42.153 26.86,37.61 				"/>
				<polygon fill="#593135" points="15.792,42.153 32.335,56.365 35.257,43.317 29.104,39.135 26.86,37.61 				"/>
				<polygon fill="#433739" points="36.177,28.288 29.071,30.973 35.257,43.317 33.212,52.445 38.974,42.153 				"/>
				<polygon fill="#75484A" points="32.335,56.365 35.257,57.179 43.075,53.683 47.244,42.153 38.974,42.153 33.413,51.548 				"/>
				<polygon fill="#816348" points="75.082,33.008 62.625,30.973 40.956,33.008 36.923,31.989 36.177,28.288 75.078,28.288 				"/>
				<polygon fill="#64383D" points="72.172,43.317 54.117,46.345 43.263,53.171 47.244,42.153 53.768,45.296 55.629,39.182 				"/>
				<polygon fill="#27242B" points="75.086,35.047 72.172,43.317 55.629,39.182 54.117,46.345 47.244,42.153 58.721,33.805 
					56.564,37.61 				"/>
				<polygon fill="#45B2D0" points="35.257,57.179 36.177,57.64 34.452,59.287 45.963,63.095 48.557,59.398 38.501,54.865 				"/>
				<polygon fill="#483D3B" points="75.082,33.008 62.625,30.973 58.721,33.805 55.629,39.182 75.086,35.047 				"/>
				<polygon fill="#8C4538" points="51.904,55.201 54.117,46.345 43.263,53.171 				"/>
				<g>
					<polygon fill="#A95A3D" points="72.172,43.317 64.018,53.171 51.904,55.201 54.117,46.345 					"/>
				</g>
				<polygon fill="#816348" points="91.977,21.422 87.061,28.594 87.061,32.485 74.814,35.821 87.061,22.141 				"/>
				<polyline fill="#57A653" points="88.551,21.922 85.457,29.106 75.086,35.047 86.385,22.231 88.551,21.422 				"/>
				<polygon fill="#77BA70" points="87.061,32.485 74.814,35.821 72.541,44.993 				"/>
				<g>
					<polygon fill="#45B2D0" points="44.669,60.25 57.498,60.718 59.01,57.853 64.018,53.171 54.332,55.07 48.557,59.398 					"/>
				</g>
				<g>
					<polygon fill="#8A4638" points="54.117,46.345 66.918,49.667 72.172,43.317 					"/>
				</g>
				<g>
					<polygon fill="#64383D" points="36.177,28.288 41.651,32.944 37.292,33.805 					"/>
				</g>
				<g>
					<polygon fill="#2D2528" points="41.651,32.944 47.244,42.153 38.974,42.153 37.292,33.805 					"/>
				</g>
				<g>
					<polygon fill="#593135" points="41.651,32.944 60.525,28.211 62.625,30.973 47.244,42.153 					"/>
				</g>
				<polygon opacity="0.2" fill="#262261" enable-background="new    " points="28.573,44.717 33.212,52.445 35.257,43.317 
					26.86,37.61 				"/>
				<polygon opacity="0.2" fill="#262261" enable-background="new    " points="23.485,29.702 26.86,37.61 29.071,30.973 				"/>
				<polyline fill="#86C77C" points="86.6,22.377 91.977,21.422 85.785,17.559 81.049,14.76 73.551,13.1 42.288,12.208 
					28.415,15.045 14.7,12.997 4.452,17.881 2.085,22.295 -0.911,26.395 10.757,25.45 28.888,28.288 62.941,28.288 75.078,28.288 
					86.6,22.377 				"/>
				<polygon fill="#57A653" points="87.061,22.141 43.075,27.01 25.925,23.631 2.085,22.295 -1.567,26.926 10.757,25.45 
					28.888,28.288 65.416,28.288 				"/>
				<polygon fill="#77BA70" points="12.511,14.04 16.142,16.989 11.249,22.809 22.899,17.575 44.866,20.952 66.58,18.422 
					48.41,14.04 57.262,13.262 71.598,13.045 43.075,12.764 33.847,16.641 				"/>
				<polygon fill="#98CC74" points="28.573,24.153 51.904,22.141 43.075,27.01 				"/>
				<polygon fill="#93CA74" points="27.435,15.86 33.847,16.641 43.075,12.764 42.288,12.208 28.415,15.045 				"/>
				<polygon fill="#A8D38D" points="51.904,22.141 53.186,20.247 79.619,16.641 65.648,23.516 				"/>
				<path fill="#A8D38D" d="M16.95,20.247l5.949-2.672l16.018,5.686c0,0-14.504-2.912-14.854-2.842
					C23.714,20.485,16.95,20.247,16.95,20.247z"/>
				<polygon fill="#77BA70" points="73.875,17.426 65.76,15.329 79.619,16.247 81.049,14.76 91.977,21.422 79.619,16.641 				"/>
				<path fill="#98CC74" d="M66.172,15.356l7.703,2.066l-13.74-0.557c0,0-10.652-2.568-10.898-2.631
					C48.988,14.178,66.172,15.356,66.172,15.356z"/>
				<polygon opacity="0.4" fill="#2C307B" enable-background="new    " points="11.249,26.926 10.757,25.45 4.007,26.258 
					8.993,28.012 				"/>
				<polygon opacity="0.4" fill="#2C307B" enable-background="new    " points="28.573,28.288 23.485,29.702 29.071,30.973 				"/>
			</g>
			<polygon fill="#4F3725" points="78.615,31.045 76.635,27.489 75.078,28.288 75.086,35.309 			"/>
		</g>
		<polygon fill="#5EBFDF" points="16.47,13.184 20.606,15.829 16.142,16.989 20.606,18.604 22.899,17.575 29.071,19.766 
			24.603,20.485 26.86,23.516 11.839,25.62 28.573,28.288 60.684,28.594 74.57,28.594 81.82,24.829 77.342,25.213 75.896,23.375 
			69.148,21.793 55.633,19.915 58.912,19.288 49.232,17.426 41.239,17.788 33.847,16.641 35.692,15.868 26.278,14.76 		"/>
		<polygon fill="#45B2D0" points="25.854,14.692 22.698,15.305 33.847,16.641 35.692,15.868 		"/>
		<polygon fill="#45B2D0" points="22.905,15.305 20.606,18.604 22.899,17.575 		"/>
		<polygon fill="#45B2D0" points="18.546,14.51 22.905,15.305 20.606,15.829 		"/>
		<polygon fill="#45B2D0" points="28.454,17.899 35.966,19.772 29.071,20.891 32.546,19.336 		"/>
		<polygon fill="#45B2D0" points="35.692,17.788 43.581,19.336 39.636,20.891 48.889,22.399 41.37,24.575 56.938,28.012 
			35.966,24.489 45.768,22.668 36.177,21.422 40.87,19.336 		"/>
		<polygon fill="#45B2D0" points="58.912,19.288 48.693,19.336 57.717,22.668 54.117,24.575 62.041,28.012 57.717,24.575 
			58.604,22.809 55.365,20.418 		"/>
		<polygon fill="#7BCBE4" points="24.903,20.891 31.808,23.874 24.903,27.704 22.229,27.247 28.96,24.12 		"/>
		<polygon fill="#7BCBE4" points="33.847,16.641 28.454,17.899 38.556,20.418 32.997,17.788 		"/>
		<polygon fill="#7BCBE4" points="37.292,25.645 49.232,28.594 55.633,28.594 56.531,28.012 		"/>
		<polygon fill="#7BCBE4" points="74.57,28.594 65.76,25.645 66.578,23.649 64.018,23.26 68.188,23.26 67.652,24.743 77.359,27.12 
					"/>
		<path fill="#45B2D0" d="M67.127,21.51c0.42,0.061,6.203,2.717,6.203,2.717l2.568-0.854L67.127,21.51z"/>
		<polygon fill="#7BCBE4" points="22.905,15.305 22.899,17.575 33.847,16.641 		"/>
		<polygon fill="#57A653" points="48.693,17.426 66.355,18.45 58.912,19.288 		"/>
		<polygon fill="#77BA70" points="4.452,17.881 11.249,22.809 2.085,22.295 		"/>
		<polygon fill="#BFB99B" points="11.249,26.926 18.122,33.008 22.229,37.547 28.571,45.028 33.847,51.308 37.647,53.167 
			52.701,52.009 62.625,48.55 65.76,44.395 74.814,35.821 81.82,24.829 75.086,30.325 29.071,30.973 		"/>
		<polygon fill="#B1B097" points="75.086,30.325 62.625,48.55 57.521,50.332 64.758,30.469 		"/>
		<g>
			<polygon fill="#4488AA" points="37.647,36.891 37.647,33.84 38.544,32.485 39.812,32.485 40.706,33.84 40.706,36.891 			"/>
			<polygon fill="#E1DEB9" points="39.175,32.485 40.013,33.963 40.706,33.84 39.812,32.485 			"/>
			<rect x="39.942" y="33.84" fill="#E1DEB9" width="0.764" height="3.047"/>
			<polygon fill="#837D6A" points="37.647,36.317 39.942,36.317 40.706,36.891 37.647,36.891 			"/>
		</g>
		<g>
			<polygon fill="#4488AA" points="42.827,36.891 42.827,33.84 43.765,32.485 45.095,32.485 46.033,33.84 46.033,36.891 			"/>
			<polygon fill="#E1DEB9" points="44.431,32.485 45.306,33.963 46.033,33.84 45.095,32.485 			"/>
			<rect x="45.231" y="33.84" fill="#E1DEB9" width="0.8" height="3.047"/>
			<polygon fill="#837D6A" points="42.827,36.317 45.231,36.317 46.033,36.891 42.827,36.891 			"/>
		</g>
		<g>
			<polygon opacity="0.5" fill="#9A8479" enable-background="new    " points="35.616,33.84 35.616,52.693 37.862,53.167 			"/>
			<polygon opacity="0.5" fill="#837D6A" enable-background="new    " points="35.616,33.84 35.616,52.693 37.862,53.167 			"/>
			<polygon fill="#E1DEB9" points="35.616,33.84 37.632,33.84 40.218,53.167 37.862,53.167 			"/>
		</g>
		<g>
			<polygon fill="#4488AA" points="48.232,36.891 48.232,33.84 49.16,32.485 50.471,32.485 51.396,33.84 51.396,36.891 			"/>
			<polygon fill="#E1DEB9" points="49.816,32.485 50.682,33.963 51.396,33.84 50.471,32.485 			"/>
			<rect x="50.605" y="33.84" fill="#E1DEB9" width="0.793" height="3.047"/>
			<polygon fill="#837D6A" points="48.232,36.317 50.605,36.317 51.396,36.891 48.232,36.891 			"/>
		</g>
		<g>
			<polygon opacity="0.5" fill="#837D6A" enable-background="new    " points="40.755,33.836 40.755,52.687 43.003,53.164 			"/>
			<polygon fill="#E1DEB9" points="40.755,33.836 42.771,33.836 45.36,53.164 43.003,53.164 			"/>
		</g>
		<g>
			<polygon opacity="0.5" fill="#837D6A" enable-background="new    " points="46.104,33.836 46.104,52.687 48.35,53.164 			"/>
			<polygon fill="#E1DEB9" points="46.104,33.836 48.121,33.836 50.709,53.164 48.35,53.164 			"/>
		</g>
		<g>
			<polygon fill="#4488AA" points="53.533,36.891 53.533,33.84 54.475,32.485 55.813,32.485 56.756,33.84 56.756,36.891 			"/>
			<polygon fill="#E1DEB9" points="55.143,32.485 56.025,33.963 56.756,33.84 55.813,32.485 			"/>
			<rect x="55.951" y="33.84" fill="#E1DEB9" width="0.805" height="3.047"/>
			<polygon fill="#837D6A" points="53.533,36.317 55.951,36.317 56.756,36.891 53.533,36.891 			"/>
		</g>
		<g>
			<polygon opacity="0.5" fill="#837D6A" enable-background="new    " points="51.455,33.836 51.455,52.687 53.701,53.164 			"/>
			<polygon fill="#E1DEB9" points="51.455,33.836 53.469,33.836 56.055,53.164 53.701,53.164 			"/>
		</g>
		<g>
			<polygon opacity="0.5" fill="#837D6A" enable-background="new    " points="56.803,33.836 56.803,52.687 59.045,53.164 			"/>
			<polygon fill="#E1DEB9" points="56.803,33.836 58.816,33.836 61.406,53.164 59.045,53.164 			"/>
		</g>
		<polygon fill="#77BA70" points="81.924,24.735 74.918,35.723 81.043,31.911 87.166,22.231 86.455,22.434 		"/>
		<polygon fill="#57A653" points="81.775,25.112 81.025,31.899 74.814,35.821 		"/>
		<polygon fill="#77BA70" points="10.757,25.45 11.249,26.926 18.122,33.008 13.526,33.963 10.421,28.235 8.993,28.012 
			7.796,25.805 		"/>
		<polygon fill="#57A653" points="18.122,33.008 11.249,26.926 11.249,26.881 13.526,33.963 		"/>
		<polygon fill="#45B2D0" points="16.47,13.184 14.128,14.235 15.792,14.51 18.118,14.235 		"/>
		<polygon fill="#45B2D0" points="24.903,27.704 29.872,26.731 34.022,28.288 28.573,28.288 		"/>
		<polygon fill="#45B2D0" points="38.556,28.383 44.45,27.415 48.693,28.383 53.193,27.6 56.531,28.012 53.367,28.383 		"/>
		<polygon fill="#7BCBE4" points="54.117,24.575 49.875,23.26 46.541,24.829 49.941,24.297 		"/>
		<polygon fill="#7BCBE4" points="45.155,20.079 49.232,21.51 45.155,20.918 42.269,21.422 		"/>
		<polygon fill="#7BCBE4" points="48.295,17.637 52.373,19.071 48.295,18.481 45.406,18.985 		"/>
		<polygon fill="#7BCBE4" points="61.443,22.141 65.52,23.571 61.443,22.981 58.555,23.485 		"/>
		<polygon fill="#7BCBE4" points="37.968,27.12 34.503,25.645 30.935,27.12 34.503,26.731 		"/>
		<path fill="#45B2D0" d="M61.553,26.063c0,0,1.742-1.406,1.955-1.234c0.215,0.172,5.951,2.053,5.951,2.053l-5.441-1.033
			L61.553,26.063z"/>
		<polygon fill="#45B2D0" points="63.143,22.141 65.359,21.266 67.127,21.51 		"/>
		<polyline fill="#45B2D0" points="40.042,53.023 43.058,52.07 56.965,52.406 61.348,52.445 57.498,55.783 46.643,57.105 
			38.556,54.927 39.79,53.164 		"/>
		<polygon fill="#85D3EE" points="50.709,53.164 48.336,52.32 45.276,52.921 43.263,54.115 47.227,53.164 		"/>
		<line fill="none" x1="47.227" y1="53.164" x2="48.969" y2="55.07"/>
		<polygon fill="#5EBFDF" points="50.709,53.164 47.227,53.164 48.969,55.07 		"/>
		<g>
			<polygon fill="#85D3EE" points="43.374,36.317 44.337,35.047 46.818,46.007 			"/>
			<polygon fill="#5EBFDF" points="44.337,35.047 46.818,46.007 47.545,41.547 45.306,36.317 			"/>
			<polygon fill="#45B2D0" points="44.044,38.198 43.655,40.198 44.669,47.785 45.746,42.993 			"/>
			<polygon fill="#85D3EE" points="45.746,42.993 44.669,47.785 47.029,53.427 			"/>
			<polygon fill="#45B2D0" points="45.746,42.993 47.029,53.427 48.775,53.652 46.818,46.007 			"/>
			<polygon fill="#85D3EE" points="46.818,46.007 47.35,42.743 48.775,53.652 			"/>
			<polygon fill="#5EBFDF" points="47.816,46.345 49.623,51.23 49.371,54.734 48.775,53.652 			"/>
			<polygon fill="#45B2D0" points="44.669,47.785 45.389,53.164 47.029,53.427 			"/>
			<polygon fill="#45B2D0" points="43.374,36.317 43.136,36.317 43.017,35.452 44.337,35.047 			"/>
		</g>
		<polygon fill="#E1DEB9" points="77.342,25.213 74.57,28.594 28.573,28.288 10.757,25.45 11.249,26.926 29.071,30.973 
			75.086,30.325 81.82,24.829 		"/>
		<polygon fill="#45B2D0" points="17.306,26.473 22.899,24.045 20.101,26.063 22.095,27.223 		"/>
		<polygon fill="#57A653" points="-1.567,26.926 4.724,35.047 7.735,31.299 		"/>
		<polygon fill="#57A653" points="4.724,35.047 7.294,36.928 15.792,42.153 13.526,33.963 		"/>
		<polygon fill="#A8D38D" points="13.526,33.963 7.735,31.299 4.724,35.047 		"/>
		<polygon fill="#57A653" points="13.526,33.963 32.335,56.365 33.847,51.308 28.401,44.825 15.792,33.493 		"/>
		<polygon fill="#77BA70" points="13.526,33.963 15.792,42.153 32.335,56.365 		"/>
		<polygon fill="#77BA70" points="18.122,33.008 13.526,33.963 28.401,44.825 22.899,38.336 		"/>
		<polygon fill="#A8D38D" points="11.249,26.926 16.507,33.493 21.521,39.799 13.526,33.963 		"/>
		<polygon fill="#45B2D0" points="60.861,48.835 61.328,52.601 64.998,51.984 62.625,48.55 		"/>
		<polygon fill="#77BA70" points="10.757,25.45 13.526,34.161 -1.567,26.926 		"/>
		<polygon fill="#77BA70" points="7.573,31.5 10.757,25.45 13.526,34.161 		"/>
		<g>
			<g>
				<g>
					<g>
						<polygon fill="#B1D57F" points="48.264,13.844 55.285,10.93 62.809,5.813 64.967,5.104 68.77,13.985 59.129,14.122 						"/>
						<polygon fill="#86C77C" points="64.967,5.104 64.609,11.895 66.502,13.366 71.313,14.618 67.275,9.854 						"/>
						<polygon opacity="0.5" fill="#837D6A" enable-background="new    " points="59.574,9.854 62.809,7.534 61.051,10.266 
							55.285,13.985 55.285,10.836 						"/>
						<polygon fill="#77BA70" points="78.871,14.276 75.887,10.614 73.783,9.854 66.52,5.235 64.967,5.104 67.316,10.083 
							72.248,11.356 74.332,11.254 76.125,15.098 						"/>
						<polygon fill="#B1D57F" points="74.332,11.254 72.248,11.356 70.928,12.428 68.883,13.985 70.305,14.356 71.313,15.118 
							76.125,15.098 						"/>
						<polygon fill="#56A980" points="72.248,11.356 67.398,10.03 70.035,13.11 						"/>
						<polygon opacity="0.2" fill="#2C307B" enable-background="new    " points="66.381,7.043 69.531,10.653 67.398,10.03 
							64.609,11.895 64.967,5.104 						"/>
					</g>
					<polygon opacity="0.2" fill="#2C307B" enable-background="new    " points="74.332,11.254 72.248,11.356 71.313,9.407 
						74.332,11.254 78.871,14.276 76.125,15.098 					"/>
				</g>
				<polygon fill="#77BA70" points="60.297,8.5 63.719,6.274 63.328,8.12 64.85,7.301 64.629,11.895 				"/>
			</g>
			<g>
				<g>
					<polygon fill="#B1D57F" points="17.702,13.444 27.038,7.782 38.626,0.006 41.95,-1.074 43.146,8.899 33.646,6.286 
						28.571,15.03 					"/>
					<polygon fill="#86C77C" points="33.646,6.145 25.854,14.692 41.378,8.272 					"/>
					<polygon fill="#86C77C" points="41.95,-1.074 43.146,8.758 51.721,13.387 45.498,6.145 					"/>
					<polygon opacity="0.4" fill="#8BC53F" enable-background="new    " points="33.646,6.145 38.626,2.618 35.919,6.772 
						25.854,14.692 27.038,7.782 					"/>
					<polyline fill="#77BA70" points="59.129,9.1 58.766,7.301 55.521,6.145 44.341,-0.874 41.95,-1.074 45.498,6.145 53.16,8.428 
						56.371,8.272 59.129,14.122 66.502,13.366 					"/>
					<polygon fill="#B1D57F" points="56.371,8.272 53.16,8.428 51.129,10.055 49.012,11.926 50.105,12.618 47.465,13.024 
						51.721,14.145 59.129,14.122 					"/>
					<polygon fill="#56A980" points="53.16,8.428 45.498,6.145 49.838,11.196 					"/>
					<polygon fill="#B1D57F" points="25.104,15 31.071,15.325 39.874,10.825 39.589,15.52 49.23,13.637 41.378,8.272 					"/>
					<polygon fill="#86C77C" points="31.071,15.325 35.401,15.989 39.589,15.52 40.03,10.717 					"/>
					<polygon fill="#57A653" points="41.378,8.272 48.264,13.844 51.721,14.145 50.338,12.622 49.33,11.844 43.146,8.758 					"/>
					<polygon fill="#86C77C" points="31.071,15.325 35.401,15.989 39.589,15.52 40.03,10.717 					"/>
					<polygon opacity="0.2" fill="#2F3583" enable-background="new    " points="41.378,8.272 48.264,13.844 51.721,14.145 
						50.338,12.622 49.33,11.844 43.146,8.758 					"/>
				</g>
				<polygon fill="#57A653" points="56.371,8.272 53.16,8.428 51.721,5.467 56.371,7.879 59.129,9.1 59.129,14.122 				"/>
			</g>
			<polygon fill="#57A653" points="58.766,7.301 59.129,9.1 66.502,13.366 			"/>
			<polygon fill="#A8D38D" points="55.521,6.145 59.129,9.1 58.766,7.301 			"/>
			<polygon fill="#56A980" points="51.721,14.145 56.371,8.272 59.129,14.122 			"/>
			<polygon fill="#56A980" points="38.626,0.006 38.431,2.809 41.95,-1.074 			"/>
		</g>
		<polygon fill="#B1B097" points="29.071,30.973 33.847,51.308 11.212,26.881 		"/>
		<polygon opacity="0.2" fill="#2F3583" enable-background="new    " points="58.816,33.836 60.883,49.259 62.625,48.55 
			64.018,46.701 		"/>
		<polygon opacity="0.2" fill="#2F3583" enable-background="new    " points="64.018,46.66 75.086,30.284 81.82,24.79 
			74.814,35.778 		"/>
		<polygon opacity="0.2" fill="#2F3583" enable-background="new    " points="29.071,30.973 20.306,28.981 33.722,51.181 		"/>
		<polygon fill="#5EBFDF" points="61.166,51.427 64.998,51.984 64.139,54.242 59.01,57.853 61.328,52.601 		"/>
		<polygon fill="#57A653" points="16.403,33.362 26.587,43.5 17.089,33.223 		"/>
		<polygon fill="#57A653" points="62.625,48.55 64.998,51.984 66.918,49.667 		"/>
		<polygon fill="#77BA70" points="62.625,48.55 66.918,49.667 74.814,35.821 65.76,44.124 		"/>
		<polygon fill="#57A653" points="66.918,49.667 74.814,35.821 71.053,50.984 		"/>
		<polygon fill="#57A653" points="62.625,48.55 65.76,43.961 74.814,35.821 		"/>
		<polygon fill="#57A653" points="74.814,35.821 85.457,29.106 87.061,28.594 87.061,32.485 		"/>
		<polygon fill="#57A653" points="85.457,29.106 87.166,22.274 91.977,21.422 87.061,28.594 		"/>
		<polygon fill="#86C77C" points="81.043,31.911 82.936,28.881 87.061,28.594 		"/>
		<polygon opacity="0.2" fill="#2F3583" enable-background="new    " points="10.757,25.45 7.796,31.415 2.207,31.793 4.724,35.047 
			15.792,42.153 32.335,56.365 33.847,51.308 20.726,36.928 		"/>
		<g>
			<polygon fill="#85D3EE" points="54.053,36.317 55.016,35.047 57.498,46.007 			"/>
			<polygon fill="#5EBFDF" points="55.016,35.047 57.498,46.007 57.941,40.907 55.986,36.317 			"/>
			<polygon fill="#45B2D0" points="54.723,38.198 54.332,40.198 55.35,47.785 56.426,42.993 			"/>
			<polygon fill="#85D3EE" points="56.426,42.993 55.35,47.785 57.711,53.427 			"/>
			<polygon fill="#45B2D0" points="56.426,42.993 57.711,53.427 59.455,53.652 57.498,46.007 			"/>
			<polygon fill="#85D3EE" points="57.463,45.906 57.818,42.231 59.555,54.164 			"/>
			<polygon fill="#5EBFDF" points="58.369,46.007 60.301,51.23 60.203,53.652 59.398,53.57 			"/>
			<polygon fill="#5EBFDF" points="55.35,47.785 56.068,53.164 54.332,55.07 57.711,53.427 			"/>
			<g>
				<polygon fill="#85D3EE" points="54.686,54.734 59.186,52.601 61.52,52.742 64.018,54.175 59.352,53.574 				"/>
			</g>
			<polygon fill="#45B2D0" points="57.66,53.32 56.186,53.023 54.449,54.927 			"/>
			<polygon fill="#45B2D0" points="60.301,51.23 59.186,52.601 61.52,52.742 			"/>
			<polygon fill="#45B2D0" points="54.053,36.317 53.813,36.317 53.701,35.452 55.016,35.047 			"/>
		</g>
		<g>
			<polygon fill="#85D3EE" points="48.693,36.317 49.652,35.047 52.137,46.007 			"/>
			<polygon fill="#5EBFDF" points="49.652,35.047 52.137,46.007 53.045,42.358 50.625,36.317 			"/>
			<polygon fill="#45B2D0" points="49.361,38.198 48.969,40.198 49.986,47.785 51.064,42.993 			"/>
			<polygon fill="#85D3EE" points="51.064,42.993 49.986,47.785 52.346,53.427 			"/>
			<polygon fill="#45B2D0" points="51.064,42.993 52.346,53.427 54.09,53.652 52.137,46.007 			"/>
			<polygon fill="#85D3EE" points="52.137,46.007 52.76,43.5 54.09,53.652 			"/>
			<polygon fill="#5EBFDF" points="53.135,46.345 54.938,51.23 54.686,54.734 54.09,53.652 			"/>
			<polygon fill="#45B2D0" points="48.693,36.317 48.453,36.317 48.336,35.452 49.652,35.047 			"/>
			<polygon fill="#5EBFDF" points="49.986,47.785 50.709,53.164 49.307,53.914 52.346,53.427 			"/>
		</g>
		<g>
			<polygon fill="#85D3EE" points="38.216,36.317 39.177,35.047 41.661,46.007 			"/>
			<polygon fill="#5EBFDF" points="39.177,35.047 41.661,46.007 42.571,42.358 40.147,36.317 			"/>
			<polygon fill="#45B2D0" points="38.886,38.198 38.497,40.198 39.513,47.785 40.589,42.993 			"/>
			<polygon fill="#85D3EE" points="40.589,42.993 39.513,47.785 41.874,53.427 			"/>
			<polygon fill="#45B2D0" points="40.589,42.993 40.755,47.785 41.874,53.427 43.618,53.652 41.661,46.007 			"/>
			<polygon fill="#85D3EE" points="41.661,46.007 42.286,43.5 43.618,53.652 			"/>
			<polygon fill="#5EBFDF" points="42.659,46.345 44.464,51.23 44.212,54.734 43.618,53.652 			"/>
			<polygon fill="#5EBFDF" points="39.513,47.785 40.042,53.023 38.501,54.865 41.874,53.427 			"/>
			<g>
				<polygon fill="#FFFFFF" points="38.501,54.865 43.565,52.542 45.682,52.742 48.301,54.242 43.692,53.531 				"/>
				<polygon fill="#4488AA" points="38.501,54.865 43.917,54.775 46.832,57.246 43.692,53.531 				"/>
				<polygon fill="#5EBFDF" points="43.692,53.531 47.984,54.058 50.473,54.753 46.643,57.105 				"/>
			</g>
			<polygon fill="#45B2D0" points="44.464,51.23 44.366,52.619 45.682,52.742 			"/>
			<polygon fill="#45B2D0" points="38.216,36.317 37.976,36.317 37.862,35.452 39.177,35.047 			"/>
		</g>
		<path fill="#5EBFDF" d="M33.214,53.427c0.369-0.014,6.828-0.404,6.828-0.404l-3.865,4.621l-3.844-1.279L33.214,53.427z"/>
		<polygon fill="#85D3EE" points="48.504,53.427 47.984,54.058 50.838,56.593 54.686,54.734 50.709,54.765 		"/>
		<polyline opacity="0.2" fill="#2F3583" enable-background="new    " points="52.307,53.328 50.709,54.765 54.686,54.734 
			52.307,53.328 		"/>
		<polygon fill="#45B2D0" points="32.335,56.365 33.673,51.753 33.728,51.109 35.228,51.533 37.647,53.167 		"/>
		<polygon opacity="0.2" fill="#2F3583" enable-background="new    " points="32.335,56.365 38.501,54.865 36.177,57.644 		"/>
		<polyline fill="#85D3EE" points="42.522,60.718 48.557,59.398 46.697,57.105 38.556,54.865 		"/>
		<polygon fill="#5EBFDF" points="46.643,57.105 48.504,59.398 57.498,55.783 		"/>
		<polygon opacity="0.2" fill="#2F3583" enable-background="new    " points="18.546,14.51 16.142,16.989 20.606,15.829 		"/>
		<polygon opacity="0.3" fill="#006838" enable-background="new    " points="16.142,16.989 20.606,18.604 16.95,20.247 
			24.603,20.485 26.86,23.516 16.386,20.5 		"/>
		<polygon opacity="0.3" fill="#006838" enable-background="new    " points="40.503,18.09 48.693,17.426 45.259,15.829 		"/>
		<polygon opacity="0.3" fill="#006838" enable-background="new    " points="57.498,20.079 73.875,19.467 75.896,23.375 
			67.828,21.661 		"/>
		<polyline fill="#4488AA" points="54.938,51.23 54.963,51.265 56.186,53.023 54.686,54.734 		"/>
		<path fill="#45B2D0" d="M49.217,53.861"/>
		<polygon fill="#5EBFDF" points="45.492,52.601 47.984,54.058 48.504,53.427 		"/>
		<polygon fill="#45B2D0" points="40.042,53.023 38.556,54.865 41.88,53.375 		"/>
		<polygon fill="#4488AA" points="57.422,55.808 59.316,53.562 60.822,53.781 		"/>
		<polygon fill="#85D3EE" points="48.557,59.398 59.01,57.853 56.186,60.718 		"/>
		<polygon fill="#85D3EE" points="59.01,57.853 55.48,56.593 53.701,57.312 		"/>
		<polygon fill="#85D3EE" points="53.701,57.312 51.904,58.033 50.842,56.593 		"/>
		<polyline fill="#5EBFDF" points="44.7,60.246 42.522,60.718 45.963,63.095 57.498,60.718 48.557,59.398 		"/>
		<polygon fill="#B3E2F4" points="41.552,59.287 42.522,60.718 48.504,59.398 		"/>
		<polygon fill="#FFFFFF" points="48.504,53.427 50.709,54.765 54.938,54.773 51.73,56.164 		"/>
		<polygon fill="#FFFFFF" points="47.729,58.443 48.504,59.398 53.701,57.312 		"/>
		<polyline fill="#FFFFFF" points="60.822,53.781 60.633,53.619 59.186,52.601 54.938,54.773 59.352,53.574 		"/>
		<polygon fill="#85D3EE" points="36.177,57.644 39.546,56.593 40.403,57.589 		"/>
		<polygon fill="#FFFFFF" points="39.546,56.593 43.692,57.853 40.403,57.589 		"/>
		<polygon opacity="0.2" fill="#2F3583" enable-background="new    " points="33.673,51.753 35.616,51.753 33.587,50.603 		"/>
		<polygon fill="#45B2D0" points="43.692,57.853 46.643,57.105 47.729,58.443 		"/>
		<g>
			<g>
				<path fill="#BFB99B" d="M23.741,16.684c0.615,0,2.17-0.93,0.832-0.93C23.958,15.75,22.403,16.684,23.741,16.684L23.741,16.684z"
					/>
			</g>
		</g>
		<polygon fill="#FFFFFF" points="35.616,51.753 37.647,53.667 40.042,53.023 37.862,53.171 		"/>
		<polygon fill="#FFFFFF" points="53.701,57.312 59.01,57.853 57.025,58.148 		"/>
		<polygon fill="#85D3EE" points="45.963,63.095 48.098,61.427 57.498,60.718 		"/>
		<polygon fill="#85D3EE" points="64.998,51.984 66.098,55.201 64.105,56.48 65.961,58.701 57.498,60.718 59.01,57.853 
			64.018,54.175 		"/>
		<path fill="#85D3EE" d="M64.998,51.984"/>
		<polygon fill="#77BA70" points="66.918,49.667 64.998,51.984 66.098,55.201 		"/>
		<polygon fill="#86C77C" points="66.918,49.667 66.098,55.201 71.053,50.984 		"/>
		<polygon opacity="0.2" fill="#2F3583" enable-background="new    " points="91.977,21.422 87.166,22.274 81.82,24.79 
			75.086,30.284 74.814,35.821 65.76,43.961 62.625,48.55 64.998,51.984 66.098,55.201 71.053,50.984 72.541,45.028 87.061,32.485 
			87.061,28.594 		"/>
		<polygon opacity="0.2" fill="#2F3583" enable-background="new    " points="40.403,57.589 34.452,59.287 41.552,59.287 		"/>
		<polygon fill="#4488AA" points="42.522,60.718 40.876,61.101 45.963,63.095 		"/>
		<path fill="#5EBFDF" d="M65.961,58.701c-0.268,0.063-6.951-0.848-6.951-0.848l5.096-1.373L65.961,58.701z"/>
		<polygon fill="#45B2D0" points="45.963,63.095 60.545,61.783 57.498,60.718 		"/>
		<polygon fill="#45B2D0" points="48.098,61.427 48.504,59.398 52.346,61.107 		"/>
		<polygon fill="#5EBFDF" points="65.961,58.701 57.498,60.718 60.545,61.783 		"/>
		<polygon fill="#4488AA" points="64.105,56.48 60.725,56.593 59.01,57.853 		"/>
		<polygon fill="#85D3EE" points="57.498,60.718 57.717,61.929 60.545,61.783 		"/>
		<polygon fill="#5EBFDF" points="33.673,51.753 29.942,54.308 32.335,56.365 		"/>
		<polygon fill="#45B2D0" points="64.998,51.984 69.35,52.433 66.098,55.201 		"/>
		<path fill="#45B2D0" d="M66.098,55.201"/>
		<polygon fill="#5EBFDF" points="64.018,54.175 66.098,55.201 63.383,54.64 		"/>
		<polygon fill="#FFFFFF" points="66.098,55.201 64.018,54.175 60.725,56.593 63.932,54.927 		"/>
		<polygon fill="#FFFFFF" points="53.412,61.562 56.26,60.003 59.736,61.5 56.803,60.832 		"/>
		<polygon fill="#FFFFFF" points="43.263,52.681 41.661,46.007 42.103,44.235 40.237,40.079 40.042,37.112 40.147,36.317 
			39.177,35.047 38.003,35.411 39.177,35.821 40.042,40.083 40.589,42.993 39.546,47.648 40.899,43.866 41.661,48.812 		"/>
		<g>
			<polygon fill="#FFFFFF" points="43.017,35.452 44.337,35.047 45.306,36.317 44.595,36.19 46.104,39.54 45.963,42.743 
				44.337,36.6 43.854,35.68 			"/>
			<polygon fill="#FFFFFF" points="45.963,42.743 44.669,47.785 45.938,44.559 46.818,46.007 			"/>
			<polygon fill="#FFFFFF" points="46.818,46.007 47.816,49.828 47.729,53.164 48.775,53.652 48.232,48.949 			"/>
		</g>
		<g>
			<polygon fill="#FFFFFF" points="53.732,35.452 55.049,35.047 56.018,36.317 55.309,36.19 56.816,39.54 56.676,42.743 
				55.049,36.6 54.564,35.68 			"/>
			<polygon fill="#FFFFFF" points="56.676,42.743 55.381,47.785 56.652,44.559 57.533,46.007 			"/>
			<polygon fill="#FFFFFF" points="57.533,46.007 58.238,49.259 57.711,53.427 58.947,48.949 			"/>
		</g>
		<polygon fill="#FFFFFF" points="48.994,35.12 48.693,36.317 49.623,35.821 50.842,40.907 50.223,36.6 51.305,38.014 
			50.625,36.317 49.652,35.047 		"/>
		<polygon fill="#FFFFFF" points="51.305,38.014 53.045,42.358 52.76,43.5 53.135,46.345 52.137,46.007 53.135,49.91 51.064,42.993 
			52.43,44.825 52.27,42.743 		"/>
		<polygon fill="#FFFFFF" points="51.064,42.993 49.986,47.785 51.455,44.293 		"/>
		<polygon fill="#FFFFFF" points="52.137,46.007 53.533,53.218 54.686,54.677 53.873,51.984 		"/>
		<polygon fill="#FFFFFF" points="58.947,48.949 60.301,51.23 58.555,49.828 		"/>
		<polygon fill="#FFFFFF" points="41.661,48.812 41.88,53.375 42.188,50.089 		"/>
		<polygon fill="#7BCBE4" points="15.792,14.51 15.956,14.489 18.374,14.192 19.354,15.03 		"/>
	</g>
	<polygon fill="#A8D38D" points="16.142,16.989 4.452,17.881 11.249,22.809 	"/>
	<polygon fill="#A8D38D" points="73.875,19.467 75.896,23.375 91.977,21.422 	"/>
</g>
</svg>
