<?xml version="1.0" encoding="utf-8"?>
<!-- Generator: Adobe Illustrator 15.1.0, SVG Export Plug-In . SVG Version: 6.00 Build 0)  -->
<!DOCTYPE svg PUBLIC "-//W3C//DTD SVG 1.1//EN" "http://www.w3.org/Graphics/SVG/1.1/DTD/svg11.dtd">
<svg version="1.1" id="Layer_1" xmlns="http://www.w3.org/2000/svg" xmlns:xlink="http://www.w3.org/1999/xlink" x="0px" y="0px"
	 width="175.785px" height="155.625px" viewBox="-43.947 -38.906 175.785 155.625"
	 enable-background="new -43.947 -38.906 175.785 155.625" xml:space="preserve">
<g>
	<g>
		<g>
			<polygon fill="#6D533B" points="122.6,29.854 100.096,54.11 100.083,41.408 			"/>
			<polygon fill="#4F3725" points="-43.947,38.846 -35.63,46.448 -19.865,38.846 13.628,46.448 26.981,41.408 13.28,41.408 
				-20.79,36.078 			"/>
			<polygon fill="#75563B" points="-35.63,46.448 -32.124,54.11 -6.95,50.28 -19.865,38.846 			"/>
			<polygon fill="#433739" points="-32.124,54.11 -27.304,57.645 9.468,58.924 -6.95,50.28 			"/>
			<polygon fill="#773F3D" points="13.628,46.448 -19.865,38.846 -6.95,50.28 9.468,58.924 25.249,69.655 			"/>
			<polygon fill="#2D2528" points="-27.304,57.645 -11.327,67.463 9.468,58.924 			"/>
			<polygon fill="#593135" points="-11.327,67.463 19.759,94.172 25.249,69.655 13.686,61.793 9.468,58.924 			"/>
			<polygon fill="#433739" points="26.981,41.408 13.628,46.448 25.249,69.655 21.407,86.805 32.233,67.463 			"/>
			<polygon fill="#75484A" points="19.759,94.172 25.249,95.701 39.944,89.137 47.778,67.463 32.233,67.463 21.784,85.121 			"/>
			<polygon fill="#816348" points="100.094,50.28 76.677,46.448 35.956,50.28 28.384,48.364 26.981,41.408 100.083,41.408 			"/>
			<polygon fill="#64383D" points="94.625,69.655 60.694,75.344 40.292,88.168 47.778,67.463 60.036,73.373 63.536,61.881 			"/>
			<polygon fill="#27242B" points="100.096,54.11 94.625,69.655 63.536,61.881 60.694,75.344 47.778,67.463 69.346,51.778 
				65.29,58.924 			"/>
			<polygon fill="#E19378" points="25.249,95.701 45.372,105.771 56.532,91.979 40.292,88.168 			"/>
			<polygon fill="#483D3B" points="100.094,50.28 76.677,46.448 69.346,51.778 63.536,61.881 100.096,54.11 			"/>
			<polygon fill="#8C4538" points="56.532,91.979 60.694,75.344 40.292,88.168 			"/>
			<g>
				<polygon fill="#D18F64" points="45.372,105.771 45.372,116.719 38.54,102.354 				"/>
			</g>
			<g>
				<polygon fill="#A95A3D" points="94.625,69.655 79.302,88.168 56.532,91.979 60.694,75.344 				"/>
			</g>
			<g>
				<polygon fill="#CB8874" points="45.372,105.771 69.887,96.969 79.302,88.168 56.532,91.979 				"/>
			</g>
			<g>
				<polygon fill="#E8B366" points="63.536,99.252 45.372,116.719 45.372,105.771 				"/>
			</g>
			<polygon fill="#816348" points="131.838,28.51 122.6,41.983 122.6,49.293 100.096,54.11 122.6,29.854 			"/>
			<polyline fill="#5A4534" points="125.398,29.448 119.581,42.944 100.096,54.11 121.331,30.03 125.398,28.51 			"/>
			<polygon fill="#3F3936" points="122.6,49.293 100.096,54.11 94.625,69.655 			"/>
			<g>
				<polygon fill="#8A4638" points="60.694,75.344 84.749,81.584 94.625,69.655 				"/>
			</g>
			<g>
				<polygon fill="#64383D" points="26.981,41.408 37.268,50.158 29.071,51.778 				"/>
			</g>
			<g>
				<polygon fill="#2D2528" points="37.268,50.158 47.778,67.463 32.233,67.463 29.071,51.778 				"/>
			</g>
			<g>
				<polygon fill="#593135" points="37.268,50.158 72.729,41.264 76.677,46.448 47.778,67.463 				"/>
			</g>
			<polygon opacity="0.2" fill="#262261" enable-background="new    " points="12.688,72.28 21.407,86.805 25.249,69.655 
				9.468,58.924 			"/>
			<polygon opacity="0.2" fill="#262261" enable-background="new    " points="3.13,44.063 9.468,58.924 13.628,46.448 			"/>
			<path opacity="0.4" fill="#2C307B" enable-background="new    " d="M-32.124,54.11l12.26-15.264L9.469,58.924l19.604-7.146
				l8.197-1.621l3.621-6.096l28.844,7.436l30.363,2.613l11.203-12.703l8.283,1.537l3.021,6.35l-18.221,13.26l-4.283-7.951
				l-36.563,7.28l-15.758,5.582L37.993,51.5l-5.754,15.965l-6.984,2.188L12.694,72.28l-23.17-4.092l3.531-8.717c0,0,0-6.195,0-7.693
				S-32.124,54.11-32.124,54.11z"/>
			<polyline fill="#86C77C" points="121.729,30.299 131.838,28.51 120.197,21.246 111.303,15.989 97.213,12.867 38.462,11.194 
				12.389,16.524 -13.095,12.528 -32.64,21.854 -37.083,30.149 -42.714,37.854 -20.79,36.078 13.28,41.408 77.274,41.408 
				100.083,41.408 121.729,30.299 			"/>
			<polygon fill="#57A653" points="122.6,29.854 39.944,39.006 7.716,32.656 -37.083,30.149 -43.947,38.846 -20.79,36.078 
				13.28,41.408 81.928,41.408 			"/>
			<polygon fill="#77BA70" points="-17.493,14.629 -10.673,20.178 -19.865,31.114 2.026,21.272 43.302,27.621 84.118,22.875 
				49.968,14.629 66.602,13.174 93.543,12.764 39.944,12.239 22.602,19.522 			"/>
			<polygon fill="#98CC74" points="12.688,33.635 56.532,29.854 39.944,39.006 			"/>
			<polygon fill="#93CA74" points="10.553,18.051 22.602,19.522 39.944,12.239 38.462,11.194 12.389,16.524 			"/>
			<polygon fill="#A3D292" points="56.532,29.854 58.942,26.299 108.609,19.522 82.368,32.438 			"/>
			<path fill="#A3D292" d="M-9.154,26.299l11.18-5.027L32.124,31.96c0,0-27.254-5.469-27.912-5.342
				C3.557,26.746-9.154,26.299-9.154,26.299z"/>
			<polygon fill="#77BA70" points="97.818,20.996 82.569,17.059 108.609,18.781 111.303,15.989 131.838,28.51 108.609,19.522 			"/>
			<path fill="#98CC74" d="M83.348,17.112l14.47,3.885L71.999,19.95c0,0-20.018-4.832-20.479-4.94
				C51.052,14.895,83.348,17.112,83.348,17.112z"/>
			<polygon opacity="0.4" fill="#2C307B" enable-background="new    " points="-19.865,38.846 -20.79,36.078 -33.472,37.594 
				-24.105,40.889 			"/>
			<polygon opacity="0.4" fill="#2C307B" enable-background="new    " points="12.688,41.408 3.13,44.063 13.628,46.448 			"/>
		</g>
		<polygon fill="#4F3725" points="106.725,46.592 103.01,39.908 100.083,41.408 100.096,54.602 		"/>
	</g>
	<g>
		<g>
			<polygon fill="#C6C3B2" points="-10.052,13.024 12.044,-1.539 39.649,-38.906 42.655,-36.822 42.655,1.389 24.602,-5.465 
				8.858,15.981 			"/>
			<polygon fill="#9CA98D" points="24.602,-5.465 8.858,15.981 39.296,0.114 			"/>
			<polygon fill="#837D6A" points="42.655,-36.822 42.655,1.389 58.954,13.53 47.13,-5.465 			"/>
			<polygon opacity="0.5" fill="#837D6A" enable-background="new    " points="24.602,-5.465 36.622,-24.998 28.925,-3.822 
				12.378,11.194 12.044,-1.539 			"/>
			<polygon fill="#9CA98D" points="87.134,12.481 72.344,-2.433 66.177,-5.465 46.579,-29.572 43.354,-31.937 44.243,-24.853 
				47.13,-5.465 61.688,0.518 67.794,0.114 73.032,15.451 			"/>
			<polygon fill="#C6C3B2" points="67.794,0.114 61.688,0.518 57.829,4.791 53.805,9.694 55.887,11.508 50.868,12.582 58.954,15.52 
				73.032,15.451 			"/>
			<polygon fill="#B2AF9E" points="61.688,0.518 47.13,-5.465 55.251,7.582 			"/>
			<polygon opacity="0.4" fill="#2C307B" enable-background="new    " points="44.721,-22.806 53.805,-2.72 47.569,-4.761 
				42.655,1.389 42.655,-22.498 			"/>
			<polygon fill="#C6C3B2" points="8.858,15.981 20.153,17.614 40.247,2.58 36.192,18.844 54.518,13.906 39.296,0.114 			"/>
			<polygon fill="#B2AF9E" points="20.153,17.614 36.192,18.844 40.247,2.58 			"/>
			<polygon fill="#9CA98D" points="39.296,0.114 50.805,14.221 58.954,15.52 56.323,11.524 54.411,9.477 42.655,1.389 			"/>
			<polygon opacity="0.4" fill="#2C307B" enable-background="new    " points="39.296,0.114 50.805,14.221 58.954,15.52 
				56.323,11.524 54.411,9.477 42.655,1.389 			"/>
			<polygon opacity="0.4" fill="#FFFFFF" enable-background="new    " points="32.28,-29.572 37.78,-31.47 36.622,-24.998 
				42.655,-30.295 42.655,-36.822 39.296,-35.115 39.649,-38.906 			"/>
			<polygon opacity="0.4" fill="#2C307B" enable-background="new    " points="39.649,-38.906 39.296,-35.115 42.655,-36.822 			"/>
		</g>
		<polygon opacity="0.2" fill="#2C307B" enable-background="new    " points="67.794,0.114 61.688,0.518 58.954,-7.24 
			67.794,-0.918 73.032,2.283 73.032,15.451 		"/>
	</g>
</g>
</svg>
