<?xml version="1.0" encoding="utf-8"?>
<!-- Generator: Adobe Illustrator 15.1.0, SVG Export Plug-In . SVG Version: 6.00 Build 0)  -->
<!DOCTYPE svg PUBLIC "-//W3C//DTD SVG 1.0//EN" "http://www.w3.org/TR/2001/REC-SVG-20010904/DTD/svg10.dtd">
<svg version="1.0" id="Layer_1" xmlns="http://www.w3.org/2000/svg" xmlns:xlink="http://www.w3.org/1999/xlink" x="0px" y="0px"
	 width="180.821px" height="124.042px" viewBox="-2.305 0 180.821 124.042" enable-background="new -2.305 0 180.821 124.042"
	 xml:space="preserve">
<g>
	<g>
		<g>
			<g>
				<polygon fill="#6D533B" points="169.012,44.874 145.866,69.824 145.853,56.759 				"/>
				<polygon fill="#4F3725" points="-2.305,54.124 6.252,61.946 22.464,54.124 56.916,61.946 70.653,56.759 56.564,56.759 
					21.515,51.272 				"/>
				<polygon fill="#75563B" points="6.252,61.946 9.854,69.824 35.75,65.882 22.464,54.124 				"/>
				<polygon fill="#433739" points="9.854,69.824 14.818,73.458 52.641,74.779 35.75,65.882 				"/>
				<polygon fill="#773F3D" points="56.916,61.946 22.464,54.124 35.75,65.882 52.641,74.779 68.874,85.813 				"/>
				<polygon fill="#2D2528" points="14.818,73.458 31.246,83.561 52.641,74.779 				"/>
				<polygon fill="#593135" points="31.246,83.561 63.225,111.033 68.874,85.813 56.982,77.729 52.641,74.779 				"/>
				<polygon fill="#433739" points="70.653,56.759 56.916,61.946 68.874,85.813 64.918,103.455 76.06,83.561 				"/>
				<polygon fill="#75484A" points="63.225,111.033 68.874,112.605 83.987,105.854 92.047,83.561 76.06,83.561 65.31,101.724 				
					"/>
				<polygon fill="#816348" points="145.86,65.882 121.775,61.946 79.887,65.882 72.097,63.914 70.653,56.759 145.853,56.759 				
					"/>
				<polygon fill="#64383D" points="140.235,85.813 105.33,91.666 84.349,104.855 92.047,83.561 104.656,89.642 108.256,77.816 				
					"/>
				<polygon fill="#27242B" points="145.866,69.824 140.235,85.813 108.256,77.816 105.33,91.666 92.047,83.561 114.234,67.421 
					110.064,74.779 				"/>
				<polygon fill="#45B2D0" points="68.874,112.605 70.653,113.5 67.318,116.683 89.571,124.042 94.586,116.898 75.146,108.134 				
					"/>
				<polygon fill="#483D3B" points="145.86,65.882 121.775,61.946 114.234,67.421 108.256,77.816 145.866,69.824 				"/>
				<polygon fill="#8C4538" points="101.055,108.783 105.33,91.666 84.349,104.855 				"/>
				<g>
					<polygon fill="#A95A3D" points="140.235,85.813 124.473,104.855 101.055,108.783 105.33,91.666 					"/>
				</g>
				<polygon fill="#816348" points="178.516,43.491 169.012,57.349 169.012,64.871 145.34,71.318 169.012,44.874 				"/>
				<polyline fill="#57A653" points="171.896,44.456 165.907,58.341 145.866,69.824 167.707,45.054 171.896,43.491 				"/>
				<polygon fill="#77BA70" points="169.012,64.871 145.34,71.318 140.943,89.05 				"/>
				<g>
					<polygon fill="#45B2D0" points="87.069,118.542 111.866,119.451 114.789,113.91 124.473,104.855 105.75,108.529 
						94.586,116.898 					"/>
				</g>
				<g>
					<polygon fill="#8A4638" points="105.33,91.666 130.076,98.083 140.235,85.813 					"/>
				</g>
				<g>
					<polygon fill="#64383D" points="70.653,56.759 81.235,65.759 72.805,67.421 					"/>
				</g>
				<g>
					<polygon fill="#2D2528" points="81.235,65.759 92.047,83.561 76.06,83.561 72.805,67.421 					"/>
				</g>
				<g>
					<polygon fill="#593135" points="81.235,65.759 117.717,56.61 121.775,61.946 92.047,83.561 					"/>
				</g>
				<polygon opacity="0.2" fill="#262261" enable-background="new    " points="55.952,88.517 64.918,103.455 68.874,85.813 
					52.641,74.779 				"/>
				<polygon opacity="0.2" fill="#262261" enable-background="new    " points="46.12,59.493 52.641,74.779 56.916,61.946 				"/>
				<polyline fill="#86C77C" points="168.121,45.333 178.516,43.491 166.543,36.019 157.396,30.606 142.9,27.401 82.464,25.675 
					55.65,31.161 29.133,27.2 9.323,36.644 4.752,45.177 -1.038,53.103 21.515,51.272 56.564,56.759 122.387,56.759 145.853,56.759 
					168.121,45.333 				"/>
				<polygon fill="#57A653" points="169.012,44.874 83.987,54.288 50.836,47.757 4.752,45.177 -2.305,54.124 21.515,51.272 
					56.564,56.759 127.176,56.759 				"/>
				<polygon fill="#77BA70" points="24.905,29.216 31.922,34.92 22.464,46.168 44.985,36.05 87.447,42.579 129.426,37.69 
					94.301,29.216 111.41,27.716 139.125,27.293 83.987,26.752 66.151,34.245 				"/>
				<polygon fill="#98CC74" points="55.952,48.763 101.055,44.874 83.987,54.288 				"/>
				<polygon fill="#93CA74" points="53.756,32.735 66.151,34.245 83.987,26.752 82.464,25.675 55.65,31.161 				"/>
				<polygon fill="#A8D38D" points="101.055,44.874 103.531,41.218 154.625,34.245 127.625,47.534 				"/>
				<path fill="#A8D38D" d="M33.485,41.218l11.5-5.168l30.964,10.99c0,0-28.035-5.629-28.712-5.494
					C46.562,41.677,33.485,41.218,33.485,41.218z"/>
				<polygon fill="#77BA70" points="143.525,35.761 127.84,31.711 154.625,33.483 157.396,30.606 178.516,43.491 154.625,34.245 
									"/>
				<path fill="#98CC74" d="M128.635,31.763l14.89,3.998l-26.563-1.078c0,0-20.59-4.965-21.065-5.084
					C95.418,29.485,128.635,31.763,128.635,31.763z"/>
				<polygon opacity="0.4" fill="#2C307B" enable-background="new    " points="22.464,54.124 21.515,51.272 8.469,52.834 
					18.108,56.226 				"/>
				<polygon opacity="0.4" fill="#2C307B" enable-background="new    " points="55.952,56.759 46.12,59.493 56.916,61.946 				"/>
			</g>
			<polygon fill="#4F3725" points="152.684,62.091 148.86,55.213 145.853,56.759 145.866,70.328 			"/>
		</g>
		<polygon fill="#5EBFDF" points="32.56,27.562 40.555,32.679 31.922,34.92 40.555,38.04 44.985,36.05 56.916,40.286 48.279,41.677 
			52.641,47.534 23.609,51.601 55.952,56.759 118.028,57.349 144.871,57.349 158.883,50.075 150.228,50.817 147.434,47.263 
			134.391,44.204 108.262,40.573 114.603,39.36 95.891,35.761 80.438,36.461 66.151,34.245 69.714,32.749 51.517,30.606 		"/>
		<polygon fill="#45B2D0" points="50.699,30.478 44.595,31.665 66.151,34.245 69.714,32.749 		"/>
		<polygon fill="#45B2D0" points="44.996,31.665 40.555,38.04 44.985,36.05 		"/>
		<polygon fill="#45B2D0" points="36.571,30.127 44.996,31.665 40.555,32.679 		"/>
		<polygon fill="#45B2D0" points="55.721,36.675 70.241,40.295 56.916,42.458 63.633,39.458 		"/>
		<polygon fill="#45B2D0" points="69.714,36.461 84.964,39.458 77.336,42.458 95.225,45.377 80.69,49.581 110.785,56.226 
			70.241,49.418 89.196,45.897 70.653,43.491 79.723,39.458 		"/>
		<polygon fill="#45B2D0" points="114.603,39.36 94.844,39.458 112.293,45.897 105.33,49.581 120.646,56.226 112.293,49.581 
			114.006,46.168 107.741,41.543 		"/>
		<polygon fill="#7BCBE4" points="48.859,42.458 62.206,48.226 48.859,55.629 43.692,54.745 56.699,48.7 		"/>
		<polygon fill="#7BCBE4" points="66.151,34.245 55.721,36.675 75.25,41.543 64.504,36.461 		"/>
		<polygon fill="#7BCBE4" points="72.805,51.647 95.891,57.349 108.262,57.349 109.996,56.226 		"/>
		<polygon fill="#7BCBE4" points="144.871,57.349 127.84,51.647 129.422,47.793 124.473,47.042 132.531,47.042 131.496,49.903 
			150.258,54.499 		"/>
		<path fill="#45B2D0" d="M130.478,43.659c0.813,0.113,11.991,5.25,11.991,5.25l4.965-1.646L130.478,43.659z"/>
		<polygon fill="#7BCBE4" points="44.996,31.665 44.985,36.05 66.151,34.245 		"/>
		<polygon fill="#57A653" points="94.844,35.761 128.989,37.741 114.603,39.36 		"/>
		<polygon fill="#77BA70" points="9.323,36.644 22.464,46.168 4.752,45.177 		"/>
		<polygon fill="#BFB99B" points="22.464,54.124 35.75,65.882 43.692,74.656 55.949,89.119 66.151,101.259 73.491,104.855 
			102.594,102.615 121.775,95.931 127.84,87.892 145.34,71.318 158.883,50.075 145.866,60.694 56.916,61.946 		"/>
		<polygon fill="#B1B097" points="145.866,60.694 121.775,95.931 111.914,99.369 125.903,60.976 		"/>
		<g>
			<polygon fill="#4488AA" points="73.491,73.388 73.491,67.492 75.228,64.871 77.677,64.871 79.406,67.492 79.406,73.388 			"/>
			<polygon fill="#E1DEB9" points="76.449,64.871 78.068,67.73 79.406,67.492 77.677,64.871 			"/>
			<rect x="77.929" y="67.488" fill="#E1DEB9" width="1.479" height="5.896"/>
			<polygon fill="#837D6A" points="73.491,72.275 77.929,72.275 79.406,73.388 73.491,73.388 			"/>
		</g>
		<g>
			<polygon fill="#4488AA" points="83.506,73.388 83.506,67.492 85.321,64.871 87.891,64.871 89.703,67.492 89.703,73.388 			"/>
			<polygon fill="#E1DEB9" points="86.608,64.871 88.298,67.73 89.703,67.492 87.891,64.871 			"/>
			<rect x="88.155" y="67.488" fill="#E1DEB9" width="1.55" height="5.896"/>
			<polygon fill="#837D6A" points="83.506,72.275 88.155,72.275 89.703,73.388 83.506,73.388 			"/>
		</g>
		<g>
			<polygon opacity="0.5" fill="#9A8479" enable-background="new    " points="69.568,67.492 69.568,103.938 73.907,104.855 			"/>
			<polygon opacity="0.5" fill="#837D6A" enable-background="new    " points="69.568,67.492 69.568,103.938 73.907,104.855 			"/>
			<polygon fill="#E1DEB9" points="69.568,67.492 73.464,67.492 78.464,104.855 73.907,104.855 			"/>
		</g>
		<g>
			<polygon fill="#4488AA" points="93.957,73.388 93.957,67.492 95.75,64.871 98.285,64.871 100.073,67.492 100.073,73.388 			"/>
			<polygon fill="#E1DEB9" points="97.021,64.871 98.693,67.73 100.073,67.492 98.285,64.871 			"/>
			<rect x="98.547" y="67.488" fill="#E1DEB9" width="1.526" height="5.896"/>
			<polygon fill="#837D6A" points="93.957,72.275 98.547,72.275 100.073,73.388 93.957,73.388 			"/>
		</g>
		<g>
			<polygon opacity="0.5" fill="#837D6A" enable-background="new    " points="79.504,67.484 79.504,103.927 83.845,104.845 			"/>
			<polygon fill="#E1DEB9" points="79.504,67.484 83.401,67.484 88.403,104.845 83.845,104.845 			"/>
		</g>
		<g>
			<polygon opacity="0.5" fill="#837D6A" enable-background="new    " points="89.844,67.484 89.844,103.927 94.185,104.845 			"/>
			<polygon fill="#E1DEB9" points="89.844,67.484 93.739,67.484 98.74,104.845 94.185,104.845 			"/>
		</g>
		<g>
			<polygon fill="#4488AA" points="104.198,73.388 104.198,67.492 106.025,64.871 108.61,64.871 110.434,67.492 110.434,73.388 			
				"/>
			<polygon fill="#E1DEB9" points="107.318,64.871 109.021,67.73 110.434,67.492 108.61,64.871 			"/>
			<rect x="108.875" y="67.488" fill="#E1DEB9" width="1.559" height="5.896"/>
			<polygon fill="#837D6A" points="104.198,72.275 108.875,72.275 110.434,73.388 104.198,73.388 			"/>
		</g>
		<g>
			<polygon opacity="0.5" fill="#837D6A" enable-background="new    " points="100.185,67.484 100.185,103.927 104.525,104.845 			
				"/>
			<polygon fill="#E1DEB9" points="100.185,67.484 104.078,67.484 109.078,104.845 104.525,104.845 			"/>
		</g>
		<g>
			<polygon opacity="0.5" fill="#837D6A" enable-background="new    " points="110.525,67.484 110.525,103.927 114.86,104.845 			
				"/>
			<polygon fill="#E1DEB9" points="110.525,67.484 114.418,67.484 119.422,104.845 114.86,104.845 			"/>
		</g>
		<polygon fill="#77BA70" points="159.086,49.888 145.543,71.134 157.379,63.763 169.219,45.054 167.84,45.444 		"/>
		<polygon fill="#57A653" points="158.793,50.618 157.344,63.738 145.34,71.318 		"/>
		<polygon fill="#77BA70" points="21.515,51.272 22.464,54.124 35.75,65.882 26.865,67.73 20.865,56.657 18.108,56.226 
			15.788,51.958 		"/>
		<polygon fill="#57A653" points="35.75,65.882 22.464,54.124 22.464,54.042 26.865,67.73 		"/>
		<polygon fill="#45B2D0" points="32.56,27.562 28.029,29.595 31.246,30.127 35.74,29.595 		"/>
		<polygon fill="#45B2D0" points="48.859,55.629 58.462,53.75 66.489,56.759 55.952,56.759 		"/>
		<polygon fill="#45B2D0" points="75.25,56.944 86.644,55.067 94.844,56.944 103.543,55.429 109.996,56.226 103.879,56.944 		"/>
		<polygon fill="#7BCBE4" points="105.33,49.581 97.129,47.042 90.685,50.075 97.256,49.043 		"/>
		<polygon fill="#7BCBE4" points="88.006,40.888 95.891,43.659 88.006,42.511 82.427,43.491 		"/>
		<polygon fill="#7BCBE4" points="94.073,36.172 101.957,38.944 94.073,37.8 88.494,38.778 		"/>
		<polygon fill="#7BCBE4" points="119.491,44.875 127.375,47.644 119.491,46.499 113.912,47.478 		"/>
		<polygon fill="#7BCBE4" points="74.113,54.499 67.418,51.647 60.522,54.499 67.418,53.75 		"/>
		<path fill="#45B2D0" d="M119.707,52.456c0,0,3.366-2.713,3.778-2.381c0.414,0.332,11.498,3.967,11.498,3.967l-10.513-1.998
			L119.707,52.456z"/>
		<polygon fill="#45B2D0" points="122.781,44.874 127.064,43.185 130.478,43.659 		"/>
		<polyline fill="#45B2D0" points="78.122,104.574 83.952,102.732 110.838,103.376 119.309,103.455 111.866,109.908 90.883,112.468 
			75.25,108.257 77.635,104.845 		"/>
		<polygon fill="#85D3EE" points="98.74,104.845 94.156,103.216 88.239,104.376 84.349,106.688 92.012,104.845 		"/>
		<line fill="none" x1="92.012" y1="104.845" x2="95.383" y2="108.529"/>
		<polygon fill="#5EBFDF" points="98.74,104.845 92.012,104.845 95.383,108.529 		"/>
		<g>
			<polygon fill="#85D3EE" points="84.562,72.275 86.425,69.824 91.223,91.009 			"/>
			<polygon fill="#5EBFDF" points="86.425,69.824 91.223,91.009 92.625,82.392 88.298,72.275 			"/>
			<polygon fill="#45B2D0" points="85.859,75.916 85.108,79.779 87.069,94.447 89.153,85.183 			"/>
			<polygon fill="#85D3EE" points="89.153,85.183 87.069,94.447 91.629,105.355 			"/>
			<polygon fill="#45B2D0" points="89.153,85.183 91.629,105.355 95.004,105.791 91.223,91.009 			"/>
			<polygon fill="#85D3EE" points="91.223,91.009 92.25,84.701 95.004,105.791 			"/>
			<polygon fill="#5EBFDF" points="93.153,91.666 96.641,101.109 96.156,107.882 95.004,105.791 			"/>
			<polygon fill="#45B2D0" points="87.069,94.447 88.46,104.845 91.629,105.355 			"/>
			<polygon fill="#45B2D0" points="84.562,72.275 84.104,72.275 83.876,70.605 86.425,69.824 			"/>
		</g>
		<polygon fill="#E1DEB9" points="150.228,50.817 144.871,57.349 55.952,56.759 21.515,51.272 22.464,54.124 56.916,61.946 
			145.866,60.694 158.883,50.075 		"/>
		<polygon fill="#45B2D0" points="34.172,53.252 44.985,48.558 39.578,52.456 43.433,54.704 		"/>
		<polygon fill="#57A653" points="-2.305,54.124 9.854,69.824 15.675,62.578 		"/>
		<polygon fill="#57A653" points="9.854,69.824 14.818,73.458 31.246,83.561 26.865,67.73 		"/>
		<polygon fill="#A8D38D" points="26.865,67.73 15.675,62.578 9.854,69.824 		"/>
		<polygon fill="#57A653" points="26.865,67.73 63.225,111.033 66.151,101.259 55.62,88.727 31.246,66.816 		"/>
		<polygon fill="#77BA70" points="26.865,67.73 31.246,83.561 63.225,111.033 		"/>
		<polygon fill="#77BA70" points="35.75,65.882 26.865,67.73 55.62,88.727 44.985,76.183 		"/>
		<polygon fill="#A8D38D" points="22.464,54.124 32.63,66.816 42.321,79.013 26.865,67.73 		"/>
		<polygon fill="#45B2D0" points="118.366,96.48 119.275,103.759 126.366,102.564 121.775,95.931 		"/>
		<polygon fill="#77BA70" points="21.515,51.272 26.865,68.109 -2.305,54.124 		"/>
		<polygon fill="#77BA70" points="15.361,62.966 21.515,51.272 26.865,68.109 		"/>
		<g>
			<g>
				<g>
					<g>
						<polygon fill="#B1D57F" points="94.021,28.836 107.586,23.206 122.133,13.315 126.305,11.944 133.656,29.114 115.021,29.374 
													"/>
						<polygon fill="#86C77C" points="126.305,11.944 125.61,25.073 129.275,27.915 138.571,30.334 130.766,21.125 						"/>
						<polygon opacity="0.5" fill="#837D6A" enable-background="new    " points="115.883,21.125 122.133,16.64 118.737,21.92 
							107.586,29.114 107.586,23.028 						"/>
						<polygon fill="#77BA70" points="153.18,29.675 147.416,22.593 143.344,21.125 129.309,12.198 126.305,11.944 130.848,21.571 
							140.379,24.028 144.407,23.831 147.871,31.265 						"/>
						<polygon fill="#B1D57F" points="144.407,23.831 140.379,24.028 137.828,26.099 133.875,29.114 136.625,29.829 138.571,31.3 
							147.871,31.265 						"/>
						<polygon fill="#56A980" points="140.379,24.028 131.006,21.466 136.098,27.418 						"/>
						<polygon opacity="0.2" fill="#2C307B" enable-background="new    " points="129.039,15.69 135.125,22.67 131.006,21.466 
							125.61,25.073 126.305,11.944 						"/>
					</g>
					<polygon opacity="0.2" fill="#2C307B" enable-background="new    " points="144.407,23.831 140.379,24.028 138.571,20.263 
						144.407,23.831 153.18,29.675 147.871,31.265 					"/>
				</g>
				<polygon fill="#77BA70" points="117.278,18.509 123.896,14.204 123.137,17.771 126.08,16.19 125.65,25.073 				"/>
			</g>
			<g>
				<g>
					<polygon fill="#B1D57F" points="34.94,28.065 52.984,17.12 75.385,2.088 81.812,0 84.12,19.28 65.759,14.228 55.949,31.129 
											"/>
					<polygon fill="#86C77C" points="65.759,13.958 50.699,30.478 80.704,18.067 					"/>
					<polygon fill="#86C77C" points="81.812,0 84.12,19.007 100.698,27.956 88.672,13.958 					"/>
					<polygon opacity="0.4" fill="#8BC53F" enable-background="new    " points="65.759,13.958 75.385,7.14 70.153,15.167 
						50.699,30.478 52.984,17.12 					"/>
					<polyline fill="#77BA70" points="115.021,19.667 114.321,16.19 108.047,13.958 86.436,0.386 81.812,0 88.672,13.958 
						103.485,18.368 109.689,18.067 115.021,29.374 129.275,27.915 					"/>
					<polygon fill="#B1D57F" points="109.689,18.067 103.485,18.368 99.555,21.517 95.465,25.129 97.58,26.468 92.473,27.254 
						100.698,29.42 115.021,29.374 					"/>
					<polygon fill="#56A980" points="103.485,18.368 88.672,13.958 97.062,23.72 					"/>
					<polygon fill="#B1D57F" points="49.25,31.077 60.781,31.7 77.798,22.999 77.248,32.079 95.887,28.44 80.704,18.067 					"/>
					<polygon fill="#86C77C" points="60.781,31.7 69.153,32.983 77.248,32.079 78.099,22.793 					"/>
					<polygon fill="#57A653" points="80.704,18.067 94.021,28.836 100.698,29.42 98.028,26.478 96.078,24.972 84.12,19.007 					"/>
					<polygon fill="#86C77C" points="60.781,31.7 69.153,32.983 77.248,32.079 78.099,22.793 					"/>
					<polygon opacity="0.2" fill="#2F3583" enable-background="new    " points="80.704,18.067 94.021,28.836 100.698,29.42 
						98.028,26.478 96.078,24.972 84.12,19.007 					"/>
				</g>
				<polygon fill="#57A653" points="109.689,18.067 103.485,18.368 100.698,12.647 109.689,17.31 115.021,19.667 115.021,29.374 
									"/>
			</g>
			<polygon fill="#57A653" points="114.321,16.19 115.021,19.667 129.275,27.915 			"/>
			<polygon fill="#A8D38D" points="108.047,13.958 115.021,19.667 114.321,16.19 			"/>
			<polygon fill="#56A980" points="100.698,29.42 109.689,18.067 115.021,29.374 			"/>
			<polygon fill="#56A980" points="75.385,2.088 75.011,7.507 81.812,0 			"/>
		</g>
		<polygon fill="#B1B097" points="56.916,61.946 66.151,101.259 22.396,54.042 		"/>
		<polygon opacity="0.2" fill="#2F3583" enable-background="new    " points="114.418,67.484 118.41,97.294 121.775,95.931 
			124.473,92.354 		"/>
		<polygon opacity="0.2" fill="#2F3583" enable-background="new    " points="124.473,92.275 145.866,60.618 158.883,49.995 
			145.34,71.238 		"/>
		<polygon opacity="0.2" fill="#2F3583" enable-background="new    " points="56.916,61.946 39.973,58.097 65.905,101.017 		"/>
		<polygon fill="#5EBFDF" points="118.957,101.486 126.366,102.564 124.703,106.931 114.789,113.91 119.275,103.759 		"/>
		<polygon fill="#57A653" points="32.429,66.566 52.113,86.164 33.754,66.296 		"/>
		<polygon fill="#57A653" points="121.775,95.931 126.366,102.564 130.076,98.083 		"/>
		<polygon fill="#77BA70" points="121.775,95.931 130.076,98.083 145.34,71.318 127.84,87.371 		"/>
		<polygon fill="#57A653" points="130.076,98.083 145.34,71.318 138.071,100.628 		"/>
		<polygon fill="#57A653" points="121.775,95.931 127.84,87.056 145.34,71.318 		"/>
		<polygon fill="#57A653" points="145.34,71.318 165.907,58.341 169.012,57.349 169.012,64.871 		"/>
		<polygon fill="#57A653" points="165.907,58.341 169.219,45.136 178.516,43.491 169.012,57.349 		"/>
		<polygon fill="#86C77C" points="157.379,63.763 161.039,57.905 169.012,57.349 		"/>
		<polygon opacity="0.2" fill="#2F3583" enable-background="new    " points="21.515,51.272 15.788,62.8 4.984,63.533 9.854,69.824 
			31.246,83.561 63.225,111.033 66.151,101.259 40.781,73.458 		"/>
		<g>
			<polygon fill="#85D3EE" points="105.207,72.275 107.071,69.824 111.866,91.009 			"/>
			<polygon fill="#5EBFDF" points="107.071,69.824 111.866,91.009 112.723,81.152 108.946,72.275 			"/>
			<polygon fill="#45B2D0" points="106.504,75.916 105.75,79.779 107.715,94.447 109.797,85.183 			"/>
			<polygon fill="#85D3EE" points="109.797,85.183 107.715,94.447 112.278,105.355 			"/>
			<polygon fill="#45B2D0" points="109.797,85.183 112.278,105.355 115.65,105.791 111.866,91.009 			"/>
			<polygon fill="#85D3EE" points="111.801,90.818 112.489,83.71 115.844,106.779 			"/>
			<polygon fill="#5EBFDF" points="113.547,91.009 117.285,101.109 117.094,105.791 115.543,105.632 			"/>
			<polygon fill="#5EBFDF" points="107.715,94.447 109.107,104.845 105.75,108.529 112.278,105.355 			"/>
			<g>
				<polygon fill="#85D3EE" points="106.435,107.882 115.129,103.759 119.644,104.029 124.473,106.796 115.453,105.642 				"/>
			</g>
			<polygon fill="#45B2D0" points="112.184,105.148 109.33,104.574 105.973,108.257 			"/>
			<polygon fill="#45B2D0" points="117.285,101.109 115.129,103.759 119.644,104.029 			"/>
			<polygon fill="#45B2D0" points="105.207,72.275 104.746,72.275 104.525,70.605 107.071,69.824 			"/>
		</g>
		<g>
			<polygon fill="#85D3EE" points="94.844,72.275 96.703,69.824 101.504,91.009 			"/>
			<polygon fill="#5EBFDF" points="96.703,69.824 101.504,91.009 103.262,83.955 98.578,72.275 			"/>
			<polygon fill="#45B2D0" points="96.137,75.916 95.383,79.779 97.348,94.447 99.435,85.183 			"/>
			<polygon fill="#85D3EE" points="99.435,85.183 97.348,94.447 101.91,105.355 			"/>
			<polygon fill="#45B2D0" points="99.435,85.183 101.91,105.355 105.281,105.791 101.504,91.009 			"/>
			<polygon fill="#85D3EE" points="101.504,91.009 102.711,86.164 105.281,105.791 			"/>
			<polygon fill="#5EBFDF" points="103.435,91.666 106.918,101.109 106.435,107.882 105.281,105.791 			"/>
			<polygon fill="#45B2D0" points="94.844,72.275 94.379,72.275 94.156,70.605 96.703,69.824 			"/>
			<polygon fill="#5EBFDF" points="97.348,94.447 98.74,104.845 96.035,106.292 101.91,105.355 			"/>
		</g>
		<g>
			<polygon fill="#85D3EE" points="74.593,72.275 76.452,69.824 81.252,91.009 			"/>
			<polygon fill="#5EBFDF" points="76.452,69.824 81.252,91.009 83.013,83.955 78.328,72.275 			"/>
			<polygon fill="#45B2D0" points="75.889,75.916 75.137,79.779 77.102,94.447 79.183,85.183 			"/>
			<polygon fill="#85D3EE" points="79.183,85.183 77.102,94.447 81.662,105.355 			"/>
			<polygon fill="#45B2D0" points="79.183,85.183 79.504,94.447 81.662,105.355 85.031,105.791 81.252,91.009 			"/>
			<polygon fill="#85D3EE" points="81.252,91.009 82.46,86.164 85.031,105.791 			"/>
			<polygon fill="#5EBFDF" points="83.183,91.666 86.67,101.109 86.183,107.882 85.031,105.791 			"/>
			<polygon fill="#5EBFDF" points="77.102,94.447 78.122,104.574 75.146,108.134 81.662,105.355 			"/>
			<g>
				<polygon fill="#FFFFFF" points="75.146,108.134 84.936,103.646 89.029,104.029 94.09,106.931 85.179,105.558 				"/>
				<polygon fill="#4488AA" points="75.146,108.134 85.613,107.96 91.25,112.734 85.179,105.558 				"/>
				<polygon fill="#5EBFDF" points="85.179,105.558 93.478,106.57 98.289,107.914 90.883,112.468 				"/>
			</g>
			<polygon fill="#45B2D0" points="86.67,101.109 86.482,103.791 89.029,104.029 			"/>
			<polygon fill="#45B2D0" points="74.593,72.275 74.13,72.275 73.907,70.605 76.452,69.824 			"/>
		</g>
		<path fill="#5EBFDF" d="M64.925,105.355c0.716-0.023,13.197-0.779,13.197-0.779l-7.469,8.928l-7.431-2.469L64.925,105.355z"/>
		<polygon fill="#85D3EE" points="94.485,105.355 93.478,106.57 98.996,111.479 106.435,107.882 98.74,107.939 		"/>
		<polyline opacity="0.2" fill="#2F3583" enable-background="new    " points="101.832,105.164 98.74,107.939 106.435,107.882 
			101.832,105.164 		"/>
		<polygon fill="#45B2D0" points="63.225,111.033 65.816,102.115 65.916,100.873 68.818,101.693 73.491,104.855 		"/>
		<polygon opacity="0.2" fill="#2F3583" enable-background="new    " points="63.225,111.033 75.146,108.134 70.653,113.501 		"/>
		<polyline fill="#85D3EE" points="82.918,119.451 94.586,116.898 90.987,112.468 75.25,108.134 		"/>
		<polygon fill="#5EBFDF" points="90.883,112.468 94.485,116.898 111.866,109.908 		"/>
		<polygon opacity="0.2" fill="#2F3583" enable-background="new    " points="36.571,30.127 31.922,34.92 40.555,32.679 		"/>
		<polygon opacity="0.3" fill="#006838" enable-background="new    " points="31.922,34.92 40.555,38.04 33.485,41.218 
			48.279,41.677 52.641,47.534 32.396,41.706 		"/>
		<polygon opacity="0.3" fill="#006838" enable-background="new    " points="79.013,37.05 94.844,35.761 88.21,32.679 		"/>
		<polygon opacity="0.3" fill="#006838" enable-background="new    " points="111.866,40.888 143.525,39.708 147.434,47.263 
			131.836,43.95 		"/>
		<polyline fill="#4488AA" points="106.918,101.109 106.969,101.179 109.33,104.574 106.435,107.882 		"/>
		<path fill="#45B2D0" d="M95.86,106.193"/>
		<polygon fill="#5EBFDF" points="88.657,103.759 93.478,106.57 94.485,105.355 		"/>
		<polygon fill="#45B2D0" points="78.122,104.574 75.25,108.134 81.675,105.253 		"/>
		<polygon fill="#4488AA" points="111.721,109.958 115.383,105.611 118.293,106.039 		"/>
		<polygon fill="#85D3EE" points="94.586,116.898 114.789,113.91 109.33,119.451 		"/>
		<polygon fill="#85D3EE" points="114.789,113.91 107.969,111.479 104.525,112.861 		"/>
		<polygon fill="#85D3EE" points="104.525,112.861 101.055,114.259 99,111.479 		"/>
		<polyline fill="#5EBFDF" points="87.126,118.533 82.918,119.451 89.571,124.042 111.866,119.451 94.586,116.898 		"/>
		<polygon fill="#B3E2F4" points="81.042,116.683 82.918,119.451 94.485,116.898 		"/>
		<polygon fill="#FFFFFF" points="94.485,105.355 98.74,107.939 106.918,107.958 100.719,110.646 		"/>
		<polygon fill="#FFFFFF" points="92.984,115.052 94.485,116.898 104.525,112.861 		"/>
		<polyline fill="#FFFFFF" points="118.293,106.039 117.93,105.729 115.129,103.759 106.918,107.958 115.453,105.642 		"/>
		<polygon fill="#85D3EE" points="70.653,113.501 77.16,111.479 78.821,113.402 		"/>
		<polygon fill="#FFFFFF" points="77.16,111.479 85.179,113.91 78.821,113.402 		"/>
		<polygon opacity="0.2" fill="#2F3583" enable-background="new    " points="65.816,102.115 69.568,102.115 65.65,99.898 		"/>
		<polygon fill="#45B2D0" points="85.179,113.91 90.883,112.468 92.984,115.052 		"/>
		<g>
			<g>
				<path fill="#BFB99B" d="M46.613,34.327c1.189,0,4.195-1.799,1.607-1.799C47.031,32.526,44.027,34.327,46.613,34.327
					L46.613,34.327z"/>
			</g>
		</g>
		<polygon fill="#FFFFFF" points="69.568,102.115 73.491,105.816 78.122,104.574 73.907,104.855 		"/>
		<polygon fill="#FFFFFF" points="104.525,112.861 114.789,113.91 110.948,114.48 		"/>
		<polygon fill="#85D3EE" points="89.571,124.042 93.698,120.814 111.866,119.451 		"/>
		<polygon fill="#85D3EE" points="126.366,102.564 128.491,108.783 124.641,111.257 128.223,115.552 111.866,119.451 
			114.789,113.91 124.473,106.796 		"/>
		<path fill="#85D3EE" d="M126.366,102.564"/>
		<polygon fill="#77BA70" points="130.076,98.083 126.366,102.564 128.491,108.783 		"/>
		<polygon fill="#86C77C" points="130.076,98.083 128.491,108.783 138.071,100.628 		"/>
		<polygon opacity="0.2" fill="#2F3583" enable-background="new    " points="178.516,43.491 169.219,45.136 158.883,49.995 
			145.866,60.618 145.34,71.318 127.84,87.056 121.775,95.931 126.366,102.564 128.491,108.783 138.071,100.628 140.943,89.119 
			169.012,64.871 169.012,57.349 		"/>
		<polygon opacity="0.2" fill="#2F3583" enable-background="new    " points="78.821,113.402 67.318,116.683 81.042,116.683 		"/>
		<polygon fill="#4488AA" points="82.918,119.451 79.735,120.189 89.571,124.042 		"/>
		<path fill="#5EBFDF" d="M128.223,115.552c-0.516,0.12-13.434-1.643-13.434-1.643l9.852-2.652L128.223,115.552z"/>
		<polygon fill="#45B2D0" points="89.571,124.042 117.758,121.507 111.866,119.451 		"/>
		<polygon fill="#45B2D0" points="93.698,120.814 94.485,116.898 101.91,120.201 		"/>
		<polygon fill="#5EBFDF" points="128.223,115.552 111.866,119.451 117.758,121.507 		"/>
		<polygon fill="#4488AA" points="124.641,111.257 118.107,111.479 114.789,113.91 		"/>
		<polygon fill="#85D3EE" points="111.866,119.451 112.293,121.791 117.758,121.507 		"/>
		<polygon fill="#5EBFDF" points="65.816,102.115 58.599,107.061 63.225,111.033 		"/>
		<polygon fill="#45B2D0" points="126.366,102.564 134.778,103.436 128.491,108.783 		"/>
		<path fill="#45B2D0" d="M128.491,108.783"/>
		<polygon fill="#5EBFDF" points="124.473,106.796 128.491,108.783 123.241,107.701 		"/>
		<polygon fill="#FFFFFF" points="128.491,108.783 124.473,106.796 118.107,111.479 124.305,108.257 		"/>
		<polygon fill="#FFFFFF" points="103.969,121.078 109.478,118.066 116.196,120.958 110.525,119.664 		"/>
		<polygon fill="#FFFFFF" points="84.349,103.914 81.252,91.009 82.109,87.582 78.5,79.546 78.122,73.816 78.328,72.275 
			76.452,69.824 74.181,70.525 76.452,71.318 78.122,79.556 79.183,85.183 77.16,94.181 79.781,86.871 81.252,96.436 		"/>
		<g>
			<polygon fill="#FFFFFF" points="83.876,70.605 86.425,69.824 88.298,72.275 86.927,72.035 89.844,78.509 89.571,84.701 
				86.425,72.828 85.494,71.046 			"/>
			<polygon fill="#FFFFFF" points="89.571,84.701 87.069,94.447 89.525,88.21 91.223,91.009 			"/>
			<polygon fill="#FFFFFF" points="91.223,91.009 93.153,98.398 92.984,104.845 95.004,105.791 93.957,96.699 			"/>
		</g>
		<g>
			<polygon fill="#FFFFFF" points="104.59,70.605 107.133,69.824 109.008,72.275 107.635,72.035 110.551,78.509 110.278,84.701 
				107.133,72.828 106.198,71.046 			"/>
			<polygon fill="#FFFFFF" points="110.278,84.701 107.778,94.447 110.234,88.21 111.934,91.009 			"/>
			<polygon fill="#FFFFFF" points="111.934,91.009 113.301,97.294 112.278,105.355 114.668,96.699 			"/>
		</g>
		<polygon fill="#FFFFFF" points="95.43,69.966 94.844,72.275 96.641,71.318 99,81.152 97.807,72.828 99.898,75.561 98.578,72.275 
			96.703,69.824 		"/>
		<polygon fill="#FFFFFF" points="99.898,75.561 103.262,83.955 102.711,86.164 103.435,91.666 101.504,91.009 103.435,98.554 
			99.435,85.183 102.071,88.727 101.762,84.701 		"/>
		<polygon fill="#FFFFFF" points="99.435,85.183 97.348,94.447 100.185,87.697 		"/>
		<polygon fill="#FFFFFF" points="101.504,91.009 104.198,104.951 106.435,107.77 104.86,102.564 		"/>
		<polygon fill="#FFFFFF" points="114.668,96.699 117.285,101.109 113.912,98.398 		"/>
		<polygon fill="#FFFFFF" points="81.252,96.436 81.675,105.253 82.276,98.902 		"/>
		<polygon fill="#7BCBE4" points="31.246,30.127 31.562,30.088 36.237,29.511 38.137,31.129 		"/>
	</g>
	<polygon fill="#A8D38D" points="31.922,34.92 9.323,36.644 22.464,46.168 	"/>
	<polygon fill="#A8D38D" points="143.525,39.708 147.434,47.263 178.516,43.491 	"/>
</g>
</svg>
